<?xml version="1.0" encoding="UTF-8" standalone="no"?><svg xmlns:svg="http://www.w3.org/2000/svg" xmlns="http://www.w3.org/2000/svg" version="1.1" style="overflow:visible" viewBox="-250 -250 500 500" height="2000px" width="2000px"><rect fill-opacity="0" fill="rgb(0,0,0)" height="500" width="500" y="-250" x="-250" /><svg version="1.1" y="-250" x="-250" viewBox="-250 -250 500 500" height="500px" width="500px" style="overflow:visible"><g transform="rotate(0,0,0)" stroke-linejoin="round" fill="#fff"><path stroke-linecap="butt" stroke-linejoin="round" stroke-width="6" stroke-opacity="1" stroke="rgb(68,68,68)" fill="rgb(0,46,255)" d="m-9.76 19.682999s11.8593 23.9399 16.4056 25.6818c3.21646 1.23237 5.55968-0.2305 9.0014-5.79104c3.4417-5.56054 2.67986-7.96926 1.37783-10.5943c-1.62021-3.26649-26.7849-9.29646-26.7849-9.29646z" /><path stroke-linecap="butt" stroke-linejoin="round" stroke-width="6" stroke-opacity="1" stroke="rgb(68,68,68)" fill="rgb(255,0,0)" d="m52.985-21.301c8.05538-7.77914 19.7633-19.8597 29.6467-24.4028c16.826 5.04657 69.993 24.1197 91.0316 37.3083l-88.8129 4.47566z" /><path stroke-linecap="butt" stroke-linejoin="round" stroke-width="6" stroke-opacity="1" stroke="rgb(68,68,68)" fill="rgb(0,46,255)" d="m62.872999 17.396c6.70709 6.81276 12.9461 14.1078 22.991 17.4811l43.4652-27.1129z" /><path stroke-linecap="butt" stroke-linejoin="round" stroke="none" fill="rgb(178,0,255)" d="m226.999-33.207c-20.6687 2.56571-42.4854 22.0758-47.8371 22.4336l11.7807 8.47018l-9.76904 6.19786c6.92065 3.89803 21.8446 22.2503 44.4821 26.5177c-5.06922-10.9998-15.2986-26.9634-15.3266-32.3582c-0.0261-5.01927 10.6352-22.7806 16.67-31.2612z" /><path stroke-linecap="butt" stroke-linejoin="round" stroke="none" fill="rgb(254,128,251)" d="m-63.085001-30.154c-36.6952 0.7305-67.1682 2.40771-79.3543 3.77765c-23.603 2.65341-58.4158 6.88988-84.5613 18.7791l197.649 22.6606l208.519-18.868l2.66337-0.23248c-0.17231-2.34938-1.27858-4.56294-2.66896-6.73576c-6.35176 0.42452-59.6942-10.6946-95.4857-14.8288c-42.116-4.86471-99.582-5.49159-146.762-4.55235z" /><path stroke-linecap="butt" stroke-linejoin="round" stroke="none" fill="rgb(255,218,0)" d="m-45.831-17.112c-63.7057 0.90858-124.628 5.01447-181.169 9.5149c32.2718 21.2431 74.2101 26.6932 114.028 30.2844c28.6271 2.58193 113.522 3.82679 169.103-0.87477c42.5028-3.59527 118.3-18.9818 123.044-18.6488c2.1335-2.58232 2.82259-4.95361 2.65778-7.20073c-78.3642-8.82052-159.119-13.8973-227.662-13.075z" /><path stroke-linecap="butt" stroke-linejoin="round" stroke="none" fill="rgb(0,255,58)" d="m-70.688-5.066001c-23.7828 0.65155-42.6634 1.5566-53.3943 2.73049l0.49816 4.62185c20.8043-2.27583 75.102-3.58801 135.727-3.91642c60.6246-0.32843 127.733 0.30491 174.693 1.83948l0.14791-4.64789c-47.0613-1.53786-114.192-2.16999-174.867-1.84129c-30.3374 0.16433-59.022 0.56222-82.8048 1.21372z" /><path stroke-linecap="butt" stroke-linejoin="round" stroke="none" fill="rgb(222,224,233)" d="m184.046-11.183c-1.60012 0.0405-3.23623 0.17321-4.88385 0.41032l0.0112 13.9365c0.56801 0.0398 1.23736 0.30174 2.00047 0.73155c12.0815 3.94819 23.6784-0.33638 23.4843-6.51673c-0.23008-7.32185-9.41124-8.84578-20.6121-8.56163z" /><path stroke-linecap="butt" stroke-linejoin="round" stroke="none" fill="rgb(88,105,139)" d="m-144.739-3.385c7.1068 1.77903 12.2574 1.73481 20.4933-0.6741c1.47385-0.4311 2.38645 4.36492 4.65847 7.33384c1.89751 2.47955 4.05456 6.48783 2.3014 6.6546c-10.4239 0.99163-19.7539-1.00528-28.7465-8.56111c-1.90591-1.60141-0.82362-5.28317 1.29333-4.75323z" /><path stroke-linecap="butt" stroke-linejoin="round" stroke="none" fill="rgb(255,255,255)" d="m-179.008-5.949001c0.05981 3.81577-2.98907 6.9576-6.80985 7.01748c-3.82077 0.0599-6.96658-2.98487-7.02638-6.80062c-0.0598-3.81575 2.98906-6.95758 6.80983-7.01747c3.82077-0.0599 6.9666 2.98485 7.0264 6.80061z" /><path stroke-linecap="butt" stroke-linejoin="round" stroke="none" fill="rgb(88,105,139)" d="m-182.467101-5.895001c0.02991 1.90788-1.49453 3.4788-3.40492 3.50875c-1.91039 0.0299-3.48331-1.49244-3.5132-3.40033c-0.02989-1.90787 1.49454-3.47877 3.40492-3.50872c1.91038-0.0299 3.48329 1.49242 3.5132 3.4003z" /><path stroke-linecap="butt" stroke-linejoin="round" stroke-width="6" stroke-opacity="1" stroke="rgb(68,68,68)" fill="none" d="m-227.0003-7.598001c26.1456-11.8892 60.959-16.1247 84.562-18.7781c27.8538-3.13127 151.243-7.87403 226.115 0.77432c35.7915 4.13419 89.134 15.2536 95.4858 14.8291c5.35175-0.35771 27.1687-19.8686 47.8374-22.4343c-6.03478 8.4806-16.6968 26.2417-16.6707 31.261c0.028 5.39474 10.2564 21.3583 15.3256 32.3581c-25.1336-4.73794-40.7625-26.8482-46.4818-27.2497c-4.74371-0.33296-80.5414 15.0551-123.044 18.6504c-55.5812 4.70158-140.476 3.45521-169.103 0.87329c-39.8175-3.59121-81.7549-9.04092-114.027-30.284z" /></g></svg></svg>