<svg xmlns="http://www.w3.org/2000/svg" width="291" height="527" fill="none" viewBox="0 0 291 527">
  <path fill="#F8F1F1" stroke="#CFB997" stroke-width="5" d="M2.5 524.5V2.5h286v522z"/>
  <rect width="256" height="379" x="19.5" y="85.5" fill="#FEEBE9" stroke="#ED7D31" stroke-width="5" rx="5.5"/>
  <rect width="311" height="199" x="61.5" y="419.5" fill="#D7C09D" stroke="#4F4A45" stroke-width="5" rx="7.5" transform="rotate(-90 61.5 419.5)"/>
  <rect width="174" height="83" x="248.5" y="205.5" fill="#FFBB5C" stroke="#6C5F5B" stroke-width="3" rx="2.5" transform="rotate(180 248.5 205.5)"/>
  <rect width="173" height="81" x="247.5" y="402.5" fill="#FFBB5C" stroke="#6C5F5B" stroke-width="3" rx="2.5" transform="rotate(180 247.5 402.5)"/>
  <rect width="173" height="84" x="247.5" y="305.5" fill="#FFBB5C" stroke="#6C5F5B" stroke-width="3" rx="2.5" transform="rotate(180 247.5 305.5)"/>
  <path fill="#000" d="M151.544 376.704V362.4h8.904v11.952c0 1.568-.952 2.352-2.856 2.352h-1.416a7.337 7.337 0 0 0-.12-.864 17.753 17.753 0 0 0-.216-.984 3.125 3.125 0 0 0-.24-.792h1.272c.32 0 .544-.048.672-.144.144-.096.216-.296.216-.6v-1.656h-3.48v5.04h-2.736Zm-1.488-15.72v-2.472h5.808a24.332 24.332 0 0 0-.744-1.416c-.272-.48-.512-.832-.72-1.056l2.592-1.224c.32.416.68.976 1.08 1.68s.728 1.376.984 2.016h3.216c.24-.352.488-.76.744-1.224.256-.48.496-.944.72-1.392.24-.464.416-.848.528-1.152l2.976.744a14.14 14.14 0 0 1-.744 1.464c-.32.544-.648 1.064-.984 1.56h6.384v2.472h-21.84Zm15.288 15.72a7.995 7.995 0 0 0-.12-.912 19.569 19.569 0 0 0-.216-1.032 4.377 4.377 0 0 0-.264-.84h1.8c.32 0 .552-.048.696-.144.144-.112.216-.32.216-.624v-10.944h2.784v12c0 1.664-.984 2.496-2.952 2.496h-1.944Zm-3.024-4.152v-9.84h2.784v9.84h-2.784Zm-8.04-6.432h3.48v-1.56h-3.48v1.56Zm0 3.528h3.48v-1.536h-3.48v1.536Zm16.488-193.584c-2.032-.192-3.904-.72-5.616-1.584-1.712-.848-3.064-2.048-4.056-3.6-.832 1.504-2.048 2.672-3.648 3.504-1.6.832-3.688 1.384-6.264 1.656a10.69 10.69 0 0 0-.288-.792 11.742 11.742 0 0 0-.432-.912 4.597 4.597 0 0 0-.408-.72c2.144-.176 3.896-.528 5.256-1.056 1.376-.528 2.408-1.272 3.096-2.232h-8.352V168h2.16v-12.552h6.312c.128-.304.264-.648.408-1.032.16-.4.272-.704.336-.912l3.048.216c-.064.176-.16.432-.288.768-.112.32-.232.64-.36.96h8.112V168h2.208v2.328h-8.256c.944.96 2.128 1.696 3.552 2.208 1.44.512 3.04.848 4.8 1.008-.24.304-.488.704-.744 1.2-.256.512-.448.952-.576 1.32ZM154.904 168h4.512a9.13 9.13 0 0 0 .192-1.392l2.76.24-.216 1.152h4.944v-10.368h-12.192V168Zm1.608-.864c-.144-.272-.376-.584-.696-.936-.304-.352-.576-.608-.816-.768.544-.24 1.152-.584 1.824-1.032.688-.464 1.288-.92 1.8-1.368h-3.072v-1.992h1.704a11.52 11.52 0 0 0-.744-1.008c-.272-.368-.52-.672-.744-.912l1.632-1.056c.32.32.664.712 1.032 1.176.368.464.656.872.864 1.224-.08.048-.208.128-.384.24-.16.096-.328.208-.504.336h1.392v-2.904h2.352v2.904h.36c.144-.224.312-.512.504-.864.208-.352.408-.72.6-1.104.192-.4.344-.752.456-1.056l1.992.72c-.144.304-.336.672-.576 1.104-.24.432-.472.832-.696 1.2h1.632v1.992h-2.904c.528.4 1.112.8 1.752 1.2.64.4 1.208.712 1.704.936-.144.112-.312.28-.504.504-.192.224-.376.456-.552.696a8.92 8.92 0 0 0-.384.576 19.069 19.069 0 0 1-1.728-1.104 17.901 17.901 0 0 1-1.656-1.416v1.872H159.8v-1.704c-.496.496-1.024.968-1.584 1.416-.56.432-1.128.808-1.704 1.128Zm3.024 109.664v-7.728h-8.712v-9.552h8.712v-4.584h2.952v4.584h8.712v9.552h-8.712v7.728h-2.952Zm2.952-10.512h5.736v-4.128h-5.736v4.128Zm-8.64 0h5.688v-4.128h-5.688v4.128Z"/>
  <rect width="141" height="30" x="91" y="427" fill="#ED7D31" rx="4"/>
  <path fill="#fff" d="M109.372 448.377a.812.812 0 0 1-1.096-.437.768.768 0 0 1-.015-.63.821.821 0 0 1 .452-.466c2.031-.88 3.8-1.989 5.305-3.327 1.518-1.351 2.7-2.894 3.547-4.631.206-.443.237-.779.094-1.007-.131-.229-.497-.344-1.097-.347l-2.61-.01a23.934 23.934 0 0 1-1.971 2.279 15.204 15.204 0 0 1-2.203 1.863.845.845 0 0 1-.631.142.782.782 0 0 1-.539-.344.892.892 0 0 1-.123-.631.782.782 0 0 1 .344-.539c.71-.489 1.39-1.056 2.041-1.702a17.164 17.164 0 0 0 1.754-2.027c.531-.706.948-1.394 1.251-2.065a.824.824 0 0 1 .469-.43.768.768 0 0 1 .63.02.762.762 0 0 1 .43.47.768.768 0 0 1-.02.63c-.049.12-.103.239-.164.359l-.199.359 1.548.006c1.32.006 2.207.333 2.66.983.465.638.408 1.543-.173 2.717-.92 1.869-2.217 3.562-3.891 5.079-1.674 1.506-3.605 2.734-5.793 3.686Zm12.214-11.239a.636.636 0 0 1-.487.16.647.647 0 0 1-.431-.236 12.371 12.371 0 0 0-1.165-1.228.577.577 0 0 1-.196-.397.527.527 0 0 1 .164-.431.538.538 0 0 1 .432-.179.699.699 0 0 1 .45.164c.179.133.388.32.627.561.251.229.467.439.646.632a.605.605 0 0 1 .178.487.715.715 0 0 1-.218.467Zm1.5-1.488a.634.634 0 0 1-.918-.04 9.334 9.334 0 0 0-.591-.614 8.867 8.867 0 0 0-.61-.561.578.578 0 0 1-.215-.378.535.535 0 0 1 .146-.45.547.547 0 0 1 .415-.196c.168 0 .324.049.467.146.18.12.395.295.646.524.263.229.491.44.682.633.131.12.191.277.178.468a.642.642 0 0 1-.2.468Zm5.943 12.515a.809.809 0 0 1-.647-.057.824.824 0 0 1-.412-.487.769.769 0 0 1 .056-.63.829.829 0 0 1 .488-.412c1.514-.486 2.843-1.177 3.986-2.073 1.144-.895 1.994-1.906 2.551-3.032.29-.599.352-1.043.185-1.331-.167-.289-.598-.434-1.294-.437l-6.462-.025-.216-.109a2.62 2.62 0 0 1-.413-.29.544.544 0 0 1-.196-.414.788.788 0 0 1 .236-.576.845.845 0 0 1 .595-.231l6.462.025c1.464.006 2.405.387 2.822 1.145.429.757.347 1.747-.246 2.969-.654 1.341-1.637 2.532-2.949 3.57-1.3 1.039-2.815 1.838-4.546 2.395Zm-.384-11.756a.842.842 0 0 1-.593-.236.785.785 0 0 1-.232-.577.782.782 0 0 1 .237-.575.845.845 0 0 1 .595-.232l6.695.026c.228.001.42.08.576.236.167.157.25.349.249.577a.757.757 0 0 1-.254.575.781.781 0 0 1-.577.232l-6.696-.026Zm19.498 12.424a.865.865 0 0 1-.648-.003.822.822 0 0 1-.448-.451.815.815 0 0 1 .002-.63.766.766 0 0 1 .434-.449c1.334-.558 2.423-1.166 3.265-1.823.843-.657 1.506-1.35 1.989-2.08a7.755 7.755 0 0 0 1.035-2.228c.134-.492.213-.887.239-1.187.025-.312-.022-.552-.141-.721-.191-.277-.611-.464-1.258-.563-.636-.098-1.506-.15-2.61-.154a29.91 29.91 0 0 0-2.016.046c-.504.022-.894.075-1.17.158a1.241 1.241 0 0 0-.614.393c-.133.156-.206.426-.219.81-.002.384.062.99.19 1.818a.844.844 0 0 1-.146.63.803.803 0 0 1-.541.322.843.843 0 0 1-.63-.147.799.799 0 0 1-.322-.541c-.163-1.033-.238-1.861-.224-2.485.015-.624.215-1.139.601-1.546.253-.275.554-.49.902-.644.361-.155.817-.267 1.37-.337a19.08 19.08 0 0 1 2.088-.118l.009-2.268a.776.776 0 0 1 .255-.593.844.844 0 0 1 .595-.231c.228 0 .419.079.575.236.167.156.25.355.249.595l-.009 2.268c1.212.028 2.154.14 2.825.335.683.182 1.198.502 1.544.96.346.445.494.938.444 1.477-.038.528-.167 1.176-.386 1.943-.231.851-.631 1.719-1.198 2.605-.568.886-1.345 1.723-2.333 2.511-.975.789-2.208 1.486-3.698 2.092Zm15.522-1.488a.772.772 0 0 1-.63-.02.83.83 0 0 1-.43-.47.768.768 0 0 1 .021-.63.89.89 0 0 1 .487-.448 28.237 28.237 0 0 0 2.957-1.267 33.57 33.57 0 0 0 2.833-1.609 22.989 22.989 0 0 0 2.473-1.808c.747-.621 1.367-1.231 1.862-1.829a.735.735 0 0 1 .559-.286.808.808 0 0 1 .611.183c.18.144.281.331.304.559a.808.808 0 0 1-.183.611c-.482.586-1.132 1.214-1.951 1.883a32.936 32.936 0 0 1-2.726 1.987 36.06 36.06 0 0 1-3.103 1.788c-1.059.548-2.087 1-3.084 1.356Zm1.864-6.977a16.076 16.076 0 0 0-.987-.796 23.252 23.252 0 0 0-1.094-.796c-.359-.253-.688-.47-.988-.652a.84.84 0 0 1-.376-.505.772.772 0 0 1 .093-.63.83.83 0 0 1 .523-.394.734.734 0 0 1 .63.111c.299.193.652.44 1.059.742.419.289.826.585 1.22.887.395.289.712.53.952.723.179.145.28.331.303.559a.752.752 0 0 1-.164.612.812.812 0 0 1-.559.322.724.724 0 0 1-.612-.183Zm19.335 8.337a.81.81 0 0 1-.593-.254.842.842 0 0 1-.232-.595l.05-12.42a.783.783 0 0 1 .237-.575.817.817 0 0 1 .595-.25c.24.001.437.086.593.255.167.156.25.349.249.577l-.05 12.42a.816.816 0 0 1-.254.593.776.776 0 0 1-.595.249Zm5.349-5.163a19.453 19.453 0 0 0-1.203-.869 41.858 41.858 0 0 0-1.4-.923 27.343 27.343 0 0 0-1.347-.833.847.847 0 0 1-.394-.488.82.82 0 0 1 .039-.63.763.763 0 0 1 .487-.394.861.861 0 0 1 .648.039c.479.242.976.525 1.491.851.526.315 1.029.64 1.508.978.49.338.915.658 1.274.959.179.157.28.355.303.595a.773.773 0 0 1-.2.612.86.86 0 0 1-.577.303.933.933 0 0 1-.629-.2Zm3.569-5.854a.584.584 0 0 1-.486.106.605.605 0 0 1-.413-.29 10.877 10.877 0 0 0-.483-.704 5.962 5.962 0 0 0-.519-.65.6.6 0 0 1-.161-.414.565.565 0 0 1 .218-.413.58.58 0 0 1 .468-.143.713.713 0 0 1 .432.236c.155.157.34.367.555.632.215.265.4.5.555.704a.556.556 0 0 1 .106.505.692.692 0 0 1-.272.431Zm-1.715 1.217a.63.63 0 0 1-.504.106.669.669 0 0 1-.395-.307 12.556 12.556 0 0 0-.948-1.408.565.565 0 0 1-.124-.414.568.568 0 0 1 .217-.414.528.528 0 0 1 .451-.106.8.8 0 0 1 .431.254c.155.156.334.373.537.65.203.265.382.505.537.722a.619.619 0 0 1 .07.504.62.62 0 0 1-.272.413Zm11.296 6.65c-.648-.003-1.158-.07-1.53-.204-.371-.133-.634-.362-.789-.687-.155-.325-.231-.763-.229-1.315l.03-7.218c.002-.564.082-1.002.239-1.313.157-.311.422-.532.795-.663.372-.13.882-.194 1.53-.192.66.003 1.17.071 1.53.204.371.133.634.356.789.669.155.313.231.751.229 1.315l-.03 7.218c-.002.552-.082.99-.239 1.313-.157.323-.422.55-.795.681-.36.131-.87.195-1.53.192Zm-4.932 4.337a.775.775 0 0 1-.539-.218c-.144-.133-.215-.313-.214-.541l.038-9.486a18.61 18.61 0 0 1-.96 1.598.857.857 0 0 1-.488.358.802.802 0 0 1-.611-.11.71.71 0 0 1-.23-1.027c.41-.586.815-1.269 1.214-2.047.412-.779.781-1.575 1.108-2.39.339-.815.594-1.564.765-2.247.061-.24.182-.401.362-.484a.824.824 0 0 1 .612-.052.73.73 0 0 1 .449.344c.095.168.106.366.034.594a25.935 25.935 0 0 1-.729 2.139l-.052 12.816a.671.671 0 0 1-.236.539.713.713 0 0 1-.523.214Zm10.495-.121a.82.82 0 0 1-.576-.219.804.804 0 0 1-.249-.577.783.783 0 0 1 .2-.593.966.966 0 0 1 .613-.267c.372-.035.643-.076.811-.123.18-.06.294-.167.343-.323.061-.156.092-.402.093-.738l.052-12.87c.001-.228.074-.407.218-.539a.779.779 0 0 1 .541-.214.713.713 0 0 1 .521.218.669.669 0 0 1 .232.541l-.053 13.176c-.004.936-.205 1.589-.602 1.96-.386.382-1.1.572-2.144.568Zm-.956-4a.77.77 0 0 1-.504-.182.659.659 0 0 1-.214-.505l.04-9.648c0-.204.073-.366.218-.485a.72.72 0 0 1 .504-.196.684.684 0 0 1 .504.2c.143.12.214.283.214.487l-.04 9.648a.65.65 0 0 1-.218.503.72.72 0 0 1-.504.178Zm-8.007 3.551a.716.716 0 0 1-.232-.505.628.628 0 0 1 .182-.503c.314-.287.639-.622.976-1.005a9.1 9.1 0 0 0 .851-1.112.566.566 0 0 1 .451-.287.762.762 0 0 1 .54.129.602.602 0 0 1 .304.433.69.69 0 0 1-.11.521c-.23.371-.513.76-.851 1.167-.338.407-.669.771-.994 1.094a.81.81 0 0 1-.541.25.756.756 0 0 1-.576-.182Zm7.002-.027a.762.762 0 0 1-.558.196.744.744 0 0 1-.539-.236 22.716 22.716 0 0 1-1.29-1.517 17.266 17.266 0 0 1-.537-.758c-.119-.181-.155-.361-.106-.541a.749.749 0 0 1 .326-.431.81.81 0 0 1 .522-.105c.18.012.324.103.431.271.143.205.322.439.537.704.215.265.436.524.663.777.227.253.43.464.61.632a.684.684 0 0 1 .195.505.61.61 0 0 1-.254.503Zm-3.597-5.072c.456.002.756-.063.901-.194.144-.144.217-.42.219-.828l.005-1.188-2.214-.008-.005 1.188c-.002.408.069.684.213.829.143.132.437.199.881.201Zm-1.084-3.496 2.214.008.009-2.088-2.214-.008-.009 2.088Zm.014-3.366 2.214.008.004-1.062c.002-.408-.069-.678-.213-.81-.143-.133-.443-.2-.899-.202-.444-.002-.738.063-.883.195-.144.131-.217.401-.219.809l-.004 1.062Z"/>
  <rect width="25" height="53" x="26" y="235" fill="#ED7D31" rx="4"/>
  <path fill="#fff" d="M35.48 260.504a.767.767 0 0 1-.512-.176c-.139-.107-.213-.267-.224-.48a.681.681 0 0 1 .16-.496.75.75 0 0 1 .512-.208c.416-.021.683-.08.8-.176.128-.107.192-.315.192-.624v-1.52h-.896c-.661 0-1.184-.069-1.568-.208a1.364 1.364 0 0 1-.8-.736c-.15-.352-.224-.843-.224-1.472a7.7 7.7 0 0 1 .016-.512c.021-.16.043-.309.064-.448-.395.267-.8.512-1.216.736a17 17 0 0 1-1.248.624.885.885 0 0 1-.592.048.63.63 0 0 1-.416-.336.62.62 0 0 1-.032-.512c.064-.171.197-.293.4-.368.49-.181.955-.384 1.392-.608.437-.235.853-.485 1.248-.752a10.92 10.92 0 0 0-.608-.56 10.73 10.73 0 0 0-.56-.48.519.519 0 0 1-.176-.4.631.631 0 0 1 .192-.416.597.597 0 0 1 .432-.192c.17 0 .325.059.464.176.15.117.352.288.608.512.256.213.475.411.656.592.245-.213.475-.427.688-.64.213-.213.41-.437.592-.672h-2.288a.537.537 0 0 1-.416-.176.614.614 0 0 1-.144-.4c0-.16.048-.299.144-.416a.537.537 0 0 1 .416-.176h3.104c.085-.128.16-.256.224-.384.064-.139.123-.272.176-.4l.064-.096a.834.834 0 0 0 .048-.08h-3.44c-.459 0-.779.075-.96.224-.17.139-.256.384-.256.736v.48c0 .203-.07.368-.208.496a.707.707 0 0 1-.496.176.706.706 0 0 1-.496-.192.67.67 0 0 1-.192-.496v-.48c0-.757.181-1.301.544-1.632.373-.331 1.013-.496 1.92-.496h3.664v-.816c0-.224.075-.4.224-.528a.785.785 0 0 1 .528-.192c.213 0 .395.064.544.192.15.128.224.304.224.528v.816h3.664c.917 0 1.557.165 1.92.496.373.331.56.875.56 1.632v.48c0 .203-.07.368-.208.496a.706.706 0 0 1-.496.192.745.745 0 0 1-.496-.176.644.644 0 0 1-.208-.496v-.48c0-.352-.085-.597-.256-.736-.17-.149-.49-.224-.96-.224h-4.016c.128.16.144.347.048.56l-.096.192a3.792 3.792 0 0 0-.096.208H41.4c.181 0 .32.059.416.176a.597.597 0 0 1 0 .816c-.096.117-.235.176-.416.176h-2.672a9.753 9.753 0 0 0 1.568 1.408c.203-.171.432-.379.688-.624.267-.245.459-.437.576-.576a.633.633 0 0 1 .448-.24.583.583 0 0 1 .464.144.63.63 0 0 1 .24.448.515.515 0 0 1-.176.432 20.415 20.415 0 0 1-1.2 1.088c.437.245.885.464 1.344.656.47.192.944.363 1.424.512.203.053.341.16.416.32.075.16.08.331.016.512a.622.622 0 0 1-.4.4.823.823 0 0 1-.576-.016 18.276 18.276 0 0 1-2.576-1.2c.032.128.053.272.064.432.01.16.016.331.016.512 0 .629-.08 1.12-.24 1.472-.15.352-.416.597-.8.736-.373.139-.89.208-1.552.208h-.656v1.728c0 .715-.176 1.216-.528 1.504-.341.299-.944.448-1.808.448Zm7.152-.528a15.502 15.502 0 0 1-1.68-.896 14.525 14.525 0 0 1-1.552-1.04.682.682 0 0 1-.24-.4.61.61 0 0 1 .128-.464.645.645 0 0 1 .416-.24.61.61 0 0 1 .464.128c.448.331.944.651 1.488.96.555.299 1.093.56 1.616.784.17.075.288.192.352.352.075.16.07.325-.016.496a.62.62 0 0 1-.432.352.799.799 0 0 1-.544-.032Zm-11.216-.016a.897.897 0 0 1-.592.08.572.572 0 0 1-.4-.352c-.085-.192-.096-.368-.032-.528.064-.149.192-.261.384-.336.33-.139.677-.304 1.04-.496a18.48 18.48 0 0 0 1.088-.64c.363-.224.677-.437.944-.64a.56.56 0 0 1 .464-.112c.181.021.32.107.416.256a.535.535 0 0 1 .112.448.628.628 0 0 1-.256.416c-.245.203-.55.427-.912.672a18.443 18.443 0 0 1-2.256 1.232Zm3.36-7.92c.117-.021.235-.032.352-.032h3.808a8.703 8.703 0 0 1-1.648-1.808h-.896a8.937 8.937 0 0 1-.752.96 13.31 13.31 0 0 1-.864.88Zm1.04 3.696h2.352c.523 0 .885-.043 1.088-.128.203-.096.32-.331.352-.704h-5.232c.032.373.15.608.352.704.203.085.565.128 1.088.128Zm-1.44-1.888h5.232c-.043-.341-.165-.555-.368-.64-.203-.085-.56-.128-1.072-.128h-2.352c-.512 0-.87.043-1.072.128-.192.085-.315.299-.368.64Zm2.016 18.64c-.576 0-1.03-.059-1.36-.176-.33-.117-.565-.32-.704-.608s-.208-.677-.208-1.168v-6.416c0-.501.07-.891.208-1.168.139-.277.373-.475.704-.592.33-.117.784-.176 1.36-.176.587 0 1.04.059 1.36.176.33.117.565.315.704.592.139.277.208.667.208 1.168v6.416c0 .491-.07.88-.208 1.168-.139.288-.373.491-.704.608-.32.117-.773.176-1.36.176Zm-4.368 3.872a.687.687 0 0 1-.48-.192.618.618 0 0 1-.192-.48v-8.432c-.267.501-.55.976-.848 1.424a.763.763 0 0 1-.432.32.715.715 0 0 1-.544-.096.632.632 0 0 1-.208-.912c.363-.523.72-1.131 1.072-1.824.363-.693.688-1.403.976-2.128.299-.725.523-1.392.672-2 .053-.213.16-.357.32-.432a.74.74 0 0 1 .544-.048.65.65 0 0 1 .4.304c.085.149.096.325.032.528a22.134 22.134 0 0 1-.64 1.904v11.392c0 .203-.07.363-.208.48a.632.632 0 0 1-.464.192Zm9.328-.144a.727.727 0 0 1-.512-.192.715.715 0 0 1-.224-.512.695.695 0 0 1 .176-.528.853.853 0 0 1 .544-.24c.33-.032.57-.069.72-.112.16-.053.261-.149.304-.288.053-.139.08-.357.08-.656v-11.44c0-.203.064-.363.192-.48a.687.687 0 0 1 .48-.192c.181 0 .336.064.464.192a.595.595 0 0 1 .208.48v11.712c0 .832-.176 1.413-.528 1.744-.341.341-.976.512-1.904.512Zm-.864-3.552a.677.677 0 0 1-.448-.16.581.581 0 0 1-.192-.448v-8.576c0-.181.064-.325.192-.432a.644.644 0 0 1 .448-.176.61.61 0 0 1 .448.176.534.534 0 0 1 .192.432v8.576a.581.581 0 0 1-.192.448.639.639 0 0 1-.448.16Zm-7.104 3.184a.635.635 0 0 1-.208-.448.557.557 0 0 1 .16-.448c.277-.256.565-.555.864-.896a8.09 8.09 0 0 0 .752-.992.5.5 0 0 1 .4-.256.678.678 0 0 1 .48.112c.15.085.24.213.272.384a.61.61 0 0 1-.096.464 9.289 9.289 0 0 1-.752 1.04c-.299.363-.592.688-.88.976a.723.723 0 0 1-.48.224.673.673 0 0 1-.512-.16Zm6.224-.048a.678.678 0 0 1-.496.176.658.658 0 0 1-.48-.208 19.818 19.818 0 0 1-1.152-1.344 15.18 15.18 0 0 1-.48-.672.572.572 0 0 1-.096-.48.662.662 0 0 1 .288-.384.726.726 0 0 1 .464-.096.48.48 0 0 1 .384.24c.128.181.288.389.48.624s.39.464.592.688c.203.224.384.411.544.56a.607.607 0 0 1 .176.448.546.546 0 0 1-.224.448Zm-3.216-4.496c.405 0 .672-.059.8-.176.128-.128.192-.373.192-.736v-1.056h-1.968v1.056c0 .363.064.608.192.736.128.117.39.176.784.176Zm-.976-3.104h1.968v-1.856h-1.968v1.856Zm0-2.992h1.968v-.944c0-.363-.064-.603-.192-.72-.128-.117-.395-.176-.8-.176-.395 0-.656.059-.784.176-.128.117-.192.357-.192.72v.944Z"/>
  <path fill="#000" d="m118.561 69.777.001-1.407 17.892.014-.001 1.407-17.892-.014Zm23.935 7.264.012-16.002 12.012.01-.012 16.002-12.012-.01Zm1.408-1.3 9.198.007.005-6.216-9.198-.008-.005 6.216Zm.006-7.498 9.198.008.004-5.901-9.198-.008-.004 5.901Zm19.522 9.277.014-16.737 12.138.01-.014 16.737-12.138-.01Zm1.366-1.259 9.429.008.003-4.011-9.429-.008-.003 4.011Zm.004-5.292 9.429.008.003-3.822-9.429-.008-.003 3.822Zm.004-5.103 9.429.008.004-3.822-9.429-.008-.004 3.822Z"/>
  <rect width="118" height="30" x="85.5" y="483.5" fill="#889EAF" stroke="#6C5F5B" rx="4.5"/>
  <path fill="#889EAF" d="M124.199 499.237h8.636v1.071h-8.636v-1.071Zm4.828-1.513h1.156v6.902c0 .578-.119.901-.544 1.088-.408.187-1.054.187-2.074.187a4.223 4.223 0 0 0-.408-1.054 70.15 70.15 0 0 0 1.598.017c.204-.017.272-.068.272-.255v-6.885Zm-.221 2.21.918.391c-1.156 1.836-3.298 3.621-5.168 4.539-.204-.289-.544-.697-.816-.918 1.87-.765 3.978-2.38 5.066-4.012Zm-6.647-6.069h4.726v.935h-4.726v-.935Zm7.837 0h4.811v.935h-4.811v-.935Zm4.284-2.414h1.275v13.209c0 .85-.204 1.258-.765 1.479-.578.204-1.547.221-3.043.221a5.08 5.08 0 0 0-.476-1.309c1.139.051 2.244.034 2.584.017.306 0 .425-.102.425-.425v-13.192Zm-12.019 0h5.44v5.848h-5.44v-.986h4.233v-3.876h-4.233v-.986Zm12.648 0v.986h-4.454v3.91h4.454v.969h-5.678v-5.865h5.678Zm-13.379 0h1.258v14.926h-1.258v-14.926Zm25.738 1.819c.425.629 1.224 1.904 1.615 2.72l-1.003.442c-.425-.901-1.02-1.955-1.581-2.737l.969-.425Zm2.193-.867c.442.595 1.258 1.87 1.666 2.669l-.969.476a21.188 21.188 0 0 0-1.649-2.703l.952-.442Zm-6.902-.527a20.227 20.227 0 0 0-.17 1.717c-.068 1.921-.204 5.95-.204 8.483 0 1.87 1.173 2.516 2.788 2.516 3.111 0 4.879-1.734 6.103-3.502l.952 1.156c-1.156 1.598-3.349 3.74-7.089 3.74-2.448 0-4.131-1.003-4.131-3.791 0-2.516.17-6.817.17-8.602 0-.629-.034-1.224-.153-1.717h1.734Zm15.487.612c.374.034.85.051 1.19.051.901 0 4.93-.119 5.831-.204.51-.051.748-.085.935-.153l.782 1.003c-.306.204-.646.425-.969.68-.833.646-3.145 2.635-4.471 3.723.782-.255 1.598-.34 2.363-.34 2.822 0 4.845 1.683 4.845 3.978 0 2.737-2.261 4.522-5.865 4.522-2.312 0-3.723-1.003-3.723-2.431 0-1.156 1.054-2.21 2.618-2.21 2.261 0 3.4 1.598 3.519 3.315l-1.224.204c-.102-1.445-.935-2.482-2.295-2.482-.782 0-1.377.476-1.377 1.071 0 .833.935 1.326 2.278 1.326 2.89 0 4.709-1.19 4.709-3.315 0-1.683-1.598-2.924-3.825-2.924-2.822 0-4.352 1.19-6.494 3.383l-.986-.986a329.17 329.17 0 0 0 4.573-3.825c.952-.782 3.094-2.567 3.944-3.332-.901.051-4.301.187-5.185.238-.391.034-.765.051-1.139.102l-.034-1.394Z"/>
</svg>
