<svg xmlns="http://www.w3.org/2000/svg" width="261" height="841" fill="none" viewBox="0 0 261 841">
  <path fill="#F6F1EE" d="M0 0h261v841H0z"/>
  <rect width="256" height="365" x="2.5" y="32.5" fill="#CEE1F0" stroke="#506D84" stroke-width="5" rx="5.5"/>
  <g clip-path="url(#a)">
    <path fill="#D9D9D9" d="m-11 174.04 138.244-86.365 113.942 182.387-131.093 68.197L-11 174.04Z"/>
    <path fill="#D4B499" d="m138.685 104.408 89.839.017.138 209.966-119.983-.082-35.502-173.543 65.508-36.358Z"/>
    <path fill="#EADAC1" stroke="#4F4A45" stroke-width="5" d="M15.41 184.578a5.5 5.5 0 0 1-.849-4.761l1.033-3.608a5.5 5.5 0 0 1 2.62-3.296l102.149-56.671a5.503 5.503 0 0 1 2.388-.683l11.603-.593-.127-2.497.127 2.497a5.5 5.5 0 0 1 4.631 2.128l76.932 99.442a5.5 5.5 0 0 1 1.148 3.236l2.022 85.923a5.5 5.5 0 0 1-5.55 5.629l-103.398-.967a5.5 5.5 0 0 1-4.388-2.253L15.409 184.578Z"/>
    <mask id="b" fill="#fff">
      <path fill-rule="evenodd" d="M50.556 208.316a23.276 23.276 0 0 1-.432-.63l-.021-.029v-.001c-3.334-5.05-4.573-11.235-3.445-17.305 1.178-6.338 4.84-12.031 10.178-15.828 5.34-3.798 11.92-5.387 18.293-4.42 6.104.927 11.54 4.127 15.215 8.935l.022-.016 49.367 69.417-.01.007a23.247 23.247 0 0 1 3.722 8.478 23.88 23.88 0 0 1 .129 9.422 24.78 24.78 0 0 1-3.528 8.867 25.44 25.44 0 0 1-6.65 6.961 25.45 25.45 0 0 1-8.758 3.997 24.783 24.783 0 0 1-9.534.422 23.85 23.85 0 0 1-8.858-3.215 23.227 23.227 0 0 1-6.833-6.363l.01-.008-48.857-68.698-.01.007Z" clip-rule="evenodd"/>
    </mask>
    <path fill="#000" d="m50.124 207.686.833-.552-.009-.014-.01-.013-.814.579Zm.432.63-.815.58.58.815.815-.58-.58-.815Zm-.453-.659-.58-.815-.815.579.58.815.815-.579Zm0-.001.58.815.787-.56-.532-.806-.834.551Zm-3.445-17.305-.983-.183.983.183Zm28.47-20.248-.15.989.15-.989Zm15.216 8.935-.794.607.587.768.787-.56-.58-.815Zm.022-.016.815-.579-.58-.815-.815.58.58.814Zm49.367 69.417.58.815.815-.58-.58-.815-.815.58Zm-.01.007-.58-.815-.812.578.575.814.817-.577Zm3.722 8.478-.978.212.978-.212Zm-3.399 18.289-.841-.541.841.541Zm-15.408 10.958-.235-.972.235.972Zm-9.534.422-.15.989.15-.989Zm-8.858-3.215-.521.854.521-.854Zm-6.833-6.363-.58-.815-.814.579.58.815.814-.579Zm.01-.008.58.815.815-.579-.58-.815-.814.579Zm-48.857-68.698.815-.58-.58-.814-.814.579.58.815Zm-1.276-.07c.147.221.297.44.451.657l1.63-1.159c-.141-.199-.28-.4-.414-.603l-1.667 1.105Zm-.002-.003.02.03 1.63-1.159-.02-.03-1.63 1.159Zm.236-1.395-.001.001 1.16 1.63v-.001l-1.159-1.63Zm-3.849-16.673c-1.175 6.321.114 12.769 3.594 18.039l1.67-1.102c-3.19-4.83-4.38-10.751-3.298-16.571l-1.966-.366Zm10.582-16.46c-5.547 3.945-9.356 9.863-10.582 16.46l1.966.366c1.13-6.078 4.643-11.547 9.775-15.196l-1.16-1.63Zm19.022-4.593c-6.635-1.007-13.475.648-19.022 4.593l1.159 1.63c5.132-3.65 11.45-5.174 17.562-4.246l.3-1.977Zm15.86 9.315c-3.836-5.016-9.504-8.35-15.86-9.315l-.3 1.977c5.852.889 11.055 3.955 14.57 8.553l1.59-1.215Zm-1.353-.222-.021.015 1.159 1.63.021-.016-1.159-1.629Zm50.762 69.651-49.367-69.416-1.63 1.159 49.367 69.416 1.63-1.159Zm-.246 1.402.011-.007-1.159-1.63-.011.007 1.159 1.63Zm-1.396-.238a22.218 22.218 0 0 1 3.561 8.113l1.955-.424a24.24 24.24 0 0 0-3.882-8.843l-1.634 1.154Zm3.561 8.113c.641 2.951.683 6.018.124 9.027l1.966.366a24.854 24.854 0 0 0-.135-9.817l-1.955.424Zm.124 9.027a23.773 23.773 0 0 1-3.386 8.509l1.682 1.081a25.775 25.775 0 0 0 3.67-9.224l-1.966-.366Zm-3.386 8.509a24.435 24.435 0 0 1-6.388 6.687l1.159 1.63a26.432 26.432 0 0 0 6.911-7.236l-1.682-1.081Zm-6.388 6.687a24.445 24.445 0 0 1-8.414 3.84l.47 1.944a26.433 26.433 0 0 0 9.103-4.154l-1.159-1.63Zm-8.414 3.84a23.787 23.787 0 0 1-9.149.406l-.3 1.977a25.78 25.78 0 0 0 9.919-.439l-.47-1.944Zm-9.149.406a22.885 22.885 0 0 1-8.487-3.08l-1.042 1.707a24.875 24.875 0 0 0 9.229 3.35l.3-1.977Zm-8.487-3.08a22.236 22.236 0 0 1-6.539-6.09l-1.63 1.159a24.227 24.227 0 0 0 7.127 6.638l1.042-1.707Zm-6.774-4.695.01-.008-1.16-1.629-.01.007 1.16 1.63Zm-50.241-68.941 48.857 68.698 1.629-1.159-48.857-68.699-1.63 1.16Zm1.384.242.01-.007-1.16-1.63-.01.007 1.16 1.63Z" mask="url(#b)"/>
    <mask id="c" fill="#fff">
      <path fill-rule="evenodd" d="m93.829 171.969-.039-.054-.37-.52-.009.006c-4.074-5.362-10.439-8.71-17.794-9.337-7.611-.649-15.66 1.67-22.376 6.445-6.715 4.776-11.547 11.618-13.432 19.021-1.822 7.154-.748 14.265 2.98 19.873l-.01.006 54.395 76.485-.142.1c2.005 2.819 4.645 5.145 7.77 6.845 3.125 1.699 6.673 2.739 10.442 3.061 3.769.321 7.684-.083 11.524-1.189a35.961 35.961 0 0 0 10.851-5.257 35.954 35.954 0 0 0 8.528-8.525c2.305-3.264 3.971-6.83 4.905-10.496.934-3.665 1.116-7.358.536-10.867-.578-3.499-1.902-6.747-3.896-9.56l.141-.1-54.004-75.937Z" clip-rule="evenodd"/>
    </mask>
    <path fill="#000" d="m93.79 171.915-.815.58v.001l.815-.581Zm.039.054.58.815.815-.58-.581-.815-.814.58Zm-.409-.574.815-.58-.58-.815-.815.58.58.815Zm-.009.006-.796.605.586.772.79-.562-.58-.815Zm-17.794-9.337-.085.996.085-.996Zm-22.376 6.445-.58-.815.58.815ZM39.81 187.53l-.97-.247.97.247Zm2.98 19.873.58.815.789-.562-.537-.807-.832.554Zm-.01.006-.579-.815-.815.58.58.815.814-.58Zm54.395 76.485.58.815.814-.58-.58-.815-.814.58Zm-.142.1-.58-.815-.814.58.58.815.814-.58Zm7.77 6.845.478-.879-.478.879Zm10.442 3.061.085-.997-.085.997Zm11.524-1.189.277.961-.277-.961Zm24.284-24.278-.969-.246.969.246Zm.536-10.867-.987.163.987-.163Zm-3.896-9.56-.58-.814-.814.578.578.815.816-.579Zm.141-.1.58.815.815-.58-.58-.815-.815.58ZM93.83 171.969l-.58-.815-.815.58.58.815.815-.58Zm-.853.527.039.054 1.628-1.161-.039-.055-1.628 1.162Zm-.371-.522.37.521 1.63-1.16-.37-.52-1.63 1.159Zm1.385.242.01-.006-1.16-1.63-.009.006 1.16 1.63Zm-18.458-9.156c7.103.606 13.197 3.831 17.083 8.946l1.592-1.21c-4.262-5.609-10.897-9.08-18.505-9.728l-.17 1.992Zm-21.711 6.264c6.539-4.65 14.355-6.891 21.711-6.264l.17-1.992c-7.867-.671-16.148 1.725-23.04 6.626l1.159 1.63Zm-13.043 18.453c1.822-7.155 6.504-13.802 13.043-18.453l-1.16-1.63c-6.891 4.902-11.873 11.938-13.821 19.589l1.938.494Zm2.843 19.072c-3.555-5.349-4.602-12.165-2.843-19.072l-1.938-.494c-1.885 7.4-.784 14.806 3.116 20.673l1.665-1.107Zm-.262 1.375.01-.006-1.16-1.63-.009.006 1.16 1.63Zm54.63 75.09L43.594 206.83l-1.63 1.159 54.395 76.484 1.63-1.159Zm-.377 1.495.141-.1-1.159-1.63-.141.1 1.159 1.63Zm7.668 5.151c-2.995-1.629-5.519-3.854-7.433-6.545l-1.63 1.159c2.096 2.946 4.853 5.373 8.107 7.143l.956-1.757Zm10.049 2.943c-3.64-.31-7.053-1.313-10.049-2.943l-.956 1.757c3.254 1.77 6.937 2.847 10.835 3.179l.17-1.993Zm11.162-1.153c-3.729 1.074-7.522 1.464-11.162 1.153l-.17 1.993c3.897.332 7.936-.086 11.886-1.224l-.554-1.922Zm10.549-5.111a34.966 34.966 0 0 1-10.549 5.111l.554 1.922a36.962 36.962 0 0 0 11.154-5.403l-1.159-1.63Zm8.29-8.287a34.976 34.976 0 0 1-8.29 8.287l1.159 1.63a36.964 36.964 0 0 0 8.765-8.763l-1.634-1.154Zm4.753-10.165c-.902 3.54-2.515 6.996-4.753 10.165l1.634 1.154c2.371-3.358 4.092-7.035 5.057-10.826l-1.938-.493Zm.518-10.458c.556 3.364.384 6.917-.518 10.458l1.938.493c.965-3.791 1.157-7.623.553-11.277l-1.973.326Zm-3.725-9.144c1.904 2.686 3.171 5.79 3.725 9.144l1.973-.326c-.602-3.644-1.982-7.035-4.067-9.975l-1.631 1.157Zm.378-1.494-.142.101 1.159 1.629.142-.1-1.159-1.63Zm-54.24-74.542 54.004 75.936 1.63-1.159-54.004-75.936-1.63 1.159Zm.235-1.395 1.16 1.63-1.16-1.63Z" mask="url(#c)"/>
    <rect width="68" height="29" x="63.5" y="207.175" fill="#FFBB5C" stroke="#6C5F5B" stroke-width="3" rx="8.5"/>
    <path fill="#6C5F5B" d="M77.03 228.095a.666.666 0 0 1-.504 0 .593.593 0 0 1-.364-.322.682.682 0 0 1-.014-.49.595.595 0 0 1 .336-.364c1.13-.522 1.95-1.236 2.464-2.142.513-.905.77-2.076.77-3.514H77.24c.01.402.014.789.014 1.162 0 .374-.01.71-.028 1.008a.614.614 0 0 1-.224.448.63.63 0 0 1-.462.154.633.633 0 0 1-.448-.21.68.68 0 0 1-.154-.476c.019-.298.028-.625.028-.98.01-.354.01-.723 0-1.106h-3.108a.606.606 0 0 1-.448-.182.607.607 0 0 1-.182-.448.61.61 0 0 1 .182-.448.61.61 0 0 1 .448-.182h3.052c-.01-.373-.033-.728-.07-1.064-.028-.336-.06-.625-.098-.868a.637.637 0 0 1 .112-.49.606.606 0 0 1 .42-.266.66.66 0 0 1 .49.112.56.56 0 0 1 .252.42c.047.271.084.598.112.98.028.374.051.766.07 1.176h2.506c0-.438-.01-.868-.028-1.288-.01-.42-.028-.784-.056-1.092a.682.682 0 0 1 .154-.476.574.574 0 0 1 .434-.224.586.586 0 0 1 .476.154.62.62 0 0 1 .238.434c.019.318.033.7.042 1.148.019.439.033.887.042 1.344h2.898a.61.61 0 0 1 .448.182.61.61 0 0 1 .182.448c0 .178-.06.327-.182.448a.606.606 0 0 1-.448.182H81.02c-.01 1.662-.355 3.076-1.036 4.242-.672 1.158-1.657 2.021-2.954 2.59Zm13.79-.056a.537.537 0 0 1-.434.014.555.555 0 0 1-.322-.28.621.621 0 0 1-.028-.448.56.56 0 0 1 .294-.322c.952-.457 1.736-.966 2.352-1.526a6.68 6.68 0 0 0 1.484-1.932c.364-.728.625-1.563.784-2.506a.522.522 0 0 1 .238-.364.53.53 0 0 1 .42-.098c.159.028.28.108.364.238a.514.514 0 0 1 .098.42c-.27 1.568-.83 2.912-1.68 4.032-.85 1.111-2.04 2.035-3.57 2.772Zm1.904-4.522a.577.577 0 0 1-.434-.028.608.608 0 0 1-.294-.336 13.266 13.266 0 0 0-.378-.938c-.15-.345-.28-.62-.392-.826a.645.645 0 0 1-.07-.434.513.513 0 0 1 .266-.35.543.543 0 0 1 .434-.07.513.513 0 0 1 .35.266c.093.168.196.378.308.63.112.243.22.486.322.728.103.243.187.453.252.63a.543.543 0 0 1-.042.434.556.556 0 0 1-.322.294Zm-2.184.532a.537.537 0 0 1-.434.014.617.617 0 0 1-.308-.308 13.87 13.87 0 0 0-.462-.896 6.673 6.673 0 0 0-.476-.798.528.528 0 0 1-.098-.42.591.591 0 0 1 .224-.378.53.53 0 0 1 .42-.098.524.524 0 0 1 .378.224c.121.168.247.369.378.602.13.234.257.467.378.7.121.224.22.425.294.602.075.15.08.299.014.448a.553.553 0 0 1-.308.308Zm11.55 3.948a.631.631 0 0 1-.21-.448.61.61 0 0 1 .168-.462c.756-.812 1.4-1.75 1.932-2.814.541-1.073.961-2.23 1.26-3.472l-2.632.14a.603.603 0 0 1-.462-.168.631.631 0 0 1-.21-.448.63.63 0 0 1 .168-.476c.121-.13.271-.2.448-.21l2.94-.126c.075-.382.131-.774.168-1.176.037-.401.065-.807.084-1.218a.635.635 0 0 1 .21-.448.61.61 0 0 1 .462-.168c.177.01.327.08.448.21a.586.586 0 0 1 .168.462c-.009.383-.037.766-.084 1.148-.037.374-.084.752-.14 1.134l.616-.014c.989-.046 1.741.075 2.254.364.523.29.849.756.98 1.4.131.635.107 1.466-.07 2.492-.205 1.176-.504 2.077-.896 2.702-.383.626-.859 1.036-1.428 1.232-.56.187-1.209.22-1.946.098a.673.673 0 0 1-.434-.252.609.609 0 0 1-.098-.49.621.621 0 0 1 .252-.42.658.658 0 0 1 .49-.112c.327.056.63.07.91.042a1.44 1.44 0 0 0 .77-.322c.243-.196.453-.508.63-.938.187-.429.345-1.012.476-1.75.14-.784.177-1.381.112-1.792-.056-.42-.243-.7-.56-.84-.308-.149-.775-.205-1.4-.168l-.91.042a19.115 19.115 0 0 1-1.428 4.032c-.616 1.26-1.325 2.329-2.128 3.206a.656.656 0 0 1-.448.196.603.603 0 0 1-.462-.168Zm14.056-4.9a.655.655 0 0 1-.462-.182.656.656 0 0 1-.182-.462.63.63 0 0 1 .182-.462.66.66 0 0 1 .462-.182h8.722a.61.61 0 0 1 .448.182.604.604 0 0 1 .196.462.629.629 0 0 1-.196.462.606.606 0 0 1-.448.182h-8.722Z"/>
    <g clip-path="url(#d)">
      <path fill="#F3F3F3" fill-rule="evenodd" d="M84.15 197.749H71.957l-1.452 3.941h-.111c0 .096.002.192.006.287l-.006.017h.006a6.875 6.875 0 0 0 2.1 4.627 7.304 7.304 0 0 0 5.084 2.042 7.304 7.304 0 0 0 5.085-2.042 6.875 6.875 0 0 0 2.1-4.627h.006l-.005-.036c.003-.089.005-.178.005-.268h-.045l-.58-3.941Z" clip-rule="evenodd"/>
      <path fill="#4B4B4B" d="m83.182 198.359.06.087-.535 1.589-3.028.961-1.768-1.25v-1.375a1.41 1.41 0 0 1-.513.265v1.11l-1.767 1.25-3.028-.96-.536-1.59c.068-.105.138-.21.213-.311v-.001l.007-.008a1.37 1.37 0 0 1-.344-.502c-.176.45-.591.786-1.087.867a7.185 7.185 0 0 0-.839 3.362v.011c0 1.653.56 3.182 1.506 4.412a7.622 7.622 0 0 0 3.727 2.617 7.777 7.777 0 0 0 2.404.376c.84 0 1.65-.13 2.409-.379a7.615 7.615 0 0 0 3.725-2.615v.001a7.221 7.221 0 0 0 1.503-4.412v-.011a7.178 7.178 0 0 0-1.21-3.979 1.424 1.424 0 0 1-.899.485Zm-10.59 7.62a6.397 6.397 0 0 1-.245-.297v-.001a6.23 6.23 0 0 1-1.303-3.817v-.009c0-.126.008-.249.016-.373l1.385-.973 3.029.96.677 2.008-1.872 2.502h-1.686Zm7.51 1.835a6.28 6.28 0 0 1-.363.131l-.004.001a6.66 6.66 0 0 1-2.08.328 6.76 6.76 0 0 1-2.082-.325l-.003-.002a6.39 6.39 0 0 1-.362-.131l-.516-1.543 1.874-2.504h2.172l1.866 2.539-.502 1.506Zm4.162-5.959v.009a6.238 6.238 0 0 1-1.3 3.817v.001a7.745 7.745 0 0 1-.246.297h-1.725l-1.836-2.498.679-2.012 3.029-.96 1.383.973c.008.124.016.247.016.373Z"/>
      <path fill="#4B4B4B" d="m81.305 191.147-.072.104-.915.887a.453.453 0 0 1-.629 0 .42.42 0 0 1 0-.609l.655-.634a17.494 17.494 0 0 1-1.022-.347l-.012.018-1.047 1.014a.453.453 0 0 1-.628 0 .422.422 0 0 1 0-.61l.798-.774a29.62 29.62 0 0 1-1.048-.462.435.435 0 0 1-.093.136l-1.046 1.014a.453.453 0 0 1-.629 0 .422.422 0 0 1 0-.609l.959-.93c-.925-.459-1.708-.899-2.154-1.188-.711-.46-1.05-.474-1.33-.344v-2.19h-.86v2.812c-.585.507-1.551 1.33-2.904 1.33-1.523 0-2.046-.507-2.626-1.149a1.717 1.717 0 0 0-.493-.392v-2.601h-.86v2.793c-.106.171-.17.413-.17.731v6.203c0 .833.35 1.412 1.594 1.511l.042.491a.371.371 0 0 0 .374.335h.625a.371.371 0 0 0 .374-.335l.045-.531c.43-.043.866-.106 1.35-.169l.044.522c.016.189.18.335.374.335h.625a.372.372 0 0 0 .374-.335l.057-.681c.454-.036.954-.064 1.527-.075.081-.001.161 0 .24.002l.063.754a.371.371 0 0 0 .374.335h.625a.371.371 0 0 0 .374-.335l.048-.566c.479.09 1.007.195 1.67.273l.04.471c.016.189.18.335.375.335h.624a.372.372 0 0 0 .375-.335l.03-.367c.508.015 1.08.013 1.735-.016l.032.383a.372.372 0 0 0 .375.335h.624a.372.372 0 0 0 .374-.335l.041-.487c.494-.048.95-.111 1.367-.188l.03.363c.017.189.18.335.375.335H83a.372.372 0 0 0 .375-.335l.062-.732c2.102-.704 2.802-1.857 2.802-2.944 0-1.463-2.506-1.666-4.933-2.217Zm-13.523.144h-1.904v-1.995c0-.208.215-.357.492-.119.123.106 1.135 1.012 1.534 1.191.4.179.369.923-.122.923Zm3.043 3.751-2.307-3.037h1.29l2.307 3.037h-1.29Zm2.623 0-2.307-3.037h1.29l2.307 3.037h-1.29Zm2.763 0-2.307-3.037h1.29l2.306 3.037h-1.289Z"/>
    </g>
    <rect width="64.389" height="33.625" x="94.514" y="155.1" fill="#889EAF" stroke="#506D84" stroke-width="3" rx="9.5"/>
    <path fill="#fff" d="M111.115 169.493a.623.623 0 0 1-.468.052.596.596 0 0 1-.351-.299.558.558 0 0 1-.039-.455.602.602 0 0 1 .299-.364c1.473-.771 2.635-1.737 3.484-2.899.858-1.17 1.434-2.552 1.729-4.147a.58.58 0 0 1 .247-.377.61.61 0 0 1 .455-.104.611.611 0 0 1 .39.26c.095.13.126.278.091.442-.312 1.725-.975 3.268-1.989 4.628-1.005 1.352-2.288 2.44-3.848 3.263Zm.169-4.888a.589.589 0 0 1-.793-.286 14.4 14.4 0 0 0-.403-.767 29.486 29.486 0 0 0-.481-.897 6.612 6.612 0 0 0-.442-.702.672.672 0 0 1-.104-.442.563.563 0 0 1 .247-.39.616.616 0 0 1 .442-.117c.173.018.303.1.39.247.251.382.507.811.767 1.287.269.468.494.893.676 1.274a.555.555 0 0 1 .013.455.6.6 0 0 1-.312.338Zm12.194 5.187a.588.588 0 0 1-.455 0 .546.546 0 0 1-.338-.312.603.603 0 0 1 .299-.793c1.378-.615 2.548-1.365 3.51-2.249.971-.892 1.668-1.863 2.093-2.912.191-.459.217-.819.078-1.079-.13-.268-.472-.403-1.027-.403h-5.031a.607.607 0 0 1-.429-.169.607.607 0 0 1-.169-.429c0-.173.056-.316.169-.429a.587.587 0 0 1 .429-.182h5.031c.702 0 1.244.135 1.625.403.39.269.624.637.702 1.105.078.468-.009 1.01-.26 1.625-.485 1.196-1.265 2.297-2.34 3.302-1.066.997-2.362 1.838-3.887 2.522Zm14.677.169a.583.583 0 0 1-.429-.182.607.607 0 0 1-.169-.429v-8.97c0-.164.056-.303.169-.416a.587.587 0 0 1 .429-.182c.173 0 .316.061.429.182a.548.548 0 0 1 .182.416v8.97a.587.587 0 0 1-.182.429.559.559 0 0 1-.429.182Zm3.848-3.744c-.243-.19-.533-.398-.871-.624a29.57 29.57 0 0 0-1.014-.663 21.27 21.27 0 0 0-.975-.598.607.607 0 0 1-.286-.351.594.594 0 0 1 .026-.455.553.553 0 0 1 .351-.286.624.624 0 0 1 .468.026c.347.174.706.377 1.079.611.381.226.745.46 1.092.702.355.243.663.473.923.689a.63.63 0 0 1 .221.429.56.56 0 0 1-.143.442.619.619 0 0 1-.416.221.677.677 0 0 1-.455-.143Zm-35.017 16.263a.607.607 0 0 1-.429-.169.583.583 0 0 1-.182-.429c0-.173.06-.316.182-.429a.611.611 0 0 1 .429-.169c.32 0 .559-.026.715-.078a.506.506 0 0 0 .325-.325c.06-.164.091-.394.091-.689v-3.64h-3.562a.563.563 0 0 1-.416-.169.563.563 0 0 1-.169-.416c0-.164.056-.303.169-.416a.566.566 0 0 1 .416-.169h3.562v-1.521c0-.164.056-.303.169-.416a.587.587 0 0 1 .429-.182c.173 0 .316.061.429.182a.57.57 0 0 1 .169.416v1.521h3.341c.156 0 .29.057.403.169a.548.548 0 0 1 .182.416.545.545 0 0 1-.182.416.55.55 0 0 1-.403.169h-3.341v3.64c0 .581-.078 1.036-.234 1.365-.148.33-.39.568-.728.715-.338.139-.793.208-1.365.208Zm-2.756-1.456a.554.554 0 0 1-.455.065.603.603 0 0 1-.364-.273.562.562 0 0 1-.065-.455.61.61 0 0 1 .273-.377 9.98 9.98 0 0 0 1.222-.897 7.127 7.127 0 0 0 1.053-1.066.616.616 0 0 1 .845-.13c.13.096.208.226.234.39a.51.51 0 0 1-.104.442 7.332 7.332 0 0 1-.767.858c-.304.286-.62.559-.949.819-.33.252-.637.46-.923.624Zm9.594-.26a.58.58 0 0 1-.442.156.688.688 0 0 1-.429-.208c-.13-.13-.295-.281-.494-.455a14.42 14.42 0 0 0-.637-.546c-.217-.19-.429-.364-.637-.52a6.454 6.454 0 0 0-.507-.364.604.604 0 0 1-.26-.39.607.607 0 0 1 .104-.455.556.556 0 0 1 .377-.247.57.57 0 0 1 .455.091c.234.148.511.347.832.598.32.252.637.512.949.78.312.26.559.49.741.689a.525.525 0 0 1 .156.442.615.615 0 0 1-.208.429Zm.624-6.994a.42.42 0 0 1-.325.143.506.506 0 0 1-.338-.156 7.041 7.041 0 0 0-.429-.442 6.7 6.7 0 0 0-.442-.403.467.467 0 0 1-.156-.286.38.38 0 0 1 .104-.325.394.394 0 0 1 .299-.143c.121 0 .234.039.338.117.13.087.286.213.468.377.19.165.355.312.494.442.095.087.138.2.13.338 0 .13-.048.243-.143.338Zm-1.079 1.053a.417.417 0 0 1-.338.117.459.459 0 0 1-.325-.156 9.655 9.655 0 0 0-.403-.455 7.041 7.041 0 0 0-.442-.429.411.411 0 0 1-.026-.598.392.392 0 0 1 .312-.13c.121 0 .234.039.338.117.121.096.273.23.455.403.182.165.338.317.468.455a.404.404 0 0 1 .117.351.467.467 0 0 1-.156.325Zm4.329 3.601a.607.607 0 0 1-.429-.169.607.607 0 0 1-.169-.429c0-.173.056-.316.169-.429a.611.611 0 0 1 .429-.169h8.099a.57.57 0 0 1 .416.169.562.562 0 0 1 .182.429.587.587 0 0 1-.182.429.566.566 0 0 1-.416.169h-8.099Zm20.176 2.431c-.668.243-1.266.347-1.794.312-.52-.034-.928-.229-1.222-.585-.295-.355-.442-.892-.442-1.612v-3.991c0-.173.056-.316.169-.429a.587.587 0 0 1 .429-.182c.173 0 .316.061.429.182a.562.562 0 0 1 .182.429v3.991c0 .46.147.759.442.897.294.139.754.091 1.378-.143.476-.173.949-.364 1.417-.572.468-.208.875-.403 1.222-.585a.558.558 0 0 1 .455-.039.602.602 0 0 1 .364.299.589.589 0 0 1 .026.455.553.553 0 0 1-.286.351c-.408.217-.858.434-1.352.65a34.82 34.82 0 0 1-1.417.572Zm-8.424.78a.551.551 0 0 1-.455.013.593.593 0 0 1-.338-.312.621.621 0 0 1 0-.468.548.548 0 0 1 .312-.325c.762-.338 1.356-.758 1.781-1.261a4.569 4.569 0 0 0 .897-1.69c.173-.615.26-1.252.26-1.911 0-.164.06-.303.182-.416a.587.587 0 0 1 .429-.182c.164 0 .303.061.416.182a.548.548 0 0 1 .182.416 7.13 7.13 0 0 1-.442 2.535 6.08 6.08 0 0 1-1.261 2.041 5.996 5.996 0 0 1-1.963 1.378Zm12.636 1.04c-.191 0-.325-.056-.403-.169-.07-.121-.07-.281 0-.481l3.12-8.008c.112-.294.329-.442.65-.442h.091c.32 0 .537.148.65.442l3.12 8.008c.069.2.069.36 0 .481-.07.113-.204.169-.403.169h-.195c-.33 0-.546-.151-.65-.455l-.702-1.872h-3.757l-.715 1.872c-.104.304-.317.455-.637.455h-.169Zm1.924-3.445h2.951l-1.456-3.952-1.495 3.952Z"/>
    <g clip-path="url(#e)">
      <circle cx="101" cy="153.675" r="8" fill="#F3F3F3"/>
      <path fill="#4B4B4B" d="M101.071 145.542a8.059 8.059 0 0 0 0 16.115 8.058 8.058 0 1 0 0-16.115Zm4.903 12.96a6.907 6.907 0 0 1-4.903 2.031 6.906 6.906 0 0 1-4.902-2.031l-.025-.026a5.48 5.48 0 0 0 .41-.212.422.422 0 1 0-.422-.729c-.18.104-.367.196-.561.275l-.005.002a6.895 6.895 0 0 1-1.428-4.212c0-1.916.775-3.646 2.031-4.903a6.909 6.909 0 0 1 4.902-2.03 6.91 6.91 0 0 1 4.903 2.03l.025.027a5.392 5.392 0 0 0-.421.217.423.423 0 0 0 .425.729c.179-.104.366-.197.56-.276l.013-.007a6.899 6.899 0 0 1 1.429 4.213 6.913 6.913 0 0 1-2.031 4.902Z"/>
      <path fill="#4B4B4B" d="M98.37 155.716a.423.423 0 0 0-.576.154 4.436 4.436 0 0 1-.35.519.422.422 0 0 0 .666.518c.151-.194.29-.4.414-.614a.423.423 0 0 0-.154-.577Zm-1.22-6.38a5.463 5.463 0 0 0-.616-.412.422.422 0 0 0-.42.731c.182.105.356.221.52.348a.421.421 0 1 0 .517-.667Zm.911 2.536a.421.421 0 1 0 .78-.32 5.404 5.404 0 0 0-.328-.665.421.421 0 1 0-.729.425c.105.18.198.367.277.56Zm.759 1.284a.422.422 0 0 0-.419.424v.02a4.6 4.6 0 0 1-.042.624.421.421 0 1 0 .835.115 5.47 5.47 0 0 0 .05-.739v-.024a.422.422 0 0 0-.423-.42Zm4.922.454v-.01c0-.209.014-.414.041-.615a.422.422 0 0 0-.836-.112c-.032.238-.049.48-.049.727v.012a.421.421 0 0 0 .844-.002Zm.336 1.708a.423.423 0 0 0-.781.319c.094.231.204.452.327.665a.422.422 0 1 0 .729-.423 4.553 4.553 0 0 1-.275-.561Zm1.942 2.221v.001a4.589 4.589 0 0 1-.52-.35.422.422 0 0 0-.517.666c.195.152.4.29.615.414a.422.422 0 0 0 .422-.731Zm-1.403-7.312a.42.42 0 0 0-.591.075c-.151.195-.29.401-.413.615a.422.422 0 0 0 .731.421c.104-.181.221-.355.348-.52a.42.42 0 0 0-.075-.591Z"/>
    </g>
    <path fill="#889EAF" stroke="#506D84" stroke-width="3" d="M142.126 250.034a8.5 8.5 0 0 1 8.5-8.5h47.39a8.5 8.5 0 0 1 8.5 8.5v16.625a8.5 8.5 0 0 1-8.5 8.5h-47.39a8.5 8.5 0 0 1-8.5-8.5v-16.625Z"/>
    <path fill="#fff" d="M159.115 256.493a.623.623 0 0 1-.468.052.596.596 0 0 1-.351-.299.558.558 0 0 1-.039-.455.602.602 0 0 1 .299-.364c1.473-.771 2.635-1.737 3.484-2.899.858-1.17 1.434-2.552 1.729-4.147a.58.58 0 0 1 .247-.377.61.61 0 0 1 .455-.104.611.611 0 0 1 .39.26c.095.13.126.278.091.442-.312 1.725-.975 3.268-1.989 4.628-1.005 1.352-2.288 2.44-3.848 3.263Zm.169-4.888a.589.589 0 0 1-.793-.286 14.4 14.4 0 0 0-.403-.767 29.486 29.486 0 0 0-.481-.897 6.612 6.612 0 0 0-.442-.702.672.672 0 0 1-.104-.442.563.563 0 0 1 .247-.39.616.616 0 0 1 .442-.117c.173.018.303.1.39.247.251.382.507.811.767 1.287.269.468.494.893.676 1.274a.555.555 0 0 1 .013.455.6.6 0 0 1-.312.338Zm12.194 5.187a.588.588 0 0 1-.455 0 .546.546 0 0 1-.338-.312.603.603 0 0 1 .299-.793c1.378-.615 2.548-1.365 3.51-2.249.971-.892 1.668-1.863 2.093-2.912.191-.459.217-.819.078-1.079-.13-.268-.472-.403-1.027-.403h-5.031a.607.607 0 0 1-.429-.169.607.607 0 0 1-.169-.429c0-.173.056-.316.169-.429a.587.587 0 0 1 .429-.182h5.031c.702 0 1.244.135 1.625.403.39.269.624.637.702 1.105.078.468-.009 1.01-.26 1.625-.485 1.196-1.265 2.297-2.34 3.302-1.066.997-2.362 1.838-3.887 2.522Zm14.677.169a.583.583 0 0 1-.429-.182.607.607 0 0 1-.169-.429v-8.97c0-.164.056-.303.169-.416a.587.587 0 0 1 .429-.182c.173 0 .316.061.429.182a.548.548 0 0 1 .182.416v8.97a.587.587 0 0 1-.182.429.559.559 0 0 1-.429.182Zm3.848-3.744c-.243-.19-.533-.398-.871-.624a29.57 29.57 0 0 0-1.014-.663 21.27 21.27 0 0 0-.975-.598.607.607 0 0 1-.286-.351.594.594 0 0 1 .026-.455.553.553 0 0 1 .351-.286.624.624 0 0 1 .468.026c.347.174.706.377 1.079.611.381.226.745.46 1.092.702.355.243.663.473.923.689a.63.63 0 0 1 .221.429.56.56 0 0 1-.143.442.619.619 0 0 1-.416.221.677.677 0 0 1-.455-.143Zm-34.878 16.263a.61.61 0 0 1-.429-.169.587.587 0 0 1-.182-.429c0-.173.061-.316.182-.429a.615.615 0 0 1 .429-.169c.321 0 .559-.026.715-.078a.504.504 0 0 0 .325-.325c.061-.164.091-.394.091-.689v-3.64h-3.562a.566.566 0 0 1-.416-.169.566.566 0 0 1-.169-.416.57.57 0 0 1 .169-.416.57.57 0 0 1 .416-.169h3.562v-1.521a.57.57 0 0 1 .169-.416.59.59 0 0 1 .429-.182.56.56 0 0 1 .429.182.566.566 0 0 1 .169.416v1.521h3.341c.156 0 .291.057.403.169a.545.545 0 0 1 .182.416c0 .165-.06.304-.182.416a.548.548 0 0 1-.403.169h-3.341v3.64c0 .581-.078 1.036-.234 1.365-.147.33-.39.568-.728.715-.338.139-.793.208-1.365.208Zm-2.756-1.456a.552.552 0 0 1-.455.065.606.606 0 0 1-.364-.273.57.57 0 0 1-.065-.455.618.618 0 0 1 .273-.377 9.83 9.83 0 0 0 1.222-.897 7.127 7.127 0 0 0 1.053-1.066.616.616 0 0 1 .845-.13c.13.096.208.226.234.39a.506.506 0 0 1-.104.442 7.242 7.242 0 0 1-.767.858 14.04 14.04 0 0 1-.949.819c-.329.252-.637.46-.923.624Zm9.594-.26a.577.577 0 0 1-.442.156.693.693 0 0 1-.429-.208 9.905 9.905 0 0 0-.494-.455 13.352 13.352 0 0 0-.637-.546 10.59 10.59 0 0 0-.637-.52 6.1 6.1 0 0 0-.507-.364.611.611 0 0 1-.26-.39.611.611 0 0 1 .104-.455.559.559 0 0 1 .377-.247.57.57 0 0 1 .455.091c.234.148.512.347.832.598.321.252.637.512.949.78.312.26.559.49.741.689a.52.52 0 0 1 .156.442.611.611 0 0 1-.208.429Zm.624-6.994a.418.418 0 0 1-.325.143.508.508 0 0 1-.338-.156 7.041 7.041 0 0 0-.429-.442 6.23 6.23 0 0 0-.442-.403.477.477 0 0 1-.156-.286.387.387 0 0 1 .104-.325.397.397 0 0 1 .299-.143.55.55 0 0 1 .338.117c.13.087.286.213.468.377.191.165.356.312.494.442.096.087.139.2.13.338 0 .13-.047.243-.143.338Zm-1.079 1.053a.414.414 0 0 1-.338.117.46.46 0 0 1-.325-.156 8.64 8.64 0 0 0-.403-.455 6.535 6.535 0 0 0-.442-.429.419.419 0 0 1-.143-.286.389.389 0 0 1 .117-.312.394.394 0 0 1 .312-.13.55.55 0 0 1 .338.117c.122.096.273.23.455.403.182.165.338.317.468.455a.399.399 0 0 1 .117.351.459.459 0 0 1-.156.325Zm4.329 3.601a.61.61 0 0 1-.429-.169.611.611 0 0 1-.169-.429c0-.173.057-.316.169-.429a.615.615 0 0 1 .429-.169h8.099c.165 0 .304.057.416.169a.559.559 0 0 1 .182.429c0 .165-.06.308-.182.429a.563.563 0 0 1-.416.169h-8.099Zm20.176 2.431c-.667.243-1.265.347-1.794.312-.52-.034-.927-.229-1.222-.585-.294-.355-.442-.892-.442-1.612v-3.991c0-.173.057-.316.169-.429a.59.59 0 0 1 .429-.182.56.56 0 0 1 .429.182.559.559 0 0 1 .182.429v3.991c0 .46.148.759.442.897.295.139.754.091 1.378-.143.477-.173.949-.364 1.417-.572.468-.208.876-.403 1.222-.585a.558.558 0 0 1 .455-.039.6.6 0 0 1 .364.299c.07.139.078.291.026.455a.547.547 0 0 1-.286.351c-.407.217-.858.434-1.352.65-.485.208-.957.399-1.417.572Zm-8.424.78a.551.551 0 0 1-.455.013.596.596 0 0 1-.338-.312.63.63 0 0 1 0-.468.553.553 0 0 1 .312-.325c.763-.338 1.357-.758 1.781-1.261a4.54 4.54 0 0 0 .897-1.69c.174-.615.26-1.252.26-1.911 0-.164.061-.303.182-.416a.59.59 0 0 1 .429-.182c.165 0 .304.061.416.182a.545.545 0 0 1 .182.416c0 .91-.147 1.755-.442 2.535a6.064 6.064 0 0 1-1.261 2.041 5.986 5.986 0 0 1-1.963 1.378Zm13.351 1.04c-.372 0-.559-.19-.559-.572v-7.956c0-.381.187-.572.559-.572h3.042c.806 0 1.435.2 1.885.598.46.39.689.958.689 1.703 0 .512-.117.941-.351 1.287-.234.347-.541.59-.923.728.494.113.897.386 1.209.819.321.425.481.932.481 1.521 0 .815-.242 1.426-.728 1.833-.476.408-1.174.611-2.093.611h-3.211Zm.624-1.118h2.444c.59 0 1.019-.117 1.287-.351.269-.242.403-.615.403-1.118 0-.485-.16-.862-.481-1.131-.32-.268-.728-.403-1.222-.403h-2.431v3.003Zm0-4.134h2.288c.46 0 .811-.125 1.053-.377.243-.251.364-.585.364-1.001 0-.901-.498-1.352-1.495-1.352h-2.21v2.73Z"/>
    <g clip-path="url(#f)">
      <circle cx="148.5" cy="242.175" r="7.5" fill="#F3F3F3"/>
      <path fill="#4B4B4B" d="M148.684 234.174a8.058 8.058 0 1 0 0 16.116 8.058 8.058 0 0 0 0-16.116Zm4.902 12.96a6.909 6.909 0 0 1-4.902 2.031 6.911 6.911 0 0 1-4.903-2.031l-.025-.026c.14-.066.278-.135.411-.212a.422.422 0 0 0-.423-.73 4.56 4.56 0 0 1-.561.276l-.005.002a6.904 6.904 0 0 1-1.428-4.212 6.914 6.914 0 0 1 2.031-4.903 6.915 6.915 0 0 1 4.903-2.031 6.913 6.913 0 0 1 4.902 2.031l.025.026a5.771 5.771 0 0 0-.421.218.422.422 0 0 0 .425.729c.179-.104.366-.197.56-.277.005-.001.009-.004.013-.007a6.898 6.898 0 0 1 1.429 4.214 6.907 6.907 0 0 1-2.031 4.902Z"/>
      <path fill="#4B4B4B" d="M145.982 244.348a.423.423 0 0 0-.576.154 4.44 4.44 0 0 1-.349.519.422.422 0 1 0 .665.518c.152-.195.29-.4.414-.615a.42.42 0 0 0-.154-.576Zm-1.219-6.38a5.33 5.33 0 0 0-.616-.412.422.422 0 0 0-.42.731c.181.104.355.221.52.348a.42.42 0 1 0 .516-.667Zm.91 2.536a.422.422 0 1 0 .78-.321 5.386 5.386 0 0 0-.328-.664.422.422 0 0 0-.729.425c.105.179.198.366.277.56Zm.76 1.284a.422.422 0 0 0-.42.424v.019c0 .212-.014.421-.042.625a.421.421 0 1 0 .835.114c.033-.241.05-.488.05-.738v-.024a.421.421 0 0 0-.423-.42Zm4.921.454v-.011c0-.208.014-.413.041-.614a.422.422 0 0 0-.836-.113 5.457 5.457 0 0 0-.048.727v.013a.422.422 0 0 0 .843-.002Zm.336 1.708a.422.422 0 0 0-.781.319c.094.23.204.452.327.665a.423.423 0 0 0 .73-.424 4.343 4.343 0 0 1-.276-.56Zm1.942 2.221a4.358 4.358 0 0 1-.519-.349.422.422 0 0 0-.518.666c.195.151.4.29.615.414a.422.422 0 0 0 .422-.731Zm-1.403-7.312a.422.422 0 0 0-.591.074 5.56 5.56 0 0 0-.413.616.422.422 0 0 0 .731.421c.104-.182.221-.355.348-.52a.42.42 0 0 0-.075-.591Z"/>
    </g>
    <path fill="#CFB997" stroke="#6C5F5B" d="m175.023 150.439 31.485-24.705 5.26 6.705-31.484 24.704zm15.71 8.156 21.112-16.566 5.26 6.705-21.111 16.565z"/>
  </g>
  <rect width="33" height="97.309" x="219" y="96.62" fill="#506D84" rx="6"/>
  <path fill="#fff" d="M229.541 135.046c-.291 0-.538-.095-.741-.285-.203-.19-.304-.443-.304-.76v-6.156c-.19.367-.38.728-.57 1.083a28 28 0 0 1-.551.95c-.165.279-.386.45-.665.513-.266.063-.538.013-.817-.152a.922.922 0 0 1-.456-.608c-.063-.266-.006-.526.171-.779.329-.481.678-1.058 1.045-1.729.38-.671.735-1.355 1.064-2.052.329-.697.589-1.311.779-1.843v-.095h-1.938c-.291 0-.526-.095-.703-.285a.992.992 0 0 1-.266-.703c0-.266.089-.494.266-.684a.887.887 0 0 1 .703-.304h1.938v-2.736c0-.329.101-.583.304-.76.203-.19.45-.285.741-.285s.532.095.722.285c.203.177.304.431.304.76v2.736h1.311c.177 0 .329.038.456.114a.974.974 0 0 1 .285-.665c.177-.19.412-.285.703-.285h3.287v-1.824c0-.329.108-.595.323-.798.215-.203.475-.304.779-.304.317 0 .583.101.798.304.215.203.323.469.323.798v1.824h3.363c.304 0 .545.095.722.285.177.19.266.424.266.703a.992.992 0 0 1-.266.703c-.177.19-.418.285-.722.285h-2.318a.885.885 0 0 1 .551.304c.165.177.386.399.665.665s.57.532.874.798c.304.253.57.469.798.646a.9.9 0 0 1 .38.684 1.01 1.01 0 0 1-.209.779c-.203.241-.45.386-.741.437-.279.038-.545-.044-.798-.247a3.46 3.46 0 0 1-.285-.228l-.304-.266c.139.241.165.519.076.836-.431 1.317-1.007 2.489-1.729 3.515.519.507 1.089.963 1.71 1.368.633.405 1.305.766 2.014 1.083.329.139.545.348.646.627.101.279.082.576-.057.893-.165.317-.412.5-.741.551a1.48 1.48 0 0 1-.95-.133 18.263 18.263 0 0 1-2.109-1.235 13.468 13.468 0 0 1-1.862-1.558 11.741 11.741 0 0 1-1.995 1.596c-.735.469-1.52.88-2.356 1.235-.317.127-.64.152-.969.076-.329-.063-.564-.26-.703-.589-.127-.329-.127-.627 0-.893s.355-.462.684-.589c1.571-.595 2.888-1.425 3.952-2.489-.329-.481-.64-.994-.931-1.539a12.126 12.126 0 0 1-.76-1.748c-.114-.317-.108-.595.019-.836a1 1 0 0 1 .551-.494 1.19 1.19 0 0 1 .836 0c.266.089.456.298.57.627.139.418.298.817.475 1.197.19.38.386.741.589 1.083.215-.367.412-.747.589-1.14.177-.393.329-.804.456-1.235.101-.342.285-.564.551-.665.266-.114.545-.12.836-.019.038.013.082.032.133.057l-.779-.741c-.253-.253-.481-.5-.684-.741a.919.919 0 0 1-.266-.741c.038-.291.165-.532.38-.722a.946.946 0 0 1 .475-.209h-3.325a.805.805 0 0 1 .399.209c.241.203.367.443.38.722.013.279-.07.526-.247.741a17.31 17.31 0 0 1-1.159 1.273c-.431.418-.842.779-1.235 1.083-.241.19-.519.279-.836.266-.304-.013-.557-.152-.76-.418a1.12 1.12 0 0 1-.247-.76.884.884 0 0 1 .38-.665c.215-.165.456-.367.722-.608.279-.253.557-.513.836-.779.279-.279.519-.532.722-.76a.854.854 0 0 1 .475-.304h-2.242a.976.976 0 0 1-.475-.114 1.047 1.047 0 0 1-.285.684c-.165.177-.393.266-.684.266h-1.311v1.026c.215.279.469.602.76.969.304.355.602.697.893 1.026.291.329.526.583.703.76a.92.92 0 0 1 .285.722c0 .266-.108.5-.323.703a.985.985 0 0 1-.741.228.965.965 0 0 1-.684-.361 6.901 6.901 0 0 1-.418-.513c-.152-.203-.31-.412-.475-.627v6.935c0 .317-.101.57-.304.76a.979.979 0 0 1-.722.285Zm2.926 18.62c-.861 0-1.545-.089-2.052-.266-.507-.165-.868-.456-1.083-.874-.215-.418-.323-1.007-.323-1.767s.108-1.349.323-1.767c.215-.431.576-.728 1.083-.893.507-.165 1.191-.247 2.052-.247h4.104c.861 0 1.545.082 2.052.247.507.165.868.462 1.083.893.215.418.323 1.007.323 1.767s-.108 1.349-.323 1.767c-.215.418-.576.709-1.083.874-.507.177-1.191.266-2.052.266h-4.104Zm-5.548-6.859c-.291 0-.526-.089-.703-.266a1.008 1.008 0 0 1-.247-.684c0-.253.082-.475.247-.665.177-.19.412-.285.703-.285h6.517v-1.273h-3.192c-.291 0-.526-.089-.703-.266a1.008 1.008 0 0 1-.247-.684c0-.253.082-.475.247-.665.177-.19.412-.285.703-.285h3.192v-.874c0-.329.101-.589.304-.779.215-.203.475-.304.779-.304.291 0 .538.101.741.304.215.19.323.45.323.779v.874h3.173c.291 0 .519.095.684.285.177.19.266.412.266.665a.969.969 0 0 1-.266.684c-.165.177-.393.266-.684.266h-3.173v1.273h6.574c.291 0 .519.095.684.285.165.19.247.412.247.665 0 .266-.082.494-.247.684-.165.177-.393.266-.684.266h-15.238Zm.171-3.496c-.329.165-.64.215-.931.152a1.113 1.113 0 0 1-.684-.513c-.165-.279-.203-.557-.114-.836.101-.291.31-.5.627-.627a20.375 20.375 0 0 0 2.47-1.235 27.325 27.325 0 0 0 2.413-1.577 17.9 17.9 0 0 0 1.919-1.596c.266-.253.526-.45.779-.589.266-.152.57-.228.912-.228a1.5 1.5 0 0 1 .893.285c.279.177.557.393.836.646.545.481 1.184.969 1.919 1.463.735.494 1.514.956 2.337 1.387.836.418 1.647.766 2.432 1.045.329.127.557.342.684.646a.968.968 0 0 1-.019.893 1.209 1.209 0 0 1-.722.627c-.304.089-.627.057-.969-.095a32.074 32.074 0 0 1-2.47-1.235 27.66 27.66 0 0 1-2.451-1.539 16.05 16.05 0 0 1-1.957-1.596c-.203-.203-.374-.304-.513-.304s-.31.095-.513.285a18.033 18.033 0 0 1-1.995 1.615 31.725 31.725 0 0 1-2.451 1.596 34.14 34.14 0 0 1-2.432 1.33Zm5.377 8.455h4.104c.481 0 .798-.076.95-.228.165-.152.247-.412.247-.779 0-.367-.082-.627-.247-.779-.152-.152-.469-.228-.95-.228h-4.104c-.494 0-.817.076-.969.228-.152.152-.228.412-.228.779 0 .367.076.627.228.779.152.152.475.228.969.228Zm1.311 16.682c-.722 0-1.292-.07-1.71-.209-.405-.139-.697-.38-.874-.722-.165-.342-.247-.811-.247-1.406v-7.79c0-.608.082-1.083.247-1.425.177-.342.469-.583.874-.722.418-.139.988-.209 1.71-.209.735 0 1.305.07 1.71.209.418.139.709.38.874.722.177.342.266.817.266 1.425v7.79c0 .595-.089 1.064-.266 1.406-.165.342-.456.583-.874.722-.405.139-.975.209-1.71.209Zm-5.13 4.541a1.02 1.02 0 0 1-.722-.285c-.203-.177-.304-.424-.304-.741v-9.215c-.076.127-.152.26-.228.399a3.533 3.533 0 0 1-.247.361 1.128 1.128 0 0 1-.665.494c-.266.076-.545.032-.836-.133a.995.995 0 0 1-.475-.627.9.9 0 0 1 .133-.779c.405-.57.798-1.229 1.178-1.976.393-.747.747-1.507 1.064-2.28.317-.785.564-1.501.741-2.147.089-.329.26-.557.513-.684s.526-.139.817-.038a.93.93 0 0 1 .608.475c.139.228.158.494.057.798a35.67 35.67 0 0 1-.285.855c-.089.291-.19.583-.304.874v13.623c0 .317-.101.564-.304.741-.203.19-.45.285-.741.285Zm11.153-.171c-.317 0-.589-.101-.817-.304-.215-.19-.336-.45-.361-.779-.013-.329.07-.602.247-.817.19-.215.443-.342.76-.38.317-.038.545-.076.684-.114a.459.459 0 0 0 .304-.285c.051-.139.076-.355.076-.646v-13.11c0-.317.101-.564.304-.741a1.02 1.02 0 0 1 .722-.285c.291 0 .532.095.722.285.203.177.304.424.304.741v13.585c0 1.013-.222 1.742-.665 2.185-.443.443-1.203.665-2.28.665Zm-1.197-4.351a.983.983 0 0 1-.665-.247.926.926 0 0 1-.266-.684v-9.766c0-.291.089-.513.266-.665a.983.983 0 0 1 .665-.247c.253 0 .469.082.646.247.19.152.285.374.285.665v9.766a.893.893 0 0 1-.285.684.913.913 0 0 1-.646.247Zm-8.379 3.838a.974.974 0 0 1-.342-.665.9.9 0 0 1 .247-.684c.291-.279.583-.589.874-.931.304-.355.557-.69.76-1.007a.814.814 0 0 1 .627-.38c.266-.038.507.013.722.152a.882.882 0 0 1 .399.589.914.914 0 0 1-.114.722 15.59 15.59 0 0 1-.798 1.083c-.291.367-.583.703-.874 1.007a1.103 1.103 0 0 1-.722.361c-.279.038-.538-.044-.779-.247Zm7.41-.076a1.038 1.038 0 0 1-.76.285 1.012 1.012 0 0 1-.703-.342l-.57-.665a19.051 19.051 0 0 1-.627-.779 28.505 28.505 0 0 1-.494-.665c-.152-.253-.19-.5-.114-.741a.955.955 0 0 1 .437-.57c.215-.127.443-.177.684-.152a.802.802 0 0 1 .589.361c.127.165.285.374.475.627.203.241.412.481.627.722.215.228.393.418.532.57.19.177.279.399.266.665a.948.948 0 0 1-.342.684Zm-4.731-9.139h1.767v-1.824h-1.767v1.824Zm.874 3.591c.367 0 .608-.057.722-.171.114-.114.171-.336.171-.665v-1.064h-1.767v1.064c0 .329.057.551.171.665.114.114.348.171.703.171Zm-.874-7.106h1.767v-1.007c0-.329-.057-.545-.171-.646-.114-.114-.355-.171-.722-.171-.355 0-.589.057-.703.171-.114.101-.171.317-.171.646v1.007Z"/>
  <rect width="97" height="40.314" x="82" y="321.372" fill="#506D84" rx="6"/>
  <path fill="#fff" d="M111.42 350.246c-.333 0-.613-.107-.84-.32-.227-.214-.34-.494-.34-.84v-2.1h-1.48c-.333 0-.613-.114-.84-.34a1.14 1.14 0 0 1-.34-.84c0-.32.113-.594.34-.82.227-.24.507-.36.84-.36h1.48v-3.88a35.533 35.533 0 0 1-1.9 2.78c-.68.92-1.333 1.693-1.96 2.32-.24.24-.533.38-.88.42-.333.026-.627-.087-.88-.34v3.1c0 .32-.113.593-.34.82-.227.226-.5.34-.82.34a1.12 1.12 0 0 1-.82-.34c-.227-.227-.34-.5-.34-.82v-9.12c-.133.2-.273.4-.42.6a15.41 15.41 0 0 1-.42.56c-.187.253-.447.4-.78.44-.32.04-.613-.047-.88-.26a1.094 1.094 0 0 1-.4-.72c-.04-.307.027-.574.2-.8.52-.64 1.033-1.387 1.54-2.24.52-.854.993-1.714 1.42-2.58.44-.88.793-1.68 1.06-2.4.133-.347.34-.574.62-.68.293-.12.6-.127.92-.02.293.106.5.293.62.56.133.253.14.546.02.88-.16.44-.34.893-.54 1.36-.2.453-.413.913-.64 1.38v8.32c.387-.387.8-.847 1.24-1.38.44-.534.887-1.1 1.34-1.7a52.5 52.5 0 0 0 1.26-1.78c.4-.587.74-1.114 1.02-1.58h-3.2c-.293 0-.553-.107-.78-.32a1.065 1.065 0 0 1-.32-.78c0-.307.107-.567.32-.78.227-.214.487-.32.78-.32h3.96v-2.92c0-.347.113-.627.34-.84.227-.214.507-.32.84-.32.32 0 .593.106.82.32.227.213.34.493.34.84v2.92h4.3c.307 0 .567.106.78.32.227.213.34.473.34.78 0 .306-.113.566-.34.78-.213.213-.473.32-.78.32h-3.62c.28.466.62.98 1.02 1.54a65.6 65.6 0 0 0 1.3 1.7c.453.573.907 1.12 1.36 1.64.467.506.887.953 1.26 1.34.227.226.347.506.36.84.013.333-.113.626-.38.88a1.37 1.37 0 0 1-.92.38c-.347 0-.64-.127-.88-.38a25.495 25.495 0 0 1-1.94-2.32c-.68-.907-1.3-1.807-1.86-2.7v3.84h1.5c.32 0 .593.12.82.36.24.226.36.5.36.82 0 .333-.12.613-.36.84-.227.226-.5.34-.82.34h-1.5v2.1c0 .346-.113.626-.34.84-.227.213-.5.32-.82.32Zm12.78.3c-.333 0-.62-.114-.86-.34-.227-.214-.34-.5-.34-.86v-6.48c0-.854.113-1.514.34-1.98.24-.48.627-.814 1.16-1 .547-.2 1.287-.3 2.22-.3h4.52c.933 0 1.667.1 2.2.3.547.186.933.52 1.16 1 .24.466.36 1.126.36 1.98v4.58c0 .773-.1 1.38-.3 1.82-.2.44-.527.746-.98.92-.44.186-1.047.28-1.82.28-.387 0-.7-.107-.94-.32-.227-.2-.353-.474-.38-.82-.013-.294.073-.56.26-.8a.993.993 0 0 1 .72-.4c.467-.04.76-.107.88-.2.12-.094.18-.314.18-.66v-.4h-7.18v2.48c0 .36-.12.646-.36.86-.227.226-.507.34-.84.34Zm11.78-10.9a52.807 52.807 0 0 0-.72-.62 26.452 26.452 0 0 0-.84-.72l-2.38.18c-.88.053-1.8.113-2.76.18l-2.88.16c-.947.053-1.847.1-2.7.14-.853.026-1.607.053-2.26.08-.32.013-.593-.08-.82-.28-.227-.2-.347-.46-.36-.78-.013-.32.08-.58.28-.78.2-.2.48-.3.84-.3a440.369 440.369 0 0 1 3.08-.08c.173-.24.353-.5.54-.78.187-.294.367-.567.54-.82h-4.86c-.293 0-.527-.094-.7-.28-.173-.2-.26-.427-.26-.68 0-.267.087-.487.26-.66.173-.187.407-.28.7-.28h7.02v-.94c0-.387.12-.687.36-.9.253-.214.547-.32.88-.32.347 0 .633.106.86.32.24.213.36.513.36.9v.94h7.14c.307 0 .54.093.7.28.173.173.26.393.26.66 0 .253-.087.48-.26.68-.16.186-.393.28-.7.28h-3.38c.44.28.887.586 1.34.92.453.32.88.633 1.28.94.413.306.753.58 1.02.82.24.213.373.466.4.76.027.293-.073.573-.3.84a1.154 1.154 0 0 1-.82.42 1.113 1.113 0 0 1-.86-.28Zm-10.58 5.44h7.18v-.9h-7.18v.9Zm.02-2.66h7.14c-.04-.374-.167-.62-.38-.74-.213-.134-.587-.2-1.12-.2h-4.14c-.533 0-.907.066-1.12.2-.213.12-.34.366-.38.74Zm1.96-5.7c.827-.027 1.64-.06 2.44-.1.813-.04 1.567-.08 2.26-.12a1.55 1.55 0 0 1-.14-.08.311.311 0 0 0-.12-.08c-.213-.147-.353-.32-.42-.52-.053-.2-.04-.4.04-.6h-3.02c-.133.2-.293.433-.48.7l-.56.8Zm25.4 13.18c-1.12 0-1.913-.207-2.38-.62-.453-.4-.68-1.127-.68-2.18v-6.98c0-.267.013-.514.04-.74.027-.227.067-.427.12-.6a.454.454 0 0 1-.14.02 1.12 1.12 0 0 1-.76-.28c-.2-.187-.3-.44-.3-.76v-1.54c0-.107.007-.207.02-.3a.401.401 0 0 1-.12.2 1.01 1.01 0 0 1-.74.4 1.095 1.095 0 0 1-.8-.28c-.24-.227-.54-.514-.9-.86-.347-.347-.64-.634-.88-.86-.24-.227-.44-.34-.6-.34-.147-.014-.333.113-.56.38-.24.293-.54.626-.9 1-.36.373-.727.74-1.1 1.1-.373.36-.707.666-1 .92-.24.2-.5.286-.78.26-.28-.027-.533-.16-.76-.4a.858.858 0 0 1-.24-.74c.053-.28.187-.507.4-.68.333-.254.68-.554 1.04-.9.373-.36.74-.72 1.1-1.08.36-.374.673-.714.94-1.02.587-.64 1.173-.954 1.76-.94.6 0 1.213.28 1.84.84.267.253.6.546 1 .88.413.333.753.613 1.02.84.227.2.36.433.4.7.147-.467.42-.8.82-1 .4-.214 1.007-.32 1.82-.32h.7v-1.12c0-.347.113-.62.34-.82.227-.214.5-.32.82-.32.307 0 .573.106.8.32.227.2.34.473.34.82v1.12h.82c.733 0 1.3.086 1.7.26.4.16.68.426.84.8.16.36.24.846.24 1.46v1.22c0 .32-.107.573-.32.76-.2.186-.447.28-.74.28-.133 0-.253-.02-.36-.06.12.373.18.833.18 1.38 0 1.04-.227 1.766-.68 2.18-.44.4-1.18.6-2.22.6h-2v1.38h2.6c1.04 0 1.78.206 2.22.62.453.413.68 1.14.68 2.18 0 1.04-.227 1.766-.68 2.18-.44.426-1.18.64-2.22.64h-1.74Zm-11.7-.12c-.333.08-.633.046-.9-.1-.253-.134-.427-.367-.52-.7a.988.988 0 0 1 .14-.8c.16-.24.413-.4.76-.48l.32-.08c.12-.027.247-.054.38-.08v-7.66c0-.907.187-1.547.56-1.92.373-.374.967-.587 1.78-.64v-1.18c0-.307.1-.547.3-.72.213-.187.46-.28.74-.28.293 0 .54.093.74.28.213.173.32.413.32.72v1.18c.827.053 1.427.266 1.8.64.373.373.56 1.013.56 1.92v1.88c0 1.013-.227 1.7-.68 2.06-.44.346-1.207.52-2.3.52h-1.72v2.66c.36-.107.713-.207 1.06-.3.36-.094.693-.187 1-.28a1.782 1.782 0 0 0-.16-.24c-.053-.08-.1-.154-.14-.22a.865.865 0 0 1-.12-.72.918.918 0 0 1 .44-.58c.253-.16.513-.214.78-.16.267.053.487.193.66.42.213.28.44.613.68 1 .24.373.467.746.68 1.12.227.373.413.713.56 1.02.147.28.18.546.1.8-.067.266-.26.48-.58.64a1.09 1.09 0 0 1-.84.06.969.969 0 0 1-.6-.54 5.308 5.308 0 0 0-.2-.4c-.067-.134-.14-.274-.22-.42-.493.16-1.08.34-1.76.54-.68.2-1.347.393-2 .58-.64.186-1.18.34-1.62.46Zm14.84-12.02v-1c0-.32-.067-.54-.2-.66-.133-.134-.387-.2-.76-.2h-3.2c-.373 0-.627.066-.76.2-.133.12-.2.34-.2.66v.88c.227-.107.493-.18.8-.22.307-.054.66-.08 1.06-.08h1.26c.44 0 .827.033 1.16.1.333.066.613.173.84.32Zm-2.82 10.1h1.1c.387 0 .653-.06.8-.18.147-.12.22-.347.22-.68 0-.347-.073-.574-.22-.68-.147-.12-.413-.18-.8-.18h-2.28v.7c0 .413.08.686.24.82.173.133.487.2.94.2Zm-1.18-6.9h1.72c.387 0 .647-.06.78-.18.147-.12.22-.347.22-.68 0-.347-.073-.574-.22-.68-.133-.12-.393-.18-.78-.18h-.62c-.413 0-.7.08-.86.24-.16.146-.24.413-.24.8v.68Zm-8.56 1.6H145c.427 0 .693-.047.8-.14.107-.107.16-.327.16-.66v-.22h-2.6v1.02Zm0-2.5h2.6v-.18c0-.307-.053-.514-.16-.62-.107-.107-.373-.16-.8-.16h-.68c-.413 0-.68.046-.8.14-.107.093-.16.306-.16.64v.18Z"/>
  <path fill="#000" d="M100.554 16.776v-1.407h17.892v1.407h-17.892Zm23.94 7.245V8.019h12.012v16.002h-12.012Zm1.407-1.302h9.198v-6.216h-9.198v6.216Zm0-7.497h9.198V9.321h-9.198v5.901Zm19.53 9.261V7.746h12.138v16.737h-12.138Zm1.365-1.26h9.429v-4.011h-9.429v4.011Zm0-5.292h9.429v-3.822h-9.429v3.822Zm0-5.103h9.429V9.006h-9.429v3.822Zm-46.389 435.681v-1.386h18.186v1.386h-18.186Zm1.869-11.193v-1.386h14.427v1.386h-14.427Zm22.218 12.705v-16.002h12.012v16.002h-12.012Zm1.407-1.302h9.198v-6.216h-9.198v6.216Zm0-7.497h9.198v-5.901h-9.198v5.901Zm19.53 9.261v-16.737h12.138v16.737h-12.138Zm1.365-1.26h9.429v-4.011h-9.429v4.011Zm0-5.292h9.429v-3.822h-9.429v3.822Zm0-5.103h9.429v-3.822h-9.429v3.822Z"/>
  <rect width="256" height="365" x="2.5" y="458.5" fill="#CEE1F0" stroke="#506D84" stroke-width="5" rx="5.5"/>
  <g clip-path="url(#g)">
    <path fill="#D9D9D9" d="m-11 600.04 138.244-86.365 113.942 182.387-131.093 68.197L-11 600.04Z"/>
    <path fill="#D4B499" d="m138.685 530.408 89.839.017.138 209.966-119.983-.082-35.502-173.543 65.508-36.358Z"/>
    <path fill="#EADAC1" stroke="#4F4A45" stroke-width="5" d="M15.41 610.578a5.5 5.5 0 0 1-.849-4.761l1.033-3.608a5.5 5.5 0 0 1 2.62-3.296l102.149-56.671a5.503 5.503 0 0 1 2.388-.683l11.603-.593-.127-2.497.127 2.497a5.5 5.5 0 0 1 4.631 2.128l76.932 99.442a5.5 5.5 0 0 1 1.148 3.236l2.022 85.923a5.5 5.5 0 0 1-5.55 5.629l-103.398-.967a5.5 5.5 0 0 1-4.388-2.253L15.409 610.578Z"/>
    <mask id="h" fill="#fff">
      <path fill-rule="evenodd" d="M50.556 634.316a23.276 23.276 0 0 1-.432-.63l-.021-.029v-.001c-3.334-5.05-4.573-11.235-3.445-17.305 1.178-6.338 4.84-12.031 10.178-15.828 5.34-3.798 11.92-5.387 18.293-4.42 6.104.927 11.54 4.127 15.215 8.935l.022-.016 49.367 69.417-.01.007a23.247 23.247 0 0 1 3.722 8.478 23.88 23.88 0 0 1 .129 9.422 24.78 24.78 0 0 1-3.528 8.867 25.44 25.44 0 0 1-6.65 6.961 25.45 25.45 0 0 1-8.758 3.997 24.783 24.783 0 0 1-9.534.422 23.85 23.85 0 0 1-8.858-3.215 23.227 23.227 0 0 1-6.833-6.363l.01-.008-48.857-68.698-.01.007Z" clip-rule="evenodd"/>
    </mask>
    <path fill="#000" d="m50.124 633.686.833-.552-.009-.014-.01-.013-.814.579Zm.432.63-.815.58.58.815.815-.58-.58-.815Zm-.453-.659-.58-.815-.815.579.58.815.815-.579Zm0-.001.58.815.787-.56-.532-.806-.834.551Zm-3.445-17.305-.983-.183.983.183Zm28.47-20.248-.15.989.15-.989Zm15.216 8.935-.794.607.587.768.787-.56-.58-.815Zm.022-.016.815-.579-.58-.815-.815.58.58.814Zm49.367 69.417.58.815.815-.58-.58-.815-.815.58Zm-.01.007-.58-.815-.812.578.575.814.817-.577Zm3.722 8.478-.978.212.978-.212Zm-3.399 18.289-.841-.541.841.541Zm-15.408 10.958-.235-.972.235.972Zm-9.534.422-.15.989.15-.989Zm-8.858-3.215-.521.854.521-.854Zm-6.833-6.363-.58-.815-.814.579.58.815.814-.579Zm.01-.008.58.815.815-.579-.58-.815-.814.579Zm-48.857-68.698.815-.58-.58-.814-.814.579.58.815Zm-1.276-.07c.147.221.297.44.451.657l1.63-1.159c-.141-.199-.28-.4-.414-.603l-1.667 1.105Zm-.002-.003.02.03 1.63-1.159-.02-.03-1.63 1.159Zm.236-1.395-.001.001 1.16 1.63v-.001l-1.159-1.63Zm-3.849-16.673c-1.175 6.321.114 12.769 3.594 18.039l1.67-1.102c-3.19-4.83-4.38-10.751-3.298-16.571l-1.966-.366Zm10.582-16.46c-5.547 3.945-9.356 9.863-10.582 16.46l1.966.366c1.13-6.078 4.643-11.547 9.775-15.196l-1.16-1.63Zm19.022-4.593c-6.635-1.007-13.475.648-19.022 4.593l1.159 1.63c5.132-3.65 11.45-5.174 17.562-4.246l.3-1.977Zm15.86 9.315c-3.836-5.016-9.504-8.35-15.86-9.315l-.3 1.977c5.852.889 11.055 3.955 14.57 8.553l1.59-1.215Zm-1.353-.222-.021.015 1.159 1.63.021-.016-1.159-1.629Zm50.762 69.651-49.367-69.416-1.63 1.159 49.367 69.416 1.63-1.159Zm-.246 1.402.011-.007-1.159-1.63-.011.007 1.159 1.63Zm-1.396-.238a22.218 22.218 0 0 1 3.561 8.113l1.955-.424a24.24 24.24 0 0 0-3.882-8.843l-1.634 1.154Zm3.561 8.113c.641 2.951.683 6.018.124 9.027l1.966.366a24.854 24.854 0 0 0-.135-9.817l-1.955.424Zm.124 9.027a23.773 23.773 0 0 1-3.386 8.509l1.682 1.081a25.775 25.775 0 0 0 3.67-9.224l-1.966-.366Zm-3.386 8.509a24.435 24.435 0 0 1-6.388 6.687l1.159 1.63a26.432 26.432 0 0 0 6.911-7.236l-1.682-1.081Zm-6.388 6.687a24.445 24.445 0 0 1-8.414 3.84l.47 1.944a26.433 26.433 0 0 0 9.103-4.154l-1.159-1.63Zm-8.414 3.84a23.787 23.787 0 0 1-9.149.406l-.3 1.977a25.78 25.78 0 0 0 9.919-.439l-.47-1.944Zm-9.149.406a22.885 22.885 0 0 1-8.487-3.08l-1.042 1.707a24.875 24.875 0 0 0 9.229 3.35l.3-1.977Zm-8.487-3.08a22.236 22.236 0 0 1-6.539-6.09l-1.63 1.159a24.227 24.227 0 0 0 7.127 6.638l1.042-1.707Zm-6.774-4.695.01-.008-1.16-1.629-.01.007 1.16 1.63Zm-50.241-68.941 48.857 68.698 1.629-1.159-48.857-68.699-1.63 1.16Zm1.384.242.01-.007-1.16-1.63-.01.007 1.16 1.63Z" mask="url(#h)"/>
    <mask id="i" fill="#fff">
      <path fill-rule="evenodd" d="m93.829 597.969-.039-.054-.37-.52-.009.006c-4.074-5.362-10.439-8.71-17.794-9.337-7.611-.649-15.66 1.67-22.376 6.445-6.715 4.776-11.547 11.618-13.432 19.021-1.822 7.154-.748 14.265 2.98 19.873l-.01.006 54.395 76.485-.142.1c2.005 2.819 4.645 5.145 7.77 6.845 3.125 1.699 6.673 2.739 10.442 3.061 3.769.321 7.684-.083 11.524-1.189a35.961 35.961 0 0 0 10.851-5.257 35.954 35.954 0 0 0 8.528-8.525c2.305-3.264 3.971-6.83 4.905-10.496.934-3.665 1.116-7.358.536-10.867-.578-3.499-1.902-6.747-3.896-9.56l.141-.1-54.004-75.937Z" clip-rule="evenodd"/>
    </mask>
    <path fill="#000" d="m93.79 597.915-.815.58v.001l.815-.581Zm.039.054.58.815.815-.58-.581-.815-.814.58Zm-.409-.574.815-.58-.58-.815-.815.58.58.815Zm-.009.006-.796.605.586.772.79-.562-.58-.815Zm-17.794-9.337-.085.996.085-.996Zm-22.376 6.445-.58-.815.58.815ZM39.81 613.53l-.97-.247.97.247Zm2.98 19.873.58.815.789-.562-.537-.807-.832.554Zm-.01.006-.579-.815-.815.58.58.815.814-.58Zm54.395 76.485.58.815.814-.58-.58-.815-.814.58Zm-.142.1-.58-.815-.814.58.58.815.814-.58Zm7.77 6.845.478-.879-.478.879Zm10.442 3.061.085-.997-.085.997Zm11.524-1.189.277.961-.277-.961Zm24.284-24.278-.969-.246.969.246Zm.536-10.867-.987.163.987-.163Zm-3.896-9.56-.58-.814-.814.578.578.815.816-.579Zm.141-.1.58.815.815-.58-.58-.815-.815.58ZM93.83 597.969l-.58-.815-.815.58.58.815.815-.58Zm-.853.527.039.054 1.628-1.161-.039-.055-1.628 1.162Zm-.371-.522.37.521 1.63-1.16-.37-.52-1.63 1.159Zm1.385.242.01-.006-1.16-1.63-.009.006 1.16 1.63Zm-18.458-9.156c7.103.606 13.197 3.831 17.083 8.946l1.592-1.21c-4.262-5.609-10.897-9.08-18.505-9.728l-.17 1.992Zm-21.711 6.264c6.539-4.65 14.355-6.891 21.711-6.264l.17-1.992c-7.867-.671-16.148 1.725-23.04 6.626l1.159 1.63Zm-13.043 18.453c1.822-7.155 6.504-13.802 13.043-18.453l-1.16-1.63c-6.891 4.902-11.873 11.938-13.821 19.589l1.938.494Zm2.843 19.072c-3.555-5.349-4.602-12.165-2.843-19.072l-1.938-.494c-1.885 7.4-.784 14.806 3.116 20.673l1.665-1.107Zm-.262 1.375.01-.006-1.16-1.63-.009.006 1.16 1.63Zm54.63 75.09L43.594 632.83l-1.63 1.159 54.395 76.484 1.63-1.159Zm-.377 1.495.141-.1-1.159-1.63-.141.1 1.159 1.63Zm7.668 5.151c-2.995-1.629-5.519-3.854-7.433-6.545l-1.63 1.159c2.096 2.946 4.853 5.373 8.107 7.143l.956-1.757Zm10.049 2.943c-3.64-.31-7.053-1.313-10.049-2.943l-.956 1.757c3.254 1.77 6.937 2.847 10.835 3.179l.17-1.993Zm11.162-1.153c-3.729 1.074-7.522 1.464-11.162 1.153l-.17 1.993c3.897.332 7.936-.086 11.886-1.224l-.554-1.922Zm10.549-5.111a34.966 34.966 0 0 1-10.549 5.111l.554 1.922a36.962 36.962 0 0 0 11.154-5.403l-1.159-1.63Zm8.29-8.287a34.976 34.976 0 0 1-8.29 8.287l1.159 1.63a36.964 36.964 0 0 0 8.765-8.763l-1.634-1.154Zm4.753-10.165c-.902 3.54-2.515 6.996-4.753 10.165l1.634 1.154c2.371-3.358 4.092-7.035 5.057-10.826l-1.938-.493Zm.518-10.458c.556 3.364.384 6.917-.518 10.458l1.938.493c.965-3.791 1.157-7.623.553-11.277l-1.973.326Zm-3.725-9.144c1.904 2.686 3.171 5.79 3.725 9.144l1.973-.326c-.602-3.644-1.982-7.035-4.067-9.975l-1.631 1.157Zm.378-1.494-.142.101 1.159 1.629.142-.1-1.159-1.63Zm-54.24-74.542 54.004 75.936 1.63-1.159-54.004-75.936-1.63 1.159Zm.235-1.395 1.16 1.63-1.16-1.63Z" mask="url(#i)"/>
    <path fill="#889EAF" stroke="#506D84" stroke-width="3" d="M102.734 682.409a8.5 8.5 0 0 1 8.5-8.5h38.067a8.5 8.5 0 0 1 8.5 8.5v13.417a8.5 8.5 0 0 1-8.5 8.5h-38.067a8.5 8.5 0 0 1-8.5-8.5v-13.417Z"/>
    <g clip-path="url(#j)">
      <path fill="#4B4B4B" d="M104.106 673.425c1.197.26 2.382-.485 2.646-1.665.263-1.18-.493-2.346-1.691-2.606-1.197-.26-2.382.485-2.646 1.665-.263 1.179.494 2.346 1.691 2.606Zm13.461 5.62h-6.388a1.462 1.462 0 0 0-1.083-1.077v.598l-2.783-.118-2.197-3.235c-.611-.787-1.692-1.111-2.397-1.249-.069-.014-5.405-.966-5.405-.966a1.37 1.37 0 0 0-.9.147l-2.56 1.513a.763.763 0 0 0-.303 1.043l.01.018a.784.784 0 0 0 .957.349l2.704-.994 2.584.88-1.758 4.366-1.965 4.898-2.88 4.175a.978.978 0 0 0 .165 1.361l.03.023a1.012 1.012 0 0 0 1.388-.115l1.915-2.236c.293-.345 1.249-1.356 1.428-1.768l2.046-2.88 3.361 2.736-1.055 3.261a.999.999 0 0 0 .606 1.24l.038.015a1.024 1.024 0 0 0 1.298-.538l1.57-3.647c.689-1.172 0-2.097-.502-2.529l-2.881-2.963 1.378-2.653 1.316 1.235c.328.335.682.524 1.115.52l3.677-.193v.527a1.46 1.46 0 0 0 1.079-1.061h6.392v-.683Z"/>
    </g>
    <path fill="#F8F1F1" d="M119.527 692.589a.404.404 0 0 1-.297-.121.417.417 0 0 1-.121-.308v-7.579c0-.433.055-.774.165-1.023.11-.257.3-.437.572-.539.278-.11.663-.165 1.155-.165h1.859c.498 0 .883.055 1.155.165a.965.965 0 0 1 .583.539c.11.249.165.59.165 1.023v6.71c0 .44-.103.748-.308.924-.198.183-.558.282-1.078.297a.505.505 0 0 1-.363-.11.465.465 0 0 1-.165-.319.45.45 0 0 1 .099-.33.385.385 0 0 1 .286-.143c.286-.015.469-.055.55-.121.08-.066.121-.195.121-.385v-4.323h-1.65v3.003c.205-.008.333-.041.385-.099.058-.066.088-.195.088-.385v-1.551c0-.103.033-.184.099-.242a.342.342 0 0 1 .253-.099c.11 0 .198.033.264.099a.306.306 0 0 1 .099.242v1.837c0 .381-.088.641-.264.781-.169.139-.455.209-.858.209h-.825c-.396 0-.682-.07-.858-.209-.169-.14-.253-.4-.253-.781v-1.848c0-.096.033-.173.099-.231a.342.342 0 0 1 .253-.099c.11 0 .194.033.253.099a.292.292 0 0 1 .099.231v1.562c0 .183.025.308.077.374.058.066.187.102.385.11v-3.003h-1.595v5.379a.421.421 0 0 1-.121.308.421.421 0 0 1-.308.121Zm-2.563 0a.425.425 0 0 1-.297-.11.395.395 0 0 1-.121-.308v-4.378l-.66.066c-.213.014-.404.029-.572.044a.512.512 0 0 1-.319-.077.401.401 0 0 1-.143-.275.406.406 0 0 1 .088-.297.364.364 0 0 1 .275-.132c.073-.008.146-.011.22-.011.08 0 .157-.004.231-.011.124-.176.26-.382.407-.616.154-.242.308-.492.462-.748a8.821 8.821 0 0 0-.473-.341 23.63 23.63 0 0 0-.55-.363 6.473 6.473 0 0 0-.462-.286.374.374 0 0 1-.165-.231.362.362 0 0 1 .044-.275.363.363 0 0 1 .231-.187.355.355 0 0 1 .297.044 2.698 2.698 0 0 1 .297.176c.088-.147.183-.319.286-.517a16.767 16.767 0 0 0 .528-1.034.327.327 0 0 1 .22-.198.406.406 0 0 1 .308.011.366.366 0 0 1 .209.22.355.355 0 0 1-.022.297 9.183 9.183 0 0 1-.264.506 25.759 25.759 0 0 1-.66 1.122c.102.066.201.132.297.198.102.066.19.128.264.187.139-.242.267-.47.385-.682.124-.22.223-.411.297-.572a.36.36 0 0 1 .22-.209.402.402 0 0 1 .319.022.364.364 0 0 1 .198.22.359.359 0 0 1-.022.297c-.14.271-.308.575-.506.913-.191.337-.396.678-.616 1.023-.213.344-.418.663-.616.957l.627-.044c.212-.022.41-.041.594-.055a8.598 8.598 0 0 0-.11-.231 2.475 2.475 0 0 0-.11-.198.326.326 0 0 1-.022-.286.363.363 0 0 1 .198-.209.416.416 0 0 1 .297-.022c.095.022.168.08.22.176.08.124.165.278.253.462.095.183.187.37.275.561.088.183.161.344.22.484.044.095.047.19.011.286a.408.408 0 0 1-.22.22.452.452 0 0 1-.308 0 .331.331 0 0 1-.22-.209 2.9 2.9 0 0 0-.077-.165 2.307 2.307 0 0 0-.077-.198c-.11.014-.228.033-.352.055l-.396.044v4.466a.398.398 0 0 1-.121.308.428.428 0 0 1-.297.11Zm2.992-6.567h1.98c.066-.14.143-.316.231-.528.088-.22.172-.437.253-.649.088-.213.154-.382.198-.506a.365.365 0 0 1 .198-.231.4.4 0 0 1 .308-.033.306.306 0 0 1 .231.209.41.41 0 0 1 .011.308l-.176.407-.231.528c-.081.183-.158.348-.231.495h1.177v-1.386c0-.389-.074-.646-.22-.77-.147-.125-.433-.187-.858-.187h-1.793c-.426 0-.712.062-.858.187-.147.124-.22.381-.22.77v1.386Zm-4.851 5.214a.334.334 0 0 1-.209-.176.354.354 0 0 1 0-.275c.08-.176.165-.382.253-.616.088-.235.168-.473.242-.715.08-.25.139-.477.176-.682a.338.338 0 0 1 .154-.22.365.365 0 0 1 .264-.055c.11.022.19.073.242.154.051.08.066.172.044.275a9.452 9.452 0 0 1-.297 1.078c-.125.388-.25.722-.374 1.001a.372.372 0 0 1-.198.209.417.417 0 0 1-.297.022Zm3.674-.44a.408.408 0 0 1-.308-.011.366.366 0 0 1-.198-.22l-.187-.55-.22-.638a45.54 45.54 0 0 1-.165-.561.32.32 0 0 1 .033-.275.368.368 0 0 1 .231-.165.3.3 0 0 1 .264.033.374.374 0 0 1 .176.22c.044.146.102.326.176.539l.22.616c.08.205.146.381.198.528a.382.382 0 0 1-.011.297.337.337 0 0 1-.209.187Zm2.618-4.906a.518.518 0 0 1-.297.022.265.265 0 0 1-.198-.176 3.988 3.988 0 0 0-.154-.341 19.51 19.51 0 0 0-.198-.407 3.069 3.069 0 0 0-.165-.341.3.3 0 0 1-.022-.275.33.33 0 0 1 .187-.209.416.416 0 0 1 .297-.022c.095.022.168.08.22.176.044.088.099.201.165.341.066.132.132.267.198.407.066.132.117.242.154.33a.382.382 0 0 1 .011.297.334.334 0 0 1-.198.198Zm6.71 6.556c-.389 0-.594-.176-.616-.528a.483.483 0 0 1 .143-.385c.102-.11.253-.169.451-.176.513-.015.905-.048 1.177-.099.278-.059.48-.173.605-.341.124-.169.22-.426.286-.77a11.505 11.505 0 0 0 .121-.869c.036-.345-.004-.572-.121-.682-.118-.118-.382-.176-.792-.176h-1.067c-.477 0-.847-.044-1.111-.132a.79.79 0 0 1-.506-.506c-.074-.242-.077-.58-.011-1.012.066-.418.161-.737.286-.957a.956.956 0 0 1 .572-.451c.256-.081.608-.121 1.056-.121h.935c.33 0 .55-.044.66-.132.11-.088.165-.279.165-.572 0-.301-.055-.495-.165-.583-.11-.088-.33-.132-.66-.132h-2.552a.434.434 0 0 1-.319-.132.474.474 0 0 1-.132-.33c0-.125.044-.231.132-.319a.434.434 0 0 1 .319-.132h2.552c.498 0 .88.047 1.144.143.271.095.458.26.561.495.11.234.165.561.165.979 0 .418-.055.744-.165.979-.103.234-.29.399-.561.495-.264.095-.646.143-1.144.143h-.946c-.22 0-.393.018-.517.055a.37.37 0 0 0-.253.187 1.519 1.519 0 0 0-.132.429c-.044.256-.019.432.077.528.102.095.315.143.638.143h1.188c.491 0 .872.051 1.144.154.278.102.465.278.561.528.102.242.132.579.088 1.012a9.462 9.462 0 0 1-.154 1.133c-.074.447-.18.81-.319 1.089a1.482 1.482 0 0 1-.55.638c-.235.154-.536.26-.902.319-.36.058-.803.088-1.331.088Zm6.325.121a.549.549 0 0 1-.385-.154.5.5 0 0 1-.154-.385v-9.009c0-.162.051-.29.154-.385a.566.566 0 0 1 .385-.143c.146 0 .271.047.374.143a.5.5 0 0 1 .154.385v9.009a.504.504 0 0 1-.154.385.513.513 0 0 1-.374.154Zm8.448-.11c-.748.007-1.405-.07-1.969-.231-.565-.162-1.009-.411-1.331-.748-.316-.345-.473-.77-.473-1.276 0-.455.113-.829.341-1.122.227-.301.528-.525.902-.671.381-.147.799-.22 1.254-.22.462-.008.924.062 1.386.209a7.388 7.388 0 0 1-.473-.682c-.154-.25-.305-.514-.451-.792-.426.073-.855.143-1.287.209l-1.232.165a.462.462 0 0 1-.363-.11.54.54 0 0 1-.176-.352.493.493 0 0 1 .462-.528 37.404 37.404 0 0 0 2.189-.264l-.22-.506a8.457 8.457 0 0 1-.198-.517c-.323.051-.638.102-.946.154-.308.044-.583.08-.825.11a.525.525 0 0 1-.374-.099.488.488 0 0 1-.176-.33.515.515 0 0 1 .099-.374.447.447 0 0 1 .341-.176c.212-.015.451-.037.715-.066.271-.037.553-.077.847-.121a8.39 8.39 0 0 1-.264-.88.474.474 0 0 1 .044-.374.461.461 0 0 1 .308-.231.447.447 0 0 1 .374.055.433.433 0 0 1 .231.297 11.036 11.036 0 0 0 .264.968c.271-.052.528-.103.77-.154.242-.059.454-.114.638-.165a.427.427 0 0 1 .374.066.467.467 0 0 1 .231.308.487.487 0 0 1-.066.374.477.477 0 0 1-.308.22l-.616.121-.715.143a13.554 13.554 0 0 0 .396 1.012c.322-.059.627-.121.913-.187.293-.074.561-.143.803-.209a.447.447 0 0 1 .374.055c.117.073.19.179.22.319a.454.454 0 0 1-.055.374.534.534 0 0 1-.319.22c-.184.044-.411.091-.682.143l-.847.165c.198.381.41.744.638 1.089.234.337.48.638.737.902.08.088.124.19.132.308a.467.467 0 0 1-.077.319.512.512 0 0 1-.275.198.438.438 0 0 1-.319-.011c-.756-.316-1.412-.481-1.969-.495-.558-.022-.99.069-1.298.275a.98.98 0 0 0-.451.858c0 .447.245.773.737.979.498.198 1.169.289 2.013.275.139 0 .256.047.352.143a.462.462 0 0 1 .154.352.481.481 0 0 1-.143.352.484.484 0 0 1-.341.154Z"/>
    <path fill="#FF9B50" stroke="#6C5F5B" stroke-width="3" d="M55.242 608.285a8.5 8.5 0 0 1 8.5-8.5H102a8.5 8.5 0 0 1 8.5 8.5V622a8.5 8.5 0 0 1-8.5 8.5H63.742a8.5 8.5 0 0 1-8.5-8.5v-13.715Z"/>
    <g clip-path="url(#k)">
      <path fill="#4B4B4B" d="M47.381 604.078c1.5 0 2.716-1.481 2.716-3.307 0-1.827-1.216-3.308-2.716-3.308-1.499 0-2.714 1.481-2.714 3.308 0 1.826 1.215 3.307 2.714 3.307Z"/>
      <path fill="#4B4B4B" d="M66.357 620.999 55.08 604.257l1.804-2.406 3.635-1.305c.79-.2 1.296-1.143 1.132-2.105-.165-.963-.939-1.58-1.728-1.379l-3.495.916a3.496 3.496 0 0 0-1.642.996l-8.653 9.115-3.949.851c-.792.187-1.31 1.119-1.157 2.085.153.965.919 1.596 1.711 1.41l3.684-.376c.714-.082 1.393-.416 1.955-.96l2.052-1.835 2.278 3.018-2.454 2.385c-.887.858-1.044 2.671-.104 3.72l5.532 5.384c.635.785 1.673.793 2.318.02.644-.774.651-2.038.016-2.824l-4.316-4.424 3.296-2.124 6.905 9.223c.599.827 1.635.906 2.314.176.678-.73.743-1.991.143-2.819Z"/>
    </g>
    <path fill="#fff" d="M70.55 619.107a.44.44 0 0 1-.385.044.506.506 0 0 1-.352-.627.553.553 0 0 1 .254-.308 5.41 5.41 0 0 0 1.166-.847c.322-.315.579-.678.77-1.089a5.37 5.37 0 0 0 .406-1.463c.088-.564.132-1.224.132-1.98 0-.322-.003-.652-.01-.99a6.69 6.69 0 0 0-.067-.869.46.46 0 0 1 .1-.374.528.528 0 0 1 .34-.198.497.497 0 0 1 .374.11c.11.081.173.191.188.33.029.162.047.356.055.583.014.228.022.455.022.682v.726c0 .807-.048 1.526-.144 2.156a6.35 6.35 0 0 1-.484 1.694 4.706 4.706 0 0 1-.924 1.331 6.338 6.338 0 0 1-1.44 1.089Zm-.924-3.652a.498.498 0 0 1-.34-.176.496.496 0 0 1-.121-.363c.007-.19.007-.451 0-.781-.008-.33-.023-.678-.044-1.045a20.525 20.525 0 0 0-.066-1.045 11.903 11.903 0 0 0-.067-.726.545.545 0 0 1 .078-.385.448.448 0 0 1 .33-.209.545.545 0 0 1 .385.077.412.412 0 0 1 .209.33 39.378 39.378 0 0 1 .198 3.036 7.55 7.55 0 0 1 0 .803.48.48 0 0 1-.177.374.576.576 0 0 1-.385.11Zm12.408 2.046c-.953.33-1.7.363-2.244.099-.535-.271-.803-.854-.803-1.749v-3.685c0-.139.052-.256.154-.352a.5.5 0 0 1 .363-.154c.14 0 .257.052.352.154a.463.463 0 0 1 .154.352v3.685c0 .44.129.715.385.825.264.11.7.07 1.31-.121.469-.154.945-.341 1.43-.561.483-.227.953-.476 1.407-.748.462-.278.888-.564 1.276-.858a.491.491 0 0 1 .386-.099.45.45 0 0 1 .33.187.492.492 0 0 1 .098.385.447.447 0 0 1-.187.33c-.388.301-.824.594-1.308.88-.484.279-.99.543-1.519.792a17.77 17.77 0 0 1-1.584.638Zm7.997-2.31a.513.513 0 0 1-.363-.143.514.514 0 0 1-.143-.363c0-.146.048-.267.143-.363a.517.517 0 0 1 .363-.143h6.853a.48.48 0 0 1 .353.143.476.476 0 0 1 .154.363c0 .14-.052.261-.154.363a.476.476 0 0 1-.352.143H90.03Z"/>
    <path fill="#CFB997" stroke="#6C5F5B" d="m175.023 576.439 31.485-24.705 5.26 6.705-31.484 24.704zm15.71 8.156 21.112-16.566 5.26 6.705-21.111 16.565z"/>
  </g>
  <rect width="33" height="97.309" x="219" y="522.62" fill="#506D84" rx="6"/>
  <path fill="#fff" d="M229.541 561.046c-.291 0-.538-.095-.741-.285-.203-.19-.304-.443-.304-.76v-6.156c-.19.367-.38.728-.57 1.083a28 28 0 0 1-.551.95c-.165.279-.386.45-.665.513-.266.063-.538.013-.817-.152a.922.922 0 0 1-.456-.608c-.063-.266-.006-.526.171-.779.329-.481.678-1.058 1.045-1.729.38-.671.735-1.355 1.064-2.052.329-.697.589-1.311.779-1.843v-.095h-1.938c-.291 0-.526-.095-.703-.285a.992.992 0 0 1-.266-.703c0-.266.089-.494.266-.684a.887.887 0 0 1 .703-.304h1.938v-2.736c0-.329.101-.583.304-.76.203-.19.45-.285.741-.285s.532.095.722.285c.203.177.304.431.304.76v2.736h1.311c.177 0 .329.038.456.114a.974.974 0 0 1 .285-.665c.177-.19.412-.285.703-.285h3.287v-1.824c0-.329.108-.595.323-.798.215-.203.475-.304.779-.304.317 0 .583.101.798.304.215.203.323.469.323.798v1.824h3.363c.304 0 .545.095.722.285.177.19.266.424.266.703a.992.992 0 0 1-.266.703c-.177.19-.418.285-.722.285h-2.318a.885.885 0 0 1 .551.304c.165.177.386.399.665.665s.57.532.874.798c.304.253.57.469.798.646a.9.9 0 0 1 .38.684 1.01 1.01 0 0 1-.209.779c-.203.241-.45.386-.741.437-.279.038-.545-.044-.798-.247a3.46 3.46 0 0 1-.285-.228l-.304-.266c.139.241.165.519.076.836-.431 1.317-1.007 2.489-1.729 3.515.519.507 1.089.963 1.71 1.368.633.405 1.305.766 2.014 1.083.329.139.545.348.646.627.101.279.082.576-.057.893-.165.317-.412.5-.741.551a1.48 1.48 0 0 1-.95-.133 18.263 18.263 0 0 1-2.109-1.235 13.468 13.468 0 0 1-1.862-1.558 11.741 11.741 0 0 1-1.995 1.596c-.735.469-1.52.88-2.356 1.235-.317.127-.64.152-.969.076-.329-.063-.564-.26-.703-.589-.127-.329-.127-.627 0-.893s.355-.462.684-.589c1.571-.595 2.888-1.425 3.952-2.489-.329-.481-.64-.994-.931-1.539a12.126 12.126 0 0 1-.76-1.748c-.114-.317-.108-.595.019-.836a1 1 0 0 1 .551-.494 1.19 1.19 0 0 1 .836 0c.266.089.456.298.57.627.139.418.298.817.475 1.197.19.38.386.741.589 1.083.215-.367.412-.747.589-1.14.177-.393.329-.804.456-1.235.101-.342.285-.564.551-.665.266-.114.545-.12.836-.019.038.013.082.032.133.057l-.779-.741c-.253-.253-.481-.5-.684-.741a.919.919 0 0 1-.266-.741c.038-.291.165-.532.38-.722a.946.946 0 0 1 .475-.209h-3.325a.805.805 0 0 1 .399.209c.241.203.367.443.38.722.013.279-.07.526-.247.741a17.31 17.31 0 0 1-1.159 1.273c-.431.418-.842.779-1.235 1.083-.241.19-.519.279-.836.266-.304-.013-.557-.152-.76-.418a1.12 1.12 0 0 1-.247-.76.884.884 0 0 1 .38-.665c.215-.165.456-.367.722-.608.279-.253.557-.513.836-.779.279-.279.519-.532.722-.76a.854.854 0 0 1 .475-.304h-2.242a.976.976 0 0 1-.475-.114 1.047 1.047 0 0 1-.285.684c-.165.177-.393.266-.684.266h-1.311v1.026c.215.279.469.602.76.969.304.355.602.697.893 1.026.291.329.526.583.703.76a.92.92 0 0 1 .285.722c0 .266-.108.5-.323.703a.985.985 0 0 1-.741.228.965.965 0 0 1-.684-.361 6.901 6.901 0 0 1-.418-.513c-.152-.203-.31-.412-.475-.627v6.935c0 .317-.101.57-.304.76a.979.979 0 0 1-.722.285Zm2.926 18.62c-.861 0-1.545-.089-2.052-.266-.507-.165-.868-.456-1.083-.874-.215-.418-.323-1.007-.323-1.767s.108-1.349.323-1.767c.215-.431.576-.728 1.083-.893.507-.165 1.191-.247 2.052-.247h4.104c.861 0 1.545.082 2.052.247.507.165.868.462 1.083.893.215.418.323 1.007.323 1.767s-.108 1.349-.323 1.767c-.215.418-.576.709-1.083.874-.507.177-1.191.266-2.052.266h-4.104Zm-5.548-6.859c-.291 0-.526-.089-.703-.266a1.008 1.008 0 0 1-.247-.684c0-.253.082-.475.247-.665.177-.19.412-.285.703-.285h6.517v-1.273h-3.192c-.291 0-.526-.089-.703-.266a1.008 1.008 0 0 1-.247-.684c0-.253.082-.475.247-.665.177-.19.412-.285.703-.285h3.192v-.874c0-.329.101-.589.304-.779.215-.203.475-.304.779-.304.291 0 .538.101.741.304.215.19.323.45.323.779v.874h3.173c.291 0 .519.095.684.285.177.19.266.412.266.665a.969.969 0 0 1-.266.684c-.165.177-.393.266-.684.266h-3.173v1.273h6.574c.291 0 .519.095.684.285.165.19.247.412.247.665 0 .266-.082.494-.247.684-.165.177-.393.266-.684.266h-15.238Zm.171-3.496c-.329.165-.64.215-.931.152a1.113 1.113 0 0 1-.684-.513c-.165-.279-.203-.557-.114-.836.101-.291.31-.5.627-.627a20.375 20.375 0 0 0 2.47-1.235 27.325 27.325 0 0 0 2.413-1.577 17.9 17.9 0 0 0 1.919-1.596c.266-.253.526-.45.779-.589.266-.152.57-.228.912-.228a1.5 1.5 0 0 1 .893.285c.279.177.557.393.836.646.545.481 1.184.969 1.919 1.463.735.494 1.514.956 2.337 1.387.836.418 1.647.766 2.432 1.045.329.127.557.342.684.646a.968.968 0 0 1-.019.893 1.209 1.209 0 0 1-.722.627c-.304.089-.627.057-.969-.095a32.074 32.074 0 0 1-2.47-1.235 27.66 27.66 0 0 1-2.451-1.539 16.05 16.05 0 0 1-1.957-1.596c-.203-.203-.374-.304-.513-.304s-.31.095-.513.285a18.033 18.033 0 0 1-1.995 1.615 31.725 31.725 0 0 1-2.451 1.596 34.14 34.14 0 0 1-2.432 1.33Zm5.377 8.455h4.104c.481 0 .798-.076.95-.228.165-.152.247-.412.247-.779 0-.367-.082-.627-.247-.779-.152-.152-.469-.228-.95-.228h-4.104c-.494 0-.817.076-.969.228-.152.152-.228.412-.228.779 0 .367.076.627.228.779.152.152.475.228.969.228Zm1.311 16.682c-.722 0-1.292-.07-1.71-.209-.405-.139-.697-.38-.874-.722-.165-.342-.247-.811-.247-1.406v-7.79c0-.608.082-1.083.247-1.425.177-.342.469-.583.874-.722.418-.139.988-.209 1.71-.209.735 0 1.305.07 1.71.209.418.139.709.38.874.722.177.342.266.817.266 1.425v7.79c0 .595-.089 1.064-.266 1.406-.165.342-.456.583-.874.722-.405.139-.975.209-1.71.209Zm-5.13 4.541a1.02 1.02 0 0 1-.722-.285c-.203-.177-.304-.424-.304-.741v-9.215c-.076.127-.152.26-.228.399a3.533 3.533 0 0 1-.247.361 1.128 1.128 0 0 1-.665.494c-.266.076-.545.032-.836-.133a.995.995 0 0 1-.475-.627.9.9 0 0 1 .133-.779c.405-.57.798-1.229 1.178-1.976.393-.747.747-1.507 1.064-2.28.317-.785.564-1.501.741-2.147.089-.329.26-.557.513-.684s.526-.139.817-.038a.93.93 0 0 1 .608.475c.139.228.158.494.057.798a35.67 35.67 0 0 1-.285.855c-.089.291-.19.583-.304.874v13.623c0 .317-.101.564-.304.741-.203.19-.45.285-.741.285Zm11.153-.171c-.317 0-.589-.101-.817-.304-.215-.19-.336-.45-.361-.779-.013-.329.07-.602.247-.817.19-.215.443-.342.76-.38.317-.038.545-.076.684-.114a.459.459 0 0 0 .304-.285c.051-.139.076-.355.076-.646v-13.11c0-.317.101-.564.304-.741a1.02 1.02 0 0 1 .722-.285c.291 0 .532.095.722.285.203.177.304.424.304.741v13.585c0 1.013-.222 1.742-.665 2.185-.443.443-1.203.665-2.28.665Zm-1.197-4.351a.983.983 0 0 1-.665-.247.926.926 0 0 1-.266-.684v-9.766c0-.291.089-.513.266-.665a.983.983 0 0 1 .665-.247c.253 0 .469.082.646.247.19.152.285.374.285.665v9.766a.893.893 0 0 1-.285.684.913.913 0 0 1-.646.247Zm-8.379 3.838a.974.974 0 0 1-.342-.665.9.9 0 0 1 .247-.684c.291-.279.583-.589.874-.931.304-.355.557-.69.76-1.007a.814.814 0 0 1 .627-.38c.266-.038.507.013.722.152a.882.882 0 0 1 .399.589.914.914 0 0 1-.114.722 15.59 15.59 0 0 1-.798 1.083c-.291.367-.583.703-.874 1.007a1.103 1.103 0 0 1-.722.361c-.279.038-.538-.044-.779-.247Zm7.41-.076a1.038 1.038 0 0 1-.76.285 1.012 1.012 0 0 1-.703-.342l-.57-.665a19.051 19.051 0 0 1-.627-.779 28.505 28.505 0 0 1-.494-.665c-.152-.253-.19-.5-.114-.741a.955.955 0 0 1 .437-.57c.215-.127.443-.177.684-.152a.802.802 0 0 1 .589.361c.127.165.285.374.475.627.203.241.412.481.627.722.215.228.393.418.532.57.19.177.279.399.266.665a.948.948 0 0 1-.342.684Zm-4.731-9.139h1.767v-1.824h-1.767v1.824Zm.874 3.591c.367 0 .608-.057.722-.171.114-.114.171-.336.171-.665v-1.064h-1.767v1.064c0 .329.057.551.171.665.114.114.348.171.703.171Zm-.874-7.106h1.767v-1.007c0-.329-.057-.545-.171-.646-.114-.114-.355-.171-.722-.171-.355 0-.589.057-.703.171-.114.101-.171.317-.171.646v1.007Z"/>
  <rect width="97" height="40.314" x="82" y="747.372" fill="#506D84" rx="6"/>
  <path fill="#fff" d="M111.42 776.246c-.333 0-.613-.107-.84-.32-.227-.214-.34-.494-.34-.84v-2.1h-1.48c-.333 0-.613-.114-.84-.34a1.14 1.14 0 0 1-.34-.84c0-.32.113-.594.34-.82.227-.24.507-.36.84-.36h1.48v-3.88a35.533 35.533 0 0 1-1.9 2.78c-.68.92-1.333 1.693-1.96 2.32-.24.24-.533.38-.88.42-.333.026-.627-.087-.88-.34v3.1c0 .32-.113.593-.34.82-.227.226-.5.34-.82.34a1.12 1.12 0 0 1-.82-.34c-.227-.227-.34-.5-.34-.82v-9.12c-.133.2-.273.4-.42.6a15.41 15.41 0 0 1-.42.56c-.187.253-.447.4-.78.44-.32.04-.613-.047-.88-.26a1.094 1.094 0 0 1-.4-.72c-.04-.307.027-.574.2-.8.52-.64 1.033-1.387 1.54-2.24.52-.854.993-1.714 1.42-2.58.44-.88.793-1.68 1.06-2.4.133-.347.34-.574.62-.68.293-.12.6-.127.92-.02.293.106.5.293.62.56.133.253.14.546.02.88-.16.44-.34.893-.54 1.36-.2.453-.413.913-.64 1.38v8.32c.387-.387.8-.847 1.24-1.38.44-.534.887-1.1 1.34-1.7a52.5 52.5 0 0 0 1.26-1.78c.4-.587.74-1.114 1.02-1.58h-3.2c-.293 0-.553-.107-.78-.32a1.065 1.065 0 0 1-.32-.78c0-.307.107-.567.32-.78.227-.214.487-.32.78-.32h3.96v-2.92c0-.347.113-.627.34-.84.227-.214.507-.32.84-.32.32 0 .593.106.82.32.227.213.34.493.34.84v2.92h4.3c.307 0 .567.106.78.32.227.213.34.473.34.78 0 .306-.113.566-.34.78-.213.213-.473.32-.78.32h-3.62c.28.466.62.98 1.02 1.54a65.6 65.6 0 0 0 1.3 1.7c.453.573.907 1.12 1.36 1.64.467.506.887.953 1.26 1.34.227.226.347.506.36.84.013.333-.113.626-.38.88a1.37 1.37 0 0 1-.92.38c-.347 0-.64-.127-.88-.38a25.495 25.495 0 0 1-1.94-2.32c-.68-.907-1.3-1.807-1.86-2.7v3.84h1.5c.32 0 .593.12.82.36.24.226.36.5.36.82 0 .333-.12.613-.36.84-.227.226-.5.34-.82.34h-1.5v2.1c0 .346-.113.626-.34.84-.227.213-.5.32-.82.32Zm12.78.3c-.333 0-.62-.114-.86-.34-.227-.214-.34-.5-.34-.86v-6.48c0-.854.113-1.514.34-1.98.24-.48.627-.814 1.16-1 .547-.2 1.287-.3 2.22-.3h4.52c.933 0 1.667.1 2.2.3.547.186.933.52 1.16 1 .24.466.36 1.126.36 1.98v4.58c0 .773-.1 1.38-.3 1.82-.2.44-.527.746-.98.92-.44.186-1.047.28-1.82.28-.387 0-.7-.107-.94-.32-.227-.2-.353-.474-.38-.82-.013-.294.073-.56.26-.8a.993.993 0 0 1 .72-.4c.467-.04.76-.107.88-.2.12-.094.18-.314.18-.66v-.4h-7.18v2.48c0 .36-.12.646-.36.86-.227.226-.507.34-.84.34Zm11.78-10.9a52.807 52.807 0 0 0-.72-.62 26.452 26.452 0 0 0-.84-.72l-2.38.18c-.88.053-1.8.113-2.76.18l-2.88.16c-.947.053-1.847.1-2.7.14-.853.026-1.607.053-2.26.08-.32.013-.593-.08-.82-.28-.227-.2-.347-.46-.36-.78-.013-.32.08-.58.28-.78.2-.2.48-.3.84-.3a440.369 440.369 0 0 1 3.08-.08c.173-.24.353-.5.54-.78.187-.294.367-.567.54-.82h-4.86c-.293 0-.527-.094-.7-.28-.173-.2-.26-.427-.26-.68 0-.267.087-.487.26-.66.173-.187.407-.28.7-.28h7.02v-.94c0-.387.12-.687.36-.9.253-.214.547-.32.88-.32.347 0 .633.106.86.32.24.213.36.513.36.9v.94h7.14c.307 0 .54.093.7.28.173.173.26.393.26.66 0 .253-.087.48-.26.68-.16.186-.393.28-.7.28h-3.38c.44.28.887.586 1.34.92.453.32.88.633 1.28.94.413.306.753.58 1.02.82.24.213.373.466.4.76.027.293-.073.573-.3.84a1.154 1.154 0 0 1-.82.42 1.113 1.113 0 0 1-.86-.28Zm-10.58 5.44h7.18v-.9h-7.18v.9Zm.02-2.66h7.14c-.04-.374-.167-.62-.38-.74-.213-.134-.587-.2-1.12-.2h-4.14c-.533 0-.907.066-1.12.2-.213.12-.34.366-.38.74Zm1.96-5.7c.827-.027 1.64-.06 2.44-.1.813-.04 1.567-.08 2.26-.12a1.55 1.55 0 0 1-.14-.08.311.311 0 0 0-.12-.08c-.213-.147-.353-.32-.42-.52-.053-.2-.04-.4.04-.6h-3.02c-.133.2-.293.433-.48.7l-.56.8Zm25.4 13.18c-1.12 0-1.913-.207-2.38-.62-.453-.4-.68-1.127-.68-2.18v-6.98c0-.267.013-.514.04-.74.027-.227.067-.427.12-.6a.454.454 0 0 1-.14.02 1.12 1.12 0 0 1-.76-.28c-.2-.187-.3-.44-.3-.76v-1.54c0-.107.007-.207.02-.3a.401.401 0 0 1-.12.2 1.01 1.01 0 0 1-.74.4 1.095 1.095 0 0 1-.8-.28c-.24-.227-.54-.514-.9-.86-.347-.347-.64-.634-.88-.86-.24-.227-.44-.34-.6-.34-.147-.014-.333.113-.56.38-.24.293-.54.626-.9 1-.36.373-.727.74-1.1 1.1-.373.36-.707.666-1 .92-.24.2-.5.286-.78.26-.28-.027-.533-.16-.76-.4a.858.858 0 0 1-.24-.74c.053-.28.187-.507.4-.68.333-.254.68-.554 1.04-.9.373-.36.74-.72 1.1-1.08.36-.374.673-.714.94-1.02.587-.64 1.173-.954 1.76-.94.6 0 1.213.28 1.84.84.267.253.6.546 1 .88.413.333.753.613 1.02.84.227.2.36.433.4.7.147-.467.42-.8.82-1 .4-.214 1.007-.32 1.82-.32h.7v-1.12c0-.347.113-.62.34-.82.227-.214.5-.32.82-.32.307 0 .573.106.8.32.227.2.34.473.34.82v1.12h.82c.733 0 1.3.086 1.7.26.4.16.68.426.84.8.16.36.24.846.24 1.46v1.22c0 .32-.107.573-.32.76-.2.186-.447.28-.74.28-.133 0-.253-.02-.36-.06.12.373.18.833.18 1.38 0 1.04-.227 1.766-.68 2.18-.44.4-1.18.6-2.22.6h-2v1.38h2.6c1.04 0 1.78.206 2.22.62.453.413.68 1.14.68 2.18 0 1.04-.227 1.766-.68 2.18-.44.426-1.18.64-2.22.64h-1.74Zm-11.7-.12c-.333.08-.633.046-.9-.1-.253-.134-.427-.367-.52-.7a.988.988 0 0 1 .14-.8c.16-.24.413-.4.76-.48l.32-.08c.12-.027.247-.054.38-.08v-7.66c0-.907.187-1.547.56-1.92.373-.374.967-.587 1.78-.64v-1.18c0-.307.1-.547.3-.72.213-.187.46-.28.74-.28.293 0 .54.093.74.28.213.173.32.413.32.72v1.18c.827.053 1.427.266 1.8.64.373.373.56 1.013.56 1.92v1.88c0 1.013-.227 1.7-.68 2.06-.44.346-1.207.52-2.3.52h-1.72v2.66c.36-.107.713-.207 1.06-.3.36-.094.693-.187 1-.28a1.782 1.782 0 0 0-.16-.24c-.053-.08-.1-.154-.14-.22a.865.865 0 0 1-.12-.72.918.918 0 0 1 .44-.58c.253-.16.513-.214.78-.16.267.053.487.193.66.42.213.28.44.613.68 1 .24.373.467.746.68 1.12.227.373.413.713.56 1.02.147.28.18.546.1.8-.067.266-.26.48-.58.64a1.09 1.09 0 0 1-.84.06.969.969 0 0 1-.6-.54 5.308 5.308 0 0 0-.2-.4c-.067-.134-.14-.274-.22-.42-.493.16-1.08.34-1.76.54-.68.2-1.347.393-2 .58-.64.186-1.18.34-1.62.46Zm14.84-12.02v-1c0-.32-.067-.54-.2-.66-.133-.134-.387-.2-.76-.2h-3.2c-.373 0-.627.066-.76.2-.133.12-.2.34-.2.66v.88c.227-.107.493-.18.8-.22.307-.054.66-.08 1.06-.08h1.26c.44 0 .827.033 1.16.1.333.066.613.173.84.32Zm-2.82 10.1h1.1c.387 0 .653-.06.8-.18.147-.12.22-.347.22-.68 0-.347-.073-.574-.22-.68-.147-.12-.413-.18-.8-.18h-2.28v.7c0 .413.08.686.24.82.173.133.487.2.94.2Zm-1.18-6.9h1.72c.387 0 .647-.06.78-.18.147-.12.22-.347.22-.68 0-.347-.073-.574-.22-.68-.133-.12-.393-.18-.78-.18h-.62c-.413 0-.7.08-.86.24-.16.146-.24.413-.24.8v.68Zm-8.56 1.6H145c.427 0 .693-.047.8-.14.107-.107.16-.327.16-.66v-.22h-2.6v1.02Zm0-2.5h2.6v-.18c0-.307-.053-.514-.16-.62-.107-.107-.373-.16-.8-.16h-.68c-.413 0-.68.046-.8.14-.107.093-.16.306-.16.64v.18Z"/>
  <defs>
    <clipPath id="a">
      <path fill="#fff" d="M9 103.675h219v210.641H9z"/>
    </clipPath>
    <clipPath id="d">
      <path fill="#fff" d="M63.714 185.83h24.172v23.44H63.714z"/>
    </clipPath>
    <clipPath id="e">
      <path fill="#fff" d="M93.014 145.542h16.115v16.115H93.014z"/>
    </clipPath>
    <clipPath id="f">
      <path fill="#fff" d="M140.626 234.174h16.115v16.115h-16.115z"/>
    </clipPath>
    <clipPath id="g">
      <path fill="#fff" d="M9 529.675h219v210.641H9z"/>
    </clipPath>
    <clipPath id="j">
      <path fill="#fff" d="M93 668h24.567v24.199H93z"/>
    </clipPath>
    <clipPath id="k">
      <path fill="#fff" d="M41 595h25.768v31.39H41z"/>
    </clipPath>
  </defs>
</svg>
