<svg xmlns="http://www.w3.org/2000/svg" width="261" height="474" fill="none" viewBox="0 0 261 474">
  <path fill="#F8F1F1" d="M0 474V0h261v474z"/>
  <rect width="256" height="379" x="2.5" y="53.5" fill="#FFEFED" stroke="#C63D2F" stroke-width="5" rx="5.5"/>
  <rect width="198" height="285" x="31.5" y="116.5" fill="#F6F1EE" stroke="#6C5F5B" stroke-width="5" rx="7.5"/>
  <path fill="#6C5F5B" d="M34 184h5a3 3 0 0 1 3 3v39a3 3 0 0 1-3 3h-5v-45Z"/>
  <path fill="#000" d="M46.363 206.935a1.28 1.28 0 0 1-.884.187.979.979 0 0 1-.731-.493 1.018 1.018 0 0 1-.085-.833c.09-.295.278-.521.561-.68a12.897 12.897 0 0 0 3.281-2.686 13.739 13.739 0 0 0 2.21-3.417c.555-1.224.884-2.437.986-3.638.045-.453-.028-.771-.221-.952-.181-.181-.544-.272-1.088-.272h-1.853a.961.961 0 0 1-.68-.272.96.96 0 0 1-.272-.68c0-.261.09-.482.272-.663a.93.93 0 0 1 .68-.289h1.853c.85 0 1.519.085 2.006.255.499.17.856.465 1.071.884.215.408.323.98.323 1.717 0 1.394.25 2.697.748 3.91a11.547 11.547 0 0 0 2.125 3.349 16.702 16.702 0 0 0 3.281 2.754c.26.17.414.414.459.731.057.317-.006.601-.187.85a.954.954 0 0 1-.765.442 1.253 1.253 0 0 1-.884-.238 19.287 19.287 0 0 1-3.587-3.264 12.726 12.726 0 0 1-2.38-4.199 17.202 17.202 0 0 1-2.567 4.25 15.941 15.941 0 0 1-3.672 3.247Zm4.641 15.487c-1.575 0-2.771-.374-3.587-1.122-.816-.759-1.224-1.961-1.224-3.604v-2.312c0-1.655.425-2.856 1.275-3.604.85-.748 2.063-1.122 3.638-1.122h2.788c1.587 0 2.8.374 3.638 1.122.85.748 1.275 1.949 1.275 3.604v2.312c0 1.643-.425 2.845-1.275 3.604-.839.748-2.051 1.122-3.638 1.122h-2.89Zm.425-1.955h2.244c1.031 0 1.78-.204 2.244-.612.465-.419.697-1.15.697-2.193v-2.244c0-1.043-.232-1.768-.697-2.176-.465-.419-1.213-.629-2.244-.629h-2.346c-1.031 0-1.78.21-2.244.629-.465.408-.697 1.133-.697 2.176v2.244c0 1.043.25 1.774.748 2.193.499.408 1.264.612 2.295.612Zm49.125-182.691v-1.407h17.892v1.407h-17.892Zm23.94 7.245V29.019h12.012v16.002h-12.012Zm1.407-1.302h9.198v-6.216h-9.198v6.216Zm0-7.497h9.198v-5.901h-9.198v5.901Zm19.53 9.261V28.746h12.138v16.737h-12.138Zm1.365-1.26h9.429v-4.011h-9.429v4.011Zm0-5.292h9.429v-3.822h-9.429v3.822Zm0-5.103h9.429v-3.822h-9.429v3.822Z"/>
  <rect width="82" height="31" x="91" y="67" fill="#E25E3E" rx="5"/>
  <path fill="#fff" d="M110.3 89.305a.652.652 0 0 1-.48-.195.622.622 0 0 1-.195-.48v-1.995h-1.485a.652.652 0 0 1-.48-.195.652.652 0 0 1-.195-.48c0-.19.065-.35.195-.48s.29-.195.48-.195h1.485v-3.54c-.3.53-.64 1.065-1.02 1.605s-.77 1.05-1.17 1.53a18.2 18.2 0 0 1-1.125 1.245c-.14.14-.31.22-.51.24a.692.692 0 0 1-.72-.66c0-.18.065-.335.195-.465.34-.32.7-.7 1.08-1.14.38-.45.755-.925 1.125-1.425s.71-.99 1.02-1.47c.32-.49.58-.94.78-1.35h-2.985c-.17 0-.32-.06-.45-.18a.644.644 0 0 1-.18-.45c0-.18.06-.33.18-.45.13-.13.28-.195.45-.195h3.33v-2.52c0-.2.065-.36.195-.48s.29-.18.48-.18.35.06.48.18.195.28.195.48v2.52h3.48c.17 0 .32.065.45.195a.618.618 0 0 1 0 .9c-.13.12-.28.18-.45.18h-3.12c.2.42.455.87.765 1.35.32.48.665.96 1.035 1.44.38.48.76.94 1.14 1.38.38.43.74.81 1.08 1.14.14.13.21.285.21.465.01.18-.06.345-.21.495a.736.736 0 0 1-.54.225.75.75 0 0 1-.51-.225 27.194 27.194 0 0 1-2.325-2.82c-.37-.54-.705-1.07-1.005-1.59v3.57h1.5c.19 0 .35.065.48.195s.195.29.195.48-.065.35-.195.48a.652.652 0 0 1-.48.195h-1.5v1.995c0 .2-.065.36-.195.48a.652.652 0 0 1-.48.195Zm-5.94-.03a.652.652 0 0 1-.48-.195.652.652 0 0 1-.195-.48v-7.665c-.19.28-.38.555-.57.825-.19.27-.385.525-.585.765a.674.674 0 0 1-.96.105.69.69 0 0 1-.24-.42.589.589 0 0 1 .135-.465c.32-.38.64-.815.96-1.305.33-.49.645-1 .945-1.53.3-.53.57-1.05.81-1.56.25-.51.45-.975.6-1.395.08-.2.2-.335.36-.405.17-.08.35-.085.54-.015.17.06.295.17.375.33.08.15.08.32 0 .51-.13.36-.285.735-.465 1.125-.18.38-.37.765-.57 1.155V88.6c0 .19-.065.35-.195.48a.635.635 0 0 1-.465.195Zm15.51.195a.704.704 0 0 1-.495-.195c-.13-.12-.195-.285-.195-.495v-4.965c0-.62.085-1.105.255-1.455.17-.35.45-.595.84-.735.4-.14.935-.21 1.605-.21h3.255c.67 0 1.2.07 1.59.21.4.14.685.385.855.735.17.35.255.835.255 1.455v3.48c0 .54-.07.965-.21 1.275-.14.31-.38.53-.72.66-.33.13-.795.195-1.395.195-.22 0-.395-.065-.525-.195a.772.772 0 0 1-.225-.48c-.01-.17.04-.33.15-.48a.57.57 0 0 1 .435-.225c.34-.02.585-.05.735-.09.16-.04.265-.115.315-.225.05-.12.075-.295.075-.525v-.525h-5.925v2.1c0 .21-.065.375-.195.495a.652.652 0 0 1-.48.195Zm9.12-8.1a24.79 24.79 0 0 0-1.335-1.125c-.68.05-1.445.105-2.295.165-.85.06-1.73.115-2.64.165-.9.05-1.78.095-2.64.135-.85.04-1.62.07-2.31.09a.736.736 0 0 1-.495-.18.71.71 0 0 1-.225-.465.583.583 0 0 1 .165-.465c.13-.13.305-.195.525-.195.74 0 1.56-.015 2.46-.045.16-.22.325-.46.495-.72.18-.26.34-.505.48-.735h-4.02a.588.588 0 0 1-.435-.165.636.636 0 0 1-.15-.42c0-.16.05-.295.15-.405a.588.588 0 0 1 .435-.165h5.595v-.975c0-.21.07-.375.21-.495a.704.704 0 0 1 .495-.195c.2 0 .37.065.51.195.14.12.21.285.21.495v.975h5.655c.17 0 .31.055.42.165a.55.55 0 0 1 .165.405c0 .16-.055.3-.165.42a.569.569 0 0 1-.42.165h-3.105c.35.22.725.475 1.125.765.4.29.785.575 1.155.855s.675.53.915.75c.14.13.215.28.225.45.02.17-.035.33-.165.48a.728.728 0 0 1-.495.255.65.65 0 0 1-.495-.18Zm-8.445 4.185h5.925v-.9h-5.925v.9Zm.015-2.025h5.895c-.03-.38-.145-.63-.345-.75-.19-.13-.53-.195-1.02-.195h-3.15c-.49 0-.835.065-1.035.195-.2.12-.315.37-.345.75Zm1.32-4.155c.77-.03 1.53-.065 2.28-.105.75-.04 1.445-.08 2.085-.12-.1-.07-.2-.135-.3-.195-.09-.07-.175-.13-.255-.18a.594.594 0 0 1-.255-.36c-.02-.15.01-.29.09-.42h-2.67c-.13.2-.285.425-.465.675-.17.24-.34.475-.51.705Zm19.47 9.615c-.79 0-1.35-.145-1.68-.435-.33-.29-.495-.8-.495-1.53v-5.28c0-.73.16-1.24.48-1.53.32-.29.865-.435 1.635-.435h.87c.74 0 1.265.145 1.575.435.32.29.48.8.48 1.53s-.16 1.245-.48 1.545c-.31.29-.835.435-1.575.435h-1.71V85h2.175c.75 0 1.28.15 1.59.45.32.3.48.815.48 1.545s-.16 1.245-.48 1.545c-.31.3-.84.45-1.59.45h-1.275Zm-8.925-.09a.76.76 0 0 1-.54-.045c-.15-.08-.25-.22-.3-.42a.58.58 0 0 1 .075-.465c.1-.15.25-.245.45-.285l.345-.06c.12-.03.245-.065.375-.105v-5.91c0-.65.14-1.105.42-1.365.28-.27.735-.415 1.365-.435v-1.125c0-.18.06-.325.18-.435a.657.657 0 0 1 .87 0c.12.11.18.255.18.435v1.125c.63.03 1.085.18 1.365.45.29.26.435.71.435 1.35v1.455c0 .7-.155 1.18-.465 1.44-.3.25-.84.375-1.62.375h-1.515v2.34c.37-.1.735-.2 1.095-.3.36-.1.68-.195.96-.285-.07-.11-.135-.21-.195-.3s-.12-.17-.18-.24a.46.46 0 0 1-.075-.405.62.62 0 0 1 .255-.36c.15-.1.3-.135.45-.105a.66.66 0 0 1 .405.255c.16.21.335.46.525.75.19.28.375.565.555.855.18.29.33.555.45.795.08.16.1.315.06.465-.04.15-.155.27-.345.36-.16.08-.32.09-.48.03a.588.588 0 0 1-.36-.315c-.05-.11-.115-.23-.195-.36-.07-.13-.145-.265-.225-.405l-1.005.315-1.185.345c-.41.12-.8.23-1.17.33-.37.1-.69.185-.96.255Zm6.51-8.205a.62.62 0 0 1-.435-.165.562.562 0 0 1-.18-.435v-.96c0-.66.14-1.125.42-1.395.29-.27.815-.405 1.575-.405h.765v-1.14c0-.2.065-.36.195-.48s.29-.18.48-.18c.18 0 .335.06.465.18s.195.28.195.48v1.14h.78c.77 0 1.295.135 1.575.405s.42.735.42 1.395v.96c0 .18-.065.325-.195.435a.62.62 0 0 1-.435.165.62.62 0 0 1-.435-.165.562.562 0 0 1-.18-.435v-.855c0-.3-.065-.505-.195-.615-.13-.11-.37-.165-.72-.165h-2.565c-.35 0-.59.055-.72.165-.13.11-.195.315-.195.615v.855c0 .18-.06.325-.18.435a.62.62 0 0 1-.435.165Zm-6.6-.81a.668.668 0 0 1-.465.15.805.805 0 0 1-.45-.225.545.545 0 0 1-.135-.435.574.574 0 0 1 .225-.405c.26-.2.535-.44.825-.72.3-.29.59-.585.87-.885.29-.31.54-.585.75-.825.38-.44.765-.66 1.155-.66.4-.01.805.18 1.215.57.17.15.36.32.57.51.21.19.42.375.63.555l.57.465c.14.1.22.235.24.405a.616.616 0 0 1-.585.69.657.657 0 0 1-.48-.165c-.23-.2-.505-.45-.825-.75l-.795-.795c-.18-.18-.335-.27-.465-.27s-.28.1-.45.3c-.2.26-.445.545-.735.855-.29.31-.58.61-.87.9-.29.29-.555.535-.795.735Zm9.18 7.92h.96c.35 0 .595-.06.735-.18s.21-.34.21-.66c0-.33-.07-.555-.21-.675-.14-.12-.385-.18-.735-.18h-2.025v.78c0 .35.075.59.225.72.16.13.44.195.84.195Zm-1.065-5.235h1.575c.35 0 .59-.055.72-.165.14-.12.21-.34.21-.66s-.07-.535-.21-.645c-.13-.12-.37-.18-.72-.18h-.54c-.38 0-.65.065-.81.195-.15.13-.225.365-.225.705v.75Zm-6.405 1.245h1.515c.36 0 .59-.04.69-.12.11-.08.165-.29.165-.63v-.255h-2.37v1.005Zm0-1.98h2.37v-.225c0-.29-.055-.485-.165-.585-.1-.1-.33-.15-.69-.15h-.675c-.36 0-.59.045-.69.135-.1.08-.15.28-.15.6v.225Zm18.885 3.81c-.54 0-.965-.055-1.275-.165-.31-.11-.53-.3-.66-.57-.13-.27-.195-.635-.195-1.095V77.8c0-.47.065-.835.195-1.095s.35-.445.66-.555c.31-.11.735-.165 1.275-.165.55 0 .975.055 1.275.165.31.11.53.295.66.555.13.26.195.625.195 1.095v6.015c0 .46-.065.825-.195 1.095s-.35.46-.66.57c-.3.11-.725.165-1.275.165Zm-4.095 3.63c-.17 0-.32-.06-.45-.18a.58.58 0 0 1-.18-.45V80.74c-.25.47-.515.915-.795 1.335-.1.15-.235.25-.405.3-.17.04-.34.01-.51-.09a.593.593 0 0 1-.195-.855 14.6 14.6 0 0 0 1.005-1.71c.34-.65.645-1.315.915-1.995.28-.68.49-1.305.63-1.875.05-.2.15-.335.3-.405a.69.69 0 0 1 .51-.045.61.61 0 0 1 .375.285c.08.14.09.305.03.495a20.99 20.99 0 0 1-.6 1.785v10.68c0 .19-.065.34-.195.45a.593.593 0 0 1-.435.18Zm8.745-.135c-.19 0-.35-.06-.48-.18a.67.67 0 0 1-.21-.48.65.65 0 0 1 .165-.495c.13-.13.3-.205.51-.225.31-.03.535-.065.675-.105.15-.05.245-.14.285-.27.05-.13.075-.335.075-.615V76.045c0-.19.06-.34.18-.45.13-.12.28-.18.45-.18.17 0 .315.06.435.18.13.11.195.26.195.45v10.98c0 .78-.165 1.325-.495 1.635-.32.32-.915.48-1.785.48Zm-.81-3.33c-.16 0-.3-.05-.42-.15a.545.545 0 0 1-.18-.42V77.2a.5.5 0 0 1 .18-.405c.12-.11.26-.165.42-.165.17 0 .31.055.42.165a.5.5 0 0 1 .18.405v8.04c0 .17-.06.31-.18.42a.6.6 0 0 1-.42.15Zm-6.66 2.985a.595.595 0 0 1-.195-.42c-.01-.17.04-.31.15-.42.26-.24.53-.52.81-.84.28-.32.515-.63.705-.93a.47.47 0 0 1 .375-.24c.17-.02.32.015.45.105.14.08.225.2.255.36.03.15 0 .295-.09.435-.19.31-.425.635-.705.975-.28.34-.555.645-.825.915-.13.13-.28.2-.45.21a.63.63 0 0 1-.48-.15Zm5.835-.045a.637.637 0 0 1-.465.165.618.618 0 0 1-.45-.195 18.087 18.087 0 0 1-1.08-1.26c-.18-.24-.33-.45-.45-.63-.1-.15-.13-.3-.09-.45.05-.16.14-.28.27-.36.14-.08.285-.11.435-.09.15.01.27.085.36.225.12.17.27.365.45.585.18.22.365.435.555.645.19.21.36.385.51.525.11.11.165.25.165.42 0 .17-.07.31-.21.42Zm-3.015-4.215c.38 0 .63-.055.75-.165.12-.12.18-.35.18-.69v-.99h-1.845v.99c0 .34.06.57.18.69.12.11.365.165.735.165Zm-.915-2.91h1.845v-1.74h-1.845v1.74Zm0-2.805h1.845v-.885c0-.34-.06-.565-.18-.675-.12-.11-.37-.165-.75-.165-.37 0-.615.055-.735.165-.12.11-.18.335-.18.675v.885Z"/>
  <rect width="97" height="54" x="91" y="213" fill="#E25E3E" rx="5"/>
  <path fill="#F8F1F1" d="M112.569 247.52v-3.439h-7.6v-1.52h7.6v-1.406h-5.187v-6.84h4.997v-4.275h1.824v1.444h6.631v1.444h-6.631v1.387h5.453v6.84h-5.263v1.406h7.676v1.52h-7.676v3.439h-1.824Zm-3.458-7.752h8.816v-1.387h-8.816v1.387Zm0-2.679h8.816v-1.387h-8.816v1.387Zm23.617 10.298a9.097 9.097 0 0 0-.152-.874 5.41 5.41 0 0 0-.228-.798h1.368c.253 0 .437-.044.551-.133.114-.089.171-.253.171-.494v-2.85c-.393.355-.849.728-1.368 1.121-.519.393-1.039.766-1.558 1.121-.519.342-.994.633-1.425.874l-1.045-1.368c.38-.177.804-.405 1.273-.684.481-.291.969-.602 1.463-.931.507-.342.988-.684 1.444-1.026a20.13 20.13 0 0 0 1.216-.988v-5.225h-4.332v-1.501h4.332v-3.439h1.691v3.439h2.679a12.146 12.146 0 0 0-.931-1.064 8.527 8.527 0 0 0-1.064-1.007l1.159-.931c.203.152.431.355.684.608.266.241.519.494.76.76.253.253.469.488.646.703-.063.038-.177.12-.342.247-.152.114-.31.234-.475.361a4.032 4.032 0 0 0-.38.323h1.9v1.501h-4.636v2.432c.329.798.779 1.621 1.349 2.47a20.495 20.495 0 0 0 1.957 2.394 15.88 15.88 0 0 0 2.185 1.938 9.213 9.213 0 0 0-.988.855 2.763 2.763 0 0 0-.342.399 18.838 18.838 0 0 1-1.558-1.501 22.402 22.402 0 0 1-1.501-1.786 11.36 11.36 0 0 1-1.102-1.805v5.13c0 .595-.165 1.032-.494 1.311-.329.279-.836.418-1.52.418h-1.387Zm-8.664-2.508-.589-1.596c.329-.063.735-.152 1.216-.266a38.23 38.23 0 0 0 1.558-.437v-4.294h-2.166v-1.539h2.166v-3.667h-2.337v-1.52h6.346v1.52h-2.337v3.667h2.128v1.539h-2.128v3.762c.481-.165.925-.323 1.33-.475a9.75 9.75 0 0 0 1.007-.418v1.596c-.342.165-.779.348-1.311.551-.532.19-1.096.393-1.691.608-.595.203-1.178.393-1.748.57-.557.165-1.039.298-1.444.399Zm14.269-4.997-1.273-.893c.215-.241.443-.551.684-.931.253-.38.494-.766.722-1.159.228-.393.399-.735.513-1.026l1.577.741c-.19.342-.412.716-.665 1.121-.253.393-.513.779-.779 1.159-.266.367-.526.697-.779.988Zm-5.776.038a13.333 13.333 0 0 0-.646-.912 17.393 17.393 0 0 0-.836-1.064 7.783 7.783 0 0 0-.741-.836l1.349-.855c.215.203.462.469.741.798.291.317.576.652.855 1.007.279.355.5.678.665.969a6.111 6.111 0 0 0-.494.285c-.19.114-.367.228-.532.342a5.547 5.547 0 0 0-.361.266Zm12.977 7.125v-7.372h11.875v7.372h-11.875Zm13.262-7.961c-.203-.291-.45-.614-.741-.969a23.59 23.59 0 0 0-.95-1.121c-.684.089-1.501.177-2.451.266-.95.089-1.963.171-3.04.247-1.064.076-2.122.146-3.173.209a430.82 430.82 0 0 1-2.945.133c-.912.038-1.672.063-2.28.076l-.323-1.748c.405.013.887.013 1.444 0 .557-.013 1.165-.025 1.824-.038a.942.942 0 0 1 .19-.019h.19c.279-.393.576-.855.893-1.387a36.17 36.17 0 0 0 1.767-3.306c.253-.532.437-.975.551-1.33l1.9.437c-.165.367-.374.792-.627 1.273-.241.481-.507.975-.798 1.482a41.725 41.725 0 0 1-.855 1.482c-.279.481-.545.906-.798 1.273l2.622-.114c.887-.051 1.723-.101 2.508-.152.798-.063 1.501-.12 2.109-.171-.823-.849-1.583-1.539-2.28-2.071l1.254-1.159c.405.329.855.728 1.349 1.197.507.469 1.013.963 1.52 1.482a32.686 32.686 0 0 1 1.463 1.52c.456.494.842.937 1.159 1.33a3.6 3.6 0 0 0-.513.361 10.934 10.934 0 0 0-.969.817Zm-11.419 6.308h8.189v-4.066h-8.189v4.066Zm15.086.608v-13.3h5.263c1.178 0 2.096.291 2.755.874.671.57 1.007 1.4 1.007 2.489 0 .747-.171 1.374-.513 1.881a2.716 2.716 0 0 1-1.349 1.064c.722.165 1.311.564 1.767 1.197.469.621.703 1.362.703 2.223 0 1.191-.355 2.084-1.064 2.679-.697.595-1.716.893-3.059.893h-5.51Zm1.729-1.634h3.572c.861 0 1.488-.171 1.881-.513.393-.355.589-.899.589-1.634 0-.709-.234-1.26-.703-1.653s-1.064-.589-1.786-.589h-3.553v4.389Zm0-6.042h3.344c.671 0 1.184-.184 1.539-.551.355-.367.532-.855.532-1.463 0-1.317-.728-1.976-2.185-1.976h-3.23v3.99Z"/>
  <rect width="97" height="54" x="91" y="141" fill="#E25E3E" rx="5"/>
  <path fill="#F8F1F1" d="M112.569 175.52v-3.439h-7.6v-1.52h7.6v-1.406h-5.187v-6.84h4.997v-4.275h1.824v1.444h6.631v1.444h-6.631v1.387h5.453v6.84h-5.263v1.406h7.676v1.52h-7.676v3.439h-1.824Zm-3.458-7.752h8.816v-1.387h-8.816v1.387Zm0-2.679h8.816v-1.387h-8.816v1.387Zm23.617 10.298a9.097 9.097 0 0 0-.152-.874 5.41 5.41 0 0 0-.228-.798h1.368c.253 0 .437-.044.551-.133.114-.089.171-.253.171-.494v-2.85c-.393.355-.849.728-1.368 1.121-.519.393-1.039.766-1.558 1.121-.519.342-.994.633-1.425.874l-1.045-1.368c.38-.177.804-.405 1.273-.684.481-.291.969-.602 1.463-.931.507-.342.988-.684 1.444-1.026a20.13 20.13 0 0 0 1.216-.988v-5.225h-4.332v-1.501h4.332v-3.439h1.691v3.439h2.679a12.146 12.146 0 0 0-.931-1.064 8.527 8.527 0 0 0-1.064-1.007l1.159-.931c.203.152.431.355.684.608.266.241.519.494.76.76.253.253.469.488.646.703-.063.038-.177.12-.342.247-.152.114-.31.234-.475.361a4.032 4.032 0 0 0-.38.323h1.9v1.501h-4.636v2.432c.329.798.779 1.621 1.349 2.47a20.495 20.495 0 0 0 1.957 2.394 15.88 15.88 0 0 0 2.185 1.938 9.213 9.213 0 0 0-.988.855 2.763 2.763 0 0 0-.342.399 18.838 18.838 0 0 1-1.558-1.501 22.402 22.402 0 0 1-1.501-1.786 11.36 11.36 0 0 1-1.102-1.805v5.13c0 .595-.165 1.032-.494 1.311-.329.279-.836.418-1.52.418h-1.387Zm-8.664-2.508-.589-1.596c.329-.063.735-.152 1.216-.266a38.23 38.23 0 0 0 1.558-.437v-4.294h-2.166v-1.539h2.166v-3.667h-2.337v-1.52h6.346v1.52h-2.337v3.667h2.128v1.539h-2.128v3.762c.481-.165.925-.323 1.33-.475a9.75 9.75 0 0 0 1.007-.418v1.596c-.342.165-.779.348-1.311.551-.532.19-1.096.393-1.691.608-.595.203-1.178.393-1.748.57-.557.165-1.039.298-1.444.399Zm14.269-4.997-1.273-.893c.215-.241.443-.551.684-.931.253-.38.494-.766.722-1.159.228-.393.399-.735.513-1.026l1.577.741c-.19.342-.412.716-.665 1.121-.253.393-.513.779-.779 1.159-.266.367-.526.697-.779.988Zm-5.776.038a13.333 13.333 0 0 0-.646-.912 17.393 17.393 0 0 0-.836-1.064 7.783 7.783 0 0 0-.741-.836l1.349-.855c.215.203.462.469.741.798.291.317.576.652.855 1.007.279.355.5.678.665.969a6.111 6.111 0 0 0-.494.285c-.19.114-.367.228-.532.342a5.547 5.547 0 0 0-.361.266Zm12.977 7.125v-7.372h11.875v7.372h-11.875Zm13.262-7.961c-.203-.291-.45-.614-.741-.969a23.59 23.59 0 0 0-.95-1.121c-.684.089-1.501.177-2.451.266-.95.089-1.963.171-3.04.247-1.064.076-2.122.146-3.173.209a430.82 430.82 0 0 1-2.945.133c-.912.038-1.672.063-2.28.076l-.323-1.748c.405.013.887.013 1.444 0 .557-.013 1.165-.025 1.824-.038a.942.942 0 0 1 .19-.019h.19c.279-.393.576-.855.893-1.387a36.17 36.17 0 0 0 1.767-3.306c.253-.532.437-.975.551-1.33l1.9.437c-.165.367-.374.792-.627 1.273-.241.481-.507.975-.798 1.482a41.725 41.725 0 0 1-.855 1.482c-.279.481-.545.906-.798 1.273l2.622-.114c.887-.051 1.723-.101 2.508-.152.798-.063 1.501-.12 2.109-.171-.823-.849-1.583-1.539-2.28-2.071l1.254-1.159c.405.329.855.728 1.349 1.197.507.469 1.013.963 1.52 1.482a32.686 32.686 0 0 1 1.463 1.52c.456.494.842.937 1.159 1.33a3.6 3.6 0 0 0-.513.361 10.934 10.934 0 0 0-.969.817Zm-11.419 6.308h8.189v-4.066h-8.189v4.066Zm13.889.608 5.187-13.3h1.539l5.187 13.3h-1.957l-1.273-3.401h-5.491L163.185 174h-1.919Zm3.781-5.035h4.313l-2.128-5.776-2.185 5.776Z"/>
  <rect width="174" height="105" x="47" y="285" fill="#CFB997" rx="5"/>
  <path fill="#4F4A45" d="M125.491 344.155c-.224 0-.399-.07-.525-.21a.727.727 0 0 1-.189-.504c0-.21.063-.385.189-.525s.301-.21.525-.21h4.116v-4.452c0-.686.091-1.232.273-1.638.182-.406.511-.693.987-.861.476-.182 1.141-.273 1.995-.273h3.276c.868 0 1.533.091 1.995.273.476.168.805.455.987.861.182.406.273.952.273 1.638v4.452h4.095c.238 0 .42.07.546.21.126.14.189.315.189.525a.727.727 0 0 1-.189.504c-.126.14-.308.21-.546.21h-17.997Zm6.321-12.033c-1.092 0-1.925-.091-2.499-.273-.56-.196-.945-.525-1.155-.987-.196-.476-.294-1.134-.294-1.974 0-.854.098-1.512.294-1.974.21-.462.595-.784 1.155-.966.574-.196 1.407-.294 2.499-.294h5.334c1.106 0 1.939.098 2.499.294.574.182.959.504 1.155.966.21.462.315 1.12.315 1.974 0 .84-.105 1.498-.315 1.974-.196.462-.581.791-1.155.987-.56.182-1.393.273-2.499.273h-5.334Zm-5.46 5.187a.927.927 0 0 1-.651-.252.913.913 0 0 1-.273-.672v-.651c0-.686.098-1.218.294-1.596.21-.392.567-.665 1.071-.819.518-.168 1.232-.252 2.142-.252h11.13c.91 0 1.617.084 2.121.252.518.154.875.427 1.071.819.21.378.315.91.315 1.596v.651c0 .28-.091.504-.273.672a.927.927 0 0 1-.651.252.954.954 0 0 1-.672-.252c-.168-.168-.252-.392-.252-.672v-.588c0-.56-.119-.91-.357-1.05-.224-.154-.658-.231-1.302-.231h-11.13c-.644 0-1.078.077-1.302.231-.224.14-.336.49-.336 1.05v.588c0 .266-.091.49-.273.672a.954.954 0 0 1-.672.252Zm5.124 5.397h6.048v-1.197h-6.048v1.197Zm0-2.373h6.048v-1.134h-6.048v1.134Zm0-2.331h6.048c-.014-.42-.126-.707-.336-.861-.196-.154-.581-.231-1.155-.231h-3.066c-.574 0-.959.077-1.155.231-.196.154-.308.441-.336.861Zm.504-7.245h1.617v-1.302h-3.927c.028.378.105.665.231.861.126.182.35.301.672.357.336.056.805.084 1.407.084Zm3.402 0h1.617c.616 0 1.085-.028 1.407-.084.322-.056.546-.175.672-.357.126-.196.203-.483.231-.861h-3.927v1.302Zm-5.712-2.457h3.927v-1.281h-1.617c-.602 0-1.064.028-1.386.084-.322.056-.553.175-.693.357-.126.168-.203.448-.231.84Zm5.712 0h3.927c-.028-.392-.112-.672-.252-.84-.126-.182-.35-.301-.672-.357-.322-.056-.784-.084-1.386-.084h-1.617v1.281Z"/>
</svg>
