<svg xmlns="http://www.w3.org/2000/svg" width="261" height="936" fill="none" viewBox="0 0 261 936">
  <path fill="#F6F1EE" d="M0 0h261v936H0z"/>
  <rect width="256" height="379" x="2.5" y="512.5" fill="#EADAC1" stroke="#61764B" stroke-width="5" rx="5.5"/>
  <rect width="230" height="290" x="15.5" y="559.5" fill="#EADAC1" stroke="#4F4A45" stroke-width="5" rx="5.5"/>
  <path fill="#4F4A45" d="M18 682h7a3 3 0 0 1 3 3v40a3 3 0 0 1-3 3h-7v-46Zm215 3a3 3 0 0 1 3-3h7v46h-7a3 3 0 0 1-3-3v-40Z"/>
  <path fill="#000" d="M219.696 705.588c-.704 0-1.256-.072-1.656-.216-.4-.136-.684-.376-.852-.72-.16-.344-.24-.816-.24-1.416v-1.548c0-.224.072-.404.216-.54a.74.74 0 0 1 .528-.204.7.7 0 0 1 .516.204.708.708 0 0 1 .216.54v1.452c0 .312.036.544.108.696.08.152.216.256.408.312.2.048.472.072.816.072h1.5v-3.72h-1.152c-.704 0-1.256-.068-1.656-.204-.4-.144-.684-.384-.852-.72-.16-.344-.24-.82-.24-1.428v-1.572c0-.232.072-.412.216-.54a.768.768 0 0 1 .528-.204.74.74 0 0 1 .528.204c.144.128.216.308.216.54v1.476c0 .312.036.544.108.696.08.152.216.256.408.312.192.048.46.072.804.072h1.092v-3.456c0-.232.072-.416.216-.552a.74.74 0 0 1 .528-.204.7.7 0 0 1 .516.204c.144.136.216.32.216.552v3.456h1.068c.352 0 .624-.024.816-.072.192-.056.324-.16.396-.312.08-.152.12-.384.12-.696v-1.476c0-.232.072-.412.216-.54a.725.725 0 0 1 .516-.204.74.74 0 0 1 .528.204c.144.128.216.308.216.54v1.572c0 .608-.084 1.084-.252 1.428-.16.336-.44.576-.84.72-.4.136-.952.204-1.656.204h-1.128v3.72h1.5c.352 0 .624-.024.816-.072.192-.056.324-.16.396-.312.08-.152.12-.384.12-.696v-1.452c0-.224.072-.404.216-.54a.74.74 0 0 1 .528-.204.74.74 0 0 1 .528.204.708.708 0 0 1 .216.54v1.548c0 .6-.08 1.072-.24 1.416-.16.344-.44.584-.84.72-.392.144-.944.216-1.656.216h-4.62Zm1.248 11.004c-1.112 0-1.956-.264-2.532-.792-.576-.536-.864-1.384-.864-2.544v-1.632c0-1.168.3-2.016.9-2.544.6-.528 1.456-.792 2.568-.792h1.968c1.12 0 1.976.264 2.568.792.6.528.9 1.376.9 2.544v1.632c0 1.16-.3 2.008-.9 2.544-.592.528-1.448.792-2.568.792h-2.04Zm.3-1.38h1.584c.728 0 1.256-.144 1.584-.432.328-.296.492-.812.492-1.548v-1.584c0-.736-.164-1.248-.492-1.536-.328-.296-.856-.444-1.584-.444h-1.656c-.728 0-1.256.148-1.584.444-.328.288-.492.8-.492 1.536v1.584c0 .736.176 1.252.528 1.548.352.288.892.432 1.62.432ZM33.668 704.66a.902.902 0 0 1-.624.132.718.718 0 0 1-.576-.936.809.809 0 0 1 .396-.48 9.098 9.098 0 0 0 2.316-1.896 9.706 9.706 0 0 0 1.56-2.412c.392-.864.624-1.72.696-2.568.032-.32-.02-.544-.156-.672-.128-.128-.384-.192-.768-.192h-1.308a.677.677 0 0 1-.48-.192.677.677 0 0 1-.192-.48c0-.184.064-.34.192-.468a.657.657 0 0 1 .48-.204h1.308c.6 0 1.072.06 1.416.18.352.12.604.328.756.624.152.288.228.692.228 1.212 0 .984.176 1.904.528 2.76a8.154 8.154 0 0 0 1.5 2.364 11.79 11.79 0 0 0 2.316 1.944c.184.12.292.292.324.516a.754.754 0 0 1-.132.6.673.673 0 0 1-.54.312.885.885 0 0 1-.624-.168 13.597 13.597 0 0 1-2.532-2.304 8.985 8.985 0 0 1-1.68-2.964 12.143 12.143 0 0 1-1.812 3 11.253 11.253 0 0 1-2.592 2.292Zm3.276 10.932c-1.112 0-1.956-.264-2.532-.792-.576-.536-.864-1.384-.864-2.544v-1.632c0-1.168.3-2.016.9-2.544.6-.528 1.456-.792 2.568-.792h1.968c1.12 0 1.976.264 2.568.792.6.528.9 1.376.9 2.544v1.632c0 1.16-.3 2.008-.9 2.544-.592.528-1.448.792-2.568.792h-2.04Zm.3-1.38h1.584c.728 0 1.256-.144 1.584-.432.328-.296.492-.812.492-1.548v-1.584c0-.736-.164-1.248-.492-1.536-.328-.296-.856-.444-1.584-.444h-1.656c-.728 0-1.256.148-1.584.444-.328.288-.492.8-.492 1.536v1.584c0 .736.176 1.252.528 1.548.352.288.892.432 1.62.432Z"/>
  <mask id="a" fill="#fff">
    <path d="M243 844a3 3 0 0 1-3 3H21a3 3 0 0 1-3-3v-91h225v91Z"/>
  </mask>
  <path fill="#B5BB95" d="M243 844a3 3 0 0 1-3 3H21a3 3 0 0 1-3-3v-91h225v91Z"/>
  <path fill="#6C5F5B" fill-rule="evenodd" d="M20.96 749H18v8h2.96v-8Zm11.843 0h-5.921v8h5.92v-8Zm11.842 0h-5.921v8h5.92v-8Zm11.842 0h-5.921v8h5.92v-8Zm11.842 0h-5.921v8h5.921v-8Zm11.842 0H74.25v8h5.921v-8Zm11.842 0h-5.92v8h5.92v-8Zm11.842 0h-5.92v8h5.92v-8Zm11.842 0h-5.921v8h5.921v-8Zm11.842 0h-5.921v8h5.921v-8Zm11.843 0h-5.921v8h5.921v-8Zm11.842 0h-5.921v8h5.921v-8Zm11.842 0h-5.921v8h5.921v-8Zm11.842 0h-5.921v8h5.921v-8Zm11.842 0h-5.921v8h5.921v-8Zm11.842 0h-5.921v8h5.921v-8Zm11.842 0h-5.921v8h5.921v-8Zm11.842 0h-5.921v8h5.921v-8Zm11.842 0h-5.921v8h5.921v-8Zm5.921 6v-6H243v8h-2.961v-2Z" clip-rule="evenodd" mask="url(#a)"/>
  <mask id="b" fill="#fff">
    <path d="M18 565a3 3 0 0 1 3-3h219a3 3 0 0 1 3 3v91H18v-91Z"/>
  </mask>
  <path fill="#B5BB95" d="M18 565a3 3 0 0 1 3-3h219a3 3 0 0 1 3 3v91H18v-91Z"/>
  <path fill="#6C5F5B" fill-rule="evenodd" d="M240.039 660H243v-8h-2.961v8Zm-11.842 0h5.921v-8h-5.921v8Zm-11.842 0h5.921v-8h-5.921v8Zm-11.842 0h5.921v-8h-5.921v8Zm-11.842 0h5.921v-8h-5.921v8Zm-11.842 0h5.921v-8h-5.921v8Zm-11.842 0h5.921v-8h-5.921v8Zm-11.842 0h5.921v-8h-5.921v8Zm-11.842 0h5.921v-8h-5.921v8Zm-11.842 0h5.921v-8h-5.921v8Zm-11.843 0h5.921v-8h-5.921v8Zm-11.842 0h5.921v-8h-5.921v8Zm-11.842 0h5.921v-8h-5.92v8Zm-11.842 0h5.921v-8h-5.92v8Zm-11.842 0h5.921v-8H74.25v8Zm-11.842 0h5.92v-8h-5.92v8Zm-11.842 0h5.92v-8h-5.92v8Zm-11.842 0h5.92v-8h-5.92v8Zm-11.842 0h5.92v-8h-5.92v8Zm-5.922-6v6H18v-8h2.96v2Z" clip-rule="evenodd" mask="url(#b)"/>
  <rect width="51" height="13" x="105" y="843" fill="#4F4A45" rx="1"/>
  <rect width="73" height="41" x="93.5" y="684.5" fill="#CFB997" stroke="#4F4A45" rx="2.5"/>
  <path fill="#000" d="M118.586 706.087a.748.748 0 0 1-.533-.208.738.738 0 0 1-.208-.546v-.546c0-.65.143-1.122.429-1.417.295-.295.836-.459 1.625-.494l-.013-.039a7.196 7.196 0 0 1-.156-.247 8.061 8.061 0 0 0-.195-.364 2.71 2.71 0 0 0-.143-.26.618.618 0 0 1-.065-.481.589.589 0 0 1 .312-.403h-.442a.782.782 0 0 1-.533-.182.677.677 0 0 1-.208-.52.54.54 0 0 1 .208-.481.87.87 0 0 1 .585-.169c.624.009 1.287 0 1.989-.026a87.466 87.466 0 0 0 2.106-.13 42.137 42.137 0 0 0 2.015-.221 24.094 24.094 0 0 0 1.703-.286c.251-.052.459-.03.624.065a.586.586 0 0 1 .312.39c.069.225.043.416-.078.572a.796.796 0 0 1-.442.299 4.47 4.47 0 0 0-.338.065l-.351.052.013.013a.623.623 0 0 1 .377.377.703.703 0 0 1-.026.559 10.35 10.35 0 0 1-.312.624c-.139.277-.273.542-.403.793h.39c.607 0 1.079.056 1.417.169.347.113.589.303.728.572.147.269.221.633.221 1.092v.624a.717.717 0 0 1-.221.546.748.748 0 0 1-.533.208.748.748 0 0 1-.533-.208.717.717 0 0 1-.221-.546v-.585c0-.251-.061-.42-.182-.507-.121-.095-.36-.143-.715-.143h-6.552c-.355 0-.594.048-.715.143-.121.087-.182.256-.182.507v.585a.717.717 0 0 1-.221.546.748.748 0 0 1-.533.208Zm.273 4.979c-.277.035-.503-.004-.676-.117-.173-.113-.273-.286-.299-.52a.646.646 0 0 1 .182-.559c.147-.156.351-.247.611-.273a13.333 13.333 0 0 0 2.002-.338 10.822 10.822 0 0 0 1.716-.611 7.488 7.488 0 0 1-.871-1.079 8.384 8.384 0 0 1-.663-1.3h-.533a.624.624 0 0 1-.455-.195.663.663 0 0 1-.182-.468c0-.173.061-.325.182-.455a.624.624 0 0 1 .455-.195h4.394c.685 0 1.192.134 1.521.403.329.26.485.589.468.988-.009.39-.186.789-.533 1.196-.173.208-.36.407-.559.598-.191.182-.386.36-.585.533.919.451 2.084.719 3.497.806.26.009.464.095.611.26a.719.719 0 0 1 .195.572c-.052.503-.373.732-.962.689-1.915-.104-3.501-.555-4.758-1.352-.633.355-1.343.65-2.132.884-.789.243-1.664.42-2.626.533Zm5.083-8.19h1.001c.087-.173.186-.39.299-.65l.325-.78c.113-.251.191-.438.234-.559a.451.451 0 0 1 .065-.13c.035-.043.069-.082.104-.117-.407.061-.841.113-1.3.156-.451.043-.914.087-1.391.13a.534.534 0 0 1 .26.273c.026.052.069.152.13.299.069.139.134.277.195.416.069.139.113.23.13.273.113.269.095.498-.052.689Zm-2.847 0h1.651a.57.57 0 0 0-.065-.117 9.6 9.6 0 0 0-.13-.286l-.182-.39a9.6 9.6 0 0 1-.13-.286.704.704 0 0 1-.039-.442.572.572 0 0 1 .247-.364l-1.04.052c-.338.009-.676.022-1.014.039a.62.62 0 0 1 .208.195c.035.052.087.147.156.286l.208.39c.078.121.126.199.143.234.139.251.134.481-.013.689Zm2.652 4.966a6.496 6.496 0 0 0 1.053-.962c.156-.173.208-.316.156-.429-.052-.121-.217-.182-.494-.182h-1.989c.338.615.763 1.14 1.274 1.573Zm14.638 3.198c-.26 0-.468-.078-.624-.234a.853.853 0 0 1-.26-.585.76.76 0 0 1 .195-.559c.139-.165.334-.256.585-.273.381-.026.62-.082.715-.169.104-.095.156-.286.156-.572v-5.109h-4.043a.72.72 0 0 1-.533-.208.76.76 0 0 1-.195-.52c0-.199.065-.368.195-.507a.7.7 0 0 1 .533-.221h4.043v-2.197c0-.243.074-.433.221-.572a.81.81 0 0 1 .559-.208c.217 0 .399.069.546.208.156.139.234.329.234.572v2.197h1.157c.225 0 .403.074.533.221.13.139.195.308.195.507a.76.76 0 0 1-.195.52c-.13.139-.308.208-.533.208h-1.157v5.369c0 .537-.074.962-.221 1.274a1.23 1.23 0 0 1-.715.663c-.338.13-.802.195-1.391.195Zm-5.148.052a.81.81 0 0 1-.559-.208.733.733 0 0 1-.221-.559v-6.006c-.286.364-.572.702-.858 1.014a.766.766 0 0 1-.533.26.744.744 0 0 1-.546-.195.755.755 0 0 1-.247-.494.65.65 0 0 1 .182-.494c.407-.442.81-.945 1.209-1.508a19.09 19.09 0 0 0 1.092-1.729c.329-.589.589-1.14.78-1.651a.71.71 0 0 1 .403-.403.768.768 0 0 1 .572-.013.688.688 0 0 1 .416.949 12.04 12.04 0 0 1-.923 1.924v8.346c0 .234-.078.42-.234.559a.748.748 0 0 1-.533.208Zm4.589-3.627a.824.824 0 0 1-.637.143.748.748 0 0 1-.494-.351 6.088 6.088 0 0 0-.364-.533 27.338 27.338 0 0 0-.455-.624 9.306 9.306 0 0 0-.403-.507.65.65 0 0 1-.13-.533.74.74 0 0 1 .299-.494.886.886 0 0 1 .559-.169c.208 0 .386.087.533.26.113.13.251.303.416.52.165.208.325.42.481.637.165.208.29.381.377.52a.786.786 0 0 1 .143.624.78.78 0 0 1-.325.507Zm-79.351-91.54c-.35.25-.742.342-1.175.275-.417-.083-.75-.3-1-.65a1.5 1.5 0 0 1-.275-1.15c.083-.433.3-.775.65-1.025a18.581 18.581 0 0 0 2.475-2.1c.817-.833 1.558-1.7 2.225-2.6.667-.9 1.2-1.733 1.6-2.5.2-.383.5-.65.9-.8.4-.15.783-.133 1.15.05.383.183.642.483.775.9.15.4.125.792-.075 1.175-.483.933-1.108 1.917-1.875 2.95a30.482 30.482 0 0 1-2.55 3 21.305 21.305 0 0 1-2.825 2.475Zm19.275-.15a1.526 1.526 0 0 1-1.175.175 1.547 1.547 0 0 1-.95-.725c-.3-.5-.683-1.075-1.15-1.725a36.266 36.266 0 0 0-1.55-2 32.591 32.591 0 0 0-1.7-1.95 24.89 24.89 0 0 0-1.625-1.625 1.46 1.46 0 0 1-.5-1.075 1.538 1.538 0 0 1 .4-1.125c.3-.3.658-.45 1.075-.45.433 0 .808.142 1.125.425.55.517 1.142 1.108 1.775 1.775.633.667 1.25 1.367 1.85 2.1a31.93 31.93 0 0 1 1.7 2.15c.517.7.942 1.342 1.275 1.925.217.367.275.758.175 1.175a1.44 1.44 0 0 1-.725.95Zm-1.1-9.65c-.2.217-.458.325-.775.325a1.154 1.154 0 0 1-.775-.35c-.2-.233-.458-.508-.775-.825a10.241 10.241 0 0 0-.9-.85.97.97 0 0 1-.275-.65c0-.267.092-.508.275-.725.183-.183.408-.283.675-.3.267-.017.508.05.725.2.267.167.583.408.95.725s.667.617.9.9a.976.976 0 0 1 .3.775c0 .283-.108.542-.325.775Zm.6-2.325c-.217-.217-.5-.475-.85-.775-.333-.3-.642-.558-.925-.775-.167-.15-.267-.358-.3-.625a.953.953 0 0 1 .2-.725.835.835 0 0 1 .625-.35c.267-.033.517.017.75.15.283.167.617.392 1 .675.383.283.708.55.975.8.217.217.325.475.325.775.017.283-.067.542-.25.775-.183.217-.433.342-.75.375-.3.017-.567-.083-.8-.3Zm14.4 13.675c-2.3.783-4.117.85-5.45.2-1.317-.667-1.975-2.058-1.975-4.175v-8.575c0-.433.15-.8.45-1.1.317-.3.683-.45 1.1-.45.433 0 .8.15 1.1.45.3.3.45.667.45 1.1v8.25c0 .883.25 1.442.75 1.675.5.217 1.333.142 2.5-.225a27.46 27.46 0 0 0 4.875-2.1c1.633-.9 3.108-1.85 4.425-2.85.35-.25.733-.35 1.15-.3.433.05.783.25 1.05.6.25.333.342.717.275 1.15-.05.417-.242.758-.575 1.025a30.716 30.716 0 0 1-2.975 2 43 43 0 0 1-3.5 1.85 37.168 37.168 0 0 1-3.65 1.475Zm18.075-5.325c-.417 0-.783-.15-1.1-.45-.3-.317-.45-.683-.45-1.1 0-.433.15-.8.45-1.1.317-.3.683-.45 1.1-.45H125.3c.433 0 .8.15 1.1.45.3.3.45.667.45 1.1 0 .417-.15.783-.45 1.1-.3.3-.667.45-1.1.45h-15.575Zm29.325 8.075c-.417 0-.775-.15-1.075-.45-.3-.3-.45-.658-.45-1.075 0-.433.15-.8.45-1.1.3-.3.658-.45 1.075-.45.783 0 1.292-.108 1.525-.325.233-.233.35-.708.35-1.425v-6.925H134.3c-.417 0-.767-.142-1.05-.425a1.512 1.512 0 0 1-.425-1.075c0-.417.142-.767.425-1.05.283-.3.633-.45 1.05-.45h6.625v-2.7c0-.433.15-.792.45-1.075.3-.3.658-.45 1.075-.45.433 0 .792.15 1.075.45.3.283.45.642.45 1.075v2.7h6.175c.417 0 .767.15 1.05.45.283.283.425.633.425 1.05 0 .417-.142.775-.425 1.075a1.427 1.427 0 0 1-1.05.425h-6.175v7.1c0 1.7-.383 2.9-1.15 3.6-.75.7-2.008 1.05-3.775 1.05Zm-5.025-3.15a1.526 1.526 0 0 1-1.175.175 1.547 1.547 0 0 1-.95-.725 1.465 1.465 0 0 1-.15-1.175c.117-.4.358-.717.725-.95.683-.45 1.383-.975 2.1-1.575a18.9 18.9 0 0 0 1.95-1.825 1.713 1.713 0 0 1 1-.575c.4-.083.767-.008 1.1.225.333.25.533.583.6 1 .083.417 0 .792-.25 1.125a14.316 14.316 0 0 1-1.475 1.6 24.75 24.75 0 0 1-1.75 1.5c-.6.467-1.175.867-1.725 1.2Zm18.475-.55a1.456 1.456 0 0 1-1.125.375 1.662 1.662 0 0 1-1.075-.5 17.155 17.155 0 0 0-1.2-1.125c-.467-.433-.95-.85-1.45-1.25a13.73 13.73 0 0 0-1.325-1.025 1.481 1.481 0 0 1-.4-2.1c.233-.35.55-.558.95-.625.417-.083.8-.008 1.15.225.433.283.933.65 1.5 1.1.567.45 1.125.917 1.675 1.4.567.467 1.042.908 1.425 1.325.3.3.433.675.4 1.125a1.43 1.43 0 0 1-.525 1.075Zm-.975-11.9c-.217.2-.483.292-.8.275a1.03 1.03 0 0 1-.725-.4c-.2-.233-.45-.517-.75-.85-.3-.35-.575-.658-.825-.925a.847.847 0 0 1-.25-.625c0-.267.1-.508.3-.725a.975.975 0 0 1 .675-.275c.267 0 .508.083.725.25.267.2.575.467.925.8.35.333.633.642.85.925.183.217.267.475.25.775-.017.3-.142.558-.375.775Zm.75-2.25c-.217-.233-.483-.5-.8-.8-.317-.317-.608-.6-.875-.85-.167-.15-.267-.358-.3-.625-.017-.267.075-.508.275-.725a.884.884 0 0 1 .65-.325c.267-.017.508.05.725.2.267.167.583.408.95.725.367.3.675.583.925.85.217.217.325.475.325.775 0 .283-.108.542-.325.775-.2.217-.458.325-.775.325-.3 0-.558-.108-.775-.325Zm7.45 9.775c-.417 0-.783-.15-1.1-.45-.3-.317-.45-.683-.45-1.1 0-.433.15-.8.45-1.1.317-.3.683-.45 1.1-.45H175.3c.433 0 .8.15 1.1.45.3.3.45.667.45 1.1 0 .417-.15.783-.45 1.1-.3.3-.667.45-1.1.45h-15.575Zm39.175 4.6c-1.45.55-2.717.792-3.8.725-1.083-.067-1.933-.458-2.55-1.175-.6-.733-.9-1.808-.9-3.225v-7.95c0-.433.15-.8.45-1.1.317-.3.683-.45 1.1-.45.433 0 .792.15 1.075.45.3.3.45.667.45 1.1v7.475c0 1.583.958 2.025 2.875 1.325.75-.283 1.567-.617 2.45-1 .9-.383 1.7-.742 2.4-1.075a1.52 1.52 0 0 1 1.175-.075c.4.117.7.367.9.75.2.367.233.758.1 1.175a1.358 1.358 0 0 1-.75.9c-.767.367-1.592.75-2.475 1.15-.883.383-1.717.717-2.5 1Zm-16.375 1.6a1.59 1.59 0 0 1-1.175.05c-.4-.15-.692-.417-.875-.8a1.59 1.59 0 0 1-.05-1.175c.15-.417.417-.708.8-.875 1.35-.633 2.417-1.4 3.2-2.3a8.263 8.263 0 0 0 1.675-3.1c.333-1.167.5-2.417.5-3.75 0-.433.15-.8.45-1.1.3-.3.658-.45 1.075-.45.433 0 .792.15 1.075.45.3.3.45.667.45 1.1-.017 2.867-.642 5.317-1.875 7.35-1.233 2.033-2.983 3.567-5.25 4.6ZM58.475 806.925c-.35.25-.742.342-1.175.275-.417-.083-.75-.3-1-.65a1.5 1.5 0 0 1-.275-1.15c.083-.433.3-.775.65-1.025a18.581 18.581 0 0 0 2.475-2.1c.817-.833 1.558-1.7 2.225-2.6.667-.9 1.2-1.733 1.6-2.5.2-.383.5-.65.9-.8.4-.15.783-.133 1.15.05.383.183.642.483.775.9.15.4.125.792-.075 1.175-.483.933-1.108 1.917-1.875 2.95a30.482 30.482 0 0 1-2.55 3 21.305 21.305 0 0 1-2.825 2.475Zm19.275-.15a1.526 1.526 0 0 1-1.175.175 1.547 1.547 0 0 1-.95-.725c-.3-.5-.683-1.075-1.15-1.725a36.266 36.266 0 0 0-1.55-2 32.591 32.591 0 0 0-1.7-1.95 24.89 24.89 0 0 0-1.625-1.625 1.46 1.46 0 0 1-.5-1.075 1.538 1.538 0 0 1 .4-1.125c.3-.3.658-.45 1.075-.45.433 0 .808.142 1.125.425.55.517 1.142 1.108 1.775 1.775.633.667 1.25 1.367 1.85 2.1a31.93 31.93 0 0 1 1.7 2.15c.517.7.942 1.342 1.275 1.925.217.367.275.758.175 1.175a1.44 1.44 0 0 1-.725.95Zm-1.1-9.65c-.2.217-.458.325-.775.325a1.154 1.154 0 0 1-.775-.35c-.2-.233-.458-.508-.775-.825a10.241 10.241 0 0 0-.9-.85.97.97 0 0 1-.275-.65c0-.267.092-.508.275-.725.183-.183.408-.283.675-.3.267-.017.508.05.725.2.267.167.583.408.95.725s.667.617.9.9a.976.976 0 0 1 .3.775c0 .283-.108.542-.325.775Zm.6-2.325c-.217-.217-.5-.475-.85-.775-.333-.3-.642-.558-.925-.775-.167-.15-.267-.358-.3-.625a.953.953 0 0 1 .2-.725.835.835 0 0 1 .625-.35c.267-.033.517.017.75.15.283.167.617.392 1 .675.383.283.708.55.975.8.217.217.325.475.325.775.017.283-.067.542-.25.775-.183.217-.433.342-.75.375-.3.017-.567-.083-.8-.3Zm13.725 17.3c-.417 0-.775-.158-1.075-.475-.3-.3-.45-.658-.45-1.075v-17.275c0-.433.15-.792.45-1.075.3-.3.658-.45 1.075-.45.433 0 .8.15 1.1.45.3.283.45.642.45 1.075v6.025a1.49 1.49 0 0 1 .9-.65 1.407 1.407 0 0 1 1.125.125 36.137 36.137 0 0 1 3 1.775 23.827 23.827 0 0 1 2.675 1.925c.333.267.517.625.55 1.075a1.45 1.45 0 0 1-.35 1.15c-.267.317-.617.5-1.05.55a1.583 1.583 0 0 1-1.15-.35 28.213 28.213 0 0 0-1.625-1.175c-.6-.417-1.208-.817-1.825-1.2-.6-.4-1.15-.742-1.65-1.025a1.605 1.605 0 0 1-.6-.55v9.6c0 .417-.15.775-.45 1.075-.3.317-.667.475-1.1.475Zm9.75-14.05c-.217.183-.483.258-.8.225a1.002 1.002 0 0 1-.725-.425c-.167-.25-.392-.558-.675-.925a20.39 20.39 0 0 0-.775-.95.933.933 0 0 1-.2-.675.932.932 0 0 1 .35-.675.88.88 0 0 1 .675-.25c.267.017.5.117.7.3.25.217.533.508.85.875.317.35.583.667.8.95.183.25.25.525.2.825a1.102 1.102 0 0 1-.4.725Zm2.425-2.125a1.005 1.005 0 0 1-.8.3.95.95 0 0 1-.725-.375 64.032 64.032 0 0 0-1.575-1.75 1.042 1.042 0 0 1-.275-.65c0-.267.108-.508.325-.725a.89.89 0 0 1 .65-.275c.267-.017.508.058.725.225.25.2.55.467.9.8s.642.642.875.925c.183.217.267.475.25.775a1.13 1.13 0 0 1-.35.75Zm18.475 15.825a19.477 19.477 0 0 0-2-1.425c-.75-.5-1.542-.992-2.375-1.475a45.13 45.13 0 0 0-2.45-1.35 45.47 45.47 0 0 0-2.25-1.1 1.531 1.531 0 0 1-.8-.875c-.15-.4-.133-.792.05-1.175s.467-.65.85-.8c.4-.15.792-.133 1.175.05.767.35 1.583.758 2.45 1.225.883.45 1.767.933 2.65 1.45a43.535 43.535 0 0 1 2.5 1.575 28.95 28.95 0 0 1 2.125 1.5c.333.267.525.617.575 1.05.05.417-.067.792-.35 1.125a1.53 1.53 0 0 1-1.025.55 1.456 1.456 0 0 1-1.125-.325Zm-2.175-8.4c-.4-.25-.9-.533-1.5-.85a35.902 35.902 0 0 0-3.825-1.825c-.6-.267-1.117-.475-1.55-.625-.4-.133-.7-.383-.9-.75a1.658 1.658 0 0 1-.1-1.2c.133-.4.392-.7.775-.9.383-.2.775-.233 1.175-.1.517.183 1.125.433 1.825.75.7.3 1.417.633 2.15 1 .733.35 1.425.7 2.075 1.05a21.9 21.9 0 0 1 1.575.875c.35.217.567.533.65.95.1.417.033.808-.2 1.175a1.45 1.45 0 0 1-.975.675 1.552 1.552 0 0 1-1.175-.225Zm1.55-5.425c-.4-.283-.9-.592-1.5-.925-.583-.35-1.2-.692-1.85-1.025a38.06 38.06 0 0 0-1.875-.9c-.6-.283-1.108-.5-1.525-.65a1.438 1.438 0 0 1-.875-.775c-.167-.4-.175-.8-.025-1.2.15-.4.417-.692.8-.875a1.38 1.38 0 0 1 1.175-.025c.5.2 1.092.467 1.775.8.7.317 1.408.667 2.125 1.05.733.367 1.417.733 2.05 1.1.633.35 1.142.658 1.525.925.35.233.558.567.625 1a1.5 1.5 0 0 1-.275 1.15c-.233.35-.567.558-1 .625a1.5 1.5 0 0 1-1.15-.275Zm15.55 12.1c-.4.15-.8.133-1.2-.05a1.531 1.531 0 0 1-.8-.875c-.15-.4-.133-.792.05-1.175.183-.4.475-.675.875-.825a33.346 33.346 0 0 0 4.025-1.725 40.023 40.023 0 0 0 3.9-2.225 36.063 36.063 0 0 0 3.4-2.5c1.033-.867 1.875-1.7 2.525-2.5a1.587 1.587 0 0 1 1.05-.575c.433-.05.808.067 1.125.35.333.267.525.617.575 1.05.05.417-.067.792-.35 1.125-.683.833-1.592 1.725-2.725 2.675a43.3 43.3 0 0 1-3.8 2.775 53.351 53.351 0 0 1-4.325 2.55 33.244 33.244 0 0 1-4.325 1.925Zm2.15-9.85a36.995 36.995 0 0 0-2.125-1.65 22.665 22.665 0 0 0-2.125-1.425c-.367-.233-.6-.55-.7-.95-.1-.417-.042-.808.175-1.175.233-.367.55-.6.95-.7a1.397 1.397 0 0 1 1.175.175c.45.283.958.633 1.525 1.05.583.4 1.142.8 1.675 1.2.55.4 1 .742 1.35 1.025.333.267.525.617.575 1.05.067.417-.033.792-.3 1.125a1.615 1.615 0 0 1-1.05.6 1.456 1.456 0 0 1-1.125-.325Zm27.275 11.9c-.417 0-.775-.15-1.075-.45-.3-.3-.45-.658-.45-1.075v-17.275c0-.433.15-.792.45-1.075.3-.3.658-.45 1.075-.45.433 0 .8.15 1.1.45.3.283.45.642.45 1.075v6.025a1.49 1.49 0 0 1 .9-.65 1.472 1.472 0 0 1 1.125.1 36.235 36.235 0 0 1 3 1.775 26.178 26.178 0 0 1 2.675 1.95c.333.267.517.625.55 1.075a1.45 1.45 0 0 1-.35 1.15c-.267.317-.617.5-1.05.55a1.583 1.583 0 0 1-1.15-.35 28.213 28.213 0 0 0-1.625-1.175c-.6-.417-1.208-.817-1.825-1.2-.6-.4-1.15-.742-1.65-1.025a1.6 1.6 0 0 1-.6-.55v9.6c0 .417-.15.775-.45 1.075-.3.3-.667.45-1.1.45Zm20.575-2.05c-.4.15-.8.133-1.2-.05a1.531 1.531 0 0 1-.8-.875c-.15-.4-.133-.792.05-1.175.183-.4.475-.675.875-.825a33.346 33.346 0 0 0 4.025-1.725 40.023 40.023 0 0 0 3.9-2.225 36.063 36.063 0 0 0 3.4-2.5c1.033-.867 1.875-1.7 2.525-2.5a1.587 1.587 0 0 1 1.05-.575c.433-.05.808.067 1.125.35.333.267.525.617.575 1.05.05.417-.067.792-.35 1.125-.683.833-1.592 1.725-2.725 2.675a43.3 43.3 0 0 1-3.8 2.775 53.351 53.351 0 0 1-4.325 2.55 33.244 33.244 0 0 1-4.325 1.925Zm2.15-9.85a36.995 36.995 0 0 0-2.125-1.65 22.665 22.665 0 0 0-2.125-1.425c-.367-.233-.6-.55-.7-.95-.1-.417-.042-.808.175-1.175.233-.367.55-.6.95-.7a1.397 1.397 0 0 1 1.175.175c.45.283.958.633 1.525 1.05.583.4 1.142.8 1.675 1.2.55.4 1 .742 1.35 1.025.333.267.525.617.575 1.05.067.417-.033.792-.3 1.125a1.615 1.615 0 0 1-1.05.6 1.456 1.456 0 0 1-1.125-.325Z"/>
  <rect width="77" height="24" x="92" y="528" fill="#61764B" rx="3"/>
  <path fill="#F8F1F1" d="M108.22 544.76a.723.723 0 0 1-.984-.348.728.728 0 0 1-.036-.564.742.742 0 0 1 .372-.42 13.549 13.549 0 0 0 3.048-1.992c.896-.784 1.624-1.632 2.184-2.544.352-.576.16-.864-.576-.864h-3.276a.704.704 0 0 1-.516-.216.745.745 0 0 1-.216-.528c0-.208.072-.384.216-.528a.704.704 0 0 1 .516-.216h3.324c.72 0 1.272.132 1.656.396.384.256.592.608.624 1.056.04.448-.108.964-.444 1.548a7.37 7.37 0 0 1-.636.96c.368.304.744.64 1.128 1.008.392.36.756.712 1.092 1.056.344.336.632.624.864.864a.74.74 0 0 1 .204.528.7.7 0 0 1-.228.528.718.718 0 0 1-.528.216.762.762 0 0 1-.528-.228 197.12 197.12 0 0 0-.816-.84 42.729 42.729 0 0 0-1.044-1.056c-.368-.368-.724-.7-1.068-.996a16.479 16.479 0 0 1-2.04 1.788 14.03 14.03 0 0 1-2.292 1.392Zm13.044.54a.761.761 0 0 1-.564.048.695.695 0 0 1-.444-.336.673.673 0 0 1-.072-.552.743.743 0 0 1 .348-.456c.824-.448 1.492-1.004 2.004-1.668.52-.664.844-1.384.972-2.16h-3.468a.725.725 0 0 1-.516-.204.725.725 0 0 1-.204-.516c0-.2.068-.368.204-.504a.704.704 0 0 1 .516-.216h7.944c.2 0 .368.072.504.216a.666.666 0 0 1 .216.504c0 .2-.072.372-.216.516a.685.685 0 0 1-.504.204h-3.024a6.262 6.262 0 0 1-.624 2.016c-.32.648-.74 1.24-1.26 1.776a6.85 6.85 0 0 1-1.812 1.332Zm.168-7.704a.685.685 0 0 1-.504-.204.725.725 0 0 1-.204-.516c0-.2.068-.368.204-.504a.666.666 0 0 1 .504-.216h5.268c.2 0 .368.072.504.216a.666.666 0 0 1 .216.504c0 .2-.072.372-.216.516a.685.685 0 0 1-.504.204h-5.268Zm10.836 3.636a.745.745 0 0 1-.528-.216.745.745 0 0 1-.216-.528c0-.208.072-.384.216-.528a.745.745 0 0 1 .528-.216h7.476c.208 0 .384.072.528.216.144.144.216.32.216.528 0 .2-.072.376-.216.528a.718.718 0 0 1-.528.216h-7.476Zm12.744 3.696a.796.796 0 0 1-.576-.048.743.743 0 0 1-.36-.444.768.768 0 0 1 .048-.564.69.69 0 0 1 .432-.36c.616-.192 1.244-.46 1.884-.804a15.374 15.374 0 0 0 3.54-2.592 9.555 9.555 0 0 0 1.272-1.488.708.708 0 0 1 .468-.312c.2-.04.384 0 .552.12.176.112.28.268.312.468.04.2.004.384-.108.552a11.05 11.05 0 0 1-1.404 1.656 18.407 18.407 0 0 1-1.872 1.584c-.68.496-1.38.94-2.1 1.332-.72.384-1.416.684-2.088.9Zm1.716-6.108a6.145 6.145 0 0 0-.48-.36c-.2-.144-.408-.284-.624-.42a5.417 5.417 0 0 0-.564-.336.699.699 0 0 1-.348-.444.697.697 0 0 1 .072-.564.69.69 0 0 1 .456-.348.766.766 0 0 1 .564.072c.176.096.388.228.636.396.256.16.504.324.744.492.24.168.428.312.564.432a.662.662 0 0 1 .228.516.738.738 0 0 1-.192.54.686.686 0 0 1-.516.228c-.2 0-.38-.068-.54-.204Zm-1.272 2.22a4.773 4.773 0 0 0-.492-.324 10.282 10.282 0 0 0-.66-.396 6.934 6.934 0 0 0-.576-.3.691.691 0 0 1-.372-.432.723.723 0 0 1 .036-.564.69.69 0 0 1 .432-.36.723.723 0 0 1 .564.036c.192.088.416.204.672.348.264.144.52.296.768.456.248.152.444.284.588.396.16.128.248.296.264.504.016.2-.044.38-.18.54a.686.686 0 0 1-.504.264.742.742 0 0 1-.54-.168Zm5.7-3.168a.483.483 0 0 1-.732-.024 15.228 15.228 0 0 0-.384-.396c-.144-.16-.28-.3-.408-.42a.42.42 0 0 1-.132-.3.456.456 0 0 1 .132-.348.536.536 0 0 1 .672-.048c.128.088.276.212.444.372.176.152.32.292.432.42a.468.468 0 0 1 .144.372.554.554 0 0 1-.168.372Zm.324-1.092a10.617 10.617 0 0 0-.396-.372 5.556 5.556 0 0 0-.444-.384.441.441 0 0 1-.156-.3.436.436 0 0 1 .108-.348.4.4 0 0 1 .3-.168.566.566 0 0 1 .36.072c.136.08.292.192.468.336.184.136.34.268.468.396a.47.47 0 0 1 .156.36.526.526 0 0 1-.132.384.482.482 0 0 1-.36.168.468.468 0 0 1-.372-.144Z"/>
  <path fill="#61764B" d="m130 851 6.062 6.75h-12.124L130 851Z"/>
  <rect width="62" height="24" x="99" y="857" fill="#61764B" rx="3"/>
  <path fill="#F8F1F1" d="M126.244 874.948a.772.772 0 0 1-.552-.204.72.72 0 0 1-.228-.516.732.732 0 0 1 .168-.516c.12-.144.296-.224.528-.24.336-.016.548-.064.636-.144.096-.088.144-.26.144-.516v-4.752h-2.112a.594.594 0 0 1-.624-.624c0-.176.056-.324.168-.444a.575.575 0 0 1 .456-.192h2.112v-2.1a.66.66 0 0 1 .204-.504.692.692 0 0 1 .492-.192c.192 0 .356.064.492.192a.66.66 0 0 1 .204.504v2.1h.732c.192 0 .344.064.456.192.112.12.168.268.168.444a.594.594 0 0 1-.624.624h-.732v4.98c0 .48-.064.856-.192 1.128-.128.28-.344.48-.648.6-.304.12-.72.18-1.248.18Zm-6.852-.216a.733.733 0 0 1-.552-.12.692.692 0 0 1-.276-.468.667.667 0 0 1 .108-.516.7.7 0 0 1 .48-.276c.232-.024.488-.056.768-.096.288-.04.584-.08.888-.12v-1.392h-1.476a.579.579 0 0 1-.444-.18.637.637 0 0 1-.156-.432c0-.168.052-.312.156-.432.112-.12.26-.18.444-.18h1.476v-.66a.66.66 0 0 1 .204-.504.692.692 0 0 1 .492-.192c.192 0 .356.064.492.192a.66.66 0 0 1 .204.504v.66h1.296c.184 0 .332.06.444.18a.61.61 0 0 1 .168.432.61.61 0 0 1-.168.432.579.579 0 0 1-.444.18H122.2v1.188c.256-.04.504-.08.744-.12.248-.048.472-.088.672-.12.208-.032.372 0 .492.096a.628.628 0 0 1 .24.408.672.672 0 0 1-.084.492.617.617 0 0 1-.408.264c-.288.056-.628.12-1.02.192-.384.08-.788.156-1.212.228-.416.072-.82.14-1.212.204-.392.064-.732.116-1.02.156Zm-.3-5.688a.579.579 0 0 1-.444-.18.61.61 0 0 1-.168-.432.61.61 0 0 1 .168-.432c.112-.12.26-.18.444-.18h1.716v-1.116h-1.404a.6.6 0 0 1-.444-.168.61.61 0 0 1-.168-.432.61.61 0 0 1 .168-.432c.112-.12.26-.18.444-.18h1.404v-.816a.66.66 0 0 1 .204-.504.692.692 0 0 1 .492-.192c.192 0 .356.064.492.192a.66.66 0 0 1 .204.504v.816h1.212c.184 0 .328.06.432.18a.61.61 0 0 1 .168.432.61.61 0 0 1-.168.432.56.56 0 0 1-.432.168H122.2v1.116h1.548c.184 0 .332.06.444.18a.61.61 0 0 1 .168.432.61.61 0 0 1-.168.432.579.579 0 0 1-.444.18h-4.656Zm7.008 2.496a.713.713 0 0 1-.528.036.65.65 0 0 1-.384-.36 8.86 8.86 0 0 0-.24-.492c-.096-.192-.192-.38-.288-.564a7.164 7.164 0 0 0-.252-.468.595.595 0 0 1-.06-.48.58.58 0 0 1 .324-.372c.176-.08.348-.1.516-.06.168.04.3.14.396.3.088.144.184.312.288.504.112.192.216.38.312.564.096.176.172.324.228.444.096.2.112.388.048.564a.702.702 0 0 1-.36.384Zm11.568 1.188c-.68 0-1.16-.112-1.44-.336-.28-.232-.42-.632-.42-1.2v-2.916c0-.568.14-.964.42-1.188.28-.232.76-.348 1.44-.348h.024v-2.16c0-.2.064-.36.192-.48a.702.702 0 0 1 .48-.18c.184 0 .34.06.468.18s.192.28.192.48v2.16h.132c.688 0 1.168.116 1.44.348.272.224.408.62.408 1.188v2.916c0 .568-.136.968-.408 1.2-.272.224-.752.336-1.44.336h-1.488Zm-6.276 1.692a.828.828 0 0 1-.528-.048c-.152-.072-.248-.204-.288-.396-.048-.2-.024-.368.072-.504a.622.622 0 0 1 .444-.264l.636-.108c.24-.04.488-.088.744-.144v-2.964h-1.248a.545.545 0 0 1-.42-.168.59.59 0 0 1-.144-.396c0-.16.048-.292.144-.396a.545.545 0 0 1 .42-.168h1.248v-.708h-.672a.512.512 0 0 1-.396-.156.58.58 0 0 1-.156-.372.745.745 0 0 1-.42.072.632.632 0 0 1-.384-.192.57.57 0 0 1-.168-.42c0-.176.06-.32.18-.432.2-.184.408-.396.624-.636.224-.24.436-.484.636-.732.208-.256.384-.488.528-.696.232-.328.516-.488.852-.48.336.008.64.168.912.48.112.12.252.272.42.456l.504.528.408.408c.128.12.192.268.192.444a.63.63 0 0 1-.18.444.583.583 0 0 1-.456.18.7.7 0 0 1-.456-.204 7.032 7.032 0 0 1-.504-.54c-.184-.216-.336-.4-.456-.552-.2-.248-.404-.244-.612.012a18.795 18.795 0 0 1-1.032 1.284h2.712c.176 0 .312.056.408.168a.545.545 0 0 1 .144.384.59.59 0 0 1-.144.396c-.096.104-.232.156-.408.156h-.888v.708h1.08c.176 0 .312.056.408.168a.561.561 0 0 1 .144.396.59.59 0 0 1-.144.396.508.508 0 0 1-.408.168h-1.08v2.736l.54-.12.504-.108a.555.555 0 0 1 .456.072c.136.08.22.2.252.36.04.168.016.32-.072.456-.08.128-.212.212-.396.252a63.458 63.458 0 0 1-1.776.408c-.328.072-.648.14-.96.204l-.816.168Zm9.204.444a5.8 5.8 0 0 1-.54-.3c-.208-.128-.412-.26-.612-.396a7.359 7.359 0 0 1-.492-.36.557.557 0 0 1-.216-.384.571.571 0 0 1 .132-.432.593.593 0 0 1 .408-.204.642.642 0 0 1 .468.144c.184.136.424.292.72.468.296.176.568.32.816.432a.54.54 0 0 1 .312.36.577.577 0 0 1-.084.492.537.537 0 0 1-.396.276.885.885 0 0 1-.516-.096Zm-4.5 0a.864.864 0 0 1-.516.096.572.572 0 0 1-.408-.276.6.6 0 0 1-.072-.492.54.54 0 0 1 .312-.36 7.59 7.59 0 0 0 .828-.432c.304-.176.544-.332.72-.468a.624.624 0 0 1 .456-.144.55.55 0 0 1 .396.204.55.55 0 0 1-.072.816 7.359 7.359 0 0 1-.492.36c-.2.136-.404.268-.612.396-.2.128-.38.228-.54.3Zm.936-8.472a.701.701 0 0 1-.456.084.54.54 0 0 1-.372-.276 4.033 4.033 0 0 0-.192-.3 6.652 6.652 0 0 0-.252-.396c-.08-.128-.144-.228-.192-.3a.542.542 0 0 1 .216-.792.609.609 0 0 1 .468-.072c.16.032.288.12.384.264.048.064.112.16.192.288.08.12.16.244.24.372.088.12.152.216.192.288a.609.609 0 0 1 .072.468.575.575 0 0 1-.3.372Zm2.676.012a.552.552 0 0 1-.288-.324.456.456 0 0 1 .036-.42 5.06 5.06 0 0 0 .204-.324 12.066 12.066 0 0 0 .432-.768.583.583 0 0 1 .348-.3.568.568 0 0 1 .456.024c.16.072.268.18.324.324a.515.515 0 0 1-.036.444 8.625 8.625 0 0 1-.204.348l-.24.408a5.06 5.06 0 0 1-.204.324.638.638 0 0 1-.36.288.677.677 0 0 1-.468-.024Zm-7.764 6.192a.587.587 0 0 1-.42-.012.469.469 0 0 1-.276-.3 3.786 3.786 0 0 0-.12-.372l-.168-.456a3.327 3.327 0 0 0-.132-.36.433.433 0 0 1 .024-.396.563.563 0 0 1 .348-.252.575.575 0 0 1 .432.024.51.51 0 0 1 .288.324c.032.08.072.192.12.336.056.144.108.288.156.432.056.144.096.26.12.348a.616.616 0 0 1-.036.432.483.483 0 0 1-.336.252Zm2.208-.288a.525.525 0 0 1-.288-.252.433.433 0 0 1-.012-.384c.04-.112.1-.268.18-.468.08-.208.14-.372.18-.492a.509.509 0 0 1 .276-.312.57.57 0 0 1 .444-.012.52.52 0 0 1 .336.264.432.432 0 0 1 0 .396 13.107 13.107 0 0 1-.408.984.468.468 0 0 1-.288.276.63.63 0 0 1-.42 0Zm2.94-2.256h2.64v-.648h-2.64v.648Zm0-1.572h2.64v-.036c0-.28-.044-.452-.132-.516-.088-.072-.292-.108-.612-.108h-1.152c-.32 0-.524.036-.612.108-.088.064-.132.236-.132.516v.036Zm.744 3.168h1.152c.32 0 .524-.032.612-.096.088-.072.132-.248.132-.528v-.036h-2.64v.036c0 .28.044.456.132.528.088.064.292.096.612.096Z"/>
  <path fill="#000" d="M100.407 502.509v-1.386h18.186v1.386h-18.186Zm1.869-11.193v-1.386h14.427v1.386h-14.427Zm22.218 12.705v-16.002h12.012v16.002h-12.012Zm1.407-1.302h9.198v-6.216h-9.198v6.216Zm0-7.497h9.198v-5.901h-9.198v5.901Zm19.53 9.261v-16.737h12.138v16.737h-12.138Zm1.365-1.26h9.429v-4.011h-9.429v4.011Zm0-5.292h9.429v-3.822h-9.429v3.822Zm0-5.103h9.429v-3.822h-9.429v3.822Z"/>
  <rect width="256" height="379" x="2.5" y="69.5" fill="#EADAC1" stroke="#61764B" stroke-width="5" rx="5.5"/>
  <path fill="#000" d="M100.554 47.776v-1.407h17.892v1.407h-17.892Zm23.94 7.245V39.019h12.012v16.002h-12.012Zm1.407-1.302h9.198v-6.216h-9.198v6.216Zm0-7.497h9.198v-5.901h-9.198v5.901Zm19.53 9.261V38.746h12.138v16.737h-12.138Zm1.365-1.26h9.429v-4.011h-9.429v4.011Zm0-5.292h9.429v-3.822h-9.429v3.822Zm0-5.103h9.429v-3.822h-9.429v3.822Z"/>
  <rect width="230" height="290" x="15.5" y="116.5" fill="#EADAC1" stroke="#4F4A45" stroke-width="5" rx="5.5"/>
  <path fill="#4F4A45" d="M18 239h7a3 3 0 0 1 3 3v40a3 3 0 0 1-3 3h-7v-46Zm215 3a3 3 0 0 1 3-3h7v46h-7a3 3 0 0 1-3-3v-40Z"/>
  <path fill="#000" d="M219.696 262.588c-.704 0-1.256-.072-1.656-.216-.4-.136-.684-.376-.852-.72-.16-.344-.24-.816-.24-1.416v-1.548c0-.224.072-.404.216-.54a.74.74 0 0 1 .528-.204.7.7 0 0 1 .516.204.708.708 0 0 1 .216.54v1.452c0 .312.036.544.108.696.08.152.216.256.408.312.2.048.472.072.816.072h1.5v-3.72h-1.152c-.704 0-1.256-.068-1.656-.204-.4-.144-.684-.384-.852-.72-.16-.344-.24-.82-.24-1.428v-1.572c0-.232.072-.412.216-.54a.768.768 0 0 1 .528-.204.74.74 0 0 1 .528.204c.144.128.216.308.216.54v1.476c0 .312.036.544.108.696.08.152.216.256.408.312.192.048.46.072.804.072h1.092v-3.456c0-.232.072-.416.216-.552a.74.74 0 0 1 .528-.204.7.7 0 0 1 .516.204c.144.136.216.32.216.552v3.456h1.068c.352 0 .624-.024.816-.072.192-.056.324-.16.396-.312.08-.152.12-.384.12-.696v-1.476c0-.232.072-.412.216-.54a.725.725 0 0 1 .516-.204.74.74 0 0 1 .528.204c.144.128.216.308.216.54v1.572c0 .608-.084 1.084-.252 1.428-.16.336-.44.576-.84.72-.4.136-.952.204-1.656.204h-1.128v3.72h1.5c.352 0 .624-.024.816-.072.192-.056.324-.16.396-.312.08-.152.12-.384.12-.696v-1.452c0-.224.072-.404.216-.54a.74.74 0 0 1 .528-.204.74.74 0 0 1 .528.204.708.708 0 0 1 .216.54v1.548c0 .6-.08 1.072-.24 1.416-.16.344-.44.584-.84.72-.392.144-.944.216-1.656.216h-4.62Zm1.248 11.004c-1.112 0-1.956-.264-2.532-.792-.576-.536-.864-1.384-.864-2.544v-1.632c0-1.168.3-2.016.9-2.544.6-.528 1.456-.792 2.568-.792h1.968c1.12 0 1.976.264 2.568.792.6.528.9 1.376.9 2.544v1.632c0 1.16-.3 2.008-.9 2.544-.592.528-1.448.792-2.568.792h-2.04Zm.3-1.38h1.584c.728 0 1.256-.144 1.584-.432.328-.296.492-.812.492-1.548v-1.584c0-.736-.164-1.248-.492-1.536-.328-.296-.856-.444-1.584-.444h-1.656c-.728 0-1.256.148-1.584.444-.328.288-.492.8-.492 1.536v1.584c0 .736.176 1.252.528 1.548.352.288.892.432 1.62.432ZM32.668 262.66a.902.902 0 0 1-.624.132.718.718 0 0 1-.576-.936.809.809 0 0 1 .396-.48 9.098 9.098 0 0 0 2.316-1.896 9.706 9.706 0 0 0 1.56-2.412c.392-.864.624-1.72.696-2.568.032-.32-.02-.544-.156-.672-.128-.128-.384-.192-.768-.192h-1.308a.677.677 0 0 1-.48-.192.677.677 0 0 1-.192-.48c0-.184.064-.34.192-.468a.657.657 0 0 1 .48-.204h1.308c.6 0 1.072.06 1.416.18.352.12.604.328.756.624.152.288.228.692.228 1.212 0 .984.176 1.904.528 2.76a8.154 8.154 0 0 0 1.5 2.364 11.79 11.79 0 0 0 2.316 1.944c.184.12.292.292.324.516a.754.754 0 0 1-.132.6.673.673 0 0 1-.54.312.885.885 0 0 1-.624-.168 13.597 13.597 0 0 1-2.532-2.304 8.985 8.985 0 0 1-1.68-2.964 12.143 12.143 0 0 1-1.812 3 11.253 11.253 0 0 1-2.592 2.292Zm3.276 10.932c-1.112 0-1.956-.264-2.532-.792-.576-.536-.864-1.384-.864-2.544v-1.632c0-1.168.3-2.016.9-2.544.6-.528 1.456-.792 2.568-.792h1.968c1.12 0 1.976.264 2.568.792.6.528.9 1.376.9 2.544v1.632c0 1.16-.3 2.008-.9 2.544-.592.528-1.448.792-2.568.792h-2.04Zm.3-1.38h1.584c.728 0 1.256-.144 1.584-.432.328-.296.492-.812.492-1.548v-1.584c0-.736-.164-1.248-.492-1.536-.328-.296-.856-.444-1.584-.444h-1.656c-.728 0-1.256.148-1.584.444-.328.288-.492.8-.492 1.536v1.584c0 .736.176 1.252.528 1.548.352.288.892.432 1.62.432Z"/>
  <mask id="c" fill="#fff">
    <path d="M243 401a3 3 0 0 1-3 3H21a3 3 0 0 1-3-3v-91h225v91Z"/>
  </mask>
  <path fill="#B5BB95" d="M243 401a3 3 0 0 1-3 3H21a3 3 0 0 1-3-3v-91h225v91Z"/>
  <path fill="#6C5F5B" fill-rule="evenodd" d="M20.96 306H18v8h2.96v-8Zm11.843 0h-5.921v8h5.92v-8Zm11.842 0h-5.921v8h5.92v-8Zm11.842 0h-5.921v8h5.92v-8Zm11.842 0h-5.921v8h5.921v-8Zm11.842 0H74.25v8h5.921v-8Zm11.842 0h-5.92v8h5.92v-8Zm11.842 0h-5.92v8h5.92v-8Zm11.842 0h-5.921v8h5.921v-8Zm11.842 0h-5.921v8h5.921v-8Zm11.843 0h-5.921v8h5.921v-8Zm11.842 0h-5.921v8h5.921v-8Zm11.842 0h-5.921v8h5.921v-8Zm11.842 0h-5.921v8h5.921v-8Zm11.842 0h-5.921v8h5.921v-8Zm11.842 0h-5.921v8h5.921v-8Zm11.842 0h-5.921v8h5.921v-8Zm11.842 0h-5.921v8h5.921v-8Zm11.842 0h-5.921v8h5.921v-8Zm5.921 6v-6H243v8h-2.961v-2Z" clip-rule="evenodd" mask="url(#c)"/>
  <mask id="d" fill="#fff">
    <path d="M18 122a3 3 0 0 1 3-3h219a3 3 0 0 1 3 3v91H18v-91Z"/>
  </mask>
  <path fill="#B5BB95" d="M18 122a3 3 0 0 1 3-3h219a3 3 0 0 1 3 3v91H18v-91Z"/>
  <path fill="#6C5F5B" fill-rule="evenodd" d="M240.039 217H243v-8h-2.961v8Zm-11.842 0h5.921v-8h-5.921v8Zm-11.842 0h5.921v-8h-5.921v8Zm-11.842 0h5.921v-8h-5.921v8Zm-11.842 0h5.921v-8h-5.921v8Zm-11.842 0h5.921v-8h-5.921v8Zm-11.842 0h5.921v-8h-5.921v8Zm-11.842 0h5.921v-8h-5.921v8Zm-11.842 0h5.921v-8h-5.921v8Zm-11.842 0h5.921v-8h-5.921v8Zm-11.843 0h5.921v-8h-5.921v8Zm-11.842 0h5.921v-8h-5.921v8Zm-11.842 0h5.921v-8h-5.92v8Zm-11.842 0h5.921v-8h-5.92v8Zm-11.842 0h5.921v-8H74.25v8Zm-11.842 0h5.92v-8h-5.92v8Zm-11.842 0h5.92v-8h-5.92v8Zm-11.842 0h5.92v-8h-5.92v8Zm-11.842 0h5.92v-8h-5.92v8Zm-5.922-6v6H18v-8h2.96v2Z" clip-rule="evenodd" mask="url(#d)"/>
  <rect width="51" height="13" x="105" y="400" fill="#4F4A45" rx="1"/>
  <rect width="73" height="41" x="93.5" y="241.5" fill="#CFB997" stroke="#4F4A45" rx="2.5"/>
  <path fill="#000" d="M118.586 263.087a.748.748 0 0 1-.533-.208.738.738 0 0 1-.208-.546v-.546c0-.65.143-1.122.429-1.417.295-.295.836-.459 1.625-.494l-.013-.039a7.196 7.196 0 0 1-.156-.247 8.061 8.061 0 0 0-.195-.364 2.71 2.71 0 0 0-.143-.26.618.618 0 0 1-.065-.481.589.589 0 0 1 .312-.403h-.442a.782.782 0 0 1-.533-.182.677.677 0 0 1-.208-.52.54.54 0 0 1 .208-.481.87.87 0 0 1 .585-.169c.624.009 1.287 0 1.989-.026a87.466 87.466 0 0 0 2.106-.13 42.137 42.137 0 0 0 2.015-.221 24.094 24.094 0 0 0 1.703-.286c.251-.052.459-.03.624.065a.586.586 0 0 1 .312.39c.069.225.043.416-.078.572a.796.796 0 0 1-.442.299 4.47 4.47 0 0 0-.338.065l-.351.052.013.013a.623.623 0 0 1 .377.377.703.703 0 0 1-.026.559 10.35 10.35 0 0 1-.312.624c-.139.277-.273.542-.403.793h.39c.607 0 1.079.056 1.417.169.347.113.589.303.728.572.147.269.221.633.221 1.092v.624a.717.717 0 0 1-.221.546.748.748 0 0 1-.533.208.748.748 0 0 1-.533-.208.717.717 0 0 1-.221-.546v-.585c0-.251-.061-.42-.182-.507-.121-.095-.36-.143-.715-.143h-6.552c-.355 0-.594.048-.715.143-.121.087-.182.256-.182.507v.585a.717.717 0 0 1-.221.546.748.748 0 0 1-.533.208Zm.273 4.979c-.277.035-.503-.004-.676-.117-.173-.113-.273-.286-.299-.52a.646.646 0 0 1 .182-.559c.147-.156.351-.247.611-.273a13.333 13.333 0 0 0 2.002-.338 10.822 10.822 0 0 0 1.716-.611 7.488 7.488 0 0 1-.871-1.079 8.384 8.384 0 0 1-.663-1.3h-.533a.624.624 0 0 1-.455-.195.663.663 0 0 1-.182-.468c0-.173.061-.325.182-.455a.624.624 0 0 1 .455-.195h4.394c.685 0 1.192.134 1.521.403.329.26.485.589.468.988-.009.39-.186.789-.533 1.196-.173.208-.36.407-.559.598-.191.182-.386.36-.585.533.919.451 2.084.719 3.497.806.26.009.464.095.611.26a.719.719 0 0 1 .195.572c-.052.503-.373.732-.962.689-1.915-.104-3.501-.555-4.758-1.352-.633.355-1.343.65-2.132.884-.789.243-1.664.42-2.626.533Zm5.083-8.19h1.001c.087-.173.186-.39.299-.65l.325-.78c.113-.251.191-.438.234-.559a.451.451 0 0 1 .065-.13c.035-.043.069-.082.104-.117-.407.061-.841.113-1.3.156-.451.043-.914.087-1.391.13a.534.534 0 0 1 .26.273c.026.052.069.152.13.299.069.139.134.277.195.416.069.139.113.23.13.273.113.269.095.498-.052.689Zm-2.847 0h1.651a.57.57 0 0 0-.065-.117 9.6 9.6 0 0 0-.13-.286l-.182-.39a9.6 9.6 0 0 1-.13-.286.704.704 0 0 1-.039-.442.572.572 0 0 1 .247-.364l-1.04.052c-.338.009-.676.022-1.014.039a.62.62 0 0 1 .208.195c.035.052.087.147.156.286l.208.39c.078.121.126.199.143.234.139.251.134.481-.013.689Zm2.652 4.966a6.496 6.496 0 0 0 1.053-.962c.156-.173.208-.316.156-.429-.052-.121-.217-.182-.494-.182h-1.989c.338.615.763 1.14 1.274 1.573Zm14.638 3.198c-.26 0-.468-.078-.624-.234a.853.853 0 0 1-.26-.585.76.76 0 0 1 .195-.559c.139-.165.334-.256.585-.273.381-.026.62-.082.715-.169.104-.095.156-.286.156-.572v-5.109h-4.043a.72.72 0 0 1-.533-.208.76.76 0 0 1-.195-.52c0-.199.065-.368.195-.507a.7.7 0 0 1 .533-.221h4.043v-2.197c0-.243.074-.433.221-.572a.81.81 0 0 1 .559-.208c.217 0 .399.069.546.208.156.139.234.329.234.572v2.197h1.157c.225 0 .403.074.533.221.13.139.195.308.195.507a.76.76 0 0 1-.195.52c-.13.139-.308.208-.533.208h-1.157v5.369c0 .537-.074.962-.221 1.274a1.23 1.23 0 0 1-.715.663c-.338.13-.802.195-1.391.195Zm-5.148.052a.81.81 0 0 1-.559-.208.733.733 0 0 1-.221-.559v-6.006c-.286.364-.572.702-.858 1.014a.766.766 0 0 1-.533.26.744.744 0 0 1-.546-.195.755.755 0 0 1-.247-.494.65.65 0 0 1 .182-.494c.407-.442.81-.945 1.209-1.508a19.09 19.09 0 0 0 1.092-1.729c.329-.589.589-1.14.78-1.651a.71.71 0 0 1 .403-.403.768.768 0 0 1 .572-.013.688.688 0 0 1 .416.949 12.04 12.04 0 0 1-.923 1.924v8.346c0 .234-.078.42-.234.559a.748.748 0 0 1-.533.208Zm4.589-3.627a.824.824 0 0 1-.637.143.748.748 0 0 1-.494-.351 6.088 6.088 0 0 0-.364-.533 27.338 27.338 0 0 0-.455-.624 9.306 9.306 0 0 0-.403-.507.65.65 0 0 1-.13-.533.74.74 0 0 1 .299-.494.886.886 0 0 1 .559-.169c.208 0 .386.087.533.26.113.13.251.303.416.52.165.208.325.42.481.637.165.208.29.381.377.52a.786.786 0 0 1 .143.624.78.78 0 0 1-.325.507Zm-41.351-91.54c-.35.25-.742.342-1.175.275-.417-.083-.75-.3-1-.65a1.5 1.5 0 0 1-.275-1.15c.083-.433.3-.775.65-1.025a18.581 18.581 0 0 0 2.475-2.1c.817-.833 1.558-1.7 2.225-2.6.667-.9 1.2-1.733 1.6-2.5.2-.383.5-.65.9-.8.4-.15.783-.133 1.15.05.383.183.642.483.775.9.15.4.125.792-.075 1.175-.483.933-1.108 1.917-1.875 2.95a30.564 30.564 0 0 1-2.55 3 21.305 21.305 0 0 1-2.825 2.475Zm19.275-.15a1.526 1.526 0 0 1-1.175.175 1.547 1.547 0 0 1-.95-.725c-.3-.5-.683-1.075-1.15-1.725a36.266 36.266 0 0 0-1.55-2 32.699 32.699 0 0 0-1.7-1.95 24.816 24.816 0 0 0-1.625-1.625 1.46 1.46 0 0 1-.5-1.075 1.538 1.538 0 0 1 .4-1.125c.3-.3.658-.45 1.075-.45.433 0 .808.142 1.125.425.55.517 1.142 1.108 1.775 1.775.633.667 1.25 1.367 1.85 2.1a31.93 31.93 0 0 1 1.7 2.15c.517.7.942 1.342 1.275 1.925.217.367.275.758.175 1.175a1.44 1.44 0 0 1-.725.95Zm-1.1-9.65c-.2.217-.458.325-.775.325a1.154 1.154 0 0 1-.775-.35c-.2-.233-.458-.508-.775-.825a10.326 10.326 0 0 0-.9-.85.97.97 0 0 1-.275-.65c0-.267.092-.508.275-.725.183-.183.408-.283.675-.3.267-.017.508.05.725.2.267.167.583.408.95.725s.667.617.9.9a.974.974 0 0 1 .3.775c0 .283-.108.542-.325.775Zm.6-2.325c-.217-.217-.5-.475-.85-.775-.333-.3-.642-.558-.925-.775-.167-.15-.267-.358-.3-.625a.953.953 0 0 1 .2-.725.835.835 0 0 1 .625-.35c.267-.033.517.017.75.15.283.167.617.392 1 .675.383.283.708.55.975.8.217.217.325.475.325.775.017.283-.067.542-.25.775-.183.217-.433.342-.75.375-.3.017-.567-.083-.8-.3Zm7.375 15.7c-.367.183-.758.208-1.175.075-.4-.15-.692-.417-.875-.8a1.52 1.52 0 0 1-.075-1.175c.15-.4.408-.692.775-.875 2.383-1.15 4.5-2.533 6.35-4.15 1.867-1.633 3.383-3.4 4.55-5.3.733-1.2.333-1.8-1.2-1.8h-6.825c-.417 0-.775-.15-1.075-.45-.3-.317-.45-.683-.45-1.1 0-.433.15-.8.45-1.1.3-.3.658-.45 1.075-.45h6.925c1.5 0 2.65.275 3.45.825.8.533 1.233 1.267 1.3 2.2.083.933-.225 2.008-.925 3.225a15.356 15.356 0 0 1-1.325 2c.767.633 1.55 1.333 2.35 2.1.817.75 1.575 1.483 2.275 2.2.717.7 1.317 1.3 1.8 1.8.283.3.425.667.425 1.1 0 .433-.158.8-.475 1.1-.3.3-.667.45-1.1.45a1.59 1.59 0 0 1-1.1-.475c-.45-.467-1.017-1.05-1.7-1.75a87.292 87.292 0 0 0-2.175-2.2 40.78 40.78 0 0 0-2.225-2.075 34.33 34.33 0 0 1-4.25 3.725 29.22 29.22 0 0 1-4.775 2.9Zm28.925 1.125c-.35.233-.733.308-1.15.225a1.472 1.472 0 0 1-.975-.65 1.552 1.552 0 0 1-.225-1.175c.083-.417.3-.742.65-.975 1.75-1.167 3.175-2.592 4.275-4.275 1.117-1.7 1.858-3.608 2.225-5.725h-4.475c-.533.95-1.108 1.85-1.725 2.7a18.947 18.947 0 0 1-1.925 2.275c-.317.3-.692.45-1.125.45a1.561 1.561 0 0 1-1.075-.475c-.3-.3-.45-.658-.45-1.075.017-.433.175-.8.475-1.1.55-.55 1.1-1.2 1.65-1.95a27.434 27.434 0 0 0 1.525-2.375c.483-.833.9-1.642 1.25-2.425.367-.8.642-1.517.825-2.15.117-.417.35-.733.7-.95.35-.217.733-.275 1.15-.175.433.117.758.358.975.725.233.367.283.75.15 1.15-.117.383-.25.775-.4 1.175-.15.383-.317.783-.5 1.2H163.8c.433 0 .792.142 1.075.425.3.283.45.642.45 1.075 0 .417-.15.775-.45 1.075-.283.283-.642.425-1.075.425h-4.4c-.383 2.633-1.25 5.033-2.6 7.2-1.333 2.15-3.083 3.942-5.25 5.375Zm-55.075 186.3c-.35.25-.742.342-1.175.275-.417-.083-.75-.3-1-.65a1.5 1.5 0 0 1-.275-1.15c.083-.433.3-.775.65-1.025a18.581 18.581 0 0 0 2.475-2.1c.817-.833 1.558-1.7 2.225-2.6.667-.9 1.2-1.733 1.6-2.5.2-.383.5-.65.9-.8.4-.15.783-.133 1.15.05.383.183.642.483.775.9.15.4.125.792-.075 1.175-.483.933-1.108 1.917-1.875 2.95a30.564 30.564 0 0 1-2.55 3 21.305 21.305 0 0 1-2.825 2.475Zm19.275-.15a1.526 1.526 0 0 1-1.175.175 1.547 1.547 0 0 1-.95-.725c-.3-.5-.683-1.075-1.15-1.725a36.266 36.266 0 0 0-1.55-2 32.699 32.699 0 0 0-1.7-1.95 24.816 24.816 0 0 0-1.625-1.625 1.46 1.46 0 0 1-.5-1.075 1.538 1.538 0 0 1 .4-1.125c.3-.3.658-.45 1.075-.45.433 0 .808.142 1.125.425.55.517 1.142 1.108 1.775 1.775.633.667 1.25 1.367 1.85 2.1a31.93 31.93 0 0 1 1.7 2.15c.517.7.942 1.342 1.275 1.925.217.367.275.758.175 1.175a1.44 1.44 0 0 1-.725.95Zm-1.1-9.65c-.2.217-.458.325-.775.325a1.154 1.154 0 0 1-.775-.35c-.2-.233-.458-.508-.775-.825a10.326 10.326 0 0 0-.9-.85.97.97 0 0 1-.275-.65c0-.267.092-.508.275-.725.183-.183.408-.283.675-.3.267-.017.508.05.725.2.267.167.583.408.95.725s.667.617.9.9a.974.974 0 0 1 .3.775c0 .283-.108.542-.325.775Zm.6-2.325c-.217-.217-.5-.475-.85-.775-.333-.3-.642-.558-.925-.775-.167-.15-.267-.358-.3-.625a.953.953 0 0 1 .2-.725.835.835 0 0 1 .625-.35c.267-.033.517.017.75.15.283.167.617.392 1 .675.383.283.708.55.975.8.217.217.325.475.325.775.017.283-.067.542-.25.775-.183.217-.433.342-.75.375-.3.017-.567-.083-.8-.3Zm7.375 15.7c-.367.183-.758.208-1.175.075-.4-.15-.692-.417-.875-.8a1.52 1.52 0 0 1-.075-1.175c.15-.4.408-.692.775-.875 2.383-1.15 4.5-2.533 6.35-4.15 1.867-1.633 3.383-3.4 4.55-5.3.733-1.2.333-1.8-1.2-1.8h-6.825c-.417 0-.775-.15-1.075-.45-.3-.317-.45-.683-.45-1.1 0-.433.15-.8.45-1.1.3-.3.658-.45 1.075-.45h6.925c1.5 0 2.65.275 3.45.825.8.533 1.233 1.267 1.3 2.2.083.933-.225 2.008-.925 3.225a15.356 15.356 0 0 1-1.325 2c.767.633 1.55 1.333 2.35 2.1.817.75 1.575 1.483 2.275 2.2.717.7 1.317 1.3 1.8 1.8.283.3.425.667.425 1.1 0 .433-.158.8-.475 1.1-.3.3-.667.45-1.1.45a1.59 1.59 0 0 1-1.1-.475c-.45-.467-1.017-1.05-1.7-1.75a87.292 87.292 0 0 0-2.175-2.2 40.78 40.78 0 0 0-2.225-2.075 34.33 34.33 0 0 1-4.25 3.725 29.22 29.22 0 0 1-4.775 2.9Zm28.925 1.125c-.35.233-.733.308-1.15.225a1.472 1.472 0 0 1-.975-.65 1.552 1.552 0 0 1-.225-1.175c.083-.417.3-.742.65-.975 1.75-1.167 3.175-2.592 4.275-4.275 1.117-1.7 1.858-3.608 2.225-5.725h-4.475c-.533.95-1.108 1.85-1.725 2.7a18.947 18.947 0 0 1-1.925 2.275c-.317.3-.692.45-1.125.45a1.561 1.561 0 0 1-1.075-.475c-.3-.3-.45-.658-.45-1.075.017-.433.175-.8.475-1.1.55-.55 1.1-1.2 1.65-1.95a27.434 27.434 0 0 0 1.525-2.375c.483-.833.9-1.642 1.25-2.425.367-.8.642-1.517.825-2.15.117-.417.35-.733.7-.95.35-.217.733-.275 1.15-.175.433.117.758.358.975.725.233.367.283.75.15 1.15-.117.383-.25.775-.4 1.175-.15.383-.317.783-.5 1.2H163.8c.433 0 .792.142 1.075.425.3.283.45.642.45 1.075 0 .417-.15.775-.45 1.075-.283.283-.642.425-1.075.425h-4.4c-.383 2.633-1.25 5.033-2.6 7.2-1.333 2.15-3.083 3.942-5.25 5.375Z"/>
  <rect width="77" height="24" x="92" y="85" fill="#61764B" rx="3"/>
  <path fill="#F8F1F1" d="M108.22 101.76a.723.723 0 0 1-.984-.348.728.728 0 0 1-.036-.564.742.742 0 0 1 .372-.42 13.549 13.549 0 0 0 3.048-1.992c.896-.784 1.624-1.632 2.184-2.544.352-.576.16-.864-.576-.864h-3.276a.704.704 0 0 1-.516-.216.745.745 0 0 1-.216-.528c0-.208.072-.384.216-.528a.704.704 0 0 1 .516-.216h3.324c.72 0 1.272.132 1.656.396.384.256.592.608.624 1.056.04.448-.108.964-.444 1.548a7.37 7.37 0 0 1-.636.96c.368.304.744.64 1.128 1.008.392.36.756.712 1.092 1.056.344.336.632.624.864.864a.74.74 0 0 1 .204.528.7.7 0 0 1-.228.528.718.718 0 0 1-.528.216.762.762 0 0 1-.528-.228 197.12 197.12 0 0 0-.816-.84 42.729 42.729 0 0 0-1.044-1.056c-.368-.368-.724-.7-1.068-.996a16.479 16.479 0 0 1-2.04 1.788 14.03 14.03 0 0 1-2.292 1.392Zm13.044.54a.761.761 0 0 1-.564.048.695.695 0 0 1-.444-.336.673.673 0 0 1-.072-.552.743.743 0 0 1 .348-.456c.824-.448 1.492-1.004 2.004-1.668.52-.664.844-1.384.972-2.16h-3.468a.725.725 0 0 1-.516-.204.725.725 0 0 1-.204-.516c0-.2.068-.368.204-.504a.704.704 0 0 1 .516-.216h7.944c.2 0 .368.072.504.216a.666.666 0 0 1 .216.504c0 .2-.072.372-.216.516a.685.685 0 0 1-.504.204h-3.024a6.262 6.262 0 0 1-.624 2.016c-.32.648-.74 1.24-1.26 1.776a6.85 6.85 0 0 1-1.812 1.332Zm.168-7.704a.685.685 0 0 1-.504-.204.725.725 0 0 1-.204-.516c0-.2.068-.368.204-.504a.666.666 0 0 1 .504-.216h5.268c.2 0 .368.072.504.216a.666.666 0 0 1 .216.504c0 .2-.072.372-.216.516a.685.685 0 0 1-.504.204h-5.268Zm10.836 3.636a.745.745 0 0 1-.528-.216.745.745 0 0 1-.216-.528c0-.208.072-.384.216-.528a.745.745 0 0 1 .528-.216h7.476c.208 0 .384.072.528.216.144.144.216.32.216.528 0 .2-.072.376-.216.528a.718.718 0 0 1-.528.216h-7.476Zm12.744 3.696a.796.796 0 0 1-.576-.048.743.743 0 0 1-.36-.444.768.768 0 0 1 .048-.564.69.69 0 0 1 .432-.36c.616-.192 1.244-.46 1.884-.804a15.374 15.374 0 0 0 3.54-2.592 9.555 9.555 0 0 0 1.272-1.488.708.708 0 0 1 .468-.312c.2-.04.384 0 .552.12.176.112.28.268.312.468.04.2.004.384-.108.552a11.05 11.05 0 0 1-1.404 1.656 18.407 18.407 0 0 1-1.872 1.584c-.68.496-1.38.94-2.1 1.332-.72.384-1.416.684-2.088.9Zm1.716-6.108a6.145 6.145 0 0 0-.48-.36c-.2-.144-.408-.284-.624-.42a5.417 5.417 0 0 0-.564-.336.699.699 0 0 1-.348-.444.697.697 0 0 1 .072-.564.69.69 0 0 1 .456-.348.766.766 0 0 1 .564.072c.176.096.388.228.636.396.256.16.504.324.744.492.24.168.428.312.564.432a.662.662 0 0 1 .228.516.738.738 0 0 1-.192.54.686.686 0 0 1-.516.228c-.2 0-.38-.068-.54-.204Zm-1.272 2.22a4.773 4.773 0 0 0-.492-.324 10.282 10.282 0 0 0-.66-.396 6.934 6.934 0 0 0-.576-.3.691.691 0 0 1-.372-.432.723.723 0 0 1 .036-.564.69.69 0 0 1 .432-.36.723.723 0 0 1 .564.036c.192.088.416.204.672.348.264.144.52.296.768.456.248.152.444.284.588.396.16.128.248.296.264.504.016.2-.044.38-.18.54a.686.686 0 0 1-.504.264.742.742 0 0 1-.54-.168Zm5.7-3.168a.483.483 0 0 1-.732-.024 15.228 15.228 0 0 0-.384-.396c-.144-.16-.28-.3-.408-.42a.42.42 0 0 1-.132-.3.456.456 0 0 1 .132-.348.536.536 0 0 1 .672-.048c.128.088.276.212.444.372.176.152.32.292.432.42a.468.468 0 0 1 .144.372.554.554 0 0 1-.168.372Zm.324-1.092a10.617 10.617 0 0 0-.396-.372 5.556 5.556 0 0 0-.444-.384.441.441 0 0 1-.156-.3.436.436 0 0 1 .108-.348.4.4 0 0 1 .3-.168.566.566 0 0 1 .36.072c.136.08.292.192.468.336.184.136.34.268.468.396a.47.47 0 0 1 .156.36.526.526 0 0 1-.132.384.482.482 0 0 1-.36.168.468.468 0 0 1-.372-.144Z"/>
  <path fill="#61764B" d="m130 408 6.062 6.75h-12.124L130 408Z"/>
  <rect width="62" height="24" x="99" y="414" fill="#61764B" rx="3"/>
  <path fill="#F8F1F1" d="M126.244 431.948a.772.772 0 0 1-.552-.204.72.72 0 0 1-.228-.516.732.732 0 0 1 .168-.516c.12-.144.296-.224.528-.24.336-.016.548-.064.636-.144.096-.088.144-.26.144-.516v-4.752h-2.112a.594.594 0 0 1-.624-.624c0-.176.056-.324.168-.444a.575.575 0 0 1 .456-.192h2.112v-2.1a.66.66 0 0 1 .204-.504.692.692 0 0 1 .492-.192c.192 0 .356.064.492.192a.66.66 0 0 1 .204.504v2.1h.732c.192 0 .344.064.456.192.112.12.168.268.168.444a.594.594 0 0 1-.624.624h-.732v4.98c0 .48-.064.856-.192 1.128-.128.28-.344.48-.648.6-.304.12-.72.18-1.248.18Zm-6.852-.216a.733.733 0 0 1-.552-.12.692.692 0 0 1-.276-.468.667.667 0 0 1 .108-.516.7.7 0 0 1 .48-.276c.232-.024.488-.056.768-.096.288-.04.584-.08.888-.12v-1.392h-1.476a.579.579 0 0 1-.444-.18.637.637 0 0 1-.156-.432c0-.168.052-.312.156-.432.112-.12.26-.18.444-.18h1.476v-.66a.66.66 0 0 1 .204-.504.692.692 0 0 1 .492-.192c.192 0 .356.064.492.192a.66.66 0 0 1 .204.504v.66h1.296c.184 0 .332.06.444.18a.61.61 0 0 1 .168.432.61.61 0 0 1-.168.432.579.579 0 0 1-.444.18H122.2v1.188c.256-.04.504-.08.744-.12.248-.048.472-.088.672-.12.208-.032.372 0 .492.096a.628.628 0 0 1 .24.408.672.672 0 0 1-.084.492.617.617 0 0 1-.408.264c-.288.056-.628.12-1.02.192-.384.08-.788.156-1.212.228-.416.072-.82.14-1.212.204-.392.064-.732.116-1.02.156Zm-.3-5.688a.579.579 0 0 1-.444-.18.61.61 0 0 1-.168-.432.61.61 0 0 1 .168-.432c.112-.12.26-.18.444-.18h1.716v-1.116h-1.404a.6.6 0 0 1-.444-.168.61.61 0 0 1-.168-.432.61.61 0 0 1 .168-.432c.112-.12.26-.18.444-.18h1.404v-.816a.66.66 0 0 1 .204-.504.692.692 0 0 1 .492-.192c.192 0 .356.064.492.192a.66.66 0 0 1 .204.504v.816h1.212c.184 0 .328.06.432.18a.61.61 0 0 1 .168.432.61.61 0 0 1-.168.432.56.56 0 0 1-.432.168H122.2v1.116h1.548c.184 0 .332.06.444.18a.61.61 0 0 1 .168.432.61.61 0 0 1-.168.432.579.579 0 0 1-.444.18h-4.656Zm7.008 2.496a.713.713 0 0 1-.528.036.65.65 0 0 1-.384-.36 8.86 8.86 0 0 0-.24-.492c-.096-.192-.192-.38-.288-.564a7.164 7.164 0 0 0-.252-.468.595.595 0 0 1-.06-.48.58.58 0 0 1 .324-.372c.176-.08.348-.1.516-.06.168.04.3.14.396.3.088.144.184.312.288.504.112.192.216.38.312.564.096.176.172.324.228.444.096.2.112.388.048.564a.702.702 0 0 1-.36.384Zm11.568 1.188c-.68 0-1.16-.112-1.44-.336-.28-.232-.42-.632-.42-1.2v-2.916c0-.568.14-.964.42-1.188.28-.232.76-.348 1.44-.348h.024v-2.16c0-.2.064-.36.192-.48a.702.702 0 0 1 .48-.18c.184 0 .34.06.468.18s.192.28.192.48v2.16h.132c.688 0 1.168.116 1.44.348.272.224.408.62.408 1.188v2.916c0 .568-.136.968-.408 1.2-.272.224-.752.336-1.44.336h-1.488Zm-6.276 1.692a.828.828 0 0 1-.528-.048c-.152-.072-.248-.204-.288-.396-.048-.2-.024-.368.072-.504a.622.622 0 0 1 .444-.264l.636-.108c.24-.04.488-.088.744-.144v-2.964h-1.248a.545.545 0 0 1-.42-.168.59.59 0 0 1-.144-.396c0-.16.048-.292.144-.396a.545.545 0 0 1 .42-.168h1.248v-.708h-.672a.512.512 0 0 1-.396-.156.58.58 0 0 1-.156-.372.745.745 0 0 1-.42.072.632.632 0 0 1-.384-.192.57.57 0 0 1-.168-.42c0-.176.06-.32.18-.432.2-.184.408-.396.624-.636.224-.24.436-.484.636-.732.208-.256.384-.488.528-.696.232-.328.516-.488.852-.48.336.008.64.168.912.48.112.12.252.272.42.456l.504.528.408.408c.128.12.192.268.192.444a.63.63 0 0 1-.18.444.583.583 0 0 1-.456.18.7.7 0 0 1-.456-.204 7.032 7.032 0 0 1-.504-.54c-.184-.216-.336-.4-.456-.552-.2-.248-.404-.244-.612.012a18.795 18.795 0 0 1-1.032 1.284h2.712c.176 0 .312.056.408.168a.545.545 0 0 1 .144.384.59.59 0 0 1-.144.396c-.096.104-.232.156-.408.156h-.888v.708h1.08c.176 0 .312.056.408.168a.561.561 0 0 1 .144.396.59.59 0 0 1-.144.396.508.508 0 0 1-.408.168h-1.08v2.736l.54-.12.504-.108a.555.555 0 0 1 .456.072c.136.08.22.2.252.36.04.168.016.32-.072.456-.08.128-.212.212-.396.252a63.458 63.458 0 0 1-1.776.408c-.328.072-.648.14-.96.204l-.816.168Zm9.204.444a5.8 5.8 0 0 1-.54-.3c-.208-.128-.412-.26-.612-.396a7.359 7.359 0 0 1-.492-.36.557.557 0 0 1-.216-.384.571.571 0 0 1 .132-.432.593.593 0 0 1 .408-.204.642.642 0 0 1 .468.144c.184.136.424.292.72.468.296.176.568.32.816.432a.54.54 0 0 1 .312.36.577.577 0 0 1-.084.492.537.537 0 0 1-.396.276.885.885 0 0 1-.516-.096Zm-4.5 0a.864.864 0 0 1-.516.096.572.572 0 0 1-.408-.276.6.6 0 0 1-.072-.492.54.54 0 0 1 .312-.36 7.59 7.59 0 0 0 .828-.432c.304-.176.544-.332.72-.468a.624.624 0 0 1 .456-.144.55.55 0 0 1 .396.204.55.55 0 0 1-.072.816 7.359 7.359 0 0 1-.492.36c-.2.136-.404.268-.612.396-.2.128-.38.228-.54.3Zm.936-8.472a.701.701 0 0 1-.456.084.54.54 0 0 1-.372-.276 4.033 4.033 0 0 0-.192-.3 6.652 6.652 0 0 0-.252-.396c-.08-.128-.144-.228-.192-.3a.542.542 0 0 1 .216-.792.609.609 0 0 1 .468-.072c.16.032.288.12.384.264.048.064.112.16.192.288.08.12.16.244.24.372.088.12.152.216.192.288a.609.609 0 0 1 .072.468.575.575 0 0 1-.3.372Zm2.676.012a.552.552 0 0 1-.288-.324.456.456 0 0 1 .036-.42 5.06 5.06 0 0 0 .204-.324 12.066 12.066 0 0 0 .432-.768.583.583 0 0 1 .348-.3.568.568 0 0 1 .456.024c.16.072.268.18.324.324a.515.515 0 0 1-.036.444 8.625 8.625 0 0 1-.204.348l-.24.408a5.06 5.06 0 0 1-.204.324.638.638 0 0 1-.36.288.677.677 0 0 1-.468-.024Zm-7.764 6.192a.587.587 0 0 1-.42-.012.469.469 0 0 1-.276-.3 3.786 3.786 0 0 0-.12-.372l-.168-.456a3.327 3.327 0 0 0-.132-.36.433.433 0 0 1 .024-.396.563.563 0 0 1 .348-.252.575.575 0 0 1 .432.024.51.51 0 0 1 .288.324c.032.08.072.192.12.336.056.144.108.288.156.432.056.144.096.26.12.348a.616.616 0 0 1-.036.432.483.483 0 0 1-.336.252Zm2.208-.288a.525.525 0 0 1-.288-.252.433.433 0 0 1-.012-.384c.04-.112.1-.268.18-.468.08-.208.14-.372.18-.492a.509.509 0 0 1 .276-.312.57.57 0 0 1 .444-.012.52.52 0 0 1 .336.264.432.432 0 0 1 0 .396 13.107 13.107 0 0 1-.408.984.468.468 0 0 1-.288.276.63.63 0 0 1-.42 0Zm2.94-2.256h2.64v-.648h-2.64v.648Zm0-1.572h2.64v-.036c0-.28-.044-.452-.132-.516-.088-.072-.292-.108-.612-.108h-1.152c-.32 0-.524.036-.612.108-.088.064-.132.236-.132.516v.036Zm.744 3.168h1.152c.32 0 .524-.032.612-.096.088-.072.132-.248.132-.528v-.036h-2.64v.036c0 .28.044.456.132.528.088.064.292.096.612.096Z"/>
</svg>
