<svg class="svg-tournament" xmlns="http://www.w3.org/2000/svg" width="1784" height="886" fill="none" viewBox="0 0 1784 886">
  <g class="badminton">
    <path fill="#F6F1EE" d="M0 0h1784v886H0z" class="èæ¯"/>
    <g class="round_final">
      <mask id="a" fill="#fff" class="a">
        <path d="M240 143h650v95H240v-95Z"/>
      </mask>
      <path fill="#F6F1EE" d="M240 143h650v95H240v-95Z"/>
      <path fill="#6C5F5B" d="M884 143v95h12v-95h-12Z" mask="url(#a)"/>
    </g>
    <g class="step5">
      <g class="round20">
        <g class="round20B">
          <path fill="#F6F1EE" d="M884.5 238H1279v530H884.5V238Z"/>
          <path fill="#6C5F5B" d="M1279 238h3v-3h-3v3Zm-394.5 3H1279v-6H884.5v6Zm391.5-3v530h6V238h-6Z"/>
        </g>
        <g class="round20A">
          <path fill="#F6F1EE" d="M490 238h394.5v530H490V238Z"/>
          <path fill="#6C5F5B" d="M490 238v-3h-3v3h3Zm0 3h394.5v-6H490v6Zm3 527V238h-6v530h6Z"/>
        </g>
      </g>
    </g>
    <g class="step4">
      <g class="round19">
        <g class="round19B">
          <path fill="#F6F1EE" d="M1279 344h201v424h-201V344Z"/>
          <path fill="#6C5F5B" d="M1480 344h3v-3h-3v3Zm-201 3h201v-6h-201v6Zm198-3v424h6V344h-6Z"/>
        </g>
        <g class="round19A">
          <path fill="#F6F1EE" d="M1078 344h201v424h-201V344Z"/>
          <path fill="#6C5F5B" d="M1078 344v-3h-3v3h3Zm0 3h201v-6h-201v6Zm3 421V344h-6v424h6Z"/>
        </g>
      </g>
      <g class="round18">
        <g class="round18B">
          <path fill="#F6F1EE" d="M490.5 344H683v424H490.5V344Z"/>
          <path fill="#6C5F5B" d="M683 344h3v-3h-3v3Zm-192.5 3H683v-6H490.5v6Zm189.5-3v424h6V344h-6Z"/>
        </g>
        <g class="round18A">
          <path fill="#F6F1EE" d="M298 344h192.5v424H298V344Z"/>
          <path fill="#6C5F5B" d="M298 344v-3h-3v3h3Zm0 3h192.5v-6H298v6Zm3 421V344h-6v424h6Z"/>
        </g>
      </g>
    </g>
    <g class="step3">
      <g class="round17">
        <g class="round17B">
          <path fill="#F6F1EE" d="M1502 450h139v318h-139V450Z"/>
          <path fill="#6C5F5B" d="M1641 450h3v-3h-3v3Zm-139 3h139v-6h-139v6Zm136-3v318h6V450h-6Z"/>
        </g>
        <g class="round17A">
          <path fill="#F6F1EE" d="M1363 450h139v318h-139V450Z"/>
          <path fill="#6C5F5B" d="M1363 450v-3h-3v3h3Zm0 3h139v-6h-139v6Zm3 315V450h-6v318h6Z"/>
        </g>
      </g>
      <g class="round16">
        <g class="round16B">
          <path fill="#F6F1EE" d="M1078.5 450H1186v318h-107.5V450Z"/>
          <path fill="#6C5F5B" d="M1186 450h3v-3h-3v3Zm-107.5 3H1186v-6h-107.5v6Zm104.5-3v318h6V450h-6Z"/>
        </g>
        <g class="round16A">
          <path fill="#F6F1EE" d="M971 450h107.5v318H971V450Z"/>
          <path fill="#6C5F5B" d="M971 450v-3h-3v3h3Zm0 3h107.5v-6H971v6Zm3 315V450h-6v318h6Z"/>
        </g>
      </g>
      <g class="round15">
        <g class="round15B">
          <path fill="#F6F1EE" d="M683.5 450H795v318H683.5V450Z"/>
          <path fill="#6C5F5B" d="M795 450h3v-3h-3v3Zm-111.5 3H795v-6H683.5v6Zm108.5-3v318h6V450h-6Z"/>
        </g>
        <g class="round15A">
          <path fill="#F6F1EE" d="M572 450h111.5v318H572V450Z"/>
          <path fill="#6C5F5B" d="M572 450v-3h-3v3h3Zm0 3h111.5v-6H572v6Zm3 315V450h-6v318h6Z"/>
        </g>
      </g>
      <g class="round14">
        <g class="round14B">
          <path fill="#F6F1EE" d="M275 450h112v318H275V450Z"/>
          <path fill="#6C5F5B" d="M387 450h3v-3h-3v3Zm-112 3h112v-6H275v6Zm109-3v318h6V450h-6Z"/>
        </g>
        <g class="round14A">
          <path fill="#F6F1EE" d="M163 450h112v318H163V450Z"/>
          <path fill="#6C5F5B" d="M163 450v-3h-3v3h3Zm0 3h112v-6H163v6Zm3 315V450h-6v318h6Z"/>
        </g>
      </g>
    </g>
    <g class="step2">
      <g class="round13">
        <g class="round13B">
          <path fill="#F6F1EE" d="M1641 556h59v212h-59V556Z"/>
          <path fill="#6C5F5B" d="M1700 556h3v-3h-3v3Zm-59 3h59v-6h-59v6Zm56-3v212h6V556h-6Z"/>
        </g>
        <g class="round13A">
          <path fill="#F6F1EE" d="M1582 556h59v212h-59V556Z"/>
          <path fill="#6C5F5B" d="M1582 556v-3h-3v3h3Zm0 3h59v-6h-59v6Zm3 209V556h-6v212h6Z"/>
        </g>
      </g>
      <g class="round12">
        <g class="round12B">
          <path fill="#F6F1EE" d="M1363 556h59v212h-59V556Z"/>
          <path fill="#6C5F5B" d="M1422 556h3v-3h-3v3Zm-59 3h59v-6h-59v6Zm56-3v212h6V556h-6Z"/>
        </g>
        <g class="round12A">
          <path fill="#F6F1EE" d="M1304 556h59v212h-59V556Z"/>
          <path fill="#6C5F5B" d="M1304 556v-3h-3v3h3Zm0 3h59v-6h-59v6Zm3 209V556h-6v212h6Z"/>
        </g>
      </g>
      <g class="round11">
        <g class="round11B">
          <path fill="#F6F1EE" d="M1186 556h39v212h-39V556Z"/>
          <path fill="#6C5F5B" d="M1225 556h3v-3h-3v3Zm-39 3h39v-6h-39v6Zm36-3v212h6V556h-6Z"/>
        </g>
        <g class="round11A">
          <path fill="#F6F1EE" d="M1147 556h39v212h-39V556Z"/>
          <path fill="#6C5F5B" d="M1147 556v-3h-3v3h3Zm0 3h39v-6h-39v6Zm3 209V556h-6v212h6Z"/>
        </g>
      </g>
      <g class="round10">
        <g class="round10B">
          <path fill="#F6F1EE" d="M971 556h59v212h-59V556Z"/>
          <path fill="#6C5F5B" d="M1030 556h3v-3h-3v3Zm-59 3h59v-6h-59v6Zm56-3v212h6V556h-6Z"/>
        </g>
        <g class="round10A">
          <path fill="#F6F1EE" d="M912 556h59v212h-59V556Z"/>
          <path fill="#6C5F5B" d="M912 556v-3h-3v3h3Zm0 3h59v-6h-59v6Zm3 209V556h-6v212h6Z"/>
        </g>
      </g>
      <g class="round9">
        <g class="round9B">
          <path fill="#F6F1EE" d="M795 556h39v212h-39V556Z"/>
          <path fill="#6C5F5B" d="M834 556h3v-3h-3v3Zm-39 3h39v-6h-39v6Zm36-3v212h6V556h-6Z"/>
        </g>
        <g class="round9A">
          <path fill="#F6F1EE" d="M756 556h39v212h-39V556Z"/>
          <path fill="#6C5F5B" d="M756 556v-3h-3v3h3Zm0 3h39v-6h-39v6Zm3 209V556h-6v212h6Z"/>
        </g>
      </g>
      <g class="round8">
        <g class="round8B">
          <path fill="#F6F1EE" d="M571 556h59v212h-59V556Z"/>
          <path fill="#6C5F5B" d="M630 556h3v-3h-3v3Zm-59 3h59v-6h-59v6Zm56-3v212h6V556h-6Z"/>
        </g>
        <g class="round8A">
          <path fill="#F6F1EE" d="M512 556h59v212h-59V556Z"/>
          <path fill="#6C5F5B" d="M512 556v-3h-3v3h3Zm0 3h59v-6h-59v6Zm3 209V556h-6v212h6Z"/>
        </g>
      </g>
      <g class="round7">
        <g class="round7B">
          <path fill="#F6F1EE" d="M387 556h39v212h-39V556Z"/>
          <path fill="#6C5F5B" d="M426 556h3v-3h-3v3Zm-39 3h39v-6h-39v6Zm36-3v212h6V556h-6Z"/>
        </g>
        <g class="round7A">
          <path fill="#F6F1EE" d="M348 556h39v212h-39V556Z"/>
          <path fill="#6C5F5B" d="M348 556v-3h-3v3h3Zm0 3h39v-6h-39v6Zm3 209V556h-6v212h6Z"/>
        </g>
      </g>
      <g class="round6">
        <g class="round6B">
          <path fill="#F6F1EE" d="M163 556h59v212h-59V556Z"/>
          <path fill="#6C5F5B" d="M222 556h3v-3h-3v3Zm-59 3h59v-6h-59v6Zm56-3v212h6V556h-6Z"/>
        </g>
        <g class="round6A">
          <path fill="#F6F1EE" d="M104 556h59v212h-59V556Z"/>
          <path fill="#6C5F5B" d="M104 556v-3h-3v3h3Zm0 3h59v-6h-59v6Zm3 209V556h-6v212h6Z"/>
        </g>
      </g>
    </g>
    <g class="step1">
      <g class="round5">
        <g class="round5B">
          <path fill="#F6F1EE" d="M1582 662h39v106h-39V662Z"/>
          <path fill="#6C5F5B" d="M1621 662h3v-3h-3v3Zm-39 3h39v-6h-39v6Zm36-3v106h6V662h-6Z"/>
        </g>
        <g class="round5A">
          <path fill="#F6F1EE" d="M1543 662h39v106h-39V662Z"/>
          <path fill="#6C5F5B" d="M1543 662v-3h-3v3h3Zm0 3h39v-6h-39v6Zm3 103V662h-6v106h6Z"/>
        </g>
      </g>
      <g class="round4">
        <g class="round4B">
          <path fill="#F6F1EE" d="M1422 662h39v106h-39V662Z"/>
          <path fill="#6C5F5B" d="M1461 662h3v-3h-3v3Zm-39 3h39v-6h-39v6Zm36-3v106h6V662h-6Z"/>
        </g>
        <g class="round4A">
          <path fill="#F6F1EE" d="M1383 662h39v106h-39V662Z"/>
          <path fill="#6C5F5B" d="M1383 662v-3h-3v3h3Zm0 3h39v-6h-39v6Zm3 103V662h-6v106h6Z"/>
        </g>
      </g>
      <g class="round3">
        <g class="round3B">
          <path fill="#F6F1EE" d="M1030 662h39v106h-39V662Z"/>
          <path fill="#6C5F5B" d="M1069 662h3v-3h-3v3Zm-39 3h39v-6h-39v6Zm36-3v106h6V662h-6Z"/>
        </g>
        <g class="round3A">
          <path fill="#F6F1EE" d="M991 662h39v106h-39V662Z"/>
          <path fill="#6C5F5B" d="M991 662v-3h-3v3h3Zm0 3h39v-6h-39v6Zm3 103V662h-6v106h6Z"/>
        </g>
      </g>
      <g class="round2">
        <g class="round2B">
          <path fill="#F6F1EE" d="M630 662h43v106h-43V662Z"/>
          <path fill="#6C5F5B" d="M673 662h3v-3h-3v3Zm-43 3h43v-6h-43v6Zm40-3v106h6V662h-6Z"/>
        </g>
        <g class="round2A">
          <path fill="#F6F1EE" d="M587 662h43v106h-43V662Z"/>
          <path fill="#6C5F5B" d="M587 662v-3h-3v3h3Zm0 3h43v-6h-43v6Zm3 103V662h-6v106h6Z"/>
        </g>
      </g>
      <g class="round1">
        <g class="round1B">
          <path fill="#F6F1EE" d="M219 662h43v106h-43V662Z"/>
          <path fill="#6C5F5B" d="M262 662h3v-3h-3v3Zm-43 3h43v-6h-43v6Zm40-3v106h6V662h-6Z"/>
        </g>
        <g class="round1A">
          <path fill="#F6F1EE" d="M176 662h43v106h-43V662Z"/>
          <path fill="#6C5F5B" d="M176 662v-3h-3v3h3Zm0 3h43v-6h-43v6Zm3 103V662h-6v106h6Z"/>
        </g>
      </g>
    </g>
    <g class="çå">
      <path fill="#ED7D31" d="M920.355 128.549c2.783 0 4.645-2.187 4.645-4.887V84.655c0-1.977-.94-3.76-2.379-4.514-1.442-.76-3.097-.34-4.2 1.058l-7.416 9.408c-1.506 1.909-3.945 1.909-5.449 0l-14.331-18.176c-1.504-1.908-3.946-1.908-5.45 0l-14.331 18.176c-1.504 1.908-3.943 1.908-5.449 0l-7.416-9.408c-1.103-1.398-2.761-1.818-4.2-1.058-1.439.754-2.379 2.537-2.379 4.514v39.007c0 2.7 1.869 4.887 4.652 4.887h63.703Z" class="Vector"/>
    </g>
    <path fill="#000" d="M109.75 90.8c-.333.233-.733.317-1.2.25a1.548 1.548 0 0 1-1.05-.65 1.688 1.688 0 0 1-.25-1.2c.067-.467.283-.817.65-1.05 1.933-1.367 3.8-2.983 5.6-4.85a53.1 53.1 0 0 0 4.8-5.7c1.433-1.967 2.533-3.75 3.3-5.35.2-.4.5-.667.9-.8.433-.133.85-.117 1.25.05.4.2.667.517.8.95.167.4.15.8-.05 1.2-.6 1.233-1.433 2.617-2.5 4.15a58.043 58.043 0 0 1-3.55 4.7 61.386 61.386 0 0 1-4.25 4.6c-1.5 1.433-2.983 2.667-4.45 3.7Zm39.2-.45c-.367.233-.767.3-1.2.2a1.755 1.755 0 0 1-1-.75c-.633-1.1-1.45-2.317-2.45-3.65a56.849 56.849 0 0 0-3.25-4.15 72.17 72.17 0 0 0-3.65-4.15 54.03 54.03 0 0 0-3.7-3.65c-.333-.3-.5-.667-.5-1.1 0-.467.15-.867.45-1.2.3-.333.667-.5 1.1-.5.467-.033.867.117 1.2.45a77.462 77.462 0 0 1 3.65 3.7 92.54 92.54 0 0 1 3.75 4.2 77.028 77.028 0 0 1 3.5 4.35c1.067 1.433 1.967 2.783 2.7 4.05.233.367.283.767.15 1.2-.1.433-.35.767-.75 1Zm2.2-22.45c-.233.233-.55.35-.95.35-.367 0-.683-.133-.95-.4-.5-.533-1.167-1.15-2-1.85a29.648 29.648 0 0 0-2.15-1.75 1.28 1.28 0 0 1-.5-.8 1.078 1.078 0 0 1 .25-.95c.233-.3.517-.467.85-.5.333-.033.667.05 1 .25.4.233.867.583 1.4 1.05.567.467 1.133.95 1.7 1.45.567.467 1.017.867 1.35 1.2.267.233.4.55.4.95 0 .4-.133.733-.4 1Zm-3.85 4.2c-.267.233-.6.333-1 .3a1.306 1.306 0 0 1-.9-.45c-.467-.567-1.1-1.233-1.9-2a37.773 37.773 0 0 0-2.05-1.85 1.28 1.28 0 0 1-.5-.8 1.219 1.219 0 0 1 .3-.95c.267-.3.567-.45.9-.45.367-.033.683.067.95.3.367.267.817.65 1.35 1.15a33 33 0 0 1 1.6 1.5c.567.5 1.017.933 1.35 1.3.267.267.383.6.35 1a1.496 1.496 0 0 1-.45.95Zm28.55 28.7c-.433 0-.817-.167-1.15-.5-.3-.3-.45-.667-.45-1.1V64.15c0-.433.15-.8.45-1.1.333-.333.717-.5 1.15-.5.467 0 .85.167 1.15.5.3.3.45.667.45 1.1V99.2c0 .433-.15.8-.45 1.1-.3.333-.683.5-1.15.5Zm15.4-14.2c-.933-.767-2.083-1.617-3.45-2.55a131.244 131.244 0 0 0-4.2-2.75 53.854 53.854 0 0 0-4-2.3c-.4-.233-.667-.55-.8-.95a1.63 1.63 0 0 1 .1-1.25c.2-.4.517-.667.95-.8.433-.133.833-.1 1.2.1a52.862 52.862 0 0 1 4.25 2.4c1.533.933 3 1.883 4.4 2.85 1.433.967 2.65 1.867 3.65 2.7.367.3.567.683.6 1.15.033.433-.083.833-.35 1.2-.3.333-.683.517-1.15.55a1.757 1.757 0 0 1-1.2-.35Zm4.3-12.85c-.333.233-.683.3-1.05.2-.367-.1-.65-.3-.85-.6-.333-.633-.85-1.383-1.55-2.25-.667-.9-1.25-1.617-1.75-2.15a1.333 1.333 0 0 1-.35-.9c.033-.333.183-.617.45-.85.267-.267.583-.367.95-.3.367.033.667.183.9.45.333.333.717.783 1.15 1.35.467.533.933 1.1 1.4 1.7.467.567.833 1.067 1.1 1.5.2.3.25.633.15 1-.067.367-.25.65-.55.85Zm4.45-3.5a1.21 1.21 0 0 1-1 .25c-.367-.1-.65-.3-.85-.6-.4-.6-.967-1.317-1.7-2.15s-1.35-1.5-1.85-2a1.333 1.333 0 0 1-.35-.9c0-.367.117-.667.35-.9.267-.267.567-.383.9-.35a1.5 1.5 0 0 1 .95.45c.333.3.75.717 1.25 1.25.5.5.983 1.033 1.45 1.6.5.567.9 1.05 1.2 1.45.233.3.3.633.2 1a1.43 1.43 0 0 1-.55.9Zm38.4 30.4c-1.6-1.3-3.483-2.617-5.65-3.95a109.985 109.985 0 0 0-6.7-3.9c-2.267-1.267-4.4-2.333-6.4-3.2-.4-.167-.683-.45-.85-.85a1.938 1.938 0 0 1 .05-1.3c.2-.4.5-.667.9-.8.433-.167.85-.167 1.25 0 2.067.933 4.283 2.067 6.65 3.4 2.367 1.3 4.667 2.65 6.9 4.05 2.267 1.4 4.217 2.75 5.85 4.05.367.267.567.633.6 1.1.033.433-.083.817-.35 1.15a1.43 1.43 0 0 1-1.05.55 1.563 1.563 0 0 1-1.2-.3Zm-4.5-17.1c-.8-.533-1.817-1.133-3.05-1.8a86.575 86.575 0 0 0-3.95-2 80.513 80.513 0 0 0-4.05-1.8c-1.3-.567-2.4-1-3.3-1.3-.433-.167-.75-.433-.95-.8a1.63 1.63 0 0 1-.1-1.25c.167-.433.433-.75.8-.95.4-.233.817-.267 1.25-.1 1 .333 2.183.817 3.55 1.45 1.367.6 2.783 1.25 4.25 1.95s2.833 1.4 4.1 2.1c1.3.667 2.367 1.267 3.2 1.8.367.233.6.567.7 1 .1.433.017.833-.25 1.2-.233.367-.567.6-1 .7-.433.1-.833.033-1.2-.2Zm3.2-11c-.767-.567-1.767-1.183-3-1.85-1.2-.7-2.483-1.4-3.85-2.1a54.822 54.822 0 0 0-4-1.95c-1.267-.6-2.35-1.067-3.25-1.4-.4-.167-.7-.433-.9-.8a1.789 1.789 0 0 1-.05-1.25c.167-.433.45-.733.85-.9.4-.2.817-.217 1.25-.05.9.333 2.017.817 3.35 1.45a99.442 99.442 0 0 1 4.25 2.1 109.69 109.69 0 0 1 4.1 2.25c1.3.733 2.333 1.367 3.1 1.9.367.233.583.583.65 1.05.1.433.017.833-.25 1.2-.267.333-.617.55-1.05.65a1.566 1.566 0 0 1-1.2-.3Zm29.45 24.35c-.433.133-.85.117-1.25-.05-.367-.2-.633-.517-.8-.95-.133-.4-.117-.8.05-1.2a1.35 1.35 0 0 1 .9-.85c2.8-1 5.6-2.217 8.4-3.65a86.893 86.893 0 0 0 8.1-4.65c2.6-1.7 4.95-3.433 7.05-5.2 2.133-1.767 3.883-3.5 5.25-5.2.267-.367.617-.567 1.05-.6.467-.033.867.083 1.2.35.367.3.567.667.6 1.1.033.433-.083.833-.35 1.2-1.4 1.7-3.233 3.483-5.5 5.35-2.233 1.867-4.733 3.7-7.5 5.5a99.692 99.692 0 0 1-8.6 5c-2.933 1.533-5.8 2.817-8.6 3.85Zm5.9-19.2c-.8-.7-1.717-1.433-2.75-2.2a49.406 49.406 0 0 0-3.15-2.25c-1.033-.733-2-1.367-2.9-1.9a1.753 1.753 0 0 1-.75-1c-.1-.433-.033-.833.2-1.2a1.755 1.755 0 0 1 1-.75c.467-.133.883-.067 1.25.2.933.6 1.967 1.3 3.1 2.1s2.233 1.6 3.3 2.4c1.067.8 1.95 1.483 2.65 2.05.367.267.567.617.6 1.05.067.433-.033.833-.3 1.2-.267.333-.633.55-1.1.65a1.339 1.339 0 0 1-1.15-.35Zm53.4 23.1c-.433 0-.817-.167-1.15-.5-.3-.3-.45-.667-.45-1.1V64.15c0-.467.15-.85.45-1.15.333-.3.717-.45 1.15-.45.467 0 .85.15 1.15.45.3.3.45.683.45 1.15V99.2c0 .433-.15.8-.45 1.1-.3.333-.683.5-1.15.5Zm15.4-14.2c-.933-.767-2.083-1.617-3.45-2.55a131.244 131.244 0 0 0-4.2-2.75 53.854 53.854 0 0 0-4-2.3c-.4-.233-.667-.55-.8-.95a1.63 1.63 0 0 1 .1-1.25c.2-.4.517-.667.95-.8.433-.133.833-.1 1.2.1a52.862 52.862 0 0 1 4.25 2.4 113.44 113.44 0 0 1 4.45 2.85c1.433.967 2.65 1.867 3.65 2.7.333.3.517.667.55 1.1.033.433-.083.833-.35 1.2a1.85 1.85 0 0 1-1.15.6 1.757 1.757 0 0 1-1.2-.35Zm25.3 10.3c-.433.133-.85.117-1.25-.05-.367-.2-.633-.517-.8-.95-.133-.4-.117-.8.05-1.2a1.35 1.35 0 0 1 .9-.85c2.8-1 5.6-2.217 8.4-3.65a86.893 86.893 0 0 0 8.1-4.65c2.6-1.7 4.95-3.433 7.05-5.2 2.133-1.767 3.883-3.5 5.25-5.2.267-.367.617-.567 1.05-.6.467-.033.867.083 1.2.35.367.3.567.667.6 1.1.033.433-.083.833-.35 1.2-1.4 1.7-3.233 3.483-5.5 5.35-2.233 1.867-4.733 3.7-7.5 5.5a99.692 99.692 0 0 1-8.6 5c-2.933 1.533-5.8 2.817-8.6 3.85Zm5.9-19.2c-.8-.7-1.717-1.433-2.75-2.2a49.406 49.406 0 0 0-3.15-2.25c-1.033-.733-2-1.367-2.9-1.9a1.753 1.753 0 0 1-.75-1c-.1-.433-.033-.833.2-1.2a1.755 1.755 0 0 1 1-.75c.467-.133.883-.067 1.25.2.933.6 1.967 1.3 3.1 2.1s2.233 1.6 3.3 2.4c1.067.8 1.95 1.483 2.65 2.05.367.267.567.617.6 1.05.067.433-.033.833-.3 1.2-.267.333-.633.55-1.1.65a1.339 1.339 0 0 1-1.15-.35Z" class="ãããã³ãã³"/>
    <g class="class">
      <path fill="#000" d="M1684.88 818.396c-1.51 0-2.82-.384-3.92-1.152a7.416 7.416 0 0 1-2.45-3.096c-.19-.36-.23-.672-.11-.936.12-.264.34-.444.65-.54.34-.12.61-.12.83 0 .22.12.42.348.61.684.36.888.91 1.62 1.66 2.196.77.552 1.67.828 2.7.828 1.7 0 3.02-.444 3.96-1.332.93-.888 1.4-2.196 1.4-3.924 0-1.632-.54-2.94-1.62-3.924-1.05-.984-2.41-1.476-4.07-1.476-.72 0-1.08-.336-1.08-1.008 0-.672.36-1.008 1.08-1.008 1.59 0 2.82-.444 3.71-1.332.89-.888 1.33-2.052 1.33-3.492 0-1.056-.22-1.908-.68-2.556a3.666 3.666 0 0 0-1.73-1.404 5.734 5.734 0 0 0-2.3-.468c-.96 0-1.79.288-2.49.864a5.717 5.717 0 0 0-1.58 2.088c-.22.312-.43.528-.65.648-.21.096-.49.072-.83-.072-.31-.12-.51-.312-.61-.576-.09-.264-.05-.564.15-.9.67-1.368 1.54-2.4 2.62-3.096 1.08-.696 2.22-1.044 3.42-1.044 2.02 0 3.66.576 4.94 1.728 1.27 1.152 1.9 2.736 1.9 4.752 0 1.344-.34 2.532-1.04 3.564a6.083 6.083 0 0 1-2.81 2.268c1.32.456 2.4 1.26 3.24 2.412.84 1.152 1.26 2.508 1.26 4.068 0 1.368-.27 2.604-.83 3.708-.52 1.08-1.34 1.944-2.44 2.592-1.11.624-2.51.936-4.22.936Zm13.7-.396c-.75 0-1.12-.396-1.12-1.188v-22.824c0-.792.43-1.188 1.3-1.188.62 0 1.09.264 1.4.792l8.17 12.204 8.1-12.204c.2-.312.41-.516.65-.612.24-.12.54-.18.9-.18.79 0 1.19.396 1.19 1.188v22.824c0 .792-.37 1.188-1.12 1.188-.76 0-1.15-.396-1.15-1.188v-20.16l-7.49 11.34c-.31.528-.67.792-1.08.792-.43 0-.8-.264-1.11-.792l-7.53-11.34v20.16c0 .792-.37 1.188-1.11 1.188Z" class="3M"/>
      <path fill="#000" d="M1596.56 818c-.8 0-1.19-.264-1.19-.792 0-1.224.26-2.388.79-3.492.55-1.128 1.28-2.232 2.2-3.312.91-1.104 1.94-2.22 3.09-3.348.87-.864 1.67-1.704 2.41-2.52.77-.84 1.41-1.668 1.91-2.484.51-.84.77-1.68.79-2.52.05-1.632-.34-2.856-1.18-3.672-.82-.816-1.97-1.224-3.46-1.224-1.1 0-2.04.336-2.81 1.008-.77.672-1.23 1.656-1.4 2.952-.15.768-.52 1.152-1.12 1.152-.33 0-.6-.108-.79-.324-.19-.216-.26-.528-.22-.936.24-1.776.93-3.204 2.06-4.284 1.15-1.08 2.58-1.62 4.28-1.62 2.06 0 3.72.612 4.97 1.836 1.25 1.224 1.83 2.94 1.76 5.148-.02 1.104-.31 2.16-.86 3.168-.55.984-1.26 1.944-2.13 2.88-.84.936-1.75 1.896-2.73 2.88a70.1 70.1 0 0 0-2.41 2.52 16.35 16.35 0 0 0-1.95 2.484c-.53.84-.85 1.68-.97 2.52h9.61c.79 0 1.19.324 1.19.972 0 .672-.4 1.008-1.19 1.008h-10.65Zm15.42 0c-.39 0-.65-.108-.8-.324-.12-.216-.1-.516.04-.9l9.29-23.148c.17-.552.56-.828 1.19-.828h.18c.62 0 1.02.276 1.18.828l9.33 23.148c.26.816.01 1.224-.76 1.224h-.36c-.57 0-.97-.276-1.19-.828l-2.66-6.768h-11.27l-2.7 6.768c-.19.552-.59.828-1.19.828h-.28Zm4.93-9.72h9.72l-4.83-12.348-4.89 12.348Z" class="2A"/>
      <path fill="#000" d="M1525.7 818c-.69 0-1.04-.396-1.04-1.188V795.5l-4.14 2.556c-.67.456-1.2.384-1.58-.216-.36-.576-.21-1.092.46-1.548l5.08-3.168c.43-.264.92-.396 1.48-.396.52 0 .79.396.79 1.188v22.896c0 .792-.35 1.188-1.05 1.188Zm9.5-8.064c-.31 0-.57-.096-.79-.288a1.16 1.16 0 0 1-.29-.792c0-.288.1-.54.29-.756.22-.216.48-.324.79-.324h9.07c.32 0 .57.108.76.324.22.216.32.468.32.756 0 .312-.1.576-.32.792-.19.192-.44.288-.76.288h-9.07Zm15.06 8.064c-.79 0-1.18-.264-1.18-.792 0-1.224.26-2.388.79-3.492.55-1.128 1.28-2.232 2.19-3.312a45.51 45.51 0 0 1 3.1-3.348c.86-.864 1.67-1.704 2.41-2.52.77-.84 1.41-1.668 1.91-2.484.5-.84.77-1.68.79-2.52.05-1.632-.35-2.856-1.19-3.672-.81-.816-1.96-1.224-3.45-1.224-1.11 0-2.04.336-2.81 1.008-.77.672-1.24 1.656-1.4 2.952-.15.768-.52 1.152-1.12 1.152-.34 0-.6-.108-.79-.324-.19-.216-.27-.528-.22-.936.24-1.776.93-3.204 2.05-4.284 1.16-1.08 2.58-1.62 4.29-1.62 2.06 0 3.72.612 4.97 1.836 1.24 1.224 1.83 2.94 1.76 5.148-.02 1.104-.31 2.16-.86 3.168-.56.984-1.26 1.944-2.13 2.88-.84.936-1.75 1.896-2.73 2.88-.84.84-1.65 1.68-2.42 2.52-.76.816-1.41 1.644-1.94 2.484-.53.84-.85 1.68-.97 2.52h9.61c.79 0 1.19.324 1.19.972 0 .672-.4 1.008-1.19 1.008h-10.66Z" class="1-2"/>
      <path fill="#000" d="M1451.24 818c-.67 0-1.01-.396-1.01-1.188v-5.148h-9.32c-.82 0-1.23-.276-1.23-.828 0-.312.04-.576.11-.792.07-.216.18-.444.33-.684l9.79-15.912c.19-.312.38-.516.57-.612.22-.12.48-.18.8-.18.64 0 .97.396.97 1.188v15.84h2.63c.79 0 1.18.324 1.18.972 0 .672-.33 1.008-1 1.008h-2.81v5.148c0 .792-.34 1.188-1.01 1.188Zm-9.14-8.316h8.13V796.4l-8.13 13.284Zm18.79 8.316c-.74 0-1.11-.396-1.11-1.188v-22.824c0-.792.43-1.188 1.29-1.188.63 0 1.1.264 1.41.792l8.17 12.204 8.1-12.204c.19-.312.41-.516.65-.612.24-.12.54-.18.9-.18.79 0 1.19.396 1.19 1.188v22.824c0 .792-.38 1.188-1.12 1.188-.77 0-1.15-.396-1.15-1.188v-20.16l-7.49 11.34c-.31.528-.67.792-1.08.792-.43 0-.8-.264-1.12-.792l-7.52-11.34v20.16c0 .792-.37 1.188-1.12 1.188Z" class="4M"/>
      <path fill="#000" d="M1375.24 818c-.67 0-1.01-.396-1.01-1.188v-5.148h-9.32c-.82 0-1.23-.276-1.23-.828 0-.312.04-.576.11-.792.07-.216.18-.444.33-.684l9.79-15.912c.19-.312.38-.516.57-.612.22-.12.48-.18.8-.18.64 0 .97.396.97 1.188v15.84h2.63c.79 0 1.18.324 1.18.972 0 .672-.33 1.008-1 1.008h-2.81v5.148c0 .792-.34 1.188-1.01 1.188Zm-9.14-8.316h8.13V796.4l-8.13 13.284Zm18.87 8.316c-.8 0-1.19-.396-1.19-1.188v-22.824c0-.792.39-1.188 1.19-1.188h13.28c.79 0 1.19.348 1.19 1.044 0 .696-.4 1.044-1.19 1.044h-12.28v9.144h11.09c.79 0 1.19.36 1.19 1.08 0 .72-.4 1.08-1.19 1.08h-11.09v9.684h12.71c.79 0 1.19.348 1.19 1.044 0 .72-.4 1.08-1.19 1.08h-13.71Z" class="4E"/>
      <path fill="#000" d="M1293.96 818.252c-1.18 0-2.32-.252-3.42-.756a7.84 7.84 0 0 1-2.74-2.196c-.29-.288-.41-.576-.36-.864.05-.288.22-.516.5-.684.51-.312 1.04-.216 1.59.288 1.2 1.416 2.67 2.124 4.43 2.124 1.72 0 3.06-.504 3.99-1.512.96-1.032 1.44-2.472 1.44-4.32 0-1.632-.42-2.976-1.26-4.032-.84-1.08-2.01-1.62-3.53-1.62-.67 0-1.33.168-1.98.504-.62.312-1.1.696-1.44 1.152-.24.216-.45.396-.64.54-.2.144-.46.216-.8.216-.72 0-1.08-.396-1.08-1.188v-11.916c0-.792.41-1.188 1.23-1.188h9.54c.79 0 1.19.336 1.19 1.008 0 .672-.4 1.008-1.19 1.008h-8.61v9.396a5.309 5.309 0 0 1 1.73-1.08c.7-.288 1.39-.432 2.09-.432 1.32 0 2.5.312 3.53.936 1.03.6 1.83 1.476 2.41 2.628.6 1.128.9 2.484.9 4.068 0 2.544-.7 4.5-2.09 5.868-1.39 1.368-3.2 2.052-5.43 2.052Zm13.09-.252c-.79 0-1.19-.396-1.19-1.188v-22.824c0-.792.4-1.188 1.19-1.188h13.29c.79 0 1.18.348 1.18 1.044 0 .696-.39 1.044-1.18 1.044h-12.28v9.144h11.09c.79 0 1.19.36 1.19 1.08 0 .72-.4 1.08-1.19 1.08h-11.09v9.684h12.71c.79 0 1.19.348 1.19 1.044 0 .72-.4 1.08-1.19 1.08h-13.72Z" class="5E"/>
      <path fill="#000" d="M1209.88 818.396c-1.51 0-2.82-.384-3.92-1.152a7.416 7.416 0 0 1-2.45-3.096c-.19-.36-.23-.672-.11-.936.12-.264.34-.444.65-.54.34-.12.61-.12.83 0 .22.12.42.348.61.684.36.888.91 1.62 1.66 2.196.77.552 1.67.828 2.7.828 1.7 0 3.02-.444 3.96-1.332.93-.888 1.4-2.196 1.4-3.924 0-1.632-.54-2.94-1.62-3.924-1.05-.984-2.41-1.476-4.07-1.476-.72 0-1.08-.336-1.08-1.008 0-.672.36-1.008 1.08-1.008 1.59 0 2.82-.444 3.71-1.332.89-.888 1.33-2.052 1.33-3.492 0-1.056-.22-1.908-.68-2.556a3.666 3.666 0 0 0-1.73-1.404 5.734 5.734 0 0 0-2.3-.468c-.96 0-1.79.288-2.49.864a5.717 5.717 0 0 0-1.58 2.088c-.22.312-.43.528-.65.648-.21.096-.49.072-.83-.072-.31-.12-.51-.312-.61-.576-.09-.264-.05-.564.15-.9.67-1.368 1.54-2.4 2.62-3.096 1.08-.696 2.22-1.044 3.42-1.044 2.02 0 3.66.576 4.94 1.728 1.27 1.152 1.9 2.736 1.9 4.752 0 1.344-.34 2.532-1.04 3.564a6.083 6.083 0 0 1-2.81 2.268c1.32.456 2.4 1.26 3.24 2.412.84 1.152 1.26 2.508 1.26 4.068 0 1.368-.27 2.604-.83 3.708-.52 1.08-1.34 1.944-2.44 2.592-1.11.624-2.51.936-4.22.936Zm22.77.072c-2.28 0-4.28-.54-6.01-1.62-1.73-1.08-3.09-2.604-4.07-4.572-.96-1.968-1.44-4.272-1.44-6.912 0-2.64.48-4.932 1.44-6.876.98-1.968 2.34-3.492 4.07-4.572 1.73-1.104 3.73-1.656 6.01-1.656 1.78 0 3.38.348 4.82 1.044 1.47.696 2.72 1.68 3.75 2.952.24.264.31.528.21.792-.07.264-.24.492-.5.684l-.11.036c-.19.12-.43.168-.72.144-.26-.024-.51-.156-.75-.396-1.71-2.04-3.94-3.06-6.7-3.06-1.8 0-3.4.444-4.79 1.332-1.39.864-2.48 2.112-3.27 3.744-.8 1.632-1.19 3.576-1.19 5.832s.39 4.212 1.19 5.868c.79 1.632 1.88 2.892 3.27 3.78 1.39.864 2.99 1.296 4.79 1.296 1.34 0 2.59-.264 3.74-.792a8.834 8.834 0 0 0 2.96-2.268c.5-.504.99-.6 1.47-.288l.11.072c.26.168.43.396.5.684.1.264.04.528-.18.792a10.845 10.845 0 0 1-3.74 2.916c-1.46.696-3.08 1.044-4.86 1.044Z" class="3C"/>
      <path fill="#000" d="M1131.56 818c-.8 0-1.19-.264-1.19-.792 0-1.224.26-2.388.79-3.492.55-1.128 1.28-2.232 2.2-3.312.91-1.104 1.94-2.22 3.09-3.348.87-.864 1.67-1.704 2.41-2.52.77-.84 1.41-1.668 1.91-2.484.51-.84.77-1.68.79-2.52.05-1.632-.34-2.856-1.18-3.672-.82-.816-1.97-1.224-3.46-1.224-1.1 0-2.04.336-2.81 1.008-.77.672-1.23 1.656-1.4 2.952-.15.768-.52 1.152-1.12 1.152-.33 0-.6-.108-.79-.324-.19-.216-.26-.528-.22-.936.24-1.776.93-3.204 2.06-4.284 1.15-1.08 2.58-1.62 4.28-1.62 2.06 0 3.72.612 4.97 1.836 1.25 1.224 1.83 2.94 1.76 5.148-.02 1.104-.31 2.16-.86 3.168-.55.984-1.26 1.944-2.13 2.88-.84.936-1.75 1.896-2.73 2.88a70.1 70.1 0 0 0-2.41 2.52 16.35 16.35 0 0 0-1.95 2.484c-.53.84-.85 1.68-.97 2.52h9.61c.79 0 1.19.324 1.19.972 0 .672-.4 1.008-1.19 1.008h-10.65Zm26.68.468c-2.28 0-4.28-.54-6.01-1.62-1.73-1.08-3.08-2.604-4.07-4.572-.96-1.968-1.44-4.272-1.44-6.912 0-2.64.48-4.932 1.44-6.876.99-1.968 2.34-3.492 4.07-4.572 1.73-1.104 3.73-1.656 6.01-1.656 1.78 0 3.39.348 4.83 1.044 1.46.696 2.71 1.68 3.74 2.952.24.264.31.528.22.792-.07.264-.24.492-.51.684l-.1.036c-.2.12-.44.168-.72.144-.27-.024-.52-.156-.76-.396-1.7-2.04-3.94-3.06-6.7-3.06-1.8 0-3.39.444-4.78 1.332-1.4.864-2.49 2.112-3.28 3.744-.79 1.632-1.19 3.576-1.19 5.832s.4 4.212 1.19 5.868c.79 1.632 1.88 2.892 3.28 3.78 1.39.864 2.98 1.296 4.78 1.296 1.35 0 2.6-.264 3.75-.792a8.896 8.896 0 0 0 2.95-2.268c.5-.504 1-.6 1.48-.288l.1.072c.27.168.44.396.51.684.09.264.03.528-.18.792a10.789 10.789 0 0 1-3.75 2.916c-1.46.696-3.08 1.044-4.86 1.044Z" class="2C"/>
      <path fill="#000" d="M1051.56 818c-.8 0-1.19-.264-1.19-.792 0-1.224.26-2.388.79-3.492.55-1.128 1.28-2.232 2.2-3.312.91-1.104 1.94-2.22 3.09-3.348.87-.864 1.67-1.704 2.41-2.52.77-.84 1.41-1.668 1.91-2.484.51-.84.77-1.68.79-2.52.05-1.632-.34-2.856-1.18-3.672-.82-.816-1.97-1.224-3.46-1.224-1.1 0-2.04.336-2.81 1.008-.77.672-1.23 1.656-1.4 2.952-.15.768-.52 1.152-1.12 1.152-.33 0-.6-.108-.79-.324-.19-.216-.26-.528-.22-.936.24-1.776.93-3.204 2.06-4.284 1.15-1.08 2.58-1.62 4.28-1.62 2.06 0 3.72.612 4.97 1.836 1.25 1.224 1.83 2.94 1.76 5.148-.02 1.104-.31 2.16-.86 3.168-.55.984-1.26 1.944-2.13 2.88-.84.936-1.75 1.896-2.73 2.88a70.1 70.1 0 0 0-2.41 2.52 16.35 16.35 0 0 0-1.95 2.484c-.53.84-.85 1.68-.97 2.52h9.61c.79 0 1.19.324 1.19.972 0 .672-.4 1.008-1.19 1.008h-10.65Zm17.68 0c-.79 0-1.18-.396-1.18-1.188v-22.824c0-.792.39-1.188 1.18-1.188h13.29c.79 0 1.19.348 1.19 1.044 0 .696-.4 1.044-1.19 1.044h-12.28v9.144h11.09c.79 0 1.19.36 1.19 1.08 0 .72-.4 1.08-1.19 1.08h-11.09v9.684h12.71c.79 0 1.19.348 1.19 1.044 0 .72-.4 1.08-1.19 1.08h-13.72Z" class="2E"/>
      <path fill="#000" d="M974.704 818c-.696 0-1.044-.396-1.044-1.188V795.5l-4.14 2.556c-.672.456-1.2.384-1.584-.216-.36-.576-.204-1.092.468-1.548l5.076-3.168a2.773 2.773 0 0 1 1.476-.396c.528 0 .792.396.792 1.188v22.896c0 .792-.348 1.188-1.044 1.188Zm9.497-8.064a1.15 1.15 0 0 1-.792-.288 1.15 1.15 0 0 1-.288-.792c0-.288.096-.54.288-.756.216-.216.48-.324.792-.324h9.072c.312 0 .564.108.756.324.216.216.324.468.324.756 0 .312-.108.576-.324.792-.192.192-.444.288-.756.288h-9.072Zm20.389 8.46c-1.51 0-2.82-.384-3.92-1.152-1.083-.792-1.899-1.824-2.451-3.096-.192-.36-.228-.672-.108-.936.12-.264.336-.444.648-.54.336-.12.612-.12.828 0 .216.12.423.348.613.684.36.888.91 1.62 1.66 2.196.76.552 1.66.828 2.7.828 1.7 0 3.02-.444 3.96-1.332.93-.888 1.4-2.196 1.4-3.924 0-1.632-.54-2.94-1.62-3.924-1.06-.984-2.41-1.476-4.07-1.476-.72 0-1.08-.336-1.08-1.008 0-.672.36-1.008 1.08-1.008 1.59 0 2.82-.444 3.71-1.332.89-.888 1.33-2.052 1.33-3.492 0-1.056-.23-1.908-.68-2.556a3.666 3.666 0 0 0-1.73-1.404 5.734 5.734 0 0 0-2.3-.468c-.96 0-1.79.288-2.49.864a5.717 5.717 0 0 0-1.58 2.088c-.22.312-.43.528-.651.648-.216.096-.492.072-.828-.072-.312-.12-.516-.312-.612-.576-.096-.264-.048-.564.144-.9.672-1.368 1.547-2.4 2.627-3.096 1.08-.696 2.22-1.044 3.42-1.044 2.02 0 3.66.576 4.93 1.728 1.28 1.152 1.91 2.736 1.91 4.752 0 1.344-.35 2.532-1.04 3.564a6.083 6.083 0 0 1-2.81 2.268c1.32.456 2.4 1.26 3.24 2.412.84 1.152 1.26 2.508 1.26 4.068 0 1.368-.28 2.604-.83 3.708-.53 1.08-1.34 1.944-2.45 2.592-1.1.624-2.5.936-4.21.936Z" class="1-3"/>
      <path fill="#000" d="M900.704 818c-.696 0-1.044-.396-1.044-1.188V795.5l-4.14 2.556c-.672.456-1.2.384-1.584-.216-.36-.576-.204-1.092.468-1.548l5.076-3.168a2.773 2.773 0 0 1 1.476-.396c.528 0 .792.396.792 1.188v22.896c0 .792-.348 1.188-1.044 1.188Zm9.497-8.064a1.15 1.15 0 0 1-.792-.288 1.15 1.15 0 0 1-.288-.792c0-.288.096-.54.288-.756.216-.216.48-.324.792-.324h9.072c.312 0 .564.108.756.324.216.216.324.468.324.756 0 .312-.108.576-.324.792-.192.192-.444.288-.756.288h-9.072Zm20.21 8.064c-.696 0-1.044-.396-1.044-1.188V795.5l-4.14 2.556c-.672.456-1.2.384-1.584-.216-.36-.576-.204-1.092.468-1.548l5.076-3.168a2.773 2.773 0 0 1 1.476-.396c.528 0 .792.396.792 1.188v22.896c0 .792-.348 1.188-1.044 1.188Z" class="1-1"/>
      <path fill="#000" d="M821.956 818.252a8.15 8.15 0 0 1-3.42-.756 7.862 7.862 0 0 1-2.736-2.196c-.288-.288-.408-.576-.36-.864.048-.288.216-.516.504-.684.504-.312 1.032-.216 1.584.288 1.2 1.416 2.676 2.124 4.428 2.124 1.728 0 3.06-.504 3.996-1.512.96-1.032 1.44-2.472 1.44-4.32 0-1.632-.42-2.976-1.26-4.032-.84-1.08-2.016-1.62-3.528-1.62-.672 0-1.332.168-1.98.504-.624.312-1.104.696-1.44 1.152a9.6 9.6 0 0 1-.648.54c-.192.144-.456.216-.792.216-.72 0-1.08-.396-1.08-1.188v-11.916c0-.792.408-1.188 1.224-1.188h9.54c.792 0 1.188.336 1.188 1.008 0 .672-.396 1.008-1.188 1.008h-8.604v9.396a5.279 5.279 0 0 1 1.728-1.08 5.424 5.424 0 0 1 2.088-.432c1.32 0 2.496.312 3.528.936 1.032.6 1.836 1.476 2.412 2.628.6 1.128.9 2.484.9 4.068 0 2.544-.696 4.5-2.088 5.868-1.392 1.368-3.204 2.052-5.436 2.052Zm22.096.216c-2.28 0-4.284-.54-6.012-1.62-1.728-1.08-3.084-2.604-4.068-4.572-.96-1.968-1.44-4.272-1.44-6.912 0-2.64.48-4.932 1.44-6.876.984-1.968 2.34-3.492 4.068-4.572 1.728-1.104 3.732-1.656 6.012-1.656 1.776 0 3.384.348 4.824 1.044a10.662 10.662 0 0 1 3.744 2.952c.24.264.312.528.216.792-.072.264-.24.492-.504.684l-.108.036c-.192.12-.432.168-.72.144-.264-.024-.516-.156-.756-.396-1.704-2.04-3.936-3.06-6.696-3.06-1.8 0-3.396.444-4.788 1.332-1.392.864-2.484 2.112-3.276 3.744-.792 1.632-1.188 3.576-1.188 5.832s.396 4.212 1.188 5.868c.792 1.632 1.884 2.892 3.276 3.78 1.392.864 2.988 1.296 4.788 1.296 1.344 0 2.592-.264 3.744-.792a8.844 8.844 0 0 0 2.952-2.268c.504-.504.996-.6 1.476-.288l.108.072c.264.168.432.396.504.684.096.264.036.528-.18.792a10.841 10.841 0 0 1-3.744 2.916c-1.464.696-3.084 1.044-4.86 1.044Z" class="5C"/>
      <path fill="#000" d="M756.728 820.916c-.312 0-.588-.096-.828-.288a1.225 1.225 0 0 1-.396-.756 1.14 1.14 0 0 1 .252-.828c.192-.216.468-.336.828-.36 1.056-.048 1.86-.144 2.412-.288.552-.144.924-.384 1.116-.72.216-.336.324-.816.324-1.44v-4.428h-21.06a.977.977 0 0 1-.72-.288 1.102 1.102 0 0 1-.288-.756c0-.288.096-.528.288-.72a.923.923 0 0 1 .72-.324h21.06v-2.124H750.5c-1.704 0-3.036-.168-3.996-.504-.96-.36-1.632-.948-2.016-1.764-.384-.84-.576-1.992-.576-3.456v-.792c0-1.44.192-2.568.576-3.384.384-.84 1.056-1.428 2.016-1.764.96-.36 2.292-.54 3.996-.54h3.564v-2.16h-14.112a.977.977 0 0 1-.72-.288 1.145 1.145 0 0 1-.252-.72c0-.264.084-.492.252-.684a.923.923 0 0 1 .72-.324h14.112v-2.556c0-.336.108-.612.324-.828.24-.216.516-.324.828-.324.312 0 .576.108.792.324.216.216.324.492.324.828v2.556h13.68a.82.82 0 0 1 .684.324c.192.192.288.42.288.684 0 .264-.096.504-.288.72-.168.192-.396.288-.684.288h-13.68v2.16h3.6c1.704 0 3.024.18 3.96.54.96.336 1.632.924 2.016 1.764.408.816.612 1.944.612 3.384v.792c0 1.728-.276 3.012-.828 3.852-.552.84-1.548 1.392-2.988 1.656v2.34h7.812c.288 0 .528.108.72.324a.977.977 0 0 1 .288.72c0 .288-.096.54-.288.756a.977.977 0 0 1-.72.288h-7.812v4.644c0 1.056-.18 1.908-.54 2.556-.36.672-.972 1.152-1.836 1.44-.864.312-2.064.468-3.6.468Zm-.396-15.228h3.636c1.08 0 1.92-.084 2.52-.252.6-.168 1.02-.492 1.26-.972.264-.48.408-1.164.432-2.052h-7.848v3.276Zm-5.904 0h3.636v-3.276h-7.848c.048.888.192 1.572.432 2.052.264.48.696.804 1.296.972.6.168 1.428.252 2.484.252Zm5.904-5.148h7.848c-.024-.888-.168-1.56-.432-2.016-.24-.48-.66-.804-1.26-.972-.6-.168-1.44-.252-2.52-.252h-3.636v3.24Zm-10.08 0h7.812v-3.24h-3.636c-1.056 0-1.884.084-2.484.252-.6.168-1.032.492-1.296.972-.24.456-.372 1.128-.396 2.016Zm5.22 17.568a17.905 17.905 0 0 0-1.152-1.116c-.48-.456-.972-.9-1.476-1.332a19.33 19.33 0 0 0-1.332-1.116 1 1 0 0 1-.396-.72c0-.312.096-.588.288-.828.24-.24.516-.372.828-.396.312-.024.588.06.828.252.408.312.864.684 1.368 1.116.504.432.996.876 1.476 1.332.504.432.912.804 1.224 1.116.24.24.36.516.36.828.024.312-.096.6-.36.864-.24.216-.516.324-.828.324-.312.024-.588-.084-.828-.324Z" class="å°"/>
      <path fill="#000" d="M661.956 818.252a8.15 8.15 0 0 1-3.42-.756 7.862 7.862 0 0 1-2.736-2.196c-.288-.288-.408-.576-.36-.864.048-.288.216-.516.504-.684.504-.312 1.032-.216 1.584.288 1.2 1.416 2.676 2.124 4.428 2.124 1.728 0 3.06-.504 3.996-1.512.96-1.032 1.44-2.472 1.44-4.32 0-1.632-.42-2.976-1.26-4.032-.84-1.08-2.016-1.62-3.528-1.62-.672 0-1.332.168-1.98.504-.624.312-1.104.696-1.44 1.152a9.6 9.6 0 0 1-.648.54c-.192.144-.456.216-.792.216-.72 0-1.08-.396-1.08-1.188v-11.916c0-.792.408-1.188 1.224-1.188h9.54c.792 0 1.188.336 1.188 1.008 0 .672-.396 1.008-1.188 1.008h-8.604v9.396a5.279 5.279 0 0 1 1.728-1.08 5.424 5.424 0 0 1 2.088-.432c1.32 0 2.496.312 3.528.936 1.032.6 1.836 1.476 2.412 2.628.6 1.128.9 2.484.9 4.068 0 2.544-.696 4.5-2.088 5.868-1.392 1.368-3.204 2.052-5.436 2.052Zm10.828-.252c-.384 0-.648-.108-.792-.324-.12-.216-.108-.516.036-.9l9.288-23.148c.168-.552.564-.828 1.188-.828h.18c.624 0 1.02.276 1.188.828l9.324 23.148c.264.816.012 1.224-.756 1.224h-.36c-.576 0-.972-.276-1.188-.828l-2.664-6.768H676.96l-2.7 6.768c-.192.552-.588.828-1.188.828h-.288Zm4.932-9.72h9.72l-4.824-12.348-4.896 12.348Z" class="5A"/>
      <path fill="#000" d="M580.24 818c-.672 0-1.008-.396-1.008-1.188v-5.148h-9.324c-.816 0-1.224-.276-1.224-.828 0-.312.036-.576.108-.792.072-.216.18-.444.324-.684l9.792-15.912c.192-.312.384-.516.576-.612.216-.12.48-.18.792-.18.648 0 .972.396.972 1.188v15.84h2.628c.792 0 1.188.324 1.188.972 0 .672-.336 1.008-1.008 1.008h-2.808v5.148c0 .792-.336 1.188-1.008 1.188Zm-9.144-8.316h8.136V796.4l-8.136 13.284Zm27.87 8.784c-2.28 0-4.284-.54-6.012-1.62-1.728-1.08-3.084-2.604-4.068-4.572-.96-1.968-1.44-4.272-1.44-6.912 0-2.64.48-4.932 1.44-6.876.984-1.968 2.34-3.492 4.068-4.572 1.728-1.104 3.732-1.656 6.012-1.656 1.776 0 3.384.348 4.824 1.044a10.662 10.662 0 0 1 3.744 2.952c.24.264.312.528.216.792-.072.264-.24.492-.504.684l-.108.036c-.192.12-.432.168-.72.144-.264-.024-.516-.156-.756-.396-1.704-2.04-3.936-3.06-6.696-3.06-1.8 0-3.396.444-4.788 1.332-1.392.864-2.484 2.112-3.276 3.744-.792 1.632-1.188 3.576-1.188 5.832s.396 4.212 1.188 5.868c.792 1.632 1.884 2.892 3.276 3.78 1.392.864 2.988 1.296 4.788 1.296 1.344 0 2.592-.264 3.744-.792a8.844 8.844 0 0 0 2.952-2.268c.504-.504.996-.6 1.476-.288l.108.072c.264.168.432.396.504.684.096.264.036.528-.18.792a10.841 10.841 0 0 1-3.744 2.916c-1.464.696-3.084 1.044-4.86 1.044Z" class="4C"/>
      <path fill="#000" d="M497.956 818.252a8.15 8.15 0 0 1-3.42-.756 7.862 7.862 0 0 1-2.736-2.196c-.288-.288-.408-.576-.36-.864.048-.288.216-.516.504-.684.504-.312 1.032-.216 1.584.288 1.2 1.416 2.676 2.124 4.428 2.124 1.728 0 3.06-.504 3.996-1.512.96-1.032 1.44-2.472 1.44-4.32 0-1.632-.42-2.976-1.26-4.032-.84-1.08-2.016-1.62-3.528-1.62-.672 0-1.332.168-1.98.504-.624.312-1.104.696-1.44 1.152a9.6 9.6 0 0 1-.648.54c-.192.144-.456.216-.792.216-.72 0-1.08-.396-1.08-1.188v-11.916c0-.792.408-1.188 1.224-1.188h9.54c.792 0 1.188.336 1.188 1.008 0 .672-.396 1.008-1.188 1.008h-8.604v9.396a5.279 5.279 0 0 1 1.728-1.08 5.424 5.424 0 0 1 2.088-.432c1.32 0 2.496.312 3.528.936 1.032.6 1.836 1.476 2.412 2.628.6 1.128.9 2.484.9 4.068 0 2.544-.696 4.5-2.088 5.868-1.392 1.368-3.204 2.052-5.436 2.052ZM510.98 818c-.744 0-1.116-.396-1.116-1.188v-22.824c0-.792.432-1.188 1.296-1.188.624 0 1.092.264 1.404.792l8.172 12.204 8.1-12.204c.192-.312.408-.516.648-.612.24-.12.54-.18.9-.18.792 0 1.188.396 1.188 1.188v22.824c0 .792-.372 1.188-1.116 1.188-.768 0-1.152-.396-1.152-1.188v-20.16l-7.488 11.34c-.312.528-.672.792-1.08.792-.432 0-.804-.264-1.116-.792l-7.524-11.34v20.16c0 .792-.372 1.188-1.116 1.188Z" class="5M"/>
      <path fill="#000" d="M411.704 818c-.696 0-1.044-.396-1.044-1.188V795.5l-4.14 2.556c-.672.456-1.2.384-1.584-.216-.36-.576-.204-1.092.468-1.548l5.076-3.168a2.773 2.773 0 0 1 1.476-.396c.528 0 .792.396.792 1.188v22.896c0 .792-.348 1.188-1.044 1.188Zm9.497-8.064a1.15 1.15 0 0 1-.792-.288 1.15 1.15 0 0 1-.288-.792c0-.288.096-.54.288-.756.216-.216.48-.324.792-.324h9.072c.312 0 .564.108.756.324.216.216.324.468.324.756 0 .312-.108.576-.324.792-.192.192-.444.288-.756.288h-9.072ZM445.947 818c-.672 0-1.008-.396-1.008-1.188v-5.148h-9.324c-.816 0-1.224-.276-1.224-.828 0-.312.036-.576.108-.792.072-.216.18-.444.324-.684l9.792-15.912c.192-.312.384-.516.576-.612.216-.12.48-.18.792-.18.648 0 .972.396.972 1.188v15.84h2.628c.792 0 1.188.324 1.188.972 0 .672-.336 1.008-1.008 1.008h-2.808v5.148c0 .792-.336 1.188-1.008 1.188Zm-9.144-8.316h8.136V796.4l-8.136 13.284Z" class="1-4"/>
      <path fill="#000" d="M328.556 818c-.792 0-1.188-.264-1.188-.792 0-1.224.264-2.388.792-3.492.552-1.128 1.284-2.232 2.196-3.312a43.337 43.337 0 0 1 3.096-3.348 75.775 75.775 0 0 0 2.412-2.52 16.798 16.798 0 0 0 1.908-2.484c.504-.84.768-1.68.792-2.52.048-1.632-.348-2.856-1.188-3.672-.816-.816-1.968-1.224-3.456-1.224-1.104 0-2.04.336-2.808 1.008-.768.672-1.236 1.656-1.404 2.952-.144.768-.516 1.152-1.116 1.152-.336 0-.6-.108-.792-.324-.192-.216-.264-.528-.216-.936.24-1.776.924-3.204 2.052-4.284 1.152-1.08 2.58-1.62 4.284-1.62 2.064 0 3.72.612 4.968 1.836 1.248 1.224 1.836 2.94 1.764 5.148a6.822 6.822 0 0 1-.864 3.168 15.306 15.306 0 0 1-2.124 2.88 73.698 73.698 0 0 1-2.736 2.88 77.98 77.98 0 0 0-2.412 2.52 16.297 16.297 0 0 0-1.944 2.484c-.528.84-.852 1.68-.972 2.52h9.612c.792 0 1.188.324 1.188.972 0 .672-.396 1.008-1.188 1.008h-10.656Zm17.615 0c-.744 0-1.116-.396-1.116-1.188v-22.824c0-.792.432-1.188 1.296-1.188.624 0 1.092.264 1.404.792l8.172 12.204 8.1-12.204c.192-.312.408-.516.648-.612.24-.12.54-.18.9-.18.792 0 1.188.396 1.188 1.188v22.824c0 .792-.372 1.188-1.116 1.188-.768 0-1.152-.396-1.152-1.188v-20.16l-7.488 11.34c-.312.528-.672.792-1.08.792-.432 0-.804-.264-1.116-.792l-7.524-11.34v20.16c0 .792-.372 1.188-1.116 1.188Z" class="2M"/>
      <path fill="#000" d="M249.884 818.396c-1.512 0-2.82-.384-3.924-1.152-1.08-.792-1.896-1.824-2.448-3.096-.192-.36-.228-.672-.108-.936.12-.264.336-.444.648-.54.336-.12.612-.12.828 0 .216.12.42.348.612.684.36.888.912 1.62 1.656 2.196.768.552 1.668.828 2.7.828 1.704 0 3.024-.444 3.96-1.332.936-.888 1.404-2.196 1.404-3.924 0-1.632-.54-2.94-1.62-3.924-1.056-.984-2.412-1.476-4.068-1.476-.72 0-1.08-.336-1.08-1.008 0-.672.36-1.008 1.08-1.008 1.584 0 2.82-.444 3.708-1.332.888-.888 1.332-2.052 1.332-3.492 0-1.056-.228-1.908-.684-2.556a3.67 3.67 0 0 0-1.728-1.404 5.732 5.732 0 0 0-2.304-.468c-.96 0-1.788.288-2.484.864a5.748 5.748 0 0 0-1.584 2.088c-.216.312-.432.528-.648.648-.216.096-.492.072-.828-.072-.312-.12-.516-.312-.612-.576-.096-.264-.048-.564.144-.9.672-1.368 1.548-2.4 2.628-3.096 1.08-.696 2.22-1.044 3.42-1.044 2.016 0 3.66.576 4.932 1.728 1.272 1.152 1.908 2.736 1.908 4.752 0 1.344-.348 2.532-1.044 3.564a6.078 6.078 0 0 1-2.808 2.268c1.32.456 2.4 1.26 3.24 2.412.84 1.152 1.26 2.508 1.26 4.068 0 1.368-.276 2.604-.828 3.708-.528 1.08-1.344 1.944-2.448 2.592-1.104.624-2.508.936-4.212.936Zm11.498-.396c-.384 0-.648-.108-.792-.324-.12-.216-.108-.516.035-.9l9.289-23.148c.168-.552.564-.828 1.188-.828h.18c.624 0 1.02.276 1.188.828l9.324 23.148c.264.816.012 1.224-.756 1.224h-.36c-.576 0-.972-.276-1.188-.828l-2.664-6.768h-11.268l-2.7 6.768c-.192.552-.588.828-1.188.828h-.288Zm4.932-9.72h9.72l-4.824-12.348-4.896 12.348Z" class="3A"/>
      <path fill="#000" d="M161.884 818.396c-1.512 0-2.82-.384-3.924-1.152-1.08-.792-1.896-1.824-2.448-3.096-.192-.36-.228-.672-.108-.936.12-.264.336-.444.648-.54.336-.12.612-.12.828 0 .216.12.42.348.612.684.36.888.912 1.62 1.656 2.196.768.552 1.668.828 2.7.828 1.704 0 3.024-.444 3.96-1.332.936-.888 1.404-2.196 1.404-3.924 0-1.632-.54-2.94-1.62-3.924-1.056-.984-2.412-1.476-4.068-1.476-.72 0-1.08-.336-1.08-1.008 0-.672.36-1.008 1.08-1.008 1.584 0 2.82-.444 3.708-1.332.888-.888 1.332-2.052 1.332-3.492 0-1.056-.228-1.908-.684-2.556a3.67 3.67 0 0 0-1.728-1.404 5.732 5.732 0 0 0-2.304-.468c-.96 0-1.788.288-2.484.864a5.748 5.748 0 0 0-1.584 2.088c-.216.312-.432.528-.648.648-.216.096-.492.072-.828-.072-.312-.12-.516-.312-.612-.576-.096-.264-.048-.564.144-.9.672-1.368 1.548-2.4 2.628-3.096 1.08-.696 2.22-1.044 3.42-1.044 2.016 0 3.66.576 4.932 1.728 1.272 1.152 1.908 2.736 1.908 4.752 0 1.344-.348 2.532-1.044 3.564a6.078 6.078 0 0 1-2.808 2.268c1.32.456 2.4 1.26 3.24 2.412.84 1.152 1.26 2.508 1.26 4.068 0 1.368-.276 2.604-.828 3.708-.528 1.08-1.344 1.944-2.448 2.592-1.104.624-2.508.936-4.212.936ZM175.65 818c-.792 0-1.188-.396-1.188-1.188v-22.824c0-.792.396-1.188 1.188-1.188h13.284c.792 0 1.188.348 1.188 1.044 0 .696-.396 1.044-1.188 1.044h-12.276v9.144h11.088c.792 0 1.188.36 1.188 1.08 0 .72-.396 1.08-1.188 1.08h-11.088v9.684h12.708c.792 0 1.188.348 1.188 1.044 0 .72-.396 1.08-1.188 1.08H175.65Z" class="3E"/>
      <path fill="#000" d="M92.24 818c-.672 0-1.008-.396-1.008-1.188v-5.148h-9.324c-.816 0-1.224-.276-1.224-.828 0-.312.036-.576.108-.792.072-.216.18-.444.324-.684l9.792-15.912c.192-.312.384-.516.576-.612.216-.12.48-.18.792-.18.648 0 .972.396.972 1.188v15.84h2.628c.792 0 1.188.324 1.188.972 0 .672-.336 1.008-1.008 1.008h-2.808v5.148c0 .792-.336 1.188-1.008 1.188Zm-9.144-8.316h8.136V796.4l-8.136 13.284ZM99.698 818c-.384 0-.648-.108-.792-.324-.12-.216-.108-.516.036-.9l9.288-23.148c.168-.552.564-.828 1.188-.828h.18c.624 0 1.02.276 1.188.828l9.324 23.148c.264.816.012 1.224-.756 1.224h-.36c-.576 0-.972-.276-1.188-.828l-2.664-6.768h-11.268l-2.7 6.768c-.192.552-.588.828-1.188.828h-.288Zm4.932-9.72h9.72l-4.824-12.348-4.896 12.348Z" class="4A"/>
    </g>
  </g>
</svg>
