<svg class="svg-tournament" xmlns="http://www.w3.org/2000/svg" width="1784" height="886" fill="none" viewBox="0 0 1784 886">
  <g class="softball">
    <path fill="#F6F1EE" d="M0 0h1784v886H0z" class="èæ¯"/>
    <g class="round_final">
      <mask id="a" fill="#fff" class="a">
        <path d="M240 143h650v95H240v-95Z"/>
      </mask>
      <path fill="#F6F1EE" d="M240 143h650v95H240v-95Z"/>
      <path fill="#6C5F5B" d="M884 143v95h12v-95h-12Z" mask="url(#a)"/>
    </g>
    <g class="çå">
      <path fill="#ED7D31" d="M920.355 128.549c2.783 0 4.645-2.187 4.645-4.887V84.655c0-1.977-.94-3.76-2.379-4.514-1.442-.76-3.097-.34-4.2 1.058l-7.416 9.408c-1.506 1.909-3.945 1.909-5.449 0l-14.331-18.176c-1.504-1.908-3.946-1.908-5.45 0l-14.331 18.176c-1.504 1.908-3.943 1.908-5.449 0l-7.416-9.408c-1.103-1.398-2.761-1.818-4.2-1.058-1.439.754-2.379 2.537-2.379 4.514v39.007c0 2.7 1.869 4.887 4.652 4.887h63.703Z" class="Vector"/>
    </g>
    <g class="round_final">
      <mask id="b" fill="#fff" class="b">
        <path d="M240 143h650v95H240v-95Z"/>
      </mask>
      <path fill="#F6F1EE" d="M240 143h650v95H240v-95Z"/>
      <path fill="#6C5F5B" d="M884 143v95h12v-95h-12Z" mask="url(#b)"/>
    </g>
    <g class="step5">
      <g class="round20">
        <g class="round20B">
          <path fill="#F6F1EE" d="M884.5 238H1279v530H884.5V238Z"/>
          <path fill="#6C5F5B" d="M1279 238h3v-3h-3v3Zm-394.5 3H1279v-6H884.5v6Zm391.5-3v530h6V238h-6Z"/>
        </g>
        <g class="round20A">
          <path fill="#F6F1EE" d="M490 238h394.5v530H490V238Z"/>
          <path fill="#6C5F5B" d="M490 238v-3h-3v3h3Zm0 3h394.5v-6H490v6Zm3 527V238h-6v530h6Z"/>
        </g>
      </g>
    </g>
    <g class="step4">
      <g class="round19">
        <g class="round19B">
          <path fill="#F6F1EE" d="M1279 344h201v424h-201V344Z"/>
          <path fill="#6C5F5B" d="M1480 344h3v-3h-3v3Zm-201 3h201v-6h-201v6Zm198-3v424h6V344h-6Z"/>
        </g>
        <g class="round19A">
          <path fill="#F6F1EE" d="M1078 344h201v424h-201V344Z"/>
          <path fill="#6C5F5B" d="M1078 344v-3h-3v3h3Zm0 3h201v-6h-201v6Zm3 421V344h-6v424h6Z"/>
        </g>
      </g>
      <g class="round18">
        <g class="round18B">
          <path fill="#F6F1EE" d="M490.5 344H683v424H490.5V344Z"/>
          <path fill="#6C5F5B" d="M683 344h3v-3h-3v3Zm-192.5 3H683v-6H490.5v6Zm189.5-3v424h6V344h-6Z"/>
        </g>
        <g class="round18A">
          <path fill="#F6F1EE" d="M298 344h192.5v424H298V344Z"/>
          <path fill="#6C5F5B" d="M298 344v-3h-3v3h3Zm0 3h192.5v-6H298v6Zm3 421V344h-6v424h6Z"/>
        </g>
      </g>
    </g>
    <g class="step3">
      <g class="round17">
        <g class="round17B">
          <path fill="#F6F1EE" d="M1500 450h137v318h-137V450Z"/>
          <path fill="#6C5F5B" d="M1637 450h3v-3h-3v3Zm-137 3h137v-6h-137v6Zm134-3v318h6V450h-6Z"/>
        </g>
        <g class="round17A">
          <path fill="#F6F1EE" d="M1363 450h137v318h-137V450Z"/>
          <path fill="#6C5F5B" d="M1363 450v-3h-3v3h3Zm0 3h137v-6h-137v6Zm3 315V450h-6v318h6Z"/>
        </g>
      </g>
      <g class="round16">
        <g class="round16B">
          <path fill="#F6F1EE" d="M1078.5 450H1186v318h-107.5V450Z"/>
          <path fill="#6C5F5B" d="M1186 450h3v-3h-3v3Zm-107.5 3H1186v-6h-107.5v6Zm104.5-3v318h6V450h-6Z"/>
        </g>
        <g class="round16A">
          <path fill="#F6F1EE" d="M971 450h107.5v318H971V450Z"/>
          <path fill="#6C5F5B" d="M971 450v-3h-3v3h3Zm0 3h107.5v-6H971v6Zm3 315V450h-6v318h6Z"/>
        </g>
      </g>
      <g class="round15">
        <g class="round15B">
          <path fill="#F6F1EE" d="M683.5 450H795v318H683.5V450Z"/>
          <path fill="#6C5F5B" d="M795 450h3v-3h-3v3Zm-111.5 3H795v-6H683.5v6Zm108.5-3v318h6V450h-6Z"/>
        </g>
        <g class="round15A">
          <path fill="#F6F1EE" d="M572 450h111.5v318H572V450Z"/>
          <path fill="#6C5F5B" d="M572 450v-3h-3v3h3Zm0 3h111.5v-6H572v6Zm3 315V450h-6v318h6Z"/>
        </g>
      </g>
      <g class="round14">
        <g class="round14B">
          <path fill="#F6F1EE" d="M275 450h112v318H275V450Z"/>
          <path fill="#6C5F5B" d="M387 450h3v-3h-3v3Zm-112 3h112v-6H275v6Zm109-3v318h6V450h-6Z"/>
        </g>
        <g class="round14A">
          <path fill="#F6F1EE" d="M163 450h112v318H163V450Z"/>
          <path fill="#6C5F5B" d="M163 450v-3h-3v3h3Zm0 3h112v-6H163v6Zm3 315V450h-6v318h6Z"/>
        </g>
      </g>
    </g>
    <g class="step2">
      <g class="round13">
        <g class="round13B">
          <path fill="#F6F1EE" d="M1637.5 556h60.5v212h-60.5V556Z"/>
          <path fill="#6C5F5B" d="M1698 556h3v-3h-3v3Zm-60.5 3h60.5v-6h-60.5v6Zm57.5-3v212h6V556h-6Z"/>
        </g>
        <g class="round13A">
          <path fill="#F6F1EE" d="M1577 556h60.5v212H1577V556Z"/>
          <path fill="#6C5F5B" d="M1577 556v-3h-3v3h3Zm0 3h60.5v-6H1577v6Zm3 209V556h-6v212h6Z"/>
        </g>
      </g>
      <g class="round12">
        <g class="round12B">
          <path fill="#F6F1EE" d="M1363 556h59v212h-59V556Z"/>
          <path fill="#6C5F5B" d="M1422 556h3v-3h-3v3Zm-59 3h59v-6h-59v6Zm56-3v212h6V556h-6Z"/>
        </g>
        <g class="round12A">
          <path fill="#F6F1EE" d="M1304 556h59v212h-59V556Z"/>
          <path fill="#6C5F5B" d="M1304 556v-3h-3v3h3Zm0 3h59v-6h-59v6Zm3 209V556h-6v212h6Z"/>
        </g>
      </g>
      <g class="round11">
        <g class="round11B">
          <path fill="#F6F1EE" d="M1186 556h39v212h-39V556Z"/>
          <path fill="#6C5F5B" d="M1225 556h3v-3h-3v3Zm-39 3h39v-6h-39v6Zm36-3v212h6V556h-6Z"/>
        </g>
        <g class="round11A">
          <path fill="#F6F1EE" d="M1147 556h39v212h-39V556Z"/>
          <path fill="#6C5F5B" d="M1147 556v-3h-3v3h3Zm0 3h39v-6h-39v6Zm3 209V556h-6v212h6Z"/>
        </g>
      </g>
      <g class="round10">
        <g class="round10B">
          <path fill="#F6F1EE" d="M971 556h59v212h-59V556Z"/>
          <path fill="#6C5F5B" d="M1030 556h3v-3h-3v3Zm-59 3h59v-6h-59v6Zm56-3v212h6V556h-6Z"/>
        </g>
        <g class="round10A">
          <path fill="#F6F1EE" d="M912 556h59v212h-59V556Z"/>
          <path fill="#6C5F5B" d="M912 556v-3h-3v3h3Zm0 3h59v-6h-59v6Zm3 209V556h-6v212h6Z"/>
        </g>
      </g>
      <g class="round9">
        <g class="round9B">
          <path fill="#F6F1EE" d="M795 556h39v212h-39V556Z"/>
          <path fill="#6C5F5B" d="M834 556h3v-3h-3v3Zm-39 3h39v-6h-39v6Zm36-3v212h6V556h-6Z"/>
        </g>
        <g class="round9A">
          <path fill="#F6F1EE" d="M756 556h39v212h-39V556Z"/>
          <path fill="#6C5F5B" d="M756 556v-3h-3v3h3Zm0 3h39v-6h-39v6Zm3 209V556h-6v212h6Z"/>
        </g>
      </g>
      <g class="round8">
        <g class="round8B">
          <path fill="#F6F1EE" d="M571 556h59v212h-59V556Z"/>
          <path fill="#6C5F5B" d="M630 556h3v-3h-3v3Zm-59 3h59v-6h-59v6Zm56-3v212h6V556h-6Z"/>
        </g>
        <g class="round8A">
          <path fill="#F6F1EE" d="M512 556h59v212h-59V556Z"/>
          <path fill="#6C5F5B" d="M512 556v-3h-3v3h3Zm0 3h59v-6h-59v6Zm3 209V556h-6v212h6Z"/>
        </g>
      </g>
      <g class="round7">
        <g class="round7B">
          <path fill="#F6F1EE" d="M387 556h39v212h-39V556Z"/>
          <path fill="#6C5F5B" d="M426 556h3v-3h-3v3Zm-39 3h39v-6h-39v6Zm36-3v212h6V556h-6Z"/>
        </g>
        <g class="round7A">
          <path fill="#F6F1EE" d="M348 556h39v212h-39V556Z"/>
          <path fill="#6C5F5B" d="M348 556v-3h-3v3h3Zm0 3h39v-6h-39v6Zm3 209V556h-6v212h6Z"/>
        </g>
      </g>
      <g class="round6">
        <g class="round6B">
          <path fill="#F6F1EE" d="M163 556h59v212h-59V556Z"/>
          <path fill="#6C5F5B" d="M222 556h3v-3h-3v3Zm-59 3h59v-6h-59v6Zm56-3v212h6V556h-6Z"/>
        </g>
        <g class="round6A">
          <path fill="#F6F1EE" d="M104 556h59v212h-59V556Z"/>
          <path fill="#6C5F5B" d="M104 556v-3h-3v3h3Zm0 3h59v-6h-59v6Zm3 209V556h-6v212h6Z"/>
        </g>
      </g>
    </g>
    <g class="step1">
      <g class="round5">
        <g class="round5B">
          <path fill="#F6F1EE" d="M1577 662h39v106h-39V662Z"/>
          <path fill="#6C5F5B" d="M1616 662h3v-3h-3v3Zm-39 3h39v-6h-39v6Zm36-3v106h6V662h-6Z"/>
        </g>
        <g class="round5A">
          <path fill="#F6F1EE" d="M1538 662h39v106h-39V662Z"/>
          <path fill="#6C5F5B" d="M1538 662v-3h-3v3h3Zm0 3h39v-6h-39v6Zm3 103V662h-6v106h6Z"/>
        </g>
      </g>
      <g class="round4">
        <g class="round4B">
          <path fill="#F6F1EE" d="M1422 662h39v106h-39V662Z"/>
          <path fill="#6C5F5B" d="M1461 662h3v-3h-3v3Zm-39 3h39v-6h-39v6Zm36-3v106h6V662h-6Z"/>
        </g>
        <g class="round4A">
          <path fill="#F6F1EE" d="M1383 662h39v106h-39V662Z"/>
          <path fill="#6C5F5B" d="M1383 662v-3h-3v3h3Zm0 3h39v-6h-39v6Zm3 103V662h-6v106h6Z"/>
        </g>
      </g>
      <g class="round3">
        <g class="round3B">
          <path fill="#F6F1EE" d="M1030 662h39v106h-39V662Z"/>
          <path fill="#6C5F5B" d="M1069 662h3v-3h-3v3Zm-39 3h39v-6h-39v6Zm36-3v106h6V662h-6Z"/>
        </g>
        <g class="round3A">
          <path fill="#F6F1EE" d="M991 662h39v106h-39V662Z"/>
          <path fill="#6C5F5B" d="M991 662v-3h-3v3h3Zm0 3h39v-6h-39v6Zm3 103V662h-6v106h6Z"/>
        </g>
      </g>
      <g class="round2">
        <g class="round2B">
          <path fill="#F6F1EE" d="M630 662h43v106h-43V662Z"/>
          <path fill="#6C5F5B" d="M673 662h3v-3h-3v3Zm-43 3h43v-6h-43v6Zm40-3v106h6V662h-6Z"/>
        </g>
        <g class="round2A">
          <path fill="#F6F1EE" d="M587 662h43v106h-43V662Z"/>
          <path fill="#6C5F5B" d="M587 662v-3h-3v3h3Zm0 3h43v-6h-43v6Zm3 103V662h-6v106h6Z"/>
        </g>
      </g>
      <g class="round1">
        <g class="round1B">
          <path fill="#F6F1EE" d="M219 662h43v106h-43V662Z"/>
          <path fill="#6C5F5B" d="M262 662h3v-3h-3v3Zm-43 3h43v-6h-43v6Zm40-3v106h6V662h-6Z"/>
        </g>
        <g class="round1A">
          <path fill="#F6F1EE" d="M176 662h43v106h-43V662Z"/>
          <path fill="#6C5F5B" d="M176 662v-3h-3v3h3Zm0 3h43v-6h-43v6Zm3 103V662h-6v106h6Z"/>
        </g>
      </g>
    </g>
    <g class="çå">
      <path fill="#ED7D31" d="M920.355 128.549c2.783 0 4.645-2.187 4.645-4.887V84.655c0-1.977-.94-3.76-2.379-4.514-1.442-.76-3.097-.34-4.2 1.058l-7.416 9.408c-1.506 1.909-3.945 1.909-5.449 0l-14.331-18.176c-1.504-1.908-3.946-1.908-5.45 0l-14.331 18.176c-1.504 1.908-3.943 1.908-5.449 0l-7.416-9.408c-1.103-1.398-2.761-1.818-4.2-1.058-1.439.754-2.379 2.537-2.379 4.514v39.007c0 2.7 1.869 4.887 4.652 4.887h63.703Z" class="Vector"/>
    </g>
    <path fill="#000" d="M129.35 98.95c-.367.2-.767.233-1.2.1-.433-.133-.75-.4-.95-.8-.2-.367-.233-.767-.1-1.2.133-.433.383-.75.75-.95 5.833-3.067 10.467-6.933 13.9-11.6s5.717-10.15 6.85-16.45c.1-.433.333-.767.7-1a1.566 1.566 0 0 1 1.2-.3c.433.1.767.333 1 .7.267.333.367.733.3 1.2-1.233 6.633-3.767 12.55-7.6 17.75-3.833 5.167-8.783 9.35-14.85 12.55Zm.75-19.1a1.938 1.938 0 0 1-1.3.05c-.4-.167-.683-.45-.85-.85a77.113 77.113 0 0 0-1.65-3.2c-.6-1.167-1.217-2.3-1.85-3.4-.6-1.1-1.167-2-1.7-2.7a1.563 1.563 0 0 1-.3-1.2c.067-.467.283-.833.65-1.1.367-.267.767-.35 1.2-.25.467.067.817.283 1.05.65.6.867 1.233 1.883 1.9 3.05a74.08 74.08 0 0 1 2 3.55 41.261 41.261 0 0 1 1.6 3.25c.167.4.183.817.05 1.25-.133.4-.4.7-.8.9Zm46.55 19.95c-.4.2-.817.217-1.25.05-.4-.167-.683-.45-.85-.85-.2-.4-.217-.817-.05-1.25.167-.433.45-.733.85-.9 5.467-2.367 10.133-5.283 14-8.75 3.867-3.5 6.617-7.3 8.25-11.4.867-2.167.983-3.833.35-5-.6-1.2-2.25-1.8-4.95-1.8h-19c-.433 0-.817-.15-1.15-.45-.333-.333-.5-.717-.5-1.15 0-.467.167-.85.5-1.15.333-.3.717-.45 1.15-.45h19c3.967 0 6.55 1.033 7.75 3.1 1.233 2.033 1.167 4.733-.2 8.1-1.833 4.533-4.817 8.683-8.95 12.45-4.133 3.733-9.117 6.883-14.95 9.45Zm57.2 1c-.433 0-.817-.167-1.15-.5-.3-.3-.45-.667-.45-1.1V64.15c0-.467.15-.85.45-1.15.333-.3.717-.45 1.15-.45.467 0 .85.15 1.15.45.3.3.45.683.45 1.15V99.2c0 .433-.15.8-.45 1.1-.3.333-.683.5-1.15.5Zm15.4-14.2c-.933-.767-2.083-1.617-3.45-2.55a131.244 131.244 0 0 0-4.2-2.75 53.854 53.854 0 0 0-4-2.3c-.4-.233-.667-.55-.8-.95a1.63 1.63 0 0 1 .1-1.25c.2-.4.517-.667.95-.8.433-.133.833-.1 1.2.1a52.862 52.862 0 0 1 4.25 2.4 113.44 113.44 0 0 1 4.45 2.85c1.433.967 2.65 1.867 3.65 2.7.333.3.517.667.55 1.1.033.433-.083.833-.35 1.2a1.85 1.85 0 0 1-1.15.6 1.757 1.757 0 0 1-1.2-.35Zm30.7 12.75c-.433 0-.817-.15-1.15-.45-.3-.333-.45-.717-.45-1.15 0-.467.15-.85.45-1.15.333-.3.717-.45 1.15-.45 1.4 0 2.483-.15 3.25-.45.767-.3 1.3-.833 1.6-1.6.3-.767.45-1.85.45-3.25V75.5H270.4c-.433 0-.817-.15-1.15-.45-.3-.3-.45-.667-.45-1.1 0-.467.15-.85.45-1.15.333-.3.717-.45 1.15-.45h14.85v-6.9c0-.467.15-.85.45-1.15.333-.3.717-.45 1.15-.45.467 0 .85.15 1.15.45.3.3.45.683.45 1.15v6.9h13.95c.467 0 .85.15 1.15.45.3.3.45.683.45 1.15 0 .433-.15.8-.45 1.1-.3.3-.683.45-1.15.45h-13.95v15.35c0 2.167-.3 3.883-.9 5.15-.567 1.233-1.483 2.1-2.75 2.6-1.233.5-2.85.75-4.85.75Zm-11.2-6.1c-.367.233-.767.3-1.2.2a1.703 1.703 0 0 1-1-.8c-.233-.367-.283-.767-.15-1.2.133-.433.383-.767.75-1 1.767-1 3.45-2.2 5.05-3.6 1.633-1.4 3.033-2.867 4.2-4.4a1.548 1.548 0 0 1 1.05-.65c.433-.067.833.033 1.2.3.367.233.583.583.65 1.05.067.433-.033.833-.3 1.2-1.233 1.6-2.783 3.217-4.65 4.85-1.867 1.633-3.733 2.983-5.6 4.05Zm37.7-.95c-.333.3-.733.433-1.2.4a1.6 1.6 0 0 1-1.1-.55 53.164 53.164 0 0 0-2.7-2.6 66.748 66.748 0 0 0-3.3-2.8c-1.133-.9-2.183-1.633-3.15-2.2a1.746 1.746 0 0 1-.7-1.05 1.688 1.688 0 0 1 .25-1.2 1.75 1.75 0 0 1 1.05-.7c.433-.1.833-.017 1.2.25 1 .633 2.117 1.433 3.35 2.4a79.338 79.338 0 0 1 3.55 2.95c1.167 1 2.133 1.917 2.9 2.75.3.333.433.733.4 1.2 0 .433-.183.817-.55 1.15Zm-1.65-22.35c-.267.233-.6.333-1 .3a1.24 1.24 0 0 1-.9-.5c-.433-.567-1.05-1.233-1.85-2-.767-.8-1.433-1.433-2-1.9a1.263 1.263 0 0 1-.45-.85 1.219 1.219 0 0 1 .3-.95c.267-.267.567-.4.9-.4.333-.033.65.067.95.3.367.267.817.65 1.35 1.15.533.5 1.05 1.017 1.55 1.55.533.533.967.983 1.3 1.35.267.267.367.6.3 1a1.496 1.496 0 0 1-.45.95Zm4-4.05c-.267.267-.583.4-.95.4a1.5 1.5 0 0 1-.95-.45c-.467-.567-1.117-1.217-1.95-1.95a29.648 29.648 0 0 0-2.15-1.75 1.495 1.495 0 0 1-.5-.85c-.033-.333.067-.65.3-.95.233-.267.517-.417.85-.45.367-.033.7.067 1 .3.367.233.817.583 1.35 1.05.567.467 1.133.95 1.7 1.45s1.017.933 1.35 1.3c.267.233.383.55.35.95 0 .367-.133.683-.4.95Zm12.4 17c-.433 0-.817-.167-1.15-.5-.3-.333-.45-.717-.45-1.15 0-.433.15-.8.45-1.1.333-.333.717-.5 1.15-.5h31.65c.433 0 .8.167 1.1.5.333.3.5.667.5 1.1 0 .433-.167.817-.5 1.15-.3.333-.667.5-1.1.5H321.2Zm77.9 9.5c-3.833 1.433-6.9 1.633-9.2.6-2.3-1.067-3.45-3.55-3.45-7.45V70.2c0-.433.15-.8.45-1.1.333-.333.717-.5 1.15-.5.467 0 .85.167 1.15.5.3.3.45.667.45 1.1v15.35c0 2.333.683 3.817 2.05 4.45 1.367.633 3.467.433 6.3-.6a103.711 103.711 0 0 0 5.15-2.1c1.7-.733 3.3-1.5 4.8-2.3.4-.2.8-.233 1.2-.1.433.133.75.4.95.8.2.4.233.817.1 1.25-.133.4-.4.717-.8.95a101.11 101.11 0 0 1-5.05 2.4 143.137 143.137 0 0 1-5.25 2.1Zm-32.85 3.1c-.4.167-.817.183-1.25.05-.4-.167-.683-.467-.85-.9a1.66 1.66 0 0 1-.05-1.2c.167-.433.45-.733.85-.9 2.9-1.3 5.217-2.933 6.95-4.9a17.668 17.668 0 0 0 3.8-6.7c.8-2.533 1.2-5.267 1.2-8.2 0-.467.15-.85.45-1.15.333-.3.717-.45 1.15-.45.467 0 .85.15 1.15.45.3.3.45.683.45 1.15 0 5.333-1.2 9.95-3.6 13.85-2.367 3.9-5.783 6.867-10.25 8.9Z" class="ã½ãããã¼ã«"/>
    <g class="class">
      <path fill="#000" d="M1684.88 818.396c-1.51 0-2.82-.384-3.92-1.152a7.416 7.416 0 0 1-2.45-3.096c-.19-.36-.23-.672-.11-.936.12-.264.34-.444.65-.54.34-.12.61-.12.83 0 .22.12.42.348.61.684.36.888.91 1.62 1.66 2.196.77.552 1.67.828 2.7.828 1.7 0 3.02-.444 3.96-1.332.93-.888 1.4-2.196 1.4-3.924 0-1.632-.54-2.94-1.62-3.924-1.05-.984-2.41-1.476-4.07-1.476-.72 0-1.08-.336-1.08-1.008 0-.672.36-1.008 1.08-1.008 1.59 0 2.82-.444 3.71-1.332.89-.888 1.33-2.052 1.33-3.492 0-1.056-.22-1.908-.68-2.556a3.666 3.666 0 0 0-1.73-1.404 5.734 5.734 0 0 0-2.3-.468c-.96 0-1.79.288-2.49.864a5.717 5.717 0 0 0-1.58 2.088c-.22.312-.43.528-.65.648-.21.096-.49.072-.83-.072-.31-.12-.51-.312-.61-.576-.09-.264-.05-.564.15-.9.67-1.368 1.54-2.4 2.62-3.096 1.08-.696 2.22-1.044 3.42-1.044 2.02 0 3.66.576 4.94 1.728 1.27 1.152 1.9 2.736 1.9 4.752 0 1.344-.34 2.532-1.04 3.564a6.083 6.083 0 0 1-2.81 2.268c1.32.456 2.4 1.26 3.24 2.412.84 1.152 1.26 2.508 1.26 4.068 0 1.368-.27 2.604-.83 3.708-.52 1.08-1.34 1.944-2.44 2.592-1.11.624-2.51.936-4.22.936Zm13.7-.396c-.75 0-1.12-.396-1.12-1.188v-22.824c0-.792.43-1.188 1.3-1.188.62 0 1.09.264 1.4.792l8.17 12.204 8.1-12.204c.2-.312.41-.516.65-.612.24-.12.54-.18.9-.18.79 0 1.19.396 1.19 1.188v22.824c0 .792-.37 1.188-1.12 1.188-.76 0-1.15-.396-1.15-1.188v-20.16l-7.49 11.34c-.31.528-.67.792-1.08.792-.43 0-.8-.264-1.11-.792l-7.53-11.34v20.16c0 .792-.37 1.188-1.11 1.188Z" class="3M"/>
      <path fill="#000" d="M1596.56 818c-.8 0-1.19-.264-1.19-.792 0-1.224.26-2.388.79-3.492.55-1.128 1.28-2.232 2.2-3.312.91-1.104 1.94-2.22 3.09-3.348.87-.864 1.67-1.704 2.41-2.52.77-.84 1.41-1.668 1.91-2.484.51-.84.77-1.68.79-2.52.05-1.632-.34-2.856-1.18-3.672-.82-.816-1.97-1.224-3.46-1.224-1.1 0-2.04.336-2.81 1.008-.77.672-1.23 1.656-1.4 2.952-.15.768-.52 1.152-1.12 1.152-.33 0-.6-.108-.79-.324-.19-.216-.26-.528-.22-.936.24-1.776.93-3.204 2.06-4.284 1.15-1.08 2.58-1.62 4.28-1.62 2.06 0 3.72.612 4.97 1.836 1.25 1.224 1.83 2.94 1.76 5.148-.02 1.104-.31 2.16-.86 3.168-.55.984-1.26 1.944-2.13 2.88-.84.936-1.75 1.896-2.73 2.88a70.1 70.1 0 0 0-2.41 2.52 16.35 16.35 0 0 0-1.95 2.484c-.53.84-.85 1.68-.97 2.52h9.61c.79 0 1.19.324 1.19.972 0 .672-.4 1.008-1.19 1.008h-10.65Zm17.61 0c-.74 0-1.11-.396-1.11-1.188v-22.824c0-.792.43-1.188 1.29-1.188.63 0 1.09.264 1.41.792l8.17 12.204 8.1-12.204c.19-.312.41-.516.65-.612.24-.12.54-.18.9-.18.79 0 1.18.396 1.18 1.188v22.824c0 .792-.37 1.188-1.11 1.188-.77 0-1.15-.396-1.15-1.188v-20.16l-7.49 11.34c-.31.528-.67.792-1.08.792-.43 0-.81-.264-1.12-.792l-7.52-11.34v20.16c0 .792-.37 1.188-1.12 1.188Z" class="2M"/>
      <path fill="#000" d="M1525.88 818.396c-1.51 0-2.82-.384-3.92-1.152a7.416 7.416 0 0 1-2.45-3.096c-.19-.36-.23-.672-.11-.936.12-.264.34-.444.65-.54.34-.12.61-.12.83 0 .22.12.42.348.61.684.36.888.91 1.62 1.66 2.196.77.552 1.67.828 2.7.828 1.7 0 3.02-.444 3.96-1.332.93-.888 1.4-2.196 1.4-3.924 0-1.632-.54-2.94-1.62-3.924-1.05-.984-2.41-1.476-4.07-1.476-.72 0-1.08-.336-1.08-1.008 0-.672.36-1.008 1.08-1.008 1.59 0 2.82-.444 3.71-1.332.89-.888 1.33-2.052 1.33-3.492 0-1.056-.22-1.908-.68-2.556a3.666 3.666 0 0 0-1.73-1.404 5.734 5.734 0 0 0-2.3-.468c-.96 0-1.79.288-2.49.864a5.717 5.717 0 0 0-1.58 2.088c-.22.312-.43.528-.65.648-.21.096-.49.072-.83-.072-.31-.12-.51-.312-.61-.576-.09-.264-.05-.564.15-.9.67-1.368 1.54-2.4 2.62-3.096 1.08-.696 2.22-1.044 3.42-1.044 2.02 0 3.66.576 4.94 1.728 1.27 1.152 1.9 2.736 1.9 4.752 0 1.344-.34 2.532-1.04 3.564a6.083 6.083 0 0 1-2.81 2.268c1.32.456 2.4 1.26 3.24 2.412.84 1.152 1.26 2.508 1.26 4.068 0 1.368-.27 2.604-.83 3.708-.52 1.08-1.34 1.944-2.44 2.592-1.11.624-2.51.936-4.22.936Zm22.77.072c-2.28 0-4.28-.54-6.01-1.62-1.73-1.08-3.09-2.604-4.07-4.572-.96-1.968-1.44-4.272-1.44-6.912 0-2.64.48-4.932 1.44-6.876.98-1.968 2.34-3.492 4.07-4.572 1.73-1.104 3.73-1.656 6.01-1.656 1.78 0 3.38.348 4.82 1.044 1.47.696 2.72 1.68 3.75 2.952.24.264.31.528.21.792-.07.264-.24.492-.5.684l-.11.036c-.19.12-.43.168-.72.144-.26-.024-.51-.156-.75-.396-1.71-2.04-3.94-3.06-6.7-3.06-1.8 0-3.4.444-4.79 1.332-1.39.864-2.48 2.112-3.27 3.744-.8 1.632-1.19 3.576-1.19 5.832s.39 4.212 1.19 5.868c.79 1.632 1.88 2.892 3.27 3.78 1.39.864 2.99 1.296 4.79 1.296 1.34 0 2.59-.264 3.74-.792a8.834 8.834 0 0 0 2.96-2.268c.5-.504.99-.6 1.47-.288l.11.072c.26.168.43.396.5.684.1.264.04.528-.18.792a10.845 10.845 0 0 1-3.74 2.916c-1.46.696-3.08 1.044-4.86 1.044Z" class="3C"/>
      <path fill="#000" d="M1451.24 818c-.67 0-1.01-.396-1.01-1.188v-5.148h-9.32c-.82 0-1.23-.276-1.23-.828 0-.312.04-.576.11-.792.07-.216.18-.444.33-.684l9.79-15.912c.19-.312.38-.516.57-.612.22-.12.48-.18.8-.18.64 0 .97.396.97 1.188v15.84h2.63c.79 0 1.18.324 1.18.972 0 .672-.33 1.008-1 1.008h-2.81v5.148c0 .792-.34 1.188-1.01 1.188Zm-9.14-8.316h8.13V796.4l-8.13 13.284Zm18.79 8.316c-.74 0-1.11-.396-1.11-1.188v-22.824c0-.792.43-1.188 1.29-1.188.63 0 1.1.264 1.41.792l8.17 12.204 8.1-12.204c.19-.312.41-.516.65-.612.24-.12.54-.18.9-.18.79 0 1.19.396 1.19 1.188v22.824c0 .792-.38 1.188-1.12 1.188-.77 0-1.15-.396-1.15-1.188v-20.16l-7.49 11.34c-.31.528-.67.792-1.08.792-.43 0-.8-.264-1.12-.792l-7.52-11.34v20.16c0 .792-.37 1.188-1.12 1.188Z" class="4M"/>
      <path fill="#000" d="M1370.96 818.252c-1.18 0-2.32-.252-3.42-.756a7.84 7.84 0 0 1-2.74-2.196c-.29-.288-.41-.576-.36-.864.05-.288.22-.516.5-.684.51-.312 1.04-.216 1.59.288 1.2 1.416 2.67 2.124 4.43 2.124 1.72 0 3.06-.504 3.99-1.512.96-1.032 1.44-2.472 1.44-4.32 0-1.632-.42-2.976-1.26-4.032-.84-1.08-2.01-1.62-3.53-1.62-.67 0-1.33.168-1.98.504-.62.312-1.1.696-1.44 1.152-.24.216-.45.396-.64.54-.2.144-.46.216-.8.216-.72 0-1.08-.396-1.08-1.188v-11.916c0-.792.41-1.188 1.23-1.188h9.54c.79 0 1.19.336 1.19 1.008 0 .672-.4 1.008-1.19 1.008h-8.61v9.396a5.309 5.309 0 0 1 1.73-1.08c.7-.288 1.39-.432 2.09-.432 1.32 0 2.5.312 3.53.936 1.03.6 1.83 1.476 2.41 2.628.6 1.128.9 2.484.9 4.068 0 2.544-.7 4.5-2.09 5.868-1.39 1.368-3.2 2.052-5.43 2.052Zm13.02-.252c-.74 0-1.12-.396-1.12-1.188v-22.824c0-.792.44-1.188 1.3-1.188.62 0 1.09.264 1.4.792l8.18 12.204 8.1-12.204c.19-.312.4-.516.64-.612.24-.12.54-.18.9-.18.8 0 1.19.396 1.19 1.188v22.824c0 .792-.37 1.188-1.11 1.188-.77 0-1.16-.396-1.16-1.188v-20.16l-7.48 11.34c-.32.528-.68.792-1.08.792-.44 0-.81-.264-1.12-.792l-7.52-11.34v20.16c0 .792-.38 1.188-1.12 1.188Z" class="5M"/>
      <path fill="#000" d="M1293.96 818.252c-1.18 0-2.32-.252-3.42-.756a7.84 7.84 0 0 1-2.74-2.196c-.29-.288-.41-.576-.36-.864.05-.288.22-.516.5-.684.51-.312 1.04-.216 1.59.288 1.2 1.416 2.67 2.124 4.43 2.124 1.72 0 3.06-.504 3.99-1.512.96-1.032 1.44-2.472 1.44-4.32 0-1.632-.42-2.976-1.26-4.032-.84-1.08-2.01-1.62-3.53-1.62-.67 0-1.33.168-1.98.504-.62.312-1.1.696-1.44 1.152-.24.216-.45.396-.64.54-.2.144-.46.216-.8.216-.72 0-1.08-.396-1.08-1.188v-11.916c0-.792.41-1.188 1.23-1.188h9.54c.79 0 1.19.336 1.19 1.008 0 .672-.4 1.008-1.19 1.008h-8.61v9.396a5.309 5.309 0 0 1 1.73-1.08c.7-.288 1.39-.432 2.09-.432 1.32 0 2.5.312 3.53.936 1.03.6 1.83 1.476 2.41 2.628.6 1.128.9 2.484.9 4.068 0 2.544-.7 4.5-2.09 5.868-1.39 1.368-3.2 2.052-5.43 2.052Zm10.82-.252c-.38 0-.64-.108-.79-.324-.12-.216-.11-.516.04-.9l9.29-23.148c.16-.552.56-.828 1.18-.828h.18c.63 0 1.02.276 1.19.828l9.33 23.148c.26.816.01 1.224-.76 1.224h-.36c-.58 0-.97-.276-1.19-.828l-2.66-6.768h-11.27l-2.7 6.768c-.19.552-.59.828-1.19.828h-.29Zm4.94-9.72h9.72l-4.83-12.348-4.89 12.348Z" class="5A"/>
      <path fill="#000" d="M1209.7 818c-.69 0-1.04-.396-1.04-1.188V795.5l-4.14 2.556c-.67.456-1.2.384-1.58-.216-.36-.576-.21-1.092.46-1.548l5.08-3.168c.43-.264.92-.396 1.48-.396.52 0 .79.396.79 1.188v22.896c0 .792-.35 1.188-1.05 1.188Zm9.5-8.064c-.31 0-.57-.096-.79-.288a1.16 1.16 0 0 1-.29-.792c0-.288.1-.54.29-.756.22-.216.48-.324.79-.324h9.07c.32 0 .57.108.76.324.22.216.32.468.32.756 0 .312-.1.576-.32.792-.19.192-.44.288-.76.288h-9.07Zm24.75 8.064c-.67 0-1.01-.396-1.01-1.188v-5.148h-9.32c-.82 0-1.23-.276-1.23-.828 0-.312.04-.576.11-.792.07-.216.18-.444.32-.684l9.8-15.912c.19-.312.38-.516.57-.612.22-.12.48-.18.79-.18.65 0 .98.396.98 1.188v15.84h2.62c.8 0 1.19.324 1.19.972 0 .672-.33 1.008-1.01 1.008h-2.8v5.148c0 .792-.34 1.188-1.01 1.188Zm-9.15-8.316h8.14V796.4l-8.14 13.284Z" class="1-4"/>
      <path fill="#000" d="M1131.56 818c-.8 0-1.19-.264-1.19-.792 0-1.224.26-2.388.79-3.492.55-1.128 1.28-2.232 2.2-3.312.91-1.104 1.94-2.22 3.09-3.348.87-.864 1.67-1.704 2.41-2.52.77-.84 1.41-1.668 1.91-2.484.51-.84.77-1.68.79-2.52.05-1.632-.34-2.856-1.18-3.672-.82-.816-1.97-1.224-3.46-1.224-1.1 0-2.04.336-2.81 1.008-.77.672-1.23 1.656-1.4 2.952-.15.768-.52 1.152-1.12 1.152-.33 0-.6-.108-.79-.324-.19-.216-.26-.528-.22-.936.24-1.776.93-3.204 2.06-4.284 1.15-1.08 2.58-1.62 4.28-1.62 2.06 0 3.72.612 4.97 1.836 1.25 1.224 1.83 2.94 1.76 5.148-.02 1.104-.31 2.16-.86 3.168-.55.984-1.26 1.944-2.13 2.88-.84.936-1.75 1.896-2.73 2.88a70.1 70.1 0 0 0-2.41 2.52 16.35 16.35 0 0 0-1.95 2.484c-.53.84-.85 1.68-.97 2.52h9.61c.79 0 1.19.324 1.19.972 0 .672-.4 1.008-1.19 1.008h-10.65Zm17.68 0c-.79 0-1.18-.396-1.18-1.188v-22.824c0-.792.39-1.188 1.18-1.188h13.29c.79 0 1.19.348 1.19 1.044 0 .696-.4 1.044-1.19 1.044h-12.28v9.144h11.09c.79 0 1.19.36 1.19 1.08 0 .72-.4 1.08-1.19 1.08h-11.09v9.684h12.71c.79 0 1.19.348 1.19 1.044 0 .72-.4 1.08-1.19 1.08h-13.72Z" class="2E"/>
      <path fill="#000" d="M1051.56 818c-.8 0-1.19-.264-1.19-.792 0-1.224.26-2.388.79-3.492.55-1.128 1.28-2.232 2.2-3.312.91-1.104 1.94-2.22 3.09-3.348.87-.864 1.67-1.704 2.41-2.52.77-.84 1.41-1.668 1.91-2.484.51-.84.77-1.68.79-2.52.05-1.632-.34-2.856-1.18-3.672-.82-.816-1.97-1.224-3.46-1.224-1.1 0-2.04.336-2.81 1.008-.77.672-1.23 1.656-1.4 2.952-.15.768-.52 1.152-1.12 1.152-.33 0-.6-.108-.79-.324-.19-.216-.26-.528-.22-.936.24-1.776.93-3.204 2.06-4.284 1.15-1.08 2.58-1.62 4.28-1.62 2.06 0 3.72.612 4.97 1.836 1.25 1.224 1.83 2.94 1.76 5.148-.02 1.104-.31 2.16-.86 3.168-.55.984-1.26 1.944-2.13 2.88-.84.936-1.75 1.896-2.73 2.88a70.1 70.1 0 0 0-2.41 2.52 16.35 16.35 0 0 0-1.95 2.484c-.53.84-.85 1.68-.97 2.52h9.61c.79 0 1.19.324 1.19.972 0 .672-.4 1.008-1.19 1.008h-10.65Zm26.68.468c-2.28 0-4.28-.54-6.01-1.62-1.73-1.08-3.08-2.604-4.07-4.572-.96-1.968-1.44-4.272-1.44-6.912 0-2.64.48-4.932 1.44-6.876.99-1.968 2.34-3.492 4.07-4.572 1.73-1.104 3.73-1.656 6.01-1.656 1.78 0 3.39.348 4.83 1.044 1.46.696 2.71 1.68 3.74 2.952.24.264.31.528.22.792-.07.264-.24.492-.51.684l-.1.036c-.2.12-.44.168-.72.144-.27-.024-.52-.156-.76-.396-1.7-2.04-3.94-3.06-6.7-3.06-1.8 0-3.39.444-4.78 1.332-1.4.864-2.49 2.112-3.28 3.744-.79 1.632-1.19 3.576-1.19 5.832s.4 4.212 1.19 5.868c.79 1.632 1.88 2.892 3.28 3.78 1.39.864 2.98 1.296 4.78 1.296 1.35 0 2.6-.264 3.75-.792a8.896 8.896 0 0 0 2.95-2.268c.5-.504 1-.6 1.48-.288l.1.072c.27.168.44.396.51.684.09.264.03.528-.18.792a10.789 10.789 0 0 1-3.75 2.916c-1.46.696-3.08 1.044-4.86 1.044Z" class="2C"/>
      <path fill="#000" d="M974.704 818c-.696 0-1.044-.396-1.044-1.188V795.5l-4.14 2.556c-.672.456-1.2.384-1.584-.216-.36-.576-.204-1.092.468-1.548l5.076-3.168a2.773 2.773 0 0 1 1.476-.396c.528 0 .792.396.792 1.188v22.896c0 .792-.348 1.188-1.044 1.188Zm9.497-8.064a1.15 1.15 0 0 1-.792-.288 1.15 1.15 0 0 1-.288-.792c0-.288.096-.54.288-.756.216-.216.48-.324.792-.324h9.072c.312 0 .564.108.756.324.216.216.324.468.324.756 0 .312-.108.576-.324.792-.192.192-.444.288-.756.288h-9.072ZM1004.41 818c-.69 0-1.04-.396-1.04-1.188V795.5l-4.143 2.556c-.672.456-1.2.384-1.584-.216-.36-.576-.204-1.092.468-1.548l5.079-3.168c.43-.264.92-.396 1.47-.396.53 0 .8.396.8 1.188v22.896c0 .792-.35 1.188-1.05 1.188Z" class="1-1"/>
      <path fill="#000" d="M900.704 818c-.696 0-1.044-.396-1.044-1.188V795.5l-4.14 2.556c-.672.456-1.2.384-1.584-.216-.36-.576-.204-1.092.468-1.548l5.076-3.168a2.773 2.773 0 0 1 1.476-.396c.528 0 .792.396.792 1.188v22.896c0 .792-.348 1.188-1.044 1.188Zm9.497-8.064a1.15 1.15 0 0 1-.792-.288 1.15 1.15 0 0 1-.288-.792c0-.288.096-.54.288-.756.216-.216.48-.324.792-.324h9.072c.312 0 .564.108.756.324.216.216.324.468.324.756 0 .312-.108.576-.324.792-.192.192-.444.288-.756.288h-9.072ZM925.263 818c-.792 0-1.188-.264-1.188-.792 0-1.224.264-2.388.792-3.492.552-1.128 1.284-2.232 2.196-3.312a43.337 43.337 0 0 1 3.096-3.348 75.775 75.775 0 0 0 2.412-2.52 16.798 16.798 0 0 0 1.908-2.484c.504-.84.768-1.68.792-2.52.048-1.632-.348-2.856-1.188-3.672-.816-.816-1.968-1.224-3.456-1.224-1.104 0-2.04.336-2.808 1.008-.768.672-1.236 1.656-1.404 2.952-.144.768-.516 1.152-1.116 1.152-.336 0-.6-.108-.792-.324-.192-.216-.264-.528-.216-.936.24-1.776.924-3.204 2.052-4.284 1.152-1.08 2.58-1.62 4.284-1.62 2.064 0 3.72.612 4.968 1.836 1.248 1.224 1.836 2.94 1.764 5.148a6.822 6.822 0 0 1-.864 3.168 15.306 15.306 0 0 1-2.124 2.88 73.698 73.698 0 0 1-2.736 2.88 77.98 77.98 0 0 0-2.412 2.52 16.297 16.297 0 0 0-1.944 2.484c-.528.84-.852 1.68-.972 2.52h9.612c.792 0 1.188.324 1.188.972 0 .672-.396 1.008-1.188 1.008h-10.656Z" class="1-2"/>
      <path fill="#000" d="M821.956 818.252a8.15 8.15 0 0 1-3.42-.756 7.862 7.862 0 0 1-2.736-2.196c-.288-.288-.408-.576-.36-.864.048-.288.216-.516.504-.684.504-.312 1.032-.216 1.584.288 1.2 1.416 2.676 2.124 4.428 2.124 1.728 0 3.06-.504 3.996-1.512.96-1.032 1.44-2.472 1.44-4.32 0-1.632-.42-2.976-1.26-4.032-.84-1.08-2.016-1.62-3.528-1.62-.672 0-1.332.168-1.98.504-.624.312-1.104.696-1.44 1.152a9.6 9.6 0 0 1-.648.54c-.192.144-.456.216-.792.216-.72 0-1.08-.396-1.08-1.188v-11.916c0-.792.408-1.188 1.224-1.188h9.54c.792 0 1.188.336 1.188 1.008 0 .672-.396 1.008-1.188 1.008h-8.604v9.396a5.279 5.279 0 0 1 1.728-1.08 5.424 5.424 0 0 1 2.088-.432c1.32 0 2.496.312 3.528.936 1.032.6 1.836 1.476 2.412 2.628.6 1.128.9 2.484.9 4.068 0 2.544-.696 4.5-2.088 5.868-1.392 1.368-3.204 2.052-5.436 2.052Zm13.096-.252c-.792 0-1.188-.396-1.188-1.188v-22.824c0-.792.396-1.188 1.188-1.188h13.284c.792 0 1.188.348 1.188 1.044 0 .696-.396 1.044-1.188 1.044H836.06v9.144h11.088c.792 0 1.188.36 1.188 1.08 0 .72-.396 1.08-1.188 1.08H836.06v9.684h12.708c.792 0 1.188.348 1.188 1.044 0 .72-.396 1.08-1.188 1.08h-13.716Z" class="5E"/>
      <path fill="#000" d="M749.24 818c-.672 0-1.008-.396-1.008-1.188v-5.148h-9.324c-.816 0-1.224-.276-1.224-.828 0-.312.036-.576.108-.792.072-.216.18-.444.324-.684l9.792-15.912c.192-.312.384-.516.576-.612.216-.12.48-.18.792-.18.648 0 .972.396.972 1.188v15.84h2.628c.792 0 1.188.324 1.188.972 0 .672-.336 1.008-1.008 1.008h-2.808v5.148c0 .792-.336 1.188-1.008 1.188Zm-9.144-8.316h8.136V796.4l-8.136 13.284ZM756.698 818c-.384 0-.648-.108-.792-.324-.12-.216-.108-.516.036-.9l9.288-23.148c.168-.552.564-.828 1.188-.828h.18c.624 0 1.02.276 1.188.828l9.324 23.148c.264.816.012 1.224-.756 1.224h-.36c-.576 0-.972-.276-1.188-.828l-2.664-6.768h-11.268l-2.7 6.768c-.192.552-.588.828-1.188.828h-.288Zm4.932-9.72h9.72l-4.824-12.348-4.896 12.348Z" class="4A"/>
      <path fill="#000" d="M661.956 818.252a8.15 8.15 0 0 1-3.42-.756 7.862 7.862 0 0 1-2.736-2.196c-.288-.288-.408-.576-.36-.864.048-.288.216-.516.504-.684.504-.312 1.032-.216 1.584.288 1.2 1.416 2.676 2.124 4.428 2.124 1.728 0 3.06-.504 3.996-1.512.96-1.032 1.44-2.472 1.44-4.32 0-1.632-.42-2.976-1.26-4.032-.84-1.08-2.016-1.62-3.528-1.62-.672 0-1.332.168-1.98.504-.624.312-1.104.696-1.44 1.152a9.6 9.6 0 0 1-.648.54c-.192.144-.456.216-.792.216-.72 0-1.08-.396-1.08-1.188v-11.916c0-.792.408-1.188 1.224-1.188h9.54c.792 0 1.188.336 1.188 1.008 0 .672-.396 1.008-1.188 1.008h-8.604v9.396a5.279 5.279 0 0 1 1.728-1.08 5.424 5.424 0 0 1 2.088-.432c1.32 0 2.496.312 3.528.936 1.032.6 1.836 1.476 2.412 2.628.6 1.128.9 2.484.9 4.068 0 2.544-.696 4.5-2.088 5.868-1.392 1.368-3.204 2.052-5.436 2.052Zm22.096.216c-2.28 0-4.284-.54-6.012-1.62-1.728-1.08-3.084-2.604-4.068-4.572-.96-1.968-1.44-4.272-1.44-6.912 0-2.64.48-4.932 1.44-6.876.984-1.968 2.34-3.492 4.068-4.572 1.728-1.104 3.732-1.656 6.012-1.656 1.776 0 3.384.348 4.824 1.044a10.662 10.662 0 0 1 3.744 2.952c.24.264.312.528.216.792-.072.264-.24.492-.504.684l-.108.036c-.192.12-.432.168-.72.144-.264-.024-.516-.156-.756-.396-1.704-2.04-3.936-3.06-6.696-3.06-1.8 0-3.396.444-4.788 1.332-1.392.864-2.484 2.112-3.276 3.744-.792 1.632-1.188 3.576-1.188 5.832s.396 4.212 1.188 5.868c.792 1.632 1.884 2.892 3.276 3.78 1.392.864 2.988 1.296 4.788 1.296 1.344 0 2.592-.264 3.744-.792a8.844 8.844 0 0 0 2.952-2.268c.504-.504.996-.6 1.476-.288l.108.072c.264.168.432.396.504.684.096.264.036.528-.18.792a10.841 10.841 0 0 1-3.744 2.916c-1.464.696-3.084 1.044-4.86 1.044Z" class="5C"/>
      <path fill="#000" d="M580.24 818c-.672 0-1.008-.396-1.008-1.188v-5.148h-9.324c-.816 0-1.224-.276-1.224-.828 0-.312.036-.576.108-.792.072-.216.18-.444.324-.684l9.792-15.912c.192-.312.384-.516.576-.612.216-.12.48-.18.792-.18.648 0 .972.396.972 1.188v15.84h2.628c.792 0 1.188.324 1.188.972 0 .672-.336 1.008-1.008 1.008h-2.808v5.148c0 .792-.336 1.188-1.008 1.188Zm-9.144-8.316h8.136V796.4l-8.136 13.284Zm18.87 8.316c-.792 0-1.188-.396-1.188-1.188v-22.824c0-.792.396-1.188 1.188-1.188h13.284c.792 0 1.188.348 1.188 1.044 0 .696-.396 1.044-1.188 1.044h-12.276v9.144h11.088c.792 0 1.188.36 1.188 1.08 0 .72-.396 1.08-1.188 1.08h-11.088v9.684h12.708c.792 0 1.188.348 1.188 1.044 0 .72-.396 1.08-1.188 1.08h-13.716Z" class="4E"/>
      <path fill="#000" d="M509.728 820.916c-.312 0-.588-.096-.828-.288a1.225 1.225 0 0 1-.396-.756 1.14 1.14 0 0 1 .252-.828c.192-.216.468-.336.828-.36 1.056-.048 1.86-.144 2.412-.288.552-.144.924-.384 1.116-.72.216-.336.324-.816.324-1.44v-4.428h-21.06a.977.977 0 0 1-.72-.288 1.102 1.102 0 0 1-.288-.756c0-.288.096-.528.288-.72a.923.923 0 0 1 .72-.324h21.06v-2.124H503.5c-1.704 0-3.036-.168-3.996-.504-.96-.36-1.632-.948-2.016-1.764-.384-.84-.576-1.992-.576-3.456v-.792c0-1.44.192-2.568.576-3.384.384-.84 1.056-1.428 2.016-1.764.96-.36 2.292-.54 3.996-.54h3.564v-2.16h-14.112a.977.977 0 0 1-.72-.288 1.145 1.145 0 0 1-.252-.72c0-.264.084-.492.252-.684a.923.923 0 0 1 .72-.324h14.112v-2.556c0-.336.108-.612.324-.828.24-.216.516-.324.828-.324.312 0 .576.108.792.324.216.216.324.492.324.828v2.556h13.68a.82.82 0 0 1 .684.324c.192.192.288.42.288.684 0 .264-.096.504-.288.72-.168.192-.396.288-.684.288h-13.68v2.16h3.6c1.704 0 3.024.18 3.96.54.96.336 1.632.924 2.016 1.764.408.816.612 1.944.612 3.384v.792c0 1.728-.276 3.012-.828 3.852-.552.84-1.548 1.392-2.988 1.656v2.34h7.812c.288 0 .528.108.72.324a.977.977 0 0 1 .288.72c0 .288-.096.54-.288.756a.977.977 0 0 1-.72.288h-7.812v4.644c0 1.056-.18 1.908-.54 2.556-.36.672-.972 1.152-1.836 1.44-.864.312-2.064.468-3.6.468Zm-.396-15.228h3.636c1.08 0 1.92-.084 2.52-.252.6-.168 1.02-.492 1.26-.972.264-.48.408-1.164.432-2.052h-7.848v3.276Zm-5.904 0h3.636v-3.276h-7.848c.048.888.192 1.572.432 2.052.264.48.696.804 1.296.972.6.168 1.428.252 2.484.252Zm5.904-5.148h7.848c-.024-.888-.168-1.56-.432-2.016-.24-.48-.66-.804-1.26-.972-.6-.168-1.44-.252-2.52-.252h-3.636v3.24Zm-10.08 0h7.812v-3.24h-3.636c-1.056 0-1.884.084-2.484.252-.6.168-1.032.492-1.296.972-.24.456-.372 1.128-.396 2.016Zm5.22 17.568a17.905 17.905 0 0 0-1.152-1.116c-.48-.456-.972-.9-1.476-1.332a19.33 19.33 0 0 0-1.332-1.116 1 1 0 0 1-.396-.72c0-.312.096-.588.288-.828.24-.24.516-.372.828-.396.312-.024.588.06.828.252.408.312.864.684 1.368 1.116.504.432.996.876 1.476 1.332.504.432.912.804 1.224 1.116.24.24.36.516.36.828.024.312-.096.6-.36.864-.24.216-.516.324-.828.324-.312.024-.588-.084-.828-.324Z" class="å°"/>
      <path fill="#000" d="M411.704 818c-.696 0-1.044-.396-1.044-1.188V795.5l-4.14 2.556c-.672.456-1.2.384-1.584-.216-.36-.576-.204-1.092.468-1.548l5.076-3.168a2.773 2.773 0 0 1 1.476-.396c.528 0 .792.396.792 1.188v22.896c0 .792-.348 1.188-1.044 1.188Zm9.497-8.064a1.15 1.15 0 0 1-.792-.288 1.15 1.15 0 0 1-.288-.792c0-.288.096-.54.288-.756.216-.216.48-.324.792-.324h9.072c.312 0 .564.108.756.324.216.216.324.468.324.756 0 .312-.108.576-.324.792-.192.192-.444.288-.756.288h-9.072Zm20.39 8.46c-1.512 0-2.82-.384-3.924-1.152-1.08-.792-1.896-1.824-2.448-3.096-.192-.36-.228-.672-.108-.936.12-.264.336-.444.648-.54.336-.12.612-.12.828 0 .216.12.42.348.612.684.36.888.912 1.62 1.656 2.196.768.552 1.668.828 2.7.828 1.704 0 3.024-.444 3.96-1.332.936-.888 1.404-2.196 1.404-3.924 0-1.632-.54-2.94-1.62-3.924-1.056-.984-2.412-1.476-4.068-1.476-.72 0-1.08-.336-1.08-1.008 0-.672.36-1.008 1.08-1.008 1.584 0 2.82-.444 3.708-1.332.888-.888 1.332-2.052 1.332-3.492 0-1.056-.228-1.908-.684-2.556a3.67 3.67 0 0 0-1.728-1.404 5.732 5.732 0 0 0-2.304-.468c-.96 0-1.788.288-2.484.864a5.748 5.748 0 0 0-1.584 2.088c-.216.312-.432.528-.648.648-.216.096-.492.072-.828-.072-.312-.12-.516-.312-.612-.576-.096-.264-.048-.564.144-.9.672-1.368 1.548-2.4 2.628-3.096 1.08-.696 2.22-1.044 3.42-1.044 2.016 0 3.66.576 4.932 1.728 1.272 1.152 1.908 2.736 1.908 4.752 0 1.344-.348 2.532-1.044 3.564a6.078 6.078 0 0 1-2.808 2.268c1.32.456 2.4 1.26 3.24 2.412.84 1.152 1.26 2.508 1.26 4.068 0 1.368-.276 2.604-.828 3.708-.528 1.08-1.344 1.944-2.448 2.592-1.104.624-2.508.936-4.212.936Z" class="1-3"/>
      <path fill="#000" d="M328.556 818c-.792 0-1.188-.264-1.188-.792 0-1.224.264-2.388.792-3.492.552-1.128 1.284-2.232 2.196-3.312a43.337 43.337 0 0 1 3.096-3.348 75.775 75.775 0 0 0 2.412-2.52 16.798 16.798 0 0 0 1.908-2.484c.504-.84.768-1.68.792-2.52.048-1.632-.348-2.856-1.188-3.672-.816-.816-1.968-1.224-3.456-1.224-1.104 0-2.04.336-2.808 1.008-.768.672-1.236 1.656-1.404 2.952-.144.768-.516 1.152-1.116 1.152-.336 0-.6-.108-.792-.324-.192-.216-.264-.528-.216-.936.24-1.776.924-3.204 2.052-4.284 1.152-1.08 2.58-1.62 4.284-1.62 2.064 0 3.72.612 4.968 1.836 1.248 1.224 1.836 2.94 1.764 5.148a6.822 6.822 0 0 1-.864 3.168 15.306 15.306 0 0 1-2.124 2.88 73.698 73.698 0 0 1-2.736 2.88 77.98 77.98 0 0 0-2.412 2.52 16.297 16.297 0 0 0-1.944 2.484c-.528.84-.852 1.68-.972 2.52h9.612c.792 0 1.188.324 1.188.972 0 .672-.396 1.008-1.188 1.008h-10.656Zm15.419 0c-.384 0-.648-.108-.792-.324-.12-.216-.108-.516.036-.9l9.288-23.148c.168-.552.564-.828 1.188-.828h.18c.624 0 1.02.276 1.188.828l9.324 23.148c.264.816.012 1.224-.756 1.224h-.36c-.576 0-.972-.276-1.188-.828l-2.664-6.768h-11.268l-2.7 6.768c-.192.552-.588.828-1.188.828h-.288Zm4.932-9.72h9.72l-4.824-12.348-4.896 12.348Z" class="2A"/>
      <path fill="#000" d="M249.884 818.396c-1.512 0-2.82-.384-3.924-1.152-1.08-.792-1.896-1.824-2.448-3.096-.192-.36-.228-.672-.108-.936.12-.264.336-.444.648-.54.336-.12.612-.12.828 0 .216.12.42.348.612.684.36.888.912 1.62 1.656 2.196.768.552 1.668.828 2.7.828 1.704 0 3.024-.444 3.96-1.332.936-.888 1.404-2.196 1.404-3.924 0-1.632-.54-2.94-1.62-3.924-1.056-.984-2.412-1.476-4.068-1.476-.72 0-1.08-.336-1.08-1.008 0-.672.36-1.008 1.08-1.008 1.584 0 2.82-.444 3.708-1.332.888-.888 1.332-2.052 1.332-3.492 0-1.056-.228-1.908-.684-2.556a3.67 3.67 0 0 0-1.728-1.404 5.732 5.732 0 0 0-2.304-.468c-.96 0-1.788.288-2.484.864a5.748 5.748 0 0 0-1.584 2.088c-.216.312-.432.528-.648.648-.216.096-.492.072-.828-.072-.312-.12-.516-.312-.612-.576-.096-.264-.048-.564.144-.9.672-1.368 1.548-2.4 2.628-3.096 1.08-.696 2.22-1.044 3.42-1.044 2.016 0 3.66.576 4.932 1.728 1.272 1.152 1.908 2.736 1.908 4.752 0 1.344-.348 2.532-1.044 3.564a6.078 6.078 0 0 1-2.808 2.268c1.32.456 2.4 1.26 3.24 2.412.84 1.152 1.26 2.508 1.26 4.068 0 1.368-.276 2.604-.828 3.708-.528 1.08-1.344 1.944-2.448 2.592-1.104.624-2.508.936-4.212.936Zm11.498-.396c-.384 0-.648-.108-.792-.324-.12-.216-.108-.516.035-.9l9.289-23.148c.168-.552.564-.828 1.188-.828h.18c.624 0 1.02.276 1.188.828l9.324 23.148c.264.816.012 1.224-.756 1.224h-.36c-.576 0-.972-.276-1.188-.828l-2.664-6.768h-11.268l-2.7 6.768c-.192.552-.588.828-1.188.828h-.288Zm4.932-9.72h9.72l-4.824-12.348-4.896 12.348Z" class="3A"/>
      <path fill="#000" d="M161.884 818.396c-1.512 0-2.82-.384-3.924-1.152-1.08-.792-1.896-1.824-2.448-3.096-.192-.36-.228-.672-.108-.936.12-.264.336-.444.648-.54.336-.12.612-.12.828 0 .216.12.42.348.612.684.36.888.912 1.62 1.656 2.196.768.552 1.668.828 2.7.828 1.704 0 3.024-.444 3.96-1.332.936-.888 1.404-2.196 1.404-3.924 0-1.632-.54-2.94-1.62-3.924-1.056-.984-2.412-1.476-4.068-1.476-.72 0-1.08-.336-1.08-1.008 0-.672.36-1.008 1.08-1.008 1.584 0 2.82-.444 3.708-1.332.888-.888 1.332-2.052 1.332-3.492 0-1.056-.228-1.908-.684-2.556a3.67 3.67 0 0 0-1.728-1.404 5.732 5.732 0 0 0-2.304-.468c-.96 0-1.788.288-2.484.864a5.748 5.748 0 0 0-1.584 2.088c-.216.312-.432.528-.648.648-.216.096-.492.072-.828-.072-.312-.12-.516-.312-.612-.576-.096-.264-.048-.564.144-.9.672-1.368 1.548-2.4 2.628-3.096 1.08-.696 2.22-1.044 3.42-1.044 2.016 0 3.66.576 4.932 1.728 1.272 1.152 1.908 2.736 1.908 4.752 0 1.344-.348 2.532-1.044 3.564a6.078 6.078 0 0 1-2.808 2.268c1.32.456 2.4 1.26 3.24 2.412.84 1.152 1.26 2.508 1.26 4.068 0 1.368-.276 2.604-.828 3.708-.528 1.08-1.344 1.944-2.448 2.592-1.104.624-2.508.936-4.212.936ZM175.65 818c-.792 0-1.188-.396-1.188-1.188v-22.824c0-.792.396-1.188 1.188-1.188h13.284c.792 0 1.188.348 1.188 1.044 0 .696-.396 1.044-1.188 1.044h-12.276v9.144h11.088c.792 0 1.188.36 1.188 1.08 0 .72-.396 1.08-1.188 1.08h-11.088v9.684h12.708c.792 0 1.188.348 1.188 1.044 0 .72-.396 1.08-1.188 1.08H175.65Z" class="3E"/>
      <path fill="#000" d="M92.24 818c-.672 0-1.008-.396-1.008-1.188v-5.148h-9.324c-.816 0-1.224-.276-1.224-.828 0-.312.036-.576.108-.792.072-.216.18-.444.324-.684l9.792-15.912c.192-.312.384-.516.576-.612.216-.12.48-.18.792-.18.648 0 .972.396.972 1.188v15.84h2.628c.792 0 1.188.324 1.188.972 0 .672-.336 1.008-1.008 1.008h-2.808v5.148c0 .792-.336 1.188-1.008 1.188Zm-9.144-8.316h8.136V796.4l-8.136 13.284Zm27.87 8.784c-2.28 0-4.284-.54-6.012-1.62-1.728-1.08-3.084-2.604-4.068-4.572-.96-1.968-1.44-4.272-1.44-6.912 0-2.64.48-4.932 1.44-6.876.984-1.968 2.34-3.492 4.068-4.572 1.728-1.104 3.732-1.656 6.012-1.656 1.776 0 3.384.348 4.824 1.044a10.662 10.662 0 0 1 3.744 2.952c.24.264.312.528.216.792-.072.264-.24.492-.504.684l-.108.036c-.192.12-.432.168-.72.144-.264-.024-.516-.156-.756-.396-1.704-2.04-3.936-3.06-6.696-3.06-1.8 0-3.396.444-4.788 1.332-1.392.864-2.484 2.112-3.276 3.744-.792 1.632-1.188 3.576-1.188 5.832s.396 4.212 1.188 5.868c.792 1.632 1.884 2.892 3.276 3.78 1.392.864 2.988 1.296 4.788 1.296 1.344 0 2.592-.264 3.744-.792a8.844 8.844 0 0 0 2.952-2.268c.504-.504.996-.6 1.476-.288l.108.072c.264.168.432.396.504.684.096.264.036.528-.18.792a10.841 10.841 0 0 1-3.744 2.916c-1.464.696-3.084 1.044-4.86 1.044Z" class="4C"/>
    </g>
  </g>
</svg>
