<svg class="svg-tournament" xmlns="http://www.w3.org/2000/svg" width="1784" height="886" fill="none" viewBox="0 0 1784 886">
  <g class="tennis">
    <path fill="#F6F1EE" d="M0 0h1784v886H0z" class="èæ¯"/>
    <g class="round_final">
      <mask id="a" fill="#fff" class="a">
        <path d="M240 143h650v95H240v-95Z"/>
      </mask>
      <path fill="#F6F1EE" d="M240 143h650v95H240v-95Z"/>
      <path fill="#6C5F5B" d="M884 143v95h12v-95h-12Z" mask="url(#a)"/>
    </g>
    <g class="step5">
      <g class="round20">
        <g class="round20B">
          <path fill="#F6F1EE" d="M884.5 238H1279v530H884.5V238Z"/>
          <path fill="#6C5F5B" d="M1279 238h3v-3h-3v3Zm-394.5 3H1279v-6H884.5v6Zm391.5-3v530h6V238h-6Z"/>
        </g>
        <g class="round20A">
          <path fill="#F6F1EE" d="M490 238h394.5v530H490V238Z"/>
          <path fill="#6C5F5B" d="M490 238v-3h-3v3h3Zm0 3h394.5v-6H490v6Zm3 527V238h-6v530h6Z"/>
        </g>
      </g>
    </g>
    <g class="step4">
      <g class="round18">
        <g class="round18B">
          <path fill="#F6F1EE" d="M1279 344h201v424h-201V344Z"/>
          <path fill="#6C5F5B" d="M1480 344h3v-3h-3v3Zm-201 3h201v-6h-201v6Zm198-3v424h6V344h-6Z"/>
        </g>
        <g class="round18A">
          <path fill="#F6F1EE" d="M1078 344h201v424h-201V344Z"/>
          <path fill="#6C5F5B" d="M1078 344v-3h-3v3h3Zm0 3h201v-6h-201v6Zm3 421V344h-6v424h6Z"/>
        </g>
      </g>
      <g class="round18">
        <g class="round18B">
          <path fill="#F6F1EE" d="M490.5 344H683v424H490.5V344Z"/>
          <path fill="#6C5F5B" d="M683 344h3v-3h-3v3Zm-192.5 3H683v-6H490.5v6Zm189.5-3v424h6V344h-6Z"/>
        </g>
        <g class="round18A">
          <path fill="#F6F1EE" d="M298 344h192.5v424H298V344Z"/>
          <path fill="#6C5F5B" d="M298 344v-3h-3v3h3Zm0 3h192.5v-6H298v6Zm3 421V344h-6v424h6Z"/>
        </g>
      </g>
    </g>
    <g class="step3">
      <g class="round16">
        <g class="round16B">
          <path fill="#F6F1EE" d="M1480.5 450H1598v318h-117.5V450Z"/>
          <path fill="#6C5F5B" d="M1598 450h3v-3h-3v3Zm-117.5 3H1598v-6h-117.5v6Zm114.5-3v318h6V450h-6Z"/>
        </g>
        <g class="round16A">
          <path fill="#F6F1EE" d="M1363 450h117.5v318H1363V450Z"/>
          <path fill="#6C5F5B" d="M1363 450v-3h-3v3h3Zm0 3h117.5v-6H1363v6Zm3 315V450h-6v318h6Z"/>
        </g>
      </g>
      <g class="round16">
        <g class="round16B">
          <path fill="#F6F1EE" d="M1078.5 450H1186v318h-107.5V450Z"/>
          <path fill="#6C5F5B" d="M1186 450h3v-3h-3v3Zm-107.5 3H1186v-6h-107.5v6Zm104.5-3v318h6V450h-6Z"/>
        </g>
        <g class="round16A">
          <path fill="#F6F1EE" d="M971 450h107.5v318H971V450Z"/>
          <path fill="#6C5F5B" d="M971 450v-3h-3v3h3Zm0 3h107.5v-6H971v6Zm3 315V450h-6v318h6Z"/>
        </g>
      </g>
      <g class="round16">
        <g class="round16B">
          <path fill="#F6F1EE" d="M683.5 450H795v318H683.5V450Z"/>
          <path fill="#6C5F5B" d="M795 450h3v-3h-3v3Zm-111.5 3H795v-6H683.5v6Zm108.5-3v318h6V450h-6Z"/>
        </g>
        <g class="round16A">
          <path fill="#F6F1EE" d="M572 450h111.5v318H572V450Z"/>
          <path fill="#6C5F5B" d="M572 450v-3h-3v3h3Zm0 3h111.5v-6H572v6Zm3 315V450h-6v318h6Z"/>
        </g>
      </g>
      <g class="round16">
        <g class="round16B">
          <path fill="#F6F1EE" d="M275 450h112v318H275V450Z"/>
          <path fill="#6C5F5B" d="M387 450h3v-3h-3v3Zm-112 3h112v-6H275v6Zm109-3v318h6V450h-6Z"/>
        </g>
        <g class="round16A">
          <path fill="#F6F1EE" d="M163 450h112v318H163V450Z"/>
          <path fill="#6C5F5B" d="M163 450v-3h-3v3h3Zm0 3h112v-6H163v6Zm3 315V450h-6v318h6Z"/>
        </g>
      </g>
    </g>
    <g class="step2">
      <g class="round13">
        <g class="round13B">
          <path fill="#F6F1EE" d="M1598 556h59v212h-59V556Z"/>
          <path fill="#6C5F5B" d="M1657 556h3v-3h-3v3Zm-59 3h59v-6h-59v6Zm56-3v212h6V556h-6Z"/>
        </g>
        <g class="round13A">
          <path fill="#F6F1EE" d="M1539 556h59v212h-59V556Z"/>
          <path fill="#6C5F5B" d="M1539 556v-3h-3v3h3Zm0 3h59v-6h-59v6Zm3 209V556h-6v212h6Z"/>
        </g>
      </g>
      <g class="round13">
        <g class="round13B">
          <path fill="#F6F1EE" d="M1363 556h59v212h-59V556Z"/>
          <path fill="#6C5F5B" d="M1422 556h3v-3h-3v3Zm-59 3h59v-6h-59v6Zm56-3v212h6V556h-6Z"/>
        </g>
        <g class="round13A">
          <path fill="#F6F1EE" d="M1304 556h59v212h-59V556Z"/>
          <path fill="#6C5F5B" d="M1304 556v-3h-3v3h3Zm0 3h59v-6h-59v6Zm3 209V556h-6v212h6Z"/>
        </g>
      </g>
      <g class="round13">
        <g class="round13B">
          <path fill="#F6F1EE" d="M1186 556h39v212h-39V556Z"/>
          <path fill="#6C5F5B" d="M1225 556h3v-3h-3v3Zm-39 3h39v-6h-39v6Zm36-3v212h6V556h-6Z"/>
        </g>
        <g class="round13A">
          <path fill="#F6F1EE" d="M1147 556h39v212h-39V556Z"/>
          <path fill="#6C5F5B" d="M1147 556v-3h-3v3h3Zm0 3h39v-6h-39v6Zm3 209V556h-6v212h6Z"/>
        </g>
      </g>
      <g class="round13">
        <g class="round13B">
          <path fill="#F6F1EE" d="M971 556h59v212h-59V556Z"/>
          <path fill="#6C5F5B" d="M1030 556h3v-3h-3v3Zm-59 3h59v-6h-59v6Zm56-3v212h6V556h-6Z"/>
        </g>
        <g class="round13A">
          <path fill="#F6F1EE" d="M912 556h59v212h-59V556Z"/>
          <path fill="#6C5F5B" d="M912 556v-3h-3v3h3Zm0 3h59v-6h-59v6Zm3 209V556h-6v212h6Z"/>
        </g>
      </g>
      <g class="round13">
        <g class="round13B">
          <path fill="#F6F1EE" d="M795 556h39v212h-39V556Z"/>
          <path fill="#6C5F5B" d="M834 556h3v-3h-3v3Zm-39 3h39v-6h-39v6Zm36-3v212h6V556h-6Z"/>
        </g>
        <g class="round13A">
          <path fill="#F6F1EE" d="M756 556h39v212h-39V556Z"/>
          <path fill="#6C5F5B" d="M756 556v-3h-3v3h3Zm0 3h39v-6h-39v6Zm3 209V556h-6v212h6Z"/>
        </g>
      </g>
      <g class="round13">
        <g class="round13B">
          <path fill="#F6F1EE" d="M571 556h59v212h-59V556Z"/>
          <path fill="#6C5F5B" d="M630 556h3v-3h-3v3Zm-59 3h59v-6h-59v6Zm56-3v212h6V556h-6Z"/>
        </g>
        <g class="round13A">
          <path fill="#F6F1EE" d="M512 556h59v212h-59V556Z"/>
          <path fill="#6C5F5B" d="M512 556v-3h-3v3h3Zm0 3h59v-6h-59v6Zm3 209V556h-6v212h6Z"/>
        </g>
      </g>
      <g class="round13">
        <g class="round13B">
          <path fill="#F6F1EE" d="M387 556h39v212h-39V556Z"/>
          <path fill="#6C5F5B" d="M426 556h3v-3h-3v3Zm-39 3h39v-6h-39v6Zm36-3v212h6V556h-6Z"/>
        </g>
        <g class="round13A">
          <path fill="#F6F1EE" d="M348 556h39v212h-39V556Z"/>
          <path fill="#6C5F5B" d="M348 556v-3h-3v3h3Zm0 3h39v-6h-39v6Zm3 209V556h-6v212h6Z"/>
        </g>
      </g>
      <g class="round13">
        <g class="round13B">
          <path fill="#F6F1EE" d="M163 556h59v212h-59V556Z"/>
          <path fill="#6C5F5B" d="M222 556h3v-3h-3v3Zm-59 3h59v-6h-59v6Zm56-3v212h6V556h-6Z"/>
        </g>
        <g class="round13A">
          <path fill="#F6F1EE" d="M104 556h59v212h-59V556Z"/>
          <path fill="#6C5F5B" d="M104 556v-3h-3v3h3Zm0 3h59v-6h-59v6Zm3 209V556h-6v212h6Z"/>
        </g>
      </g>
    </g>
    <g class="step1">
      <g class="round5">
        <g class="round5B">
          <path fill="#F6F1EE" d="M1657 662h39v106h-39V662Z"/>
          <path fill="#6C5F5B" d="M1696 662h3v-3h-3v3Zm-39 3h39v-6h-39v6Zm36-3v106h6V662h-6Z"/>
        </g>
        <g class="round5A">
          <path fill="#F6F1EE" d="M1618 662h39v106h-39V662Z"/>
          <path fill="#6C5F5B" d="M1618 662v-3h-3v3h3Zm0 3h39v-6h-39v6Zm3 103V662h-6v106h6Z"/>
        </g>
      </g>
      <g class="round4">
        <g class="round4B">
          <path fill="#F6F1EE" d="M1422 662h39v106h-39V662Z"/>
          <path fill="#6C5F5B" d="M1461 662h3v-3h-3v3Zm-39 3h39v-6h-39v6Zm36-3v106h6V662h-6Z"/>
        </g>
        <g class="round4A">
          <path fill="#F6F1EE" d="M1383 662h39v106h-39V662Z"/>
          <path fill="#6C5F5B" d="M1383 662v-3h-3v3h3Zm0 3h39v-6h-39v6Zm3 103V662h-6v106h6Z"/>
        </g>
      </g>
      <g class="round3">
        <g class="round3B">
          <path fill="#F6F1EE" d="M1030 662h39v106h-39V662Z"/>
          <path fill="#6C5F5B" d="M1069 662h3v-3h-3v3Zm-39 3h39v-6h-39v6Zm36-3v106h6V662h-6Z"/>
        </g>
        <g class="round3A">
          <path fill="#F6F1EE" d="M991 662h39v106h-39V662Z"/>
          <path fill="#6C5F5B" d="M991 662v-3h-3v3h3Zm0 3h39v-6h-39v6Zm3 103V662h-6v106h6Z"/>
        </g>
      </g>
      <g class="round2">
        <g class="round2B">
          <path fill="#F6F1EE" d="M630 662h43v106h-43V662Z"/>
          <path fill="#6C5F5B" d="M673 662h3v-3h-3v3Zm-43 3h43v-6h-43v6Zm40-3v106h6V662h-6Z"/>
        </g>
        <g class="round2A">
          <path fill="#F6F1EE" d="M587 662h43v106h-43V662Z"/>
          <path fill="#6C5F5B" d="M587 662v-3h-3v3h3Zm0 3h43v-6h-43v6Zm3 103V662h-6v106h6Z"/>
        </g>
      </g>
      <g class="round1">
        <g class="round1B">
          <path fill="#F6F1EE" d="M219 662h43v106h-43V662Z"/>
          <path fill="#6C5F5B" d="M262 662h3v-3h-3v3Zm-43 3h43v-6h-43v6Zm40-3v106h6V662h-6Z"/>
        </g>
        <g class="round1A">
          <path fill="#F6F1EE" d="M176 662h43v106h-43V662Z"/>
          <path fill="#6C5F5B" d="M176 662v-3h-3v3h3Zm0 3h43v-6h-43v6Zm3 103V662h-6v106h6Z"/>
        </g>
      </g>
    </g>
    <g class="çå">
      <path fill="#ED7D31" d="M920.355 128.549c2.783 0 4.645-2.187 4.645-4.887V84.655c0-1.977-.94-3.76-2.379-4.514-1.442-.76-3.097-.34-4.2 1.058l-7.416 9.408c-1.506 1.909-3.945 1.909-5.449 0l-14.331-18.176c-1.504-1.908-3.946-1.908-5.45 0l-14.331 18.176c-1.504 1.908-3.943 1.908-5.449 0l-7.416-9.408c-1.103-1.398-2.761-1.818-4.2-1.058-1.439.754-2.379 2.537-2.379 4.514v39.007c0 2.7 1.869 4.887 4.652 4.887h63.703Z" class="Vector"/>
    </g>
    <g class="round_final">
      <mask id="b" fill="#fff" class="b">
        <path d="M240 143h650v95H240v-95Z"/>
      </mask>
      <path fill="#F6F1EE" d="M240 143h650v95H240v-95Z"/>
      <path fill="#6C5F5B" d="M884 143v95h12v-95h-12Z" mask="url(#b)"/>
    </g>
    <g class="step5">
      <g class="round20">
        <g class="round20B">
          <path fill="#F6F1EE" d="M884.5 238H1279v530H884.5V238Z"/>
          <path fill="#6C5F5B" d="M1279 238h3v-3h-3v3Zm-394.5 3H1279v-6H884.5v6Zm391.5-3v530h6V238h-6Z"/>
        </g>
        <g class="round20A">
          <path fill="#F6F1EE" d="M490 238h394.5v530H490V238Z"/>
          <path fill="#6C5F5B" d="M490 238v-3h-3v3h3Zm0 3h394.5v-6H490v6Zm3 527V238h-6v530h6Z"/>
        </g>
      </g>
    </g>
    <g class="step4">
      <g class="round19">
        <g class="round19B">
          <path fill="#F6F1EE" d="M1279 344h201v424h-201V344Z"/>
          <path fill="#6C5F5B" d="M1480 344h3v-3h-3v3Zm-201 3h201v-6h-201v6Zm198-3v424h6V344h-6Z"/>
        </g>
        <g class="round19A">
          <path fill="#F6F1EE" d="M1078 344h201v424h-201V344Z"/>
          <path fill="#6C5F5B" d="M1078 344v-3h-3v3h3Zm0 3h201v-6h-201v6Zm3 421V344h-6v424h6Z"/>
        </g>
      </g>
      <g class="round18">
        <g class="round18B">
          <path fill="#F6F1EE" d="M490.5 344H683v424H490.5V344Z"/>
          <path fill="#6C5F5B" d="M683 344h3v-3h-3v3Zm-192.5 3H683v-6H490.5v6Zm189.5-3v424h6V344h-6Z"/>
        </g>
        <g class="round18A">
          <path fill="#F6F1EE" d="M298 344h192.5v424H298V344Z"/>
          <path fill="#6C5F5B" d="M298 344v-3h-3v3h3Zm0 3h192.5v-6H298v6Zm3 421V344h-6v424h6Z"/>
        </g>
      </g>
    </g>
    <g class="step3">
      <g class="round17">
        <g class="round17B">
          <path fill="#F6F1EE" d="M1480.5 450H1598v318h-117.5V450Z"/>
          <path fill="#6C5F5B" d="M1598 450h3v-3h-3v3Zm-117.5 3H1598v-6h-117.5v6Zm114.5-3v318h6V450h-6Z"/>
        </g>
        <g class="round17A">
          <path fill="#F6F1EE" d="M1363 450h117.5v318H1363V450Z"/>
          <path fill="#6C5F5B" d="M1363 450v-3h-3v3h3Zm0 3h117.5v-6H1363v6Zm3 315V450h-6v318h6Z"/>
        </g>
      </g>
      <g class="round16">
        <g class="round16B">
          <path fill="#F6F1EE" d="M1078.5 450H1186v318h-107.5V450Z"/>
          <path fill="#6C5F5B" d="M1186 450h3v-3h-3v3Zm-107.5 3H1186v-6h-107.5v6Zm104.5-3v318h6V450h-6Z"/>
        </g>
        <g class="round16A">
          <path fill="#F6F1EE" d="M971 450h107.5v318H971V450Z"/>
          <path fill="#6C5F5B" d="M971 450v-3h-3v3h3Zm0 3h107.5v-6H971v6Zm3 315V450h-6v318h6Z"/>
        </g>
      </g>
      <g class="round15">
        <g class="round15B">
          <path fill="#F6F1EE" d="M683.5 450H795v318H683.5V450Z"/>
          <path fill="#6C5F5B" d="M795 450h3v-3h-3v3Zm-111.5 3H795v-6H683.5v6Zm108.5-3v318h6V450h-6Z"/>
        </g>
        <g class="round15A">
          <path fill="#F6F1EE" d="M572 450h111.5v318H572V450Z"/>
          <path fill="#6C5F5B" d="M572 450v-3h-3v3h3Zm0 3h111.5v-6H572v6Zm3 315V450h-6v318h6Z"/>
        </g>
      </g>
      <g class="round14">
        <g class="round14B">
          <path fill="#F6F1EE" d="M275 450h112v318H275V450Z"/>
          <path fill="#6C5F5B" d="M387 450h3v-3h-3v3Zm-112 3h112v-6H275v6Zm109-3v318h6V450h-6Z"/>
        </g>
        <g class="round14A">
          <path fill="#F6F1EE" d="M163 450h112v318H163V450Z"/>
          <path fill="#6C5F5B" d="M163 450v-3h-3v3h3Zm0 3h112v-6H163v6Zm3 315V450h-6v318h6Z"/>
        </g>
      </g>
    </g>
    <g class="step2">
      <g class="round13">
        <g class="round13B">
          <path fill="#F6F1EE" d="M1598 556h59v212h-59V556Z"/>
          <path fill="#6C5F5B" d="M1657 556h3v-3h-3v3Zm-59 3h59v-6h-59v6Zm56-3v212h6V556h-6Z"/>
        </g>
        <g class="round13A">
          <path fill="#F6F1EE" d="M1539 556h59v212h-59V556Z"/>
          <path fill="#6C5F5B" d="M1539 556v-3h-3v3h3Zm0 3h59v-6h-59v6Zm3 209V556h-6v212h6Z"/>
        </g>
      </g>
      <g class="round12">
        <g class="round12B">
          <path fill="#F6F1EE" d="M1363 556h59v212h-59V556Z"/>
          <path fill="#6C5F5B" d="M1422 556h3v-3h-3v3Zm-59 3h59v-6h-59v6Zm56-3v212h6V556h-6Z"/>
        </g>
        <g class="round12A">
          <path fill="#F6F1EE" d="M1304 556h59v212h-59V556Z"/>
          <path fill="#6C5F5B" d="M1304 556v-3h-3v3h3Zm0 3h59v-6h-59v6Zm3 209V556h-6v212h6Z"/>
        </g>
      </g>
      <g class="round11">
        <g class="round11B">
          <path fill="#F6F1EE" d="M1186 556h39v212h-39V556Z"/>
          <path fill="#6C5F5B" d="M1225 556h3v-3h-3v3Zm-39 3h39v-6h-39v6Zm36-3v212h6V556h-6Z"/>
        </g>
        <g class="round11A">
          <path fill="#F6F1EE" d="M1147 556h39v212h-39V556Z"/>
          <path fill="#6C5F5B" d="M1147 556v-3h-3v3h3Zm0 3h39v-6h-39v6Zm3 209V556h-6v212h6Z"/>
        </g>
      </g>
      <g class="round10">
        <g class="round10B">
          <path fill="#F6F1EE" d="M971 556h59v212h-59V556Z"/>
          <path fill="#6C5F5B" d="M1030 556h3v-3h-3v3Zm-59 3h59v-6h-59v6Zm56-3v212h6V556h-6Z"/>
        </g>
        <g class="round10A">
          <path fill="#F6F1EE" d="M912 556h59v212h-59V556Z"/>
          <path fill="#6C5F5B" d="M912 556v-3h-3v3h3Zm0 3h59v-6h-59v6Zm3 209V556h-6v212h6Z"/>
        </g>
      </g>
      <g class="round9">
        <g class="round9B">
          <path fill="#F6F1EE" d="M795 556h39v212h-39V556Z"/>
          <path fill="#6C5F5B" d="M834 556h3v-3h-3v3Zm-39 3h39v-6h-39v6Zm36-3v212h6V556h-6Z"/>
        </g>
        <g class="round9A">
          <path fill="#F6F1EE" d="M756 556h39v212h-39V556Z"/>
          <path fill="#6C5F5B" d="M756 556v-3h-3v3h3Zm0 3h39v-6h-39v6Zm3 209V556h-6v212h6Z"/>
        </g>
      </g>
      <g class="round8">
        <g class="round8B">
          <path fill="#F6F1EE" d="M571 556h59v212h-59V556Z"/>
          <path fill="#6C5F5B" d="M630 556h3v-3h-3v3Zm-59 3h59v-6h-59v6Zm56-3v212h6V556h-6Z"/>
        </g>
        <g class="round8A">
          <path fill="#F6F1EE" d="M512 556h59v212h-59V556Z"/>
          <path fill="#6C5F5B" d="M512 556v-3h-3v3h3Zm0 3h59v-6h-59v6Zm3 209V556h-6v212h6Z"/>
        </g>
      </g>
      <g class="round7">
        <g class="round7B">
          <path fill="#F6F1EE" d="M387 556h39v212h-39V556Z"/>
          <path fill="#6C5F5B" d="M426 556h3v-3h-3v3Zm-39 3h39v-6h-39v6Zm36-3v212h6V556h-6Z"/>
        </g>
        <g class="round7A">
          <path fill="#F6F1EE" d="M348 556h39v212h-39V556Z"/>
          <path fill="#6C5F5B" d="M348 556v-3h-3v3h3Zm0 3h39v-6h-39v6Zm3 209V556h-6v212h6Z"/>
        </g>
      </g>
      <g class="round6">
        <g class="round6B">
          <path fill="#F6F1EE" d="M163 556h59v212h-59V556Z"/>
          <path fill="#6C5F5B" d="M222 556h3v-3h-3v3Zm-59 3h59v-6h-59v6Zm56-3v212h6V556h-6Z"/>
        </g>
        <g class="round6A">
          <path fill="#F6F1EE" d="M104 556h59v212h-59V556Z"/>
          <path fill="#6C5F5B" d="M104 556v-3h-3v3h3Zm0 3h59v-6h-59v6Zm3 209V556h-6v212h6Z"/>
        </g>
      </g>
    </g>
    <g class="step1">
      <g class="round5">
        <g class="round5B">
          <path fill="#F6F1EE" d="M1657 662h39v106h-39V662Z"/>
          <path fill="#6C5F5B" d="M1696 662h3v-3h-3v3Zm-39 3h39v-6h-39v6Zm36-3v106h6V662h-6Z"/>
        </g>
        <g class="round5A">
          <path fill="#F6F1EE" d="M1618 662h39v106h-39V662Z"/>
          <path fill="#6C5F5B" d="M1618 662v-3h-3v3h3Zm0 3h39v-6h-39v6Zm3 103V662h-6v106h6Z"/>
        </g>
      </g>
      <g class="round4">
        <g class="round4B">
          <path fill="#F6F1EE" d="M1422 662h39v106h-39V662Z"/>
          <path fill="#6C5F5B" d="M1461 662h3v-3h-3v3Zm-39 3h39v-6h-39v6Zm36-3v106h6V662h-6Z"/>
        </g>
        <g class="round4A">
          <path fill="#F6F1EE" d="M1383 662h39v106h-39V662Z"/>
          <path fill="#6C5F5B" d="M1383 662v-3h-3v3h3Zm0 3h39v-6h-39v6Zm3 103V662h-6v106h6Z"/>
        </g>
      </g>
      <g class="round3">
        <g class="round3B">
          <path fill="#F6F1EE" d="M1030 662h39v106h-39V662Z"/>
          <path fill="#6C5F5B" d="M1069 662h3v-3h-3v3Zm-39 3h39v-6h-39v6Zm36-3v106h6V662h-6Z"/>
        </g>
        <g class="round3A">
          <path fill="#F6F1EE" d="M991 662h39v106h-39V662Z"/>
          <path fill="#6C5F5B" d="M991 662v-3h-3v3h3Zm0 3h39v-6h-39v6Zm3 103V662h-6v106h6Z"/>
        </g>
      </g>
      <g class="round2">
        <g class="round2B">
          <path fill="#F6F1EE" d="M630 662h43v106h-43V662Z"/>
          <path fill="#6C5F5B" d="M673 662h3v-3h-3v3Zm-43 3h43v-6h-43v6Zm40-3v106h6V662h-6Z"/>
        </g>
        <g class="round2A">
          <path fill="#F6F1EE" d="M587 662h43v106h-43V662Z"/>
          <path fill="#6C5F5B" d="M587 662v-3h-3v3h3Zm0 3h43v-6h-43v6Zm3 103V662h-6v106h6Z"/>
        </g>
      </g>
      <g class="round1">
        <g class="round1B">
          <path fill="#F6F1EE" d="M219 662h43v106h-43V662Z"/>
          <path fill="#6C5F5B" d="M262 662h3v-3h-3v3Zm-43 3h43v-6h-43v6Zm40-3v106h6V662h-6Z"/>
        </g>
        <g class="round1A">
          <path fill="#F6F1EE" d="M176 662h43v106h-43V662Z"/>
          <path fill="#6C5F5B" d="M176 662v-3h-3v3h3Zm0 3h43v-6h-43v6Zm3 103V662h-6v106h6Z"/>
        </g>
      </g>
    </g>
    <g class="çå">
      <path fill="#ED7D31" d="M920.355 128.549c2.783 0 4.645-2.187 4.645-4.887V84.655c0-1.977-.94-3.76-2.379-4.514-1.442-.76-3.097-.34-4.2 1.058l-7.416 9.408c-1.506 1.909-3.945 1.909-5.449 0l-14.331-18.176c-1.504-1.908-3.946-1.908-5.45 0l-14.331 18.176c-1.504 1.908-3.943 1.908-5.449 0l-7.416-9.408c-1.103-1.398-2.761-1.818-4.2-1.058-1.439.754-2.379 2.537-2.379 4.514v39.007c0 2.7 1.869 4.887 4.652 4.887h63.703Z" class="Vector"/>
    </g>
    <path fill="#000" d="M124.45 100.25c-.4.233-.817.283-1.25.15-.4-.133-.7-.4-.9-.8-.233-.4-.283-.8-.15-1.2.133-.433.4-.767.8-1 2.633-1.367 4.933-3.05 6.9-5.05 1.967-2.033 3.533-4.25 4.7-6.65 1.167-2.433 1.85-4.933 2.05-7.5h-16.3c-.433 0-.817-.15-1.15-.45-.3-.3-.45-.667-.45-1.1 0-.467.15-.85.45-1.15.333-.3.717-.45 1.15-.45h33.45c.467 0 .85.15 1.15.45.3.3.45.683.45 1.15 0 .433-.15.8-.45 1.1-.3.3-.683.45-1.15.45h-14c-.2 2.967-.967 5.85-2.3 8.65-1.3 2.767-3.05 5.317-5.25 7.65-2.2 2.3-4.783 4.217-7.75 5.75Zm1.8-32.4c-.433 0-.817-.15-1.15-.45-.3-.333-.45-.717-.45-1.15 0-.433.15-.8.45-1.1.333-.3.717-.45 1.15-.45h22.1c.467 0 .85.15 1.15.45.3.3.45.667.45 1.1 0 .433-.15.817-.45 1.15-.3.3-.683.45-1.15.45h-22.1Zm43.7 24.3c-.433 0-.817-.15-1.15-.45-.3-.333-.45-.717-.45-1.15 0-.467.15-.85.45-1.15.333-.3.717-.45 1.15-.45h34.45c.433 0 .8.15 1.1.45.333.3.5.683.5 1.15 0 .433-.167.817-.5 1.15-.3.3-.667.45-1.1.45h-34.45Zm6.1-18.15c-.433 0-.817-.167-1.15-.5-.3-.333-.45-.717-.45-1.15 0-.433.15-.8.45-1.1.333-.333.717-.5 1.15-.5h22.25c.467 0 .85.167 1.15.5.333.3.5.667.5 1.1 0 .433-.167.817-.5 1.15-.3.333-.683.5-1.15.5h-22.25Zm44.3 23.9c-.4.2-.817.233-1.25.1-.4-.167-.7-.45-.9-.85-.2-.4-.233-.8-.1-1.2.167-.433.45-.75.85-.95 3.3-1.6 6.4-3.467 9.3-5.6 2.933-2.167 5.567-4.517 7.9-7.05 2.367-2.567 4.333-5.233 5.9-8 .9-1.567 1.033-2.8.4-3.7-.6-.9-1.933-1.35-4-1.35h-14.3c-.433 0-.817-.15-1.15-.45-.333-.333-.5-.717-.5-1.15 0-.467.167-.85.5-1.15.333-.3.717-.45 1.15-.45h14.3c2.433 0 4.3.433 5.6 1.3 1.3.867 2.017 2.05 2.15 3.55.133 1.467-.333 3.133-1.4 5a39.195 39.195 0 0 1-3.75 5.5c1.233.967 2.5 2.05 3.8 3.25a100.226 100.226 0 0 1 3.9 3.6c1.3 1.233 2.5 2.4 3.6 3.5s2.033 2.067 2.8 2.9c.333.333.5.733.5 1.2 0 .433-.167.8-.5 1.1-.333.3-.717.45-1.15.45-.433 0-.817-.167-1.15-.5l-2.8-2.8a114.615 114.615 0 0 0-3.5-3.55 128.318 128.318 0 0 0-3.8-3.65 58.281 58.281 0 0 0-3.65-3.2c-2.533 2.8-5.417 5.433-8.65 7.9a57 57 0 0 1-10.1 6.25Z" class="ããã¹"/>
    <g class="class">
      <path fill="#000" d="M1684.88 818.396c-1.51 0-2.82-.384-3.92-1.152a7.416 7.416 0 0 1-2.45-3.096c-.19-.36-.23-.672-.11-.936.12-.264.34-.444.65-.54.34-.12.61-.12.83 0 .22.12.42.348.61.684.36.888.91 1.62 1.66 2.196.77.552 1.67.828 2.7.828 1.7 0 3.02-.444 3.96-1.332.93-.888 1.4-2.196 1.4-3.924 0-1.632-.54-2.94-1.62-3.924-1.05-.984-2.41-1.476-4.07-1.476-.72 0-1.08-.336-1.08-1.008 0-.672.36-1.008 1.08-1.008 1.59 0 2.82-.444 3.71-1.332.89-.888 1.33-2.052 1.33-3.492 0-1.056-.22-1.908-.68-2.556a3.666 3.666 0 0 0-1.73-1.404 5.734 5.734 0 0 0-2.3-.468c-.96 0-1.79.288-2.49.864a5.717 5.717 0 0 0-1.58 2.088c-.22.312-.43.528-.65.648-.21.096-.49.072-.83-.072-.31-.12-.51-.312-.61-.576-.09-.264-.05-.564.15-.9.67-1.368 1.54-2.4 2.62-3.096 1.08-.696 2.22-1.044 3.42-1.044 2.02 0 3.66.576 4.94 1.728 1.27 1.152 1.9 2.736 1.9 4.752 0 1.344-.34 2.532-1.04 3.564a6.083 6.083 0 0 1-2.81 2.268c1.32.456 2.4 1.26 3.24 2.412.84 1.152 1.26 2.508 1.26 4.068 0 1.368-.27 2.604-.83 3.708-.52 1.08-1.34 1.944-2.44 2.592-1.11.624-2.51.936-4.22.936Zm22.77.072c-2.28 0-4.28-.54-6.01-1.62-1.73-1.08-3.09-2.604-4.07-4.572-.96-1.968-1.44-4.272-1.44-6.912 0-2.64.48-4.932 1.44-6.876.98-1.968 2.34-3.492 4.07-4.572 1.73-1.104 3.73-1.656 6.01-1.656 1.78 0 3.38.348 4.82 1.044 1.47.696 2.72 1.68 3.75 2.952.24.264.31.528.21.792-.07.264-.24.492-.5.684l-.11.036c-.19.12-.43.168-.72.144-.26-.024-.51-.156-.75-.396-1.71-2.04-3.94-3.06-6.7-3.06-1.8 0-3.4.444-4.79 1.332-1.39.864-2.48 2.112-3.27 3.744-.8 1.632-1.19 3.576-1.19 5.832s.39 4.212 1.19 5.868c.79 1.632 1.88 2.892 3.27 3.78 1.39.864 2.99 1.296 4.79 1.296 1.34 0 2.59-.264 3.74-.792a8.834 8.834 0 0 0 2.96-2.268c.5-.504.99-.6 1.47-.288l.11.072c.26.168.43.396.5.684.1.264.04.528-.18.792a10.845 10.845 0 0 1-3.74 2.916c-1.46.696-3.08 1.044-4.86 1.044Z" class="3C"/>
      <path fill="#000" d="M1596.56 818c-.8 0-1.19-.264-1.19-.792 0-1.224.26-2.388.79-3.492.55-1.128 1.28-2.232 2.2-3.312.91-1.104 1.94-2.22 3.09-3.348.87-.864 1.67-1.704 2.41-2.52.77-.84 1.41-1.668 1.91-2.484.51-.84.77-1.68.79-2.52.05-1.632-.34-2.856-1.18-3.672-.82-.816-1.97-1.224-3.46-1.224-1.1 0-2.04.336-2.81 1.008-.77.672-1.23 1.656-1.4 2.952-.15.768-.52 1.152-1.12 1.152-.33 0-.6-.108-.79-.324-.19-.216-.26-.528-.22-.936.24-1.776.93-3.204 2.06-4.284 1.15-1.08 2.58-1.62 4.28-1.62 2.06 0 3.72.612 4.97 1.836 1.25 1.224 1.83 2.94 1.76 5.148-.02 1.104-.31 2.16-.86 3.168-.55.984-1.26 1.944-2.13 2.88-.84.936-1.75 1.896-2.73 2.88a70.1 70.1 0 0 0-2.41 2.52 16.35 16.35 0 0 0-1.95 2.484c-.53.84-.85 1.68-.97 2.52h9.61c.79 0 1.19.324 1.19.972 0 .672-.4 1.008-1.19 1.008h-10.65Zm17.68 0c-.79 0-1.18-.396-1.18-1.188v-22.824c0-.792.39-1.188 1.18-1.188h13.29c.79 0 1.19.348 1.19 1.044 0 .696-.4 1.044-1.19 1.044h-12.28v9.144h11.09c.79 0 1.19.36 1.19 1.08 0 .72-.4 1.08-1.19 1.08h-11.09v9.684h12.71c.79 0 1.19.348 1.19 1.044 0 .72-.4 1.08-1.19 1.08h-13.72Z" class="2E"/>
      <path fill="#000" d="M1525.7 818c-.69 0-1.04-.396-1.04-1.188V795.5l-4.14 2.556c-.67.456-1.2.384-1.58-.216-.36-.576-.21-1.092.46-1.548l5.08-3.168c.43-.264.92-.396 1.48-.396.52 0 .79.396.79 1.188v22.896c0 .792-.35 1.188-1.05 1.188Zm9.5-8.064c-.31 0-.57-.096-.79-.288a1.16 1.16 0 0 1-.29-.792c0-.288.1-.54.29-.756.22-.216.48-.324.79-.324h9.07c.32 0 .57.108.76.324.22.216.32.468.32.756 0 .312-.1.576-.32.792-.19.192-.44.288-.76.288h-9.07Zm24.75 8.064c-.67 0-1.01-.396-1.01-1.188v-5.148h-9.32c-.82 0-1.23-.276-1.23-.828 0-.312.04-.576.11-.792.07-.216.18-.444.32-.684l9.8-15.912c.19-.312.38-.516.57-.612.22-.12.48-.18.79-.18.65 0 .98.396.98 1.188v15.84h2.62c.8 0 1.19.324 1.19.972 0 .672-.33 1.008-1.01 1.008h-2.8v5.148c0 .792-.34 1.188-1.01 1.188Zm-9.15-8.316h8.14V796.4l-8.14 13.284Z" class="1-4"/>
      <path fill="#000" d="M1446.96 818.252c-1.18 0-2.32-.252-3.42-.756a7.84 7.84 0 0 1-2.74-2.196c-.29-.288-.41-.576-.36-.864.05-.288.22-.516.5-.684.51-.312 1.04-.216 1.59.288 1.2 1.416 2.67 2.124 4.43 2.124 1.72 0 3.06-.504 3.99-1.512.96-1.032 1.44-2.472 1.44-4.32 0-1.632-.42-2.976-1.26-4.032-.84-1.08-2.01-1.62-3.53-1.62-.67 0-1.33.168-1.98.504-.62.312-1.1.696-1.44 1.152-.24.216-.45.396-.64.54-.2.144-.46.216-.8.216-.72 0-1.08-.396-1.08-1.188v-11.916c0-.792.41-1.188 1.23-1.188h9.54c.79 0 1.19.336 1.19 1.008 0 .672-.4 1.008-1.19 1.008h-8.61v9.396a5.309 5.309 0 0 1 1.73-1.08c.7-.288 1.39-.432 2.09-.432 1.32 0 2.5.312 3.53.936 1.03.6 1.83 1.476 2.41 2.628.6 1.128.9 2.484.9 4.068 0 2.544-.7 4.5-2.09 5.868-1.39 1.368-3.2 2.052-5.43 2.052Zm10.82-.252c-.38 0-.64-.108-.79-.324-.12-.216-.11-.516.04-.9l9.29-23.148c.16-.552.56-.828 1.18-.828h.18c.63 0 1.02.276 1.19.828l9.33 23.148c.26.816.01 1.224-.76 1.224h-.36c-.58 0-.97-.276-1.19-.828l-2.66-6.768h-11.27l-2.7 6.768c-.19.552-.59.828-1.19.828h-.29Zm4.94-9.72h9.72l-4.83-12.348-4.89 12.348Z" class="5A"/>
      <path fill="#000" d="M1382.73 820.916c-.31 0-.59-.096-.83-.288a1.22 1.22 0 0 1-.4-.756c-.02-.312.06-.588.26-.828.19-.216.46-.336.82-.36 1.06-.048 1.86-.144 2.42-.288.55-.144.92-.384 1.11-.72.22-.336.33-.816.33-1.44v-4.428h-21.06a.97.97 0 0 1-.72-.288c-.2-.216-.29-.468-.29-.756s.09-.528.29-.72a.918.918 0 0 1 .72-.324h21.06v-2.124h-9.94c-1.7 0-3.04-.168-4-.504-.96-.36-1.63-.948-2.01-1.764-.39-.84-.58-1.992-.58-3.456v-.792c0-1.44.19-2.568.58-3.384.38-.84 1.05-1.428 2.01-1.764.96-.36 2.3-.54 4-.54h3.56v-2.16h-14.11a.97.97 0 0 1-.72-.288 1.131 1.131 0 0 1-.25-.72c0-.264.08-.492.25-.684a.918.918 0 0 1 .72-.324h14.11v-2.556c0-.336.11-.612.33-.828.24-.216.51-.324.83-.324.31 0 .57.108.79.324.21.216.32.492.32.828v2.556h13.68c.29 0 .52.108.69.324.19.192.28.42.28.684 0 .264-.09.504-.28.72-.17.192-.4.288-.69.288h-13.68v2.16h3.6c1.71 0 3.03.18 3.96.54.96.336 1.63.924 2.02 1.764.41.816.61 1.944.61 3.384v.792c0 1.728-.28 3.012-.83 3.852-.55.84-1.55 1.392-2.99 1.656v2.34h7.82c.28 0 .52.108.72.324.19.192.28.432.28.72s-.09.54-.28.756c-.2.192-.44.288-.72.288h-7.82v4.644c0 1.056-.18 1.908-.54 2.556-.36.672-.97 1.152-1.83 1.44-.87.312-2.07.468-3.6.468Zm-.4-15.228h3.64c1.08 0 1.92-.084 2.52-.252.6-.168 1.02-.492 1.26-.972.26-.48.41-1.164.43-2.052h-7.85v3.276Zm-5.9 0h3.63v-3.276h-7.84c.04.888.19 1.572.43 2.052.26.48.69.804 1.29.972.6.168 1.43.252 2.49.252Zm5.9-5.148h7.85c-.02-.888-.17-1.56-.43-2.016-.24-.48-.66-.804-1.26-.972-.6-.168-1.44-.252-2.52-.252h-3.64v3.24Zm-10.08 0h7.81v-3.24h-3.63c-1.06 0-1.89.084-2.49.252-.6.168-1.03.492-1.29.972-.24.456-.37 1.128-.4 2.016Zm5.22 17.568a18.34 18.34 0 0 0-1.15-1.116c-.48-.456-.97-.9-1.48-1.332-.5-.456-.94-.828-1.33-1.116a.979.979 0 0 1-.39-.72c0-.312.09-.588.28-.828.24-.24.52-.372.83-.396.31-.024.59.06.83.252.41.312.86.684 1.37 1.116.5.432.99.876 1.47 1.332.51.432.92.804 1.23 1.116.24.24.36.516.36.828.02.312-.1.6-.36.864a1.21 1.21 0 0 1-.83.324c-.31.024-.59-.084-.83-.324Z" class="å°"/>
      <path fill="#000" d="M1298.24 818c-.67 0-1.01-.396-1.01-1.188v-5.148h-9.32c-.82 0-1.23-.276-1.23-.828 0-.312.04-.576.11-.792.07-.216.18-.444.33-.684l9.79-15.912c.19-.312.38-.516.57-.612.22-.12.48-.18.8-.18.64 0 .97.396.97 1.188v15.84h2.63c.79 0 1.18.324 1.18.972 0 .672-.33 1.008-1 1.008h-2.81v5.148c0 .792-.34 1.188-1.01 1.188Zm-9.14-8.316h8.13V796.4l-8.13 13.284Zm27.87 8.784c-2.28 0-4.29-.54-6.02-1.62-1.72-1.08-3.08-2.604-4.06-4.572-.96-1.968-1.44-4.272-1.44-6.912 0-2.64.48-4.932 1.44-6.876.98-1.968 2.34-3.492 4.06-4.572 1.73-1.104 3.74-1.656 6.02-1.656 1.77 0 3.38.348 4.82 1.044 1.46.696 2.71 1.68 3.74 2.952.24.264.32.528.22.792-.07.264-.24.492-.5.684l-.11.036c-.19.12-.43.168-.72.144-.27-.024-.52-.156-.76-.396-1.7-2.04-3.93-3.06-6.69-3.06-1.8 0-3.4.444-4.79 1.332-1.39.864-2.49 2.112-3.28 3.744-.79 1.632-1.19 3.576-1.19 5.832s.4 4.212 1.19 5.868c.79 1.632 1.89 2.892 3.28 3.78 1.39.864 2.99 1.296 4.79 1.296 1.34 0 2.59-.264 3.74-.792a8.796 8.796 0 0 0 2.95-2.268c.51-.504 1-.6 1.48-.288l.11.072c.26.168.43.396.5.684.1.264.04.528-.18.792a10.845 10.845 0 0 1-3.74 2.916c-1.47.696-3.09 1.044-4.86 1.044Z" class="4C"/>
      <path fill="#000" d="M1209.7 818c-.69 0-1.04-.396-1.04-1.188V795.5l-4.14 2.556c-.67.456-1.2.384-1.58-.216-.36-.576-.21-1.092.46-1.548l5.08-3.168c.43-.264.92-.396 1.48-.396.52 0 .79.396.79 1.188v22.896c0 .792-.35 1.188-1.05 1.188Zm9.5-8.064c-.31 0-.57-.096-.79-.288a1.16 1.16 0 0 1-.29-.792c0-.288.1-.54.29-.756.22-.216.48-.324.79-.324h9.07c.32 0 .57.108.76.324.22.216.32.468.32.756 0 .312-.1.576-.32.792-.19.192-.44.288-.76.288h-9.07Zm15.06 8.064c-.79 0-1.18-.264-1.18-.792 0-1.224.26-2.388.79-3.492.55-1.128 1.28-2.232 2.19-3.312a45.51 45.51 0 0 1 3.1-3.348c.86-.864 1.67-1.704 2.41-2.52.77-.84 1.41-1.668 1.91-2.484.5-.84.77-1.68.79-2.52.05-1.632-.35-2.856-1.19-3.672-.81-.816-1.96-1.224-3.45-1.224-1.11 0-2.04.336-2.81 1.008-.77.672-1.24 1.656-1.4 2.952-.15.768-.52 1.152-1.12 1.152-.34 0-.6-.108-.79-.324-.19-.216-.27-.528-.22-.936.24-1.776.93-3.204 2.05-4.284 1.16-1.08 2.58-1.62 4.29-1.62 2.06 0 3.72.612 4.97 1.836 1.24 1.224 1.83 2.94 1.76 5.148-.02 1.104-.31 2.16-.86 3.168-.56.984-1.26 1.944-2.13 2.88-.84.936-1.75 1.896-2.73 2.88-.84.84-1.65 1.68-2.42 2.52-.76.816-1.41 1.644-1.94 2.484-.53.84-.85 1.68-.97 2.52h9.61c.79 0 1.19.324 1.19.972 0 .672-.4 1.008-1.19 1.008h-10.66Z" class="1-2"/>
      <path fill="#000" d="M1136.7 818c-.69 0-1.04-.396-1.04-1.188V795.5l-4.14 2.556c-.67.456-1.2.384-1.58-.216-.36-.576-.21-1.092.46-1.548l5.08-3.168c.43-.264.92-.396 1.48-.396.52 0 .79.396.79 1.188v22.896c0 .792-.35 1.188-1.05 1.188Zm9.5-8.064c-.31 0-.57-.096-.79-.288a1.16 1.16 0 0 1-.29-.792c0-.288.1-.54.29-.756.22-.216.48-.324.79-.324h9.07c.32 0 .57.108.76.324.22.216.32.468.32.756 0 .312-.1.576-.32.792-.19.192-.44.288-.76.288h-9.07Zm20.21 8.064c-.69 0-1.04-.396-1.04-1.188V795.5l-4.14 2.556c-.67.456-1.2.384-1.59-.216-.36-.576-.2-1.092.47-1.548l5.08-3.168c.43-.264.92-.396 1.47-.396.53 0 .8.396.8 1.188v22.896c0 .792-.35 1.188-1.05 1.188Z" class="1-1"/>
      <path fill="#000" d="M1051.56 818c-.8 0-1.19-.264-1.19-.792 0-1.224.26-2.388.79-3.492.55-1.128 1.28-2.232 2.2-3.312.91-1.104 1.94-2.22 3.09-3.348.87-.864 1.67-1.704 2.41-2.52.77-.84 1.41-1.668 1.91-2.484.51-.84.77-1.68.79-2.52.05-1.632-.34-2.856-1.18-3.672-.82-.816-1.97-1.224-3.46-1.224-1.1 0-2.04.336-2.81 1.008-.77.672-1.23 1.656-1.4 2.952-.15.768-.52 1.152-1.12 1.152-.33 0-.6-.108-.79-.324-.19-.216-.26-.528-.22-.936.24-1.776.93-3.204 2.06-4.284 1.15-1.08 2.58-1.62 4.28-1.62 2.06 0 3.72.612 4.97 1.836 1.25 1.224 1.83 2.94 1.76 5.148-.02 1.104-.31 2.16-.86 3.168-.55.984-1.26 1.944-2.13 2.88-.84.936-1.75 1.896-2.73 2.88a70.1 70.1 0 0 0-2.41 2.52 16.35 16.35 0 0 0-1.95 2.484c-.53.84-.85 1.68-.97 2.52h9.61c.79 0 1.19.324 1.19.972 0 .672-.4 1.008-1.19 1.008h-10.65Zm15.42 0c-.39 0-.65-.108-.8-.324-.12-.216-.1-.516.04-.9l9.29-23.148c.17-.552.56-.828 1.19-.828h.18c.62 0 1.02.276 1.18.828l9.33 23.148c.26.816.01 1.224-.76 1.224h-.36c-.57 0-.97-.276-1.19-.828l-2.66-6.768h-11.27l-2.7 6.768c-.19.552-.59.828-1.19.828h-.28Zm4.93-9.72h9.72l-4.83-12.348-4.89 12.348Z" class="2A"/>
      <path fill="#000" d="M974.704 818c-.696 0-1.044-.396-1.044-1.188V795.5l-4.14 2.556c-.672.456-1.2.384-1.584-.216-.36-.576-.204-1.092.468-1.548l5.076-3.168a2.773 2.773 0 0 1 1.476-.396c.528 0 .792.396.792 1.188v22.896c0 .792-.348 1.188-1.044 1.188Zm9.497-8.064a1.15 1.15 0 0 1-.792-.288 1.15 1.15 0 0 1-.288-.792c0-.288.096-.54.288-.756.216-.216.48-.324.792-.324h9.072c.312 0 .564.108.756.324.216.216.324.468.324.756 0 .312-.108.576-.324.792-.192.192-.444.288-.756.288h-9.072Zm20.389 8.46c-1.51 0-2.82-.384-3.92-1.152-1.083-.792-1.899-1.824-2.451-3.096-.192-.36-.228-.672-.108-.936.12-.264.336-.444.648-.54.336-.12.612-.12.828 0 .216.12.423.348.613.684.36.888.91 1.62 1.66 2.196.76.552 1.66.828 2.7.828 1.7 0 3.02-.444 3.96-1.332.93-.888 1.4-2.196 1.4-3.924 0-1.632-.54-2.94-1.62-3.924-1.06-.984-2.41-1.476-4.07-1.476-.72 0-1.08-.336-1.08-1.008 0-.672.36-1.008 1.08-1.008 1.59 0 2.82-.444 3.71-1.332.89-.888 1.33-2.052 1.33-3.492 0-1.056-.23-1.908-.68-2.556a3.666 3.666 0 0 0-1.73-1.404 5.734 5.734 0 0 0-2.3-.468c-.96 0-1.79.288-2.49.864a5.717 5.717 0 0 0-1.58 2.088c-.22.312-.43.528-.651.648-.216.096-.492.072-.828-.072-.312-.12-.516-.312-.612-.576-.096-.264-.048-.564.144-.9.672-1.368 1.547-2.4 2.627-3.096 1.08-.696 2.22-1.044 3.42-1.044 2.02 0 3.66.576 4.93 1.728 1.28 1.152 1.91 2.736 1.91 4.752 0 1.344-.35 2.532-1.04 3.564a6.083 6.083 0 0 1-2.81 2.268c1.32.456 2.4 1.26 3.24 2.412.84 1.152 1.26 2.508 1.26 4.068 0 1.368-.28 2.604-.83 3.708-.53 1.08-1.34 1.944-2.45 2.592-1.1.624-2.5.936-4.21.936Z" class="1-3"/>
      <path fill="#000" d="M895.556 818c-.792 0-1.188-.264-1.188-.792 0-1.224.264-2.388.792-3.492.552-1.128 1.284-2.232 2.196-3.312a43.337 43.337 0 0 1 3.096-3.348 75.775 75.775 0 0 0 2.412-2.52 16.798 16.798 0 0 0 1.908-2.484c.504-.84.768-1.68.792-2.52.048-1.632-.348-2.856-1.188-3.672-.816-.816-1.968-1.224-3.456-1.224-1.104 0-2.04.336-2.808 1.008-.768.672-1.236 1.656-1.404 2.952-.144.768-.516 1.152-1.116 1.152-.336 0-.6-.108-.792-.324-.192-.216-.264-.528-.216-.936.24-1.776.924-3.204 2.052-4.284 1.152-1.08 2.58-1.62 4.284-1.62 2.064 0 3.72.612 4.968 1.836 1.248 1.224 1.836 2.94 1.764 5.148a6.822 6.822 0 0 1-.864 3.168 15.306 15.306 0 0 1-2.124 2.88 73.698 73.698 0 0 1-2.736 2.88 77.98 77.98 0 0 0-2.412 2.52 16.297 16.297 0 0 0-1.944 2.484c-.528.84-.852 1.68-.972 2.52h9.612c.792 0 1.188.324 1.188.972 0 .672-.396 1.008-1.188 1.008h-10.656Zm17.615 0c-.744 0-1.116-.396-1.116-1.188v-22.824c0-.792.432-1.188 1.296-1.188.624 0 1.092.264 1.404.792l8.172 12.204 8.1-12.204c.192-.312.408-.516.648-.612.24-.12.54-.18.9-.18.792 0 1.188.396 1.188 1.188v22.824c0 .792-.372 1.188-1.116 1.188-.768 0-1.152-.396-1.152-1.188v-20.16l-7.488 11.34c-.312.528-.672.792-1.08.792-.432 0-.804-.264-1.116-.792l-7.524-11.34v20.16c0 .792-.372 1.188-1.116 1.188Z" class="2M"/>
      <path fill="#000" d="M821.956 818.252a8.15 8.15 0 0 1-3.42-.756 7.862 7.862 0 0 1-2.736-2.196c-.288-.288-.408-.576-.36-.864.048-.288.216-.516.504-.684.504-.312 1.032-.216 1.584.288 1.2 1.416 2.676 2.124 4.428 2.124 1.728 0 3.06-.504 3.996-1.512.96-1.032 1.44-2.472 1.44-4.32 0-1.632-.42-2.976-1.26-4.032-.84-1.08-2.016-1.62-3.528-1.62-.672 0-1.332.168-1.98.504-.624.312-1.104.696-1.44 1.152a9.6 9.6 0 0 1-.648.54c-.192.144-.456.216-.792.216-.72 0-1.08-.396-1.08-1.188v-11.916c0-.792.408-1.188 1.224-1.188h9.54c.792 0 1.188.336 1.188 1.008 0 .672-.396 1.008-1.188 1.008h-8.604v9.396a5.279 5.279 0 0 1 1.728-1.08 5.424 5.424 0 0 1 2.088-.432c1.32 0 2.496.312 3.528.936 1.032.6 1.836 1.476 2.412 2.628.6 1.128.9 2.484.9 4.068 0 2.544-.696 4.5-2.088 5.868-1.392 1.368-3.204 2.052-5.436 2.052Zm22.096.216c-2.28 0-4.284-.54-6.012-1.62-1.728-1.08-3.084-2.604-4.068-4.572-.96-1.968-1.44-4.272-1.44-6.912 0-2.64.48-4.932 1.44-6.876.984-1.968 2.34-3.492 4.068-4.572 1.728-1.104 3.732-1.656 6.012-1.656 1.776 0 3.384.348 4.824 1.044a10.662 10.662 0 0 1 3.744 2.952c.24.264.312.528.216.792-.072.264-.24.492-.504.684l-.108.036c-.192.12-.432.168-.72.144-.264-.024-.516-.156-.756-.396-1.704-2.04-3.936-3.06-6.696-3.06-1.8 0-3.396.444-4.788 1.332-1.392.864-2.484 2.112-3.276 3.744-.792 1.632-1.188 3.576-1.188 5.832s.396 4.212 1.188 5.868c.792 1.632 1.884 2.892 3.276 3.78 1.392.864 2.988 1.296 4.788 1.296 1.344 0 2.592-.264 3.744-.792a8.844 8.844 0 0 0 2.952-2.268c.504-.504.996-.6 1.476-.288l.108.072c.264.168.432.396.504.684.096.264.036.528-.18.792a10.841 10.841 0 0 1-3.744 2.916c-1.464.696-3.084 1.044-4.86 1.044Z" class="5C"/>
      <path fill="#000" d="M749.24 818c-.672 0-1.008-.396-1.008-1.188v-5.148h-9.324c-.816 0-1.224-.276-1.224-.828 0-.312.036-.576.108-.792.072-.216.18-.444.324-.684l9.792-15.912c.192-.312.384-.516.576-.612.216-.12.48-.18.792-.18.648 0 .972.396.972 1.188v15.84h2.628c.792 0 1.188.324 1.188.972 0 .672-.336 1.008-1.008 1.008h-2.808v5.148c0 .792-.336 1.188-1.008 1.188Zm-9.144-8.316h8.136V796.4l-8.136 13.284ZM756.698 818c-.384 0-.648-.108-.792-.324-.12-.216-.108-.516.036-.9l9.288-23.148c.168-.552.564-.828 1.188-.828h.18c.624 0 1.02.276 1.188.828l9.324 23.148c.264.816.012 1.224-.756 1.224h-.36c-.576 0-.972-.276-1.188-.828l-2.664-6.768h-11.268l-2.7 6.768c-.192.552-.588.828-1.188.828h-.288Zm4.932-9.72h9.72l-4.824-12.348-4.896 12.348Z" class="4A"/>
      <path fill="#000" d="M661.956 818.252a8.15 8.15 0 0 1-3.42-.756 7.862 7.862 0 0 1-2.736-2.196c-.288-.288-.408-.576-.36-.864.048-.288.216-.516.504-.684.504-.312 1.032-.216 1.584.288 1.2 1.416 2.676 2.124 4.428 2.124 1.728 0 3.06-.504 3.996-1.512.96-1.032 1.44-2.472 1.44-4.32 0-1.632-.42-2.976-1.26-4.032-.84-1.08-2.016-1.62-3.528-1.62-.672 0-1.332.168-1.98.504-.624.312-1.104.696-1.44 1.152a9.6 9.6 0 0 1-.648.54c-.192.144-.456.216-.792.216-.72 0-1.08-.396-1.08-1.188v-11.916c0-.792.408-1.188 1.224-1.188h9.54c.792 0 1.188.336 1.188 1.008 0 .672-.396 1.008-1.188 1.008h-8.604v9.396a5.279 5.279 0 0 1 1.728-1.08 5.424 5.424 0 0 1 2.088-.432c1.32 0 2.496.312 3.528.936 1.032.6 1.836 1.476 2.412 2.628.6 1.128.9 2.484.9 4.068 0 2.544-.696 4.5-2.088 5.868-1.392 1.368-3.204 2.052-5.436 2.052Zm13.096-.252c-.792 0-1.188-.396-1.188-1.188v-22.824c0-.792.396-1.188 1.188-1.188h13.284c.792 0 1.188.348 1.188 1.044 0 .696-.396 1.044-1.188 1.044H676.06v9.144h11.088c.792 0 1.188.36 1.188 1.08 0 .72-.396 1.08-1.188 1.08H676.06v9.684h12.708c.792 0 1.188.348 1.188 1.044 0 .72-.396 1.08-1.188 1.08h-13.716Z" class="5E"/>
      <path fill="#000" d="M580.24 818c-.672 0-1.008-.396-1.008-1.188v-5.148h-9.324c-.816 0-1.224-.276-1.224-.828 0-.312.036-.576.108-.792.072-.216.18-.444.324-.684l9.792-15.912c.192-.312.384-.516.576-.612.216-.12.48-.18.792-.18.648 0 .972.396.972 1.188v15.84h2.628c.792 0 1.188.324 1.188.972 0 .672-.336 1.008-1.008 1.008h-2.808v5.148c0 .792-.336 1.188-1.008 1.188Zm-9.144-8.316h8.136V796.4l-8.136 13.284ZM589.894 818c-.744 0-1.116-.396-1.116-1.188v-22.824c0-.792.432-1.188 1.296-1.188.624 0 1.092.264 1.404.792l8.172 12.204 8.1-12.204c.192-.312.408-.516.648-.612.24-.12.54-.18.9-.18.792 0 1.188.396 1.188 1.188v22.824c0 .792-.372 1.188-1.116 1.188-.768 0-1.152-.396-1.152-1.188v-20.16l-7.488 11.34c-.312.528-.672.792-1.08.792-.432 0-.804-.264-1.116-.792l-7.524-11.34v20.16c0 .792-.372 1.188-1.116 1.188Z" class="4M"/>
      <path fill="#000" d="M497.956 818.252a8.15 8.15 0 0 1-3.42-.756 7.862 7.862 0 0 1-2.736-2.196c-.288-.288-.408-.576-.36-.864.048-.288.216-.516.504-.684.504-.312 1.032-.216 1.584.288 1.2 1.416 2.676 2.124 4.428 2.124 1.728 0 3.06-.504 3.996-1.512.96-1.032 1.44-2.472 1.44-4.32 0-1.632-.42-2.976-1.26-4.032-.84-1.08-2.016-1.62-3.528-1.62-.672 0-1.332.168-1.98.504-.624.312-1.104.696-1.44 1.152a9.6 9.6 0 0 1-.648.54c-.192.144-.456.216-.792.216-.72 0-1.08-.396-1.08-1.188v-11.916c0-.792.408-1.188 1.224-1.188h9.54c.792 0 1.188.336 1.188 1.008 0 .672-.396 1.008-1.188 1.008h-8.604v9.396a5.279 5.279 0 0 1 1.728-1.08 5.424 5.424 0 0 1 2.088-.432c1.32 0 2.496.312 3.528.936 1.032.6 1.836 1.476 2.412 2.628.6 1.128.9 2.484.9 4.068 0 2.544-.696 4.5-2.088 5.868-1.392 1.368-3.204 2.052-5.436 2.052ZM510.98 818c-.744 0-1.116-.396-1.116-1.188v-22.824c0-.792.432-1.188 1.296-1.188.624 0 1.092.264 1.404.792l8.172 12.204 8.1-12.204c.192-.312.408-.516.648-.612.24-.12.54-.18.9-.18.792 0 1.188.396 1.188 1.188v22.824c0 .792-.372 1.188-1.116 1.188-.768 0-1.152-.396-1.152-1.188v-20.16l-7.488 11.34c-.312.528-.672.792-1.08.792-.432 0-.804-.264-1.116-.792l-7.524-11.34v20.16c0 .792-.372 1.188-1.116 1.188Z" class="5M"/>
      <path fill="#000" d="M411.884 818.396c-1.512 0-2.82-.384-3.924-1.152-1.08-.792-1.896-1.824-2.448-3.096-.192-.36-.228-.672-.108-.936.12-.264.336-.444.648-.54.336-.12.612-.12.828 0 .216.12.42.348.612.684.36.888.912 1.62 1.656 2.196.768.552 1.668.828 2.7.828 1.704 0 3.024-.444 3.96-1.332.936-.888 1.404-2.196 1.404-3.924 0-1.632-.54-2.94-1.62-3.924-1.056-.984-2.412-1.476-4.068-1.476-.72 0-1.08-.336-1.08-1.008 0-.672.36-1.008 1.08-1.008 1.584 0 2.82-.444 3.708-1.332.888-.888 1.332-2.052 1.332-3.492 0-1.056-.228-1.908-.684-2.556a3.67 3.67 0 0 0-1.728-1.404 5.732 5.732 0 0 0-2.304-.468c-.96 0-1.788.288-2.484.864a5.748 5.748 0 0 0-1.584 2.088c-.216.312-.432.528-.648.648-.216.096-.492.072-.828-.072-.312-.12-.516-.312-.612-.576-.096-.264-.048-.564.144-.9.672-1.368 1.548-2.4 2.628-3.096 1.08-.696 2.22-1.044 3.42-1.044 2.016 0 3.66.576 4.932 1.728 1.272 1.152 1.908 2.736 1.908 4.752 0 1.344-.348 2.532-1.044 3.564a6.078 6.078 0 0 1-2.808 2.268c1.32.456 2.4 1.26 3.24 2.412.84 1.152 1.26 2.508 1.26 4.068 0 1.368-.276 2.604-.828 3.708-.528 1.08-1.344 1.944-2.448 2.592-1.104.624-2.508.936-4.212.936ZM425.65 818c-.792 0-1.188-.396-1.188-1.188v-22.824c0-.792.396-1.188 1.188-1.188h13.284c.792 0 1.188.348 1.188 1.044 0 .696-.396 1.044-1.188 1.044h-12.276v9.144h11.088c.792 0 1.188.36 1.188 1.08 0 .72-.396 1.08-1.188 1.08h-11.088v9.684h12.708c.792 0 1.188.348 1.188 1.044 0 .72-.396 1.08-1.188 1.08H425.65Z" class="3E"/>
      <path fill="#000" d="M328.556 818c-.792 0-1.188-.264-1.188-.792 0-1.224.264-2.388.792-3.492.552-1.128 1.284-2.232 2.196-3.312a43.337 43.337 0 0 1 3.096-3.348 75.775 75.775 0 0 0 2.412-2.52 16.798 16.798 0 0 0 1.908-2.484c.504-.84.768-1.68.792-2.52.048-1.632-.348-2.856-1.188-3.672-.816-.816-1.968-1.224-3.456-1.224-1.104 0-2.04.336-2.808 1.008-.768.672-1.236 1.656-1.404 2.952-.144.768-.516 1.152-1.116 1.152-.336 0-.6-.108-.792-.324-.192-.216-.264-.528-.216-.936.24-1.776.924-3.204 2.052-4.284 1.152-1.08 2.58-1.62 4.284-1.62 2.064 0 3.72.612 4.968 1.836 1.248 1.224 1.836 2.94 1.764 5.148a6.822 6.822 0 0 1-.864 3.168 15.306 15.306 0 0 1-2.124 2.88 73.698 73.698 0 0 1-2.736 2.88 77.98 77.98 0 0 0-2.412 2.52 16.297 16.297 0 0 0-1.944 2.484c-.528.84-.852 1.68-.972 2.52h9.612c.792 0 1.188.324 1.188.972 0 .672-.396 1.008-1.188 1.008h-10.656Zm26.687.468c-2.28 0-4.284-.54-6.012-1.62-1.728-1.08-3.084-2.604-4.068-4.572-.96-1.968-1.44-4.272-1.44-6.912 0-2.64.48-4.932 1.44-6.876.984-1.968 2.34-3.492 4.068-4.572 1.728-1.104 3.732-1.656 6.012-1.656 1.776 0 3.384.348 4.824 1.044a10.662 10.662 0 0 1 3.744 2.952c.24.264.312.528.216.792-.072.264-.24.492-.504.684l-.108.036c-.192.12-.432.168-.72.144-.264-.024-.516-.156-.756-.396-1.704-2.04-3.936-3.06-6.696-3.06-1.8 0-3.396.444-4.788 1.332-1.392.864-2.484 2.112-3.276 3.744-.792 1.632-1.188 3.576-1.188 5.832s.396 4.212 1.188 5.868c.792 1.632 1.884 2.892 3.276 3.78 1.392.864 2.988 1.296 4.788 1.296 1.344 0 2.592-.264 3.744-.792a8.844 8.844 0 0 0 2.952-2.268c.504-.504.996-.6 1.476-.288l.108.072c.264.168.432.396.504.684.096.264.036.528-.18.792a10.841 10.841 0 0 1-3.744 2.916c-1.464.696-3.084 1.044-4.86 1.044Z" class="2C"/>
      <path fill="#000" d="M249.884 818.396c-1.512 0-2.82-.384-3.924-1.152-1.08-.792-1.896-1.824-2.448-3.096-.192-.36-.228-.672-.108-.936.12-.264.336-.444.648-.54.336-.12.612-.12.828 0 .216.12.42.348.612.684.36.888.912 1.62 1.656 2.196.768.552 1.668.828 2.7.828 1.704 0 3.024-.444 3.96-1.332.936-.888 1.404-2.196 1.404-3.924 0-1.632-.54-2.94-1.62-3.924-1.056-.984-2.412-1.476-4.068-1.476-.72 0-1.08-.336-1.08-1.008 0-.672.36-1.008 1.08-1.008 1.584 0 2.82-.444 3.708-1.332.888-.888 1.332-2.052 1.332-3.492 0-1.056-.228-1.908-.684-2.556a3.67 3.67 0 0 0-1.728-1.404 5.732 5.732 0 0 0-2.304-.468c-.96 0-1.788.288-2.484.864a5.748 5.748 0 0 0-1.584 2.088c-.216.312-.432.528-.648.648-.216.096-.492.072-.828-.072-.312-.12-.516-.312-.612-.576-.096-.264-.048-.564.144-.9.672-1.368 1.548-2.4 2.628-3.096 1.08-.696 2.22-1.044 3.42-1.044 2.016 0 3.66.576 4.932 1.728 1.272 1.152 1.908 2.736 1.908 4.752 0 1.344-.348 2.532-1.044 3.564a6.078 6.078 0 0 1-2.808 2.268c1.32.456 2.4 1.26 3.24 2.412.84 1.152 1.26 2.508 1.26 4.068 0 1.368-.276 2.604-.828 3.708-.528 1.08-1.344 1.944-2.448 2.592-1.104.624-2.508.936-4.212.936Zm11.498-.396c-.384 0-.648-.108-.792-.324-.12-.216-.108-.516.035-.9l9.289-23.148c.168-.552.564-.828 1.188-.828h.18c.624 0 1.02.276 1.188.828l9.324 23.148c.264.816.012 1.224-.756 1.224h-.36c-.576 0-.972-.276-1.188-.828l-2.664-6.768h-11.268l-2.7 6.768c-.192.552-.588.828-1.188.828h-.288Zm4.932-9.72h9.72l-4.824-12.348-4.896 12.348Z" class="3A"/>
      <path fill="#000" d="M161.884 818.396c-1.512 0-2.82-.384-3.924-1.152-1.08-.792-1.896-1.824-2.448-3.096-.192-.36-.228-.672-.108-.936.12-.264.336-.444.648-.54.336-.12.612-.12.828 0 .216.12.42.348.612.684.36.888.912 1.62 1.656 2.196.768.552 1.668.828 2.7.828 1.704 0 3.024-.444 3.96-1.332.936-.888 1.404-2.196 1.404-3.924 0-1.632-.54-2.94-1.62-3.924-1.056-.984-2.412-1.476-4.068-1.476-.72 0-1.08-.336-1.08-1.008 0-.672.36-1.008 1.08-1.008 1.584 0 2.82-.444 3.708-1.332.888-.888 1.332-2.052 1.332-3.492 0-1.056-.228-1.908-.684-2.556a3.67 3.67 0 0 0-1.728-1.404 5.732 5.732 0 0 0-2.304-.468c-.96 0-1.788.288-2.484.864a5.748 5.748 0 0 0-1.584 2.088c-.216.312-.432.528-.648.648-.216.096-.492.072-.828-.072-.312-.12-.516-.312-.612-.576-.096-.264-.048-.564.144-.9.672-1.368 1.548-2.4 2.628-3.096 1.08-.696 2.22-1.044 3.42-1.044 2.016 0 3.66.576 4.932 1.728 1.272 1.152 1.908 2.736 1.908 4.752 0 1.344-.348 2.532-1.044 3.564a6.078 6.078 0 0 1-2.808 2.268c1.32.456 2.4 1.26 3.24 2.412.84 1.152 1.26 2.508 1.26 4.068 0 1.368-.276 2.604-.828 3.708-.528 1.08-1.344 1.944-2.448 2.592-1.104.624-2.508.936-4.212.936Zm13.694-.396c-.744 0-1.116-.396-1.116-1.188v-22.824c0-.792.432-1.188 1.296-1.188.624 0 1.092.264 1.404.792l8.172 12.204 8.1-12.204c.192-.312.408-.516.648-.612.24-.12.54-.18.9-.18.792 0 1.188.396 1.188 1.188v22.824c0 .792-.372 1.188-1.116 1.188-.768 0-1.152-.396-1.152-1.188v-20.16l-7.488 11.34c-.312.528-.672.792-1.08.792-.432 0-.804-.264-1.116-.792l-7.524-11.34v20.16c0 .792-.372 1.188-1.116 1.188Z" class="3M"/>
      <path fill="#000" d="M92.24 818c-.672 0-1.008-.396-1.008-1.188v-5.148h-9.324c-.816 0-1.224-.276-1.224-.828 0-.312.036-.576.108-.792.072-.216.18-.444.324-.684l9.792-15.912c.192-.312.384-.516.576-.612.216-.12.48-.18.792-.18.648 0 .972.396.972 1.188v15.84h2.628c.792 0 1.188.324 1.188.972 0 .672-.336 1.008-1.008 1.008h-2.808v5.148c0 .792-.336 1.188-1.008 1.188Zm-9.144-8.316h8.136V796.4l-8.136 13.284Zm18.87 8.316c-.792 0-1.188-.396-1.188-1.188v-22.824c0-.792.396-1.188 1.188-1.188h13.284c.792 0 1.188.348 1.188 1.044 0 .696-.396 1.044-1.188 1.044h-12.276v9.144h11.088c.792 0 1.188.36 1.188 1.08 0 .72-.396 1.08-1.188 1.08h-11.088v9.684h12.708c.792 0 1.188.348 1.188 1.044 0 .72-.396 1.08-1.188 1.08h-13.716Z" class="4E"/>
    </g>
  </g>
</svg>
